<?xml version="1.0" encoding="UTF-8"?>
<!-- Created with Inkscape (http://www.inkscape.org/) -->
<svg width="64" height="64" version="1.1" viewBox="0 0 16.933 16.933" xmlns="http://www.w3.org/2000/svg" xmlns:cc="http://creativecommons.org/ns#" xmlns:dc="http://purl.org/dc/elements/1.1/" xmlns:rdf="http://www.w3.org/1999/02/22-rdf-syntax-ns#">
 <defs>
  <linearGradient id="linearGradient1197" x1="98.983" x2="105.37" y1="73.783" y2="85.196" gradientUnits="userSpaceOnUse">
   <stop stop-color="#aae64b" offset="0"/>
   <stop stop-color="#91b450" offset="1"/>
  </linearGradient>
  <linearGradient id="linearGradient1213" x1="67.49" x2="77.392" y1="103.59" y2="97.918" gradientTransform="translate(195.07,46.371)" gradientUnits="userSpaceOnUse">
   <stop stop-color="#008cff" offset="0"/>
   <stop stop-color="#00c8ff" offset="1"/>
  </linearGradient>
  <linearGradient id="linearGradient1221" x1="90.806" x2="90.806" y1="95.918" y2="83.477" gradientUnits="userSpaceOnUse">
   <stop stop-color="#ffc841" offset="0"/>
   <stop stop-color="#ffbe37" offset="1"/>
  </linearGradient>
 </defs>
 <metadata>
  <rdf:RDF>
   <cc:Work rdf:about="">
    <dc:format>image/svg+xml</dc:format>
    <dc:type rdf:resource="http://purl.org/dc/dcmitype/StillImage"/>
    <dc:title/>
   </cc:Work>
  </rdf:RDF>
 </metadata>
 <circle cx="-330.35" cy="-328.38" r="0" fill="#5e4aa6" stroke-width=".26458"/>
 <g transform="matrix(1.0519 0 0 1.0519 -86.375 -84.877)">
  <rect transform="rotate(6.006)" x="94.376" y="72.81" width="11.155" height="12.698" ry=".74834" fill="url(#linearGradient1197)" style="paint-order:stroke fill markers"/>
  <rect transform="rotate(-9.9896)" x="67.365" y="96.603" width="11.155" height="12.698" ry=".74834" fill="url(#linearGradient1213)" style="paint-order:stroke fill markers"/>
  <rect x="85.054" y="83.348" width="11.155" height="12.698" ry=".74834" fill="url(#linearGradient1221)" style="paint-order:stroke fill markers"/>
  <g transform="matrix(.75972 0 0 1.34 84.198 79.019)" fill="#f08705">
   <path d="m3.9856 6.9374c-0.00585 0.029589-0.00947 0.060448-0.015081 0.09077h8.9931c-0.0053-0.030317-0.0092-0.061202-0.01567-0.09077z" opacity=".6" stroke-width=".60512" style="paint-order:normal"/>
   <path d="m4.1332 4.9655c0.00521 0.030317 0.010173 0.060579 0.015962 0.09077h8.6371c0.0054-0.032616 0.01-0.058576 0.01482-0.09077z" opacity=".6" stroke-width=".59404" style="paint-order:normal"/>
   <path d="m3.9856 8.9093c-0.00585 0.029589-0.00947 0.060448-0.015081 0.09077h8.9931c-0.0053-0.030317-0.0092-0.061202-0.01567-0.09077z" opacity=".6" stroke-width=".60512" style="paint-order:normal"/>
   <path d="m3.9856 10.881c-0.00585 0.02959-0.00947 0.06045-0.015081 0.09077h8.9931c-0.0053-0.03032-0.0092-0.0612-0.01567-0.09077z" opacity=".6" stroke-width=".60512" style="paint-order:normal"/>
  </g>
 </g>
</svg>
