<?xml version="1.0" encoding="UTF-8"?>
<svg width="64" height="64" version="1.1" xmlns="http://www.w3.org/2000/svg" xmlns:cc="http://creativecommons.org/ns#" xmlns:dc="http://purl.org/dc/elements/1.1/" xmlns:rdf="http://www.w3.org/1999/02/22-rdf-syntax-ns#" xmlns:xlink="http://www.w3.org/1999/xlink">
 <metadata>
  <rdf:RDF>
   <cc:Work rdf:about="">
    <dc:format>image/svg+xml</dc:format>
    <dc:type rdf:resource="http://purl.org/dc/dcmitype/StillImage"/>
    <dc:title/>
   </cc:Work>
  </rdf:RDF>
 </metadata>
 <defs>
  <linearGradient id="linearGradient978" x1="1.9643" x2="14.969" y1="14.924" y2="2.3319" gradientTransform="matrix(3.7796 0 0 3.7796 -.0009845 -.00022715)" gradientUnits="userSpaceOnUse">
   <stop stop-color="#007deb" offset="0"/>
   <stop stop-color="#009bf5" offset="1"/>
  </linearGradient>
 </defs>
 <path d="m62 32c0 3.5964-0.63301 7.0448-1.7939 10.24-0.80694 2.2212-1.8686 4.3212-3.1518 6.2636-0.5375 0.81666-1.1155 1.6053-1.729 2.3633-1.964 2.4256-4.2982 4.5378-6.9182 6.2526-0.96494 0.6318-1.9678 1.2098-3.0061 1.7277-4.0321 2.0178-8.5835 3.1529-13.401 3.1529-4.8171 0-9.3685-1.1351-13.401-3.153-1.0384-0.51803-2.0424-1.096-3.0074-1.7277-2.6535-1.7376-5.0155-3.8832-6.9957-6.349-0.61463-0.76408-1.1914-1.56-1.729-2.384-1.249-1.9101-2.2836-3.9712-3.0746-6.1494-1.1607-3.1948-1.7926-6.6415-1.7926-10.237 0-16.569 13.431-30 30-30 8.317 0 15.843 3.3844 21.277 8.8503 1.5661 1.5746 2.9584 3.3233 4.1436 5.214 1.1204 1.7804 2.0571 3.6881 2.7857 5.6947 1.161 3.1959 1.794 6.6442 1.794 10.24z" fill="url(#linearGradient978)" stroke-width=".11719"/>
 <g transform="translate(-.12582 -.098477)" fill="#fafafa" stroke-width="2.4855">
  <path d="m32.126 25.606c3.5803 0 6.493 2.9128 6.493 6.493 0 0.51666 0.41904 0.9357 0.9357 0.9357 0.51666 0 0.9357-0.41904 0.9357-0.9357 0-4.6121-3.7523-8.3644-8.3644-8.3644s-8.3645 3.7523-8.3645 8.3644 3.7523 8.3644 8.3644 8.3644c2.9615 0 5.7304-1.5899 7.2261-4.1494 0.26075-0.44617 0.11041-1.0191-0.33576-1.28-0.44602-0.26044-1.0191-0.11026-1.28 0.33576-1.1615 1.9876-3.3113 3.2222-5.6105 3.2222-3.5803 0-6.493-2.9128-6.493-6.493s2.913-6.493 6.4933-6.493z"/>
  <path d="m48.142 30.86c-0.58637-7.8067-6.9126-14.157-14.715-14.773-4.7166-0.37194-9.3303 1.3242-12.659 4.6534-3.3292 3.3292-5.0253 7.9433-4.6534 12.659 0.61304 7.7736 6.9371 14.098 14.711 14.711 0.4284 0.03384 0.85523 0.05037 1.281 0.05037 4.262 0 8.3516-1.6769 11.378-4.7036 0.36539-0.36555 0.36539-0.958 0-1.3232-0.36539-0.36523-0.95784-0.36554-1.3232-1.54e-4 -2.9415 2.9414-7.0196 4.4399-11.189 4.111-6.8654-0.5413-12.451-6.1267-12.992-12.992-0.32874-4.1693 1.1696-8.2477 4.111-11.189 2.9414-2.9414 7.019-4.4404 11.189-4.111 6.8913 0.54317 12.478 6.1524 12.996 13.047 0.07096 0.94459 0.05006 1.8935-0.06191 2.8205-0.11883 0.98311-0.71394 1.841-1.5919 2.2945-0.79457 0.41062-1.6872 0.40906-2.4494-0.0041-0.45428-0.24671-1.0224-0.07782-1.2685 0.37662-0.2464 0.45428-0.07782 1.0223 0.37662 1.2685 1.3154 0.71316 2.8462 0.72096 4.2002 0.02168 1.4291-0.73827 2.3977-2.1337 2.5908-3.7327 0.12663-1.0478 0.15018-2.1194 0.07018-3.1851z"/>
 </g>
 <g fill="#5e4aa6">
  <circle cx="-1156.1" cy="-1246.6" r="0"/>
  <circle cx="-1156.1" cy="-1246.6" r="0"/>
  <circle cx="-1240.3" cy="-1278.5" r="0"/>
 </g>
</svg>
