<?xml version="1.0" encoding="UTF-8"?>
<svg width="64" height="64" version="1.1" viewBox="0 0 16.933 16.933" xmlns="http://www.w3.org/2000/svg" xmlns:cc="http://creativecommons.org/ns#" xmlns:dc="http://purl.org/dc/elements/1.1/" xmlns:rdf="http://www.w3.org/1999/02/22-rdf-syntax-ns#">
 <metadata>
  <rdf:RDF>
   <cc:Work rdf:about="">
    <dc:format>image/svg+xml</dc:format>
    <dc:type rdf:resource="http://purl.org/dc/dcmitype/StillImage"/>
    <dc:title/>
   </cc:Work>
  </rdf:RDF>
 </metadata>
 <defs>
  <linearGradient id="linearGradient978" x1="1.9643" x2="14.969" y1="14.924" y2="2.3319" gradientTransform="translate(-1.3e-4,-3e-5)" gradientUnits="userSpaceOnUse">
   <stop stop-color="#007deb" offset="0"/>
   <stop stop-color="#009bf5" offset="1"/>
  </linearGradient>
 </defs>
 <g fill="#5e4aa6">
  <circle cx="-297.59" cy="-338.41" r="0" stroke-width=".26458"/>
  <g transform="translate(32.762 -10.031)" stroke-width=".26458">
   <circle cx="-299.02" cy="-338.77" r="0"/>
   <circle cx="-8.1062" cy="-3.9487" r="0" fill-rule="evenodd"/>
   <circle cx="-278.25" cy="-357.69" r="0"/>
   <circle cx="12.663" cy="-22.859" r="0" fill-rule="evenodd"/>
  </g>
  <circle cx="-330.35" cy="-328.38" r="0" stroke-width=".26458"/>
 </g>
 <path d="m16.404 8.4665c0 0.95152-0.16748 1.8639-0.47463 2.7093-0.2135 0.58767-0.49438 1.1433-0.83391 1.6572-0.14221 0.21607-0.29514 0.42473-0.45746 0.62527-0.51964 0.64177-1.1372 1.2006-1.8304 1.6543-0.2553 0.16716-0.52064 0.32009-0.79534 0.45711-1.0668 0.53387-2.271 0.83419-3.5456 0.83419-1.2745 0-2.4787-0.30032-3.5456-0.83421-0.27473-0.13706-0.54038-0.28997-0.79568-0.45711-0.70205-0.45972-1.327-1.0274-1.8509-1.6798-0.16262-0.20216-0.31523-0.41274-0.45745-0.63076-0.33045-0.50538-0.6042-1.0507-0.81348-1.627-0.3071-0.84527-0.47429-1.7572-0.47429-2.7085 0-4.3837 3.5536-7.9373 7.9373-7.9373 2.2005 0 4.1916 0.89545 5.6294 2.3416 0.41435 0.41661 0.78273 0.87927 1.0963 1.3795 0.29644 0.47106 0.54426 0.9758 0.73703 1.5067 0.30717 0.84557 0.47466 1.7579 0.47466 2.7093z" fill="url(#linearGradient978)" stroke-width=".031005"/>
 <circle cx="-330.35" cy="-328.38" r="0" fill="#5e4aa6" stroke-width=".26458"/>
 <circle cx="-352.63" cy="-336.84" r="0" fill="#5e4aa6" stroke-width=".26458"/>
 <path d="m10.64 4.4753a2.92 2.92 0 0 0-1.222 0.252c-0.733 0.323-1.262 1.037-1.574 1.573a0.313 0.313 0 0 0-0.279 0.54 3.085 3.085 0 0 0-0.052 0.123l-1.518 3.333a0.31243 0.31243 0 0 0-0.269 0.564l0.01 4e-3 -0.341 0.751h-0.849a0.313 0.313 0 0 0 0 0.626h1.566a0.314 0.314 0 1 0 0-0.626h-0.03l0.219-0.477a0.322 0.322 0 0 0 0.086 0.013 0.312 0.312 0 0 0 0.17-0.575l1.571-3.453a0.311 0.311 0 0 0 0.414-0.15 0.312 0.312 0 0 0-0.129-0.406c0.268-0.451 0.697-1.02 1.259-1.269 0.603-0.266 1.299-0.263 1.772 0.01 0.348 0.201 0.549 0.521 0.595 0.951 0.088 0.805 0.014 1.344-0.22 1.604a0.58 0.58 0 0 1-0.069 0.064v0.7a1.22 1.22 0 0 0 0.536-0.346c0.362-0.403 0.485-1.087 0.376-2.09-0.068-0.621-0.389-1.128-0.905-1.425a2.316 2.316 0 0 0-1.116-0.292zm0.027 3.07c-0.173 0-1.919 0.144-2.38 2.423l-0.295 1.883c0 0.173 0.14 0.392 0.313 0.392h1.487a1.352 1.352 0 0 1-0.287-0.832 1.361 1.361 0 0 1 1.932-1.233v-2.477c0-0.173 0.017-0.156-0.156-0.156zm0.199 2.818a1.045 1.045 0 1 0-0.343 2.036 1.043 1.043 0 0 0 1.39-0.988 1.04 1.04 0 0 0-0.476-0.876 1.04 1.04 0 0 0-0.571-0.172z" fill="#fff" fill-opacity=".993"/>
</svg>
