<?xml version="1.0" encoding="UTF-8"?>
<svg width="64" height="64" version="1.1" xmlns="http://www.w3.org/2000/svg" xmlns:cc="http://creativecommons.org/ns#" xmlns:dc="http://purl.org/dc/elements/1.1/" xmlns:rdf="http://www.w3.org/1999/02/22-rdf-syntax-ns#">
 <metadata>
  <rdf:RDF>
   <cc:Work rdf:about="">
    <dc:format>image/svg+xml</dc:format>
    <dc:type rdf:resource="http://purl.org/dc/dcmitype/StillImage"/>
    <dc:title/>
   </cc:Work>
  </rdf:RDF>
 </metadata>
 <defs>
  <linearGradient id="linearGradient978" x1="1.9643" x2="14.969" y1="14.924" y2="2.3319" gradientTransform="matrix(3.7796 0 0 3.7796 -.00098303 -.00022711)" gradientUnits="userSpaceOnUse">
   <stop stop-color="#007deb" offset="0"/>
   <stop stop-color="#009bf5" offset="1"/>
  </linearGradient>
 </defs>
 <circle cx="-1248.6" cy="-1241.1" r="0" fill="#5e4aa6"/>
 <path d="m62 32c0 3.5964-0.63301 7.0448-1.7939 10.24-0.80694 2.2212-1.8686 4.3212-3.1518 6.2636-0.5375 0.81666-1.1155 1.6053-1.729 2.3633-1.964 2.4256-4.2982 4.5378-6.9182 6.2526-0.96493 0.6318-1.9678 1.2098-3.0061 1.7277-4.0321 2.0178-8.5835 3.1529-13.401 3.1529-4.8171 0-9.3685-1.1351-13.401-3.153-1.0384-0.51803-2.0424-1.096-3.0074-1.7277-2.6535-1.7376-5.0155-3.8832-6.9957-6.349-0.61464-0.76408-1.1914-1.56-1.729-2.384-1.249-1.9101-2.2836-3.9712-3.0746-6.1494-1.1607-3.1948-1.7926-6.6415-1.7926-10.237 0-16.569 13.431-30 30-30 8.317 0 15.843 3.3844 21.277 8.8503 1.5661 1.5746 2.9584 3.3233 4.1436 5.214 1.1204 1.7804 2.0571 3.6881 2.7857 5.6947 1.161 3.1959 1.794 6.6442 1.794 10.24z" fill="url(#linearGradient978)" stroke-width=".11719"/>
 <circle cx="-1248.6" cy="-1241.1" r="0" fill="#5e4aa6"/>
 <circle cx="-1332.8" cy="-1273.1" r="0" fill="#5e4aa6"/>
 <path d="m36.149 18.784c0 2.167-1.7752 3.9259-3.9625 3.9259-2.1872 0-3.9625-1.7588-3.9625-3.9259 0-2.167 1.7752-3.9259 3.9625-3.9259 2.1872 0 3.9625 1.7588 3.9625 3.9259zm9.8897 4.1744c-0.18328 0.02941-0.35644 0.10103-0.50487 0.20892l-13.535 2.0912-13.462-2.1201c-0.34799-0.25007-0.83728-0.32496-1.2261-0.13929-0.38886 0.18566-0.64377 0.6257-0.64912 1.0445-0.0049 0.41879 0.26511 0.77996 0.64912 0.97483l10.549 3.3156-0.07215 7.6115-3.7223 11.4c-0.35851 0.5191-0.24923 1.1857 0.28851 1.5318 0.53776 0.34611 1.3004 0.24066 1.6589-0.27848l6.0072-12.305 5.8936 12.283c0.31868 0.5384 1.0291 0.72543 1.5868 0.41778 0.55769-0.30764 0.75144-0.99345 0.43276-1.5319l-3.6533-11.449-0.14423-7.1658 10.697-3.871c0.43221-0.2926 0.61996-0.84654 0.43276-1.323-0.18722-0.47648-0.70169-0.75406-1.2262-0.69633h4e-5z" enable-background="new" fill="#fafafa" stroke-width="1.5714"/>
</svg>
