<?xml version="1.0" encoding="UTF-8"?>
<!-- Created with Inkscape (http://www.inkscape.org/) -->
<svg width="64" height="64" version="1.1" viewBox="0 0 16.933 16.933" xmlns="http://www.w3.org/2000/svg" xmlns:cc="http://creativecommons.org/ns#" xmlns:dc="http://purl.org/dc/elements/1.1/" xmlns:rdf="http://www.w3.org/1999/02/22-rdf-syntax-ns#" xmlns:xlink="http://www.w3.org/1999/xlink">
 <defs>
  <linearGradient id="linearGradient1077" x1="29.479" x2="30.074" y1="14.924" y2="10.047" gradientUnits="userSpaceOnUse">
   <stop stop-color="#5c5984" offset="0"/>
   <stop stop-color="#1e1955" offset="1"/>
  </linearGradient>
  <filter id="filter1112" x="-.057555" y="-.15541" width="1.1151" height="1.3108" color-interpolation-filters="sRGB">
   <feGaussianBlur stdDeviation="0.30467766"/>
  </filter>
  <filter id="filter1118" x="-.056922" y="-.16021" width="1.1138" height="1.3204" color-interpolation-filters="sRGB">
   <feGaussianBlur stdDeviation="0.23633495"/>
  </filter>
  <filter id="filter1131" x="-.084" y="-.084" width="1.168" height="1.168" color-interpolation-filters="sRGB">
   <feGaussianBlur stdDeviation="0.039960775"/>
  </filter>
 </defs>
 <metadata>
  <rdf:RDF>
   <cc:Work rdf:about="">
    <dc:format>image/svg+xml</dc:format>
    <dc:type rdf:resource="http://purl.org/dc/dcmitype/StillImage"/>
    <dc:title/>
   </cc:Work>
  </rdf:RDF>
 </metadata>
 <circle cx="-330.35" cy="-328.38" r="0" fill="#5e4aa6" stroke-width=".26458"/>
 <g transform="matrix(1.0921 0 0 1.0921 -25.348 -2.1333)">
  <rect x="23.76" y="3.8371" width="14.359" height="11.74" ry=".70537" fill="#e6e6e6" style="paint-order:stroke fill markers"/>
  <rect x="24.587" y="4.513" width="12.705" height="10.388" ry="0" fill="url(#linearGradient1077)" style="paint-order:stroke fill markers"/>
  <path transform="matrix(.98699 0 0 .98543 .40263 -.33165)" d="m25.689 10.196c-0.44575-0.0061-0.83034 0.13866-1.1028 0.2837v4.4213h12.705v-2.6401c-0.43706-0.0063-0.88727 0.46301-0.88727 0.46301-3.4611-2.0579-5.8698-0.97046-5.8698-0.97046-0.83019-0.76003-1.4144-0.34312-1.4144-0.34312-0.57876-0.57876-1.6702-0.29765-1.6702-0.29765-0.6139-0.68832-1.2301-0.90946-1.7606-0.91672z" fill="#fafafa" filter="url(#filter1112)" opacity=".2"/>
  <path d="m25.689 10.196c-0.44575-0.0061-0.83034 0.13866-1.1028 0.2837v4.4213h12.705v-2.6401c-0.43706-0.0063-0.88727 0.46301-0.88727 0.46301-3.4611-2.0579-5.8698-0.97046-5.8698-0.97046-0.83019-0.76003-1.4144-0.34312-1.4144-0.34312-0.57876-0.57876-1.6702-0.29765-1.6702-0.29765-0.6139-0.68832-1.2301-0.90946-1.7606-0.91672z" fill="#141446"/>
  <path d="m34.688 12.791c-0.82513-0.01789-2.8966 1.5823-3.5584 2.1094h6.1623v-0.10697c-0.89378-0.79048-2.0039-1.7422-2.4355-1.9647-0.04677-0.02412-0.10329-0.03631-0.16846-0.03772z" fill="#070618"/>
  <path transform="matrix(.97767 0 0 .92391 .51997 .71848)" d="m24.587 11.36v3.5403h9.9646c-3.9154-2.9122-8.8545-3.4535-9.9646-3.5403z" fill="#fafafa" filter="url(#filter1118)" opacity=".2"/>
  <path d="m24.587 11.36v3.5403h9.9646c-3.9154-2.9122-8.8545-3.4535-9.9646-3.5403z" fill="#05000c"/>
  <path d="m36.376 12.836c-1.0799-0.02333-2.2024 1.4401-2.6329 2.0644h3.5486v-1.757c-0.21346-0.11399-0.42964-0.20898-0.64388-0.2682-0.08989-0.02485-0.18065-0.0373-0.27181-0.03927z" fill="#070618"/>
  <g transform="translate(-16.073 .033072)" fill="#fafafa">
   <path transform="matrix(.7266 -.80341 .7266 .80341 -1.0588 -2.3383)" d="m26.779 39.166c0.46037 0.04433 1.021 0.1028 1.4119 0.14324-0.40697 0.05608-0.98063 0.14324-1.4119 0.14324-0.07935 0-0.14324-0.06388-0.14324-0.14324 0-0.07935 0.06388-0.14324 0.14324-0.14324z" filter="url(#filter1131)" opacity=".7" style="paint-order:stroke fill markers"/>
   <path transform="matrix(.57017 -.63044 .57017 .63044 10.298 -.55345)" d="m26.779 39.166c0.46037 0.04433 1.021 0.1028 1.4119 0.14324-0.40697 0.05608-0.98063 0.14324-1.4119 0.14324-0.07935 0-0.14324-0.06388-0.14324-0.14324 0-0.07935 0.06388-0.14324 0.14324-0.14324z" filter="url(#filter1131)" opacity=".5" style="paint-order:stroke fill markers"/>
   <path transform="matrix(.49369 -.54587 .49369 .54587 9.1011 -.17997)" d="m26.779 39.166c0.46037 0.04433 1.021 0.1028 1.4119 0.14324-0.40697 0.05608-0.98063 0.14324-1.4119 0.14324-0.07935 0-0.14324-0.06388-0.14324-0.14324 0-0.07935 0.06388-0.14324 0.14324-0.14324z" filter="url(#filter1131)" opacity=".2" style="paint-order:stroke fill markers"/>
   <path transform="matrix(.49369 -.54587 .49369 .54587 19.42 -1.4367)" d="m26.779 39.166c0.46037 0.04433 1.021 0.1028 1.4119 0.14324-0.40697 0.05608-0.98063 0.14324-1.4119 0.14324-0.07935 0-0.14324-0.06388-0.14324-0.14324 0-0.07935 0.06388-0.14324 0.14324-0.14324z" filter="url(#filter1131)" opacity=".2" style="paint-order:stroke fill markers"/>
   <path transform="matrix(.49369 -.54587 .49369 .54587 18.725 1.7878)" d="m26.779 39.166c0.46037 0.04433 1.021 0.1028 1.4119 0.14324-0.40697 0.05608-0.98063 0.14324-1.4119 0.14324-0.07935 0-0.14324-0.06388-0.14324-0.14324 0-0.07935 0.06388-0.14324 0.14324-0.14324z" filter="url(#filter1131)" opacity=".2" style="paint-order:stroke fill markers"/>
  </g>
 </g>
</svg>
