<?xml version="1.0" encoding="UTF-8" standalone="no"?>
<svg
   xmlns:dc="http://purl.org/dc/elements/1.1/"
   xmlns:cc="http://creativecommons.org/ns#"
   xmlns:rdf="http://www.w3.org/1999/02/22-rdf-syntax-ns#"
   xmlns:svg="http://www.w3.org/2000/svg"
   xmlns="http://www.w3.org/2000/svg"
   xmlns:xlink="http://www.w3.org/1999/xlink"
   xmlns:sodipodi="http://sodipodi.sourceforge.net/DTD/sodipodi-0.dtd"
   xmlns:inkscape="http://www.inkscape.org/namespaces/inkscape"
   width="64"
   height="64"
   version="1.1"
   viewBox="0 0 64 64"
   id="svg33"
   sodipodi:docname="acetoneiso.svg"
   inkscape:version="1.0.1 (3bc2e813f5, 2020-09-07)">
  <defs
     id="defs37">
    <linearGradient
       id="linearGradient933"
       x1="408.75"
       x2="408.57"
       y1="540.96"
       y2="506.8"
       gradientTransform="matrix(1.1967 0 0 1.1968 -81.459 -102.75)"
       gradientUnits="userSpaceOnUse">
      <stop
         stop-color="#8798a9"
         offset="0"
         id="stop929"
         style="stop-color:#e0e2e3;stop-opacity:1" />
      <stop
         stop-color="#bfc8d1"
         offset="1"
         id="stop931"
         style="stop-color:#e0e2e3;stop-opacity:1" />
    </linearGradient>
  </defs>
  <sodipodi:namedview
     pagecolor="#ffffff"
     bordercolor="#666666"
     borderopacity="1"
     objecttolerance="10"
     gridtolerance="10"
     guidetolerance="10"
     inkscape:pageopacity="0"
     inkscape:pageshadow="2"
     inkscape:window-width="1920"
     inkscape:window-height="932"
     id="namedview35"
     showgrid="false"
     inkscape:zoom="5.9765625"
     inkscape:cx="40.716537"
     inkscape:cy="45.852099"
     inkscape:window-x="0"
     inkscape:window-y="36"
     inkscape:window-maximized="1"
     inkscape:current-layer="svg33"
     inkscape:document-rotation="0" />
  <metadata
     id="metadata2">
    <rdf:RDF>
      <cc:Work
         rdf:about="">
        <dc:format>image/svg+xml</dc:format>
        <dc:type
           rdf:resource="http://purl.org/dc/dcmitype/StillImage" />
        <dc:title></dc:title>
      </cc:Work>
    </rdf:RDF>
  </metadata>
  <linearGradient
     id="a">
    <stop
       stop-color="#8d3aff"
       offset="0"
       id="stop4" />
    <stop
       stop-color="#ff3680"
       offset="1"
       id="stop6" />
  </linearGradient>
  <linearGradient
     id="b"
     x1="389.96"
     x2="410.34"
     y1="509.78"
     y2="509.78"
     gradientTransform="matrix(.91926 -.16589 .15464 .98614 -50.723 75.737)"
     gradientUnits="userSpaceOnUse"
     xlink:href="#a" />
  <linearGradient
     id="c"
     x1="412.34"
     x2="413.21"
     y1="548.16"
     y2="505.35"
     gradientTransform="matrix(1.4711545,0,0,1.475634,-568.4962,-600.91536)"
     gradientUnits="userSpaceOnUse"
     xlink:href="#a" />
  <linearGradient
     id="d"
     x1="408.75"
     x2="408.57"
     y1="540.96"
     y2="506.8"
     gradientTransform="matrix(1.1967 0 0 1.1968 -81.459 -102.75)"
     gradientUnits="userSpaceOnUse">
    <stop
       stop-color="#8798a9"
       offset="0"
       id="stop11" />
    <stop
       stop-color="#bfc8d1"
       offset="1"
       id="stop13" />
  </linearGradient>
  <linearGradient
     id="e"
     x1="409.57"
     x2="409.57"
     y1="540.8"
     y2="506.8"
     gradientTransform="matrix(.41429 0 0 .41426 238.23 307.12)"
     gradientUnits="userSpaceOnUse">
    <stop
       stop-color="#3d434a"
       offset="0"
       id="stop16" />
    <stop
       stop-color="#5f6974"
       offset="1"
       id="stop18" />
  </linearGradient>
  <g
     id="g859"
     transform="translate(-0.34372711,-0.36078107)">
    <path
       id="path1016"
       style="opacity:1;fill:#e0e2e3;fill-opacity:1;stroke:none;stroke-width:0.323099"
       d="M 31.855469,2 A 30,30 0 0 0 2,32 30,30 0 0 0 32,62 30,30 0 0 0 62,32 30,30 0 0 0 32,2 30,30 0 0 0 31.855469,2 Z M 32,25.5 A 6.5,6.5 0 0 1 38.5,32 6.5,6.5 0 0 1 32,38.5 6.5,6.5 0 0 1 25.5,32 6.5,6.5 0 0 1 32,25.5 Z" />
    <path
       id="circle922"
       style="opacity:1;fill:#d1d4d5;fill-opacity:0.854902;stroke-width:0.992612"
       d="M 32,20 A 12,12 0 0 0 20,32 12,12 0 0 0 32,44 12,12 0 0 0 44,32 12,12 0 0 0 32,20 Z m 0,6 a 6,6 0 0 1 6,6 6,6 0 0 1 -6,6 6,6 0 0 1 -6,-6 6,6 0 0 1 6,-6 z" />
    <path
       id="path935"
       style="opacity:0.3;fill:#ffffff;fill-opacity:1;stroke-width:0.992142"
       d="M 18.816406,5.0527344 A 30,30 0 0 0 2.4765625,26.675781 l 23.6191405,4.259766 a 6,6 0 0 1 3.267578,-4.324219 z" />
    <path
       id="path941"
       style="opacity:0.3;fill:#ffffff;fill-opacity:1;stroke-width:0.992142"
       d="M 12.523438,9.1816406 A 30,30 0 0 0 4.1074219,20.955078 L 26.419922,29.791016 A 6,6 0 0 1 28.105469,27.4375 Z" />
    <circle
       style="opacity:1;fill:#ff5722;fill-opacity:1;stroke-width:1.24076"
       id="path916"
       cx="47.687454"
       cy="47.721649"
       r="15" />
    <g
       id="g959"
       transform="translate(27.704103,3.207979)">
      <path
         style="fill:#ffffff;fill-opacity:1;stroke:none;stroke-width:1.02486px;stroke-linecap:butt;stroke-linejoin:miter;stroke-opacity:1"
         d="m 15.902085,39.183248 c 0,0 -2.789929,2.487504 -2.613915,8.298063 0.176013,5.810559 8.009972,9.037887 12.096246,3.396002 4.086275,-5.641885 -2.610289,-15.186881 -4.168737,-15.666019 0,0 1.286234,4.727599 -0.209436,6.48534 -1.49567,1.75774 -5.025473,1.02772 -5.104158,-2.513386 z"
         id="path953" />
      <path
         style="fill:#ff5722;fill-opacity:1;stroke:none;stroke-width:1px;stroke-linecap:butt;stroke-linejoin:miter;stroke-opacity:1"
         d="m 23.585642,43.978363 c 0,0 -1.23166,1.937924 -3.955083,2.247105 -2.723423,0.309182 -2.529232,3.020482 -1.610723,4.209308 0.94854,1.227695 3.3984,1.759455 5.203551,-0.583768 1.805152,-2.343223 0.362255,-5.872645 0.362255,-5.872645 z"
         id="path955"
         sodipodi:nodetypes="csssc" />
    </g>
  </g>
</svg>
