<?xml version="1.0" encoding="UTF-8" standalone="no"?>
<svg
   xmlns:dc="http://purl.org/dc/elements/1.1/"
   xmlns:cc="http://creativecommons.org/ns#"
   xmlns:rdf="http://www.w3.org/1999/02/22-rdf-syntax-ns#"
   xmlns:svg="http://www.w3.org/2000/svg"
   xmlns="http://www.w3.org/2000/svg"
   xmlns:sodipodi="http://sodipodi.sourceforge.net/DTD/sodipodi-0.dtd"
   xmlns:inkscape="http://www.inkscape.org/namespaces/inkscape"
   inkscape:version="1.0 (4035a4fb49, 2020-05-01)"
   sodipodi:docname="activity-journal.svg"
   id="svg59"
   viewBox="0 0 64 64"
   version="1.1"
   height="64"
   width="64">
  <sodipodi:namedview
     inkscape:current-layer="svg59"
     inkscape:window-maximized="1"
     inkscape:window-y="0"
     inkscape:window-x="0"
     inkscape:cy="48.056542"
     inkscape:cx="16.417607"
     inkscape:zoom="6.4921875"
     showgrid="false"
     id="namedview61"
     inkscape:window-height="1000"
     inkscape:window-width="1920"
     inkscape:pageshadow="2"
     inkscape:pageopacity="0"
     guidetolerance="10"
     gridtolerance="10"
     objecttolerance="10"
     borderopacity="1"
     bordercolor="#666666"
     pagecolor="#ffffff" />
  <metadata
     id="metadata2">
    <rdf:RDF>
      <cc:Work
         rdf:about="">
        <dc:format>image/svg+xml</dc:format>
        <dc:type
           rdf:resource="http://purl.org/dc/dcmitype/StillImage" />
        <dc:title></dc:title>
      </cc:Work>
    </rdf:RDF>
  </metadata>
  <defs
     id="defs11">
    <style
       id="style4"
       type="text/css" />
    <linearGradient
       gradientUnits="userSpaceOnUse"
       gradientTransform="matrix(0.99241,0.12302,-0.12302,0.99241,424.5,39.144)"
       y2="60.157"
       y1="60.157"
       x2="-369.54"
       x1="-409.54"
       id="linearGradient1670">
      <stop
         id="stop6"
         offset="0"
         stop-color="#e3e9f2" />
      <stop
         id="stop8"
         offset="1"
         stop-color="#dee6f0" />
    </linearGradient>
    <linearGradient
       id="bg"
       x1="1"
       x2="47"
       gradientTransform="rotate(-90,-15.517551,61.660151)"
       gradientUnits="userSpaceOnUse">
      <stop
         style="stop-color:#e4e4e4"
         offset="0"
         id="stop886" />
      <stop
         style="stop-color:#eee"
         offset="1"
         id="stop888" />
    </linearGradient>
    <path
       id="SVGCleanerId_1"
       d="m12 14h4v2h-4m0-2" />
    <linearGradient
       gradientTransform="matrix(3.779602,0,0,3.779602,-0.85182815,-0.03254271)"
       id="linearGradient1074"
       x1="5.0188"
       x2="12.584"
       y1="18.955"
       y2="4.0867"
       gradientUnits="userSpaceOnUse">
      <stop
         stop-color="#f6a01c"
         offset="0"
         id="stop963" />
      <stop
         stop-color="#ffc740"
         offset="1"
         id="stop965" />
    </linearGradient>
  </defs>
  <path
     d="M 11.867188 2.3613281 C 10.443752 2.3613281 9.2890625 3.5140263 9.2890625 4.9375 L 9.2890625 59.0625 C 9.2890625 60.485936 10.443713 61.638672 11.867188 61.638672 L 54.390625 61.638672 C 55.814061 61.638672 56.96875 60.485974 56.96875 59.0625 L 56.96875 4.9375 C 56.96875 3.5140641 55.814098 2.3613281 54.390625 2.3613281 L 11.867188 2.3613281 z "
     style="fill:#7f5aab;fill-opacity:1;stroke-width:2;stroke-linecap:round"
     id="rect1194" />
  <text
     id="text15"
     y="16.954872"
     x="-0.11209989"><tspan
       id="tspan13"
       y="16.954872"
       x="-0.11209989" /></text>
  <g
     id="g25"
     stroke-width=".26458"
     fill="#5e4aa6"
     transform="matrix(3.7796 0 0 3.7796 .019246 -.0012424)">
    <circle
       id="circle17"
       r="0"
       cy="-328.38"
       cx="-330.35" />
    <circle
       id="circle19"
       fill-rule="evenodd"
       r="0"
       cy="6.44"
       cx="-39.434" />
    <circle
       id="circle21"
       r="0"
       cy="-328.5"
       cx="-330.38" />
    <circle
       id="circle23"
       r="0"
       cy="-344.43"
       cx="-301.7" />
  </g>
  <g
     id="g43"
     stroke-width=".26458"
     image-rendering="optimizeSpeed"
     fill="#5e4aa6"
     transform="matrix(3.7796 0 0 3.7796 -112.84 -73.605)">
    <circle
       id="circle35"
       r="0"
       cy="-328.38"
       cx="-330.35" />
    <circle
       id="circle37"
       r="0"
       cy="-326.25"
       cx="-312.11" />
    <circle
       id="circle39"
       r="0"
       cy="-333.07"
       cx="-306.02" />
    <circle
       id="circle41"
       r="0"
       cy="-326.01"
       cx="-308.84" />
  </g>
  <circle
     id="circle972"
     stroke-width="1.00001"
     fill="#5e4aa6"
     r="0"
     cy="-1241.1782"
     cx="-1249.4434" />
  <g
     id="g982"
     stroke-width="0.26458"
     fill="#5e4aa6"
     transform="matrix(3.779602,0,0,3.779602,84.612532,-16.355132)">
    <circle
       id="circle974"
       r="0"
       cy="-328.38"
       cx="-330.35001" />
    <circle
       id="circle976"
       r="0"
       cy="-326.25"
       cx="-312.10999" />
    <circle
       id="circle978"
       r="0"
       cy="-333.07001"
       cx="-306.01999" />
    <circle
       id="circle980"
       r="0"
       cy="-326.01001"
       cx="-308.84" />
  </g>
  <g
     transform="matrix(1.6662038,0,0,1.6662038,124.3669,-4.8932495)"
     id="g1091">
    <path
       id="path1076"
       style="fill:#ececeb"
       d="m -43.3647,21.583599 c -0.191,-0.266 -0.398,-0.512 -0.605,-0.754 -1.121,-1.316 -2.41,-2.484 -3.82,-3.336 -0.902,-0.539 -1.863,-0.98 -2.863,-1.188 -0.508,-0.109 -1.012,-0.164 -1.527,-0.164 -0.508,0 -1.016,0.055 -1.52,0.164 -1,0.207 -1.961,0.648 -2.863,1.188 -1.41,0.852 -2.691,2.02 -3.816,3.336 -0.207,0.242 -0.414,0.488 -0.605,0.754 -0.25,0.352 -0.25,0.766 0,1.117 0.574,0.801 1.258,1.516 1.953,2.168 1.496,1.406 3.207,2.582 5.098,3.055 0.582,0.148 1.172,0.219 1.762,0.219 0.594,0 1.176,-0.07 1.762,-0.219 1.891,-0.473 3.602,-1.648 5.102,-3.055 0.695,-0.652 1.379,-1.363 1.953,-2.168 0.25,-0.352 0.25,-0.766 0,-1.117" />
    <path
       id="path1078"
       style="fill:#4586f9"
       d="m -47.6777,22.142599 c 0,2.488 -2.02,4.5 -4.5,4.5 -2.484,0 -4.5,-2.01 -4.5,-4.5 0,-2.484 2.02,-4.496 4.5,-4.496 2.484,0 4.5,2.01 4.5,4.496" />
    <path
       id="path1080"
       d="m -49.6777,22.142599 c 0,1.383 -1.121,2.5 -2.5,2.5 -1.379,0 -2.5,-1.117 -2.5,-2.5 0,-1.379 1.121,-2.5 2.5,-2.5 1.379,0 2.5,1.121 2.5,2.5" />
    <path
       id="path1082"
       style="fill:#ffffff"
       d="m -50.1777,21.142599 c 0,0.551 -0.449,1 -1,1 -0.551,0 -1,-0.449 -1,-1 0,-0.551 0.449,-1 1,-1 0.551,0 1,0.449 1,1" />
    <path
       id="path1084"
       style="fill:#e54444"
       d="m -48.6857,17.001599 -8.125,9.637 c 0.371,0.238 0.746,0.453 1.137,0.645 l 8.121,-9.637 c -0.359,-0.254 -0.781,-0.465 -1.133,-0.645" />
  </g>
  <path
     d="M 11.865234 2.3613281 C 10.441798 2.3613281 9.2890625 3.5140263 9.2890625 4.9375 L 9.2890625 59.0625 C 9.2890625 60.485936 10.44176 61.638672 11.865234 61.638672 L 18.308594 61.638672 L 18.308594 2.3613281 L 11.865234 2.3613281 z "
     style="fill:#323232;fill-opacity:1;stroke-width:2;stroke-linecap:round"
     id="rect1200" />
  <path
     d="M 6.7109375 8.4824219 C 6.1772199 8.4824219 5.7441406 8.9155012 5.7441406 9.4492188 C 5.7441406 9.9830497 6.1772199 10.416016 6.7109375 10.416016 L 11.865234 10.416016 C 12.398952 10.416016 12.832031 9.9829363 12.832031 9.4492188 C 12.832031 8.9155012 12.398952 8.4824219 11.865234 8.4824219 L 6.7109375 8.4824219 z M 6.7109375 14.925781 C 6.1772199 14.925781 5.7441406 15.358861 5.7441406 15.892578 C 5.7441406 16.426296 6.1772199 16.859375 6.7109375 16.859375 L 11.865234 16.859375 C 12.398951 16.859375 12.832031 16.426296 12.832031 15.892578 C 12.832031 15.358861 12.398951 14.925781 11.865234 14.925781 L 6.7109375 14.925781 z M 6.7109375 21.369141 C 6.1772199 21.369141 5.7441406 21.802219 5.7441406 22.335938 C 5.7441406 22.869654 6.1772199 23.302734 6.7109375 23.302734 L 11.865234 23.302734 C 12.398951 23.302734 12.832031 22.869654 12.832031 22.335938 C 12.832031 21.802219 12.398951 21.369141 11.865234 21.369141 L 6.7109375 21.369141 z M 6.7109375 27.8125 C 6.1772199 27.8125 5.7441406 28.24558 5.7441406 28.779297 C 5.7441406 29.313015 6.1772199 29.746094 6.7109375 29.746094 L 11.865234 29.746094 C 12.398951 29.746094 12.832031 29.313015 12.832031 28.779297 C 12.832031 28.24558 12.398951 27.8125 11.865234 27.8125 L 6.7109375 27.8125 z M 6.7109375 34.255859 C 6.1772199 34.255859 5.7441406 34.688938 5.7441406 35.222656 C 5.7441406 35.756373 6.1772199 36.1875 6.7109375 36.1875 L 11.865234 36.1875 C 12.398951 36.1875 12.832031 35.756373 12.832031 35.222656 C 12.832031 34.688938 12.398951 34.255859 11.865234 34.255859 L 6.7109375 34.255859 z M 6.7109375 40.699219 C 6.1772199 40.699219 5.7441406 41.130345 5.7441406 41.664062 C 5.7441406 42.197781 6.1772199 42.630859 6.7109375 42.630859 L 11.865234 42.630859 C 12.398951 42.630859 12.832031 42.19778 12.832031 41.664062 C 12.832031 41.130345 12.398951 40.699219 11.865234 40.699219 L 6.7109375 40.699219 z M 6.7109375 47.140625 C 6.1772199 47.140625 5.7441406 47.573704 5.7441406 48.107422 C 5.7441406 48.641139 6.1772199 49.074219 6.7109375 49.074219 L 11.865234 49.074219 C 12.398951 49.074219 12.832031 48.641139 12.832031 48.107422 C 12.832031 47.573591 12.398951 47.140625 11.865234 47.140625 L 6.7109375 47.140625 z M 6.7109375 53.583984 C 6.1772199 53.583984 5.7441406 54.017064 5.7441406 54.550781 C 5.7441406 55.084499 6.1772199 55.517578 6.7109375 55.517578 L 11.865234 55.517578 C 12.398951 55.517578 12.832031 55.084499 12.832031 54.550781 C 12.832031 54.017064 12.398951 53.583984 11.865234 53.583984 L 6.7109375 53.583984 z "
     style="fill:#c8c8c8;fill-opacity:1;stroke-width:2;stroke-linecap:round"
     id="rect1190" />
</svg>
