<?xml version="1.0" encoding="UTF-8"?>
<!-- Created with Inkscape (http://www.inkscape.org/) -->
<svg width="64" height="64" version="1.1" viewBox="0 0 16.933 16.933" xmlns="http://www.w3.org/2000/svg" xmlns:cc="http://creativecommons.org/ns#" xmlns:dc="http://purl.org/dc/elements/1.1/" xmlns:rdf="http://www.w3.org/1999/02/22-rdf-syntax-ns#" xmlns:xlink="http://www.w3.org/1999/xlink">
 <defs>
  <linearGradient id="linearGradient1074" x1="5.0188" x2="12.584" y1="18.955" y2="4.0867" gradientUnits="userSpaceOnUse">
   <stop stop-color="#f6a01c" offset="0"/>
   <stop stop-color="#ffc740" offset="1"/>
  </linearGradient>
 </defs>
 <metadata>
  <rdf:RDF>
   <cc:Work rdf:about="">
    <dc:format>image/svg+xml</dc:format>
    <dc:type rdf:resource="http://purl.org/dc/dcmitype/StillImage"/>
    <dc:title/>
   </cc:Work>
  </rdf:RDF>
 </metadata>
 <circle cx="-330.35" cy="-328.38" r="0" fill="#5e4aa6" stroke-width=".26458"/>
 <g transform="translate(22.612 -4.3186)" fill="#5e4aa6" stroke-width=".26458">
  <circle cx="-330.35" cy="-328.38" r="0"/>
  <circle cx="-312.11" cy="-326.25" r="0"/>
  <circle cx="-306.02" cy="-333.07" r="0"/>
  <circle cx="-308.84" cy="-326.01" r="0"/>
 </g>
 <g stroke-width=".030632">
  <path d="m14.616 16.317h-11.251c-0.37662 0-0.68189-0.30528-0.68189-0.68189v-14.32c0-0.37662 0.30528-0.68189 0.68189-0.68189h11.251c0.37662 0 0.68189 0.30528 0.68189 0.68189v14.32c0 0.37662-0.30528 0.68189-0.68189 0.68189z" fill="url(#linearGradient1074)"/>
  <path d="m5.0696 16.317h-1.7047c-0.37662 0-0.68189-0.30528-0.68189-0.68189v-14.32c0-0.37662 0.30528-0.68189 0.68189-0.68189h1.7047z" fill="#f6a01c"/>
  <path d="m11.906 6.0886h-4.4673c-0.17861 0-0.32344-0.1448-0.32344-0.32344v-2.4216c0-0.17861 0.1448-0.32344 0.32344-0.32344h4.4673c0.17861 0 0.32344 0.1448 0.32344 0.32344v2.4216c0 0.17867-0.1448 0.32347-0.32344 0.32347z" fill="#f9f9f9"/>
 </g>
 <g stroke-width=".030632">
  <path d="m7.8823 4.043c0-0.14121 0.1145-0.25571 0.25571-0.25571h3.0685c0.14121 0 0.25571 0.1145 0.25571 0.25571s-0.1145 0.25571-0.25571 0.25571h-3.0685c-0.14121 0-0.25571-0.11447-0.25571-0.25571zm3.3242 0.76714h-3.0685c-0.14121 0-0.25571 0.1145-0.25571 0.25571s0.1145 0.25571 0.25571 0.25571h3.0685c0.14121 0 0.25571-0.1145 0.25571-0.25571 0-0.14124-0.1145-0.25571-0.25571-0.25571z" fill="#f5a01c"/>
  <path d="m15.468 9.839h-1.0228c-0.09413 0-0.17046-0.076334-0.17046-0.17047v-2.3866c0-0.094131 0.07633-0.17047 0.17046-0.17047h1.0228c0.09413 0 0.17046 0.076334 0.17046 0.17047v2.3866c3.1e-5 0.094131-0.07633 0.17047-0.17046 0.17047z" fill="#ffd76e"/>
  <path d="m1.7453 2.5087c0-0.14121 0.1145-0.25571 0.25571-0.25571h1.3638c0.14121 0 0.25571 0.1145 0.25571 0.25571 0 0.14121-0.1145 0.25571-0.25571 0.25571h-1.3638c-0.14121 0-0.25571-0.11447-0.25571-0.25571zm1.6195 1.449h-1.3638c-0.14121 0-0.25571 0.1145-0.25571 0.25571s0.1145 0.25571 0.25571 0.25571h1.3638c0.14121 0 0.25571-0.1145 0.25571-0.25571s-0.1145-0.25571-0.25571-0.25571zm0 1.7047h-1.3638c-0.14121 0-0.25571 0.1145-0.25571 0.25571s0.1145 0.25571 0.25571 0.25571h1.3638c0.14121 0 0.25571-0.1145 0.25571-0.25571s-0.1145-0.25571-0.25571-0.25571zm0 1.7047h-1.3638c-0.14121 0-0.25571 0.1145-0.25571 0.25571 0 0.14121 0.1145 0.25571 0.25571 0.25571h1.3638c0.14121 0 0.25571-0.1145 0.25571-0.25571 0-0.14121-0.1145-0.25571-0.25571-0.25571zm0 1.7047h-1.3638c-0.14121 0-0.25571 0.1145-0.25571 0.25571s0.1145 0.25571 0.25571 0.25571h1.3638c0.14121 0 0.25571-0.1145 0.25571-0.25571s-0.1145-0.25571-0.25571-0.25571zm0 1.7047h-1.3638c-0.14121 0-0.25571 0.1145-0.25571 0.25571s0.1145 0.25571 0.25571 0.25571h1.3638c0.14121 0 0.25571-0.1145 0.25571-0.25571s-0.1145-0.25571-0.25571-0.25571zm0 1.7047h-1.3638c-0.14121 0-0.25571 0.1145-0.25571 0.25571 0 0.14121 0.1145 0.25571 0.25571 0.25571h1.3638c0.14121 0 0.25571-0.1145 0.25571-0.25571 0-0.14124-0.1145-0.25571-0.25571-0.25571zm0 1.7047h-1.3638c-0.14121 0-0.25571 0.1145-0.25571 0.25571 0 0.14121 0.1145 0.25571 0.25571 0.25571h1.3638c0.14121 0 0.25571-0.1145 0.25571-0.25571 0-0.14121-0.1145-0.25571-0.25571-0.25571z" fill="#ffd76e"/>
 </g>
</svg>
