<?xml version="1.0" encoding="UTF-8" standalone="no"?>
<svg
   xmlns:dc="http://purl.org/dc/elements/1.1/"
   xmlns:cc="http://creativecommons.org/ns#"
   xmlns:rdf="http://www.w3.org/1999/02/22-rdf-syntax-ns#"
   xmlns:svg="http://www.w3.org/2000/svg"
   xmlns="http://www.w3.org/2000/svg"
   xmlns:xlink="http://www.w3.org/1999/xlink"
   xmlns:sodipodi="http://sodipodi.sourceforge.net/DTD/sodipodi-0.dtd"
   xmlns:inkscape="http://www.inkscape.org/namespaces/inkscape"
   inkscape:version="1.0 (4035a4fb49, 2020-05-01)"
   sodipodi:docname="amarok.svg"
   id="svg45"
   version="1.1"
   height="64"
   width="64">
  <sodipodi:namedview
     inkscape:current-layer="svg45"
     inkscape:window-maximized="1"
     inkscape:window-y="36"
     inkscape:window-x="0"
     inkscape:cy="43.80557"
     inkscape:cx="-33.671529"
     inkscape:zoom="4.391796"
     showgrid="false"
     id="namedview47"
     inkscape:window-height="964"
     inkscape:window-width="1920"
     inkscape:pageshadow="2"
     inkscape:pageopacity="0"
     guidetolerance="10"
     gridtolerance="10"
     objecttolerance="10"
     borderopacity="1"
     bordercolor="#666666"
     pagecolor="#ffffff" />
  <metadata
     id="metadata2">
    <rdf:RDF>
      <cc:Work
         rdf:about="">
        <dc:format>image/svg+xml</dc:format>
        <dc:type
           rdf:resource="http://purl.org/dc/dcmitype/StillImage" />
        <dc:title></dc:title>
      </cc:Work>
    </rdf:RDF>
  </metadata>
  <defs
     id="defs19">
    <linearGradient
       gradientUnits="userSpaceOnUse"
       gradientTransform="matrix(1.5049423,0,0,1.5049423,-5.9411966,-6.4698687)"
       y2="10.624"
       y1="39.24"
       x2="24.539"
       x1="25.869"
       id="b">
      <stop
         id="stop4"
         offset="0"
         stop-color="#007deb" />
      <stop
         id="stop6"
         offset="1"
         stop-color="#009bf5" />
    </linearGradient>
    <linearGradient
       gradientUnits="userSpaceOnUse"
       y2="17.991"
       y1="16.621"
       x2="24.839"
       x1="27.04"
       id="d">
      <stop
         id="stop9"
         offset="0"
         stop-color="#fcfcfc" />
      <stop
         id="stop11"
         offset="1"
         stop-color="#c7c7c7" />
    </linearGradient>
    <linearGradient
       gradientUnits="userSpaceOnUse"
       y2="22.495"
       y1="23.644"
       x2="19.574"
       x1="3.783"
       id="g">
      <stop
         id="stop14"
         offset="0"
         stop-color="#2980b9" />
      <stop
         id="stop16"
         offset="1"
         stop-color="#34495e" />
    </linearGradient>
    <linearGradient
       y2="10.624"
       x2="24.539"
       y1="39.24"
       x1="25.869"
       gradientTransform="matrix(1.5049423,0,0,1.5049423,-5.9411966,-6.4698687)"
       gradientUnits="userSpaceOnUse"
       id="linearGradient910"
       xlink:href="#b"
       inkscape:collect="always" />
    <linearGradient
       y2="10.624"
       x2="24.539"
       y1="39.24"
       x1="25.869"
       gradientTransform="matrix(1.5049423,0,0,1.5049423,-5.9411966,-6.4698687)"
       gradientUnits="userSpaceOnUse"
       id="linearGradient938"
       xlink:href="#b"
       inkscape:collect="always" />
  </defs>
  <circle
     r="30"
     cy="32"
     cx="32"
     id="path886"
     style="fill:#3949ab;fill-opacity:1;stroke-width:4.59992;stroke-linecap:round" />
  <circle
     id="circle21"
     fill="#5e4aa6"
     r="0"
     cy="-1241.1"
     cx="-1248.6" />
  <path
     d="M 52.982422 10.560547 C 50.261846 11.064593 44.739931 13.106352 42.943359 13.554688 C 41.081704 14.019709 40.208513 14.439184 37.222656 14.15625 C 33.818515 13.834192 32.288058 13.812304 31.392578 13.837891 C 30.051668 13.719002 29.376953 13.423828 29.376953 13.423828 L 29.494141 14.744141 C 28.603213 15.424369 26.808585 16.415185 23.123047 17.416016 C 20.728748 17.682396 18.733057 16.950046 17.535156 17.615234 C 16.338757 18.280421 12.548489 19.943136 10.619141 20.408203 C 8.6897922 20.873224 7.2607548 21.745761 6.1035156 22.125 C 4.2660027 22.723962 9.7452653 31.503967 12.123047 32.658203 C 12.123047 32.658203 11.300835 33.513646 10.619141 34.228516 C 8.9651824 35.358725 7.6601563 35.433594 7.6601562 35.433594 L 7.7441406 36.339844 C 5.8238027 37.360196 3.9226677 37.835563 3.2890625 37.925781 C 3.2487535 37.931429 2.9593618 38.016971 2.6308594 38.117188 A 30 30 0 0 0 32 62 A 30 30 0 0 0 37.300781 61.527344 C 37.872911 58.381863 38.656532 54.121569 38.808594 52.539062 C 39.461733 51.578916 40.341797 51.568359 40.341797 51.568359 C 40.341797 51.568359 39.21285 48.36865 39.324219 44.517578 C 39.464178 43.604078 39.700965 42.74249 40.001953 41.923828 L 41.140625 41.923828 C 41.140625 41.923828 40.996068 40.354591 41.638672 38.757812 C 43.753077 35.543233 46.640492 33.394255 47.873047 32.449219 C 49.034907 31.556788 54.38737 30.188255 55.517578 29.921875 C 56.647787 29.655495 57.713107 27.856863 57.779297 27.324219 C 57.845487 26.791575 57.447266 25.794922 57.447266 25.794922 L 54.455078 25.132812 L 50.833984 24.724609 C 50.833984 24.724609 55.805808 17.359176 56.701172 16.505859 C 56.921552 16.295956 57.109101 16.072937 57.277344 15.84375 A 30 30 0 0 0 52.982422 10.560547 z "
     style="fill:url(#linearGradient938);fill-rule:evenodd;stroke-width:1.15516"
     id="path25" />
  <g
     transform="matrix(1.5049375,0,0,1.5049375,-5.9411173,-6.4699851)"
     stroke-width="0.76758"
     id="g41"
     style="fill-rule:evenodd">
    <path
       d="m 42.25,12 c 0,0 -0.313,-0.281 -0.656,-0.313 -0.344,-0.031 -1.063,0.094 -1.281,0.063 -0.219,-0.031 -0.969,-0.469 -0.969,-0.469 0,0 1,-0.563 1.344,-0.625 0.344,-0.063 0.938,-0.156 0.938,-0.156 0,0 0.25,0.313 0.438,0.75 0.188,0.438 0.188,0.75 0.188,0.75"
       fill="#2c3e50"
       id="path27" />
    <path
       d="m 40.987,21.23 c -0.675,0.09 -0.805,0.015 -0.805,0.015 0,0 0.156,-0.707 0.325,-0.767 0.169,-0.06 0.662,0.707 0.48,0.752"
       fill="#fcfcfc"
       id="path29" />
    <path
       d="m 41.906,14.969 c 0,0 -2.219,1.063 -3.281,2.719 -1.063,1.656 -1.813,3.344 -1.813,3.344 0,0 0.75,0.156 1.438,0.406 0.688,0.25 1.938,0.313 2.469,0.219 0.531,-0.094 0.688,-0.344 0.156,-0.563 -0.531,-0.219 -1.313,-0.375 -1.344,-0.844 -0.031,-0.469 0.969,-3.188 1.25,-3.625 0.281,-0.438 1.125,-1.656 1.125,-1.656"
       fill="#2c3e50"
       id="path31" />
    <path
       d="m 22.438,20.375 c 0,0 2.749,-0.414 3.796,-1.04 3.414,-2.04 3.298,-3.179 3.298,-3.179 0,0 -3.611,-1.445 -6.108,1.534 -1.045,1.247 -0.986,2.685 -0.986,2.685"
       fill="#34495e"
       id="path33" />
    <path
       d="m 23.467,19.14 c 0,0 2.74,-0.552 3.757,-1.304 1.016,-0.751 1.436,-1.149 1.304,-1.414 -0.133,-0.265 -1.127,-0.663 -2.364,-0.354 -1.237,0.309 -2.121,1.193 -2.364,1.746 -0.243,0.552 -0.486,1.149 -0.331,1.326"
       fill="url(#d)"
       id="path35"
       style="fill:url(#d)" />
    <path
       d="m 38.956,21.676 c 1.01,0.116 1.2,0.019 1.2,0.019 0,0 -0.232,-0.91 -0.484,-0.987 -0.252,-0.077 -0.987,0.91 -0.716,0.968"
       fill="#fcfcfc"
       id="path37" />
    <path
       d="m 12.298,24.795 c 1.01,0.774 3.56,1.23 4.811,1.048 C 20.06,25.412 20.212,25.633 19.5,23.75 18.986,22.391 16,21 14,23 l -1,-1 c 0.593,-0.854 -0.5,-2.844 -1,-3 -0.5,-0.156 -2.859,0.486 -3.078,0.705 -0.219,0.219 2.369,4.317 3.376,5.091"
       fill="url(#g)"
       id="path39"
       style="fill:url(#g)" />
  </g>
  <path
     sodipodi:nodetypes="scccsccccs"
     d="m 53.765625,10.462891 c -0.147294,3.75e-4 -0.302313,0.0084 -0.464844,0.0332 -0.09272,0.01425 -0.217527,0.04577 -0.318359,0.06445 1.627493,1.592374 3.068411,3.364855 4.294922,5.283203 0.55671,-0.758373 0.835937,-1.600882 0.835937,-2.417969 0,-1.064018 -0.783203,-2.496094 -0.783203,-2.496093 0,0 -0.899903,-0.456081 -2.367187,-0.400391 -0.24531,0.009 -0.497134,-0.0243 -0.769532,-0.04687 h -0.0039 c -0.136193,-0.01132 -0.276534,-0.0199 -0.423828,-0.01953 z"
     style="fill:url(#linearGradient910);fill-rule:evenodd;stroke-width:1.15516"
     id="path907" />
</svg>
