<?xml version="1.0" encoding="UTF-8"?>
<svg width="64" height="64" version="1.1" xmlns="http://www.w3.org/2000/svg" xmlns:cc="http://creativecommons.org/ns#" xmlns:dc="http://purl.org/dc/elements/1.1/" xmlns:rdf="http://www.w3.org/1999/02/22-rdf-syntax-ns#">
 <metadata>
  <rdf:RDF>
   <cc:Work rdf:about="">
    <dc:format>image/svg+xml</dc:format>
    <dc:type rdf:resource="http://purl.org/dc/dcmitype/StillImage"/>
    <dc:title/>
   </cc:Work>
  </rdf:RDF>
 </metadata>
 <circle cx="-1248.6" cy="-1241.1" r="0" fill="#5e4aa6"/>
 <path d="m62 32c0 3.5964-0.63301 7.0448-1.7939 10.24-0.80694 2.2212-1.8686 4.3212-3.1518 6.2636-0.5375 0.81666-1.1155 1.6053-1.729 2.3633-1.964 2.4256-4.2982 4.5378-6.9182 6.2526-0.96493 0.6318-1.9678 1.2098-3.0061 1.7277-4.0321 2.0178-8.5835 3.1529-13.401 3.1529-4.8171 0-9.3685-1.1351-13.401-3.153-1.0384-0.51803-2.0424-1.096-3.0074-1.7277-2.6535-1.7376-5.0155-3.8832-6.9957-6.349-0.61464-0.76408-1.1914-1.56-1.729-2.384-1.249-1.9101-2.2836-3.9712-3.0746-6.1494-1.1607-3.1948-1.7926-6.6415-1.7926-10.237 0-16.569 13.431-30 30-30 8.317 0 15.843 3.3844 21.277 8.8503 1.5661 1.5746 2.9584 3.3233 4.1436 5.214 1.1204 1.7804 2.0571 3.6881 2.7857 5.6947 1.161 3.1959 1.794 6.6442 1.794 10.24z" fill="#fafafa" stroke-width=".11719"/>
 <g transform="matrix(3.7795 0 0 3.7807 .00042425 -1058.9)" fill-rule="evenodd" stroke-opacity=".255" stroke-width=".21497">
  <path d="m9.073 287.94c0 0.445 0.011 0.815-0.204 1.21-0.173 0.32-0.448 0.517-0.754 0.517-0.419 0-0.662-0.333-0.662-0.825 0-0.972 0.833-1.149 1.62-1.149v0.247m1.099 2.778a0.22 0.22 0 0 1-0.257 0.028c-0.361-0.314-0.426-0.46-0.626-0.76-0.598 0.638-1.02 0.829-1.796 0.829-0.917 0-1.632-0.592-1.632-1.776 0-0.925 0.48-1.556 1.162-1.864 0.59-0.272 1.417-0.32 2.049-0.395v-0.148c0-0.27 0.02-0.591-0.131-0.825-0.133-0.21-0.388-0.297-0.612-0.297-0.416 0-0.786 0.223-0.876 0.685-0.02 0.103-0.09 0.203-0.19 0.208l-1.057-0.118c-0.089-0.021-0.187-0.096-0.163-0.239 0.245-1.338 1.402-1.743 2.438-1.743 0.53 0 1.223 0.148 1.64 0.568 0.531 0.517 0.48 1.208 0.48 1.96v1.776c0 0.534 0.212 0.768 0.411 1.057 0.07 0.102 0.086 0.226-2e-3 0.303a52.39 52.39 0 0 0-0.836 0.757l-4e-3 -4e-3" fill="#201f1f"/>
  <path d="m11.886 291.69c-0.927 0.7-2.27 1.073-3.428 1.073a6.117 6.117 0 0 1-4.187-1.638c-0.087-0.08-0.01-0.19 0.095-0.127a8.27 8.27 0 0 0 4.19 1.138 8.138 8.138 0 0 0 3.196-0.67c0.157-0.068 0.289 0.105 0.135 0.223" fill="#f90"/>
  <path d="m12.272 291.24c-0.118-0.156-0.784-0.074-1.081-0.037-0.092 0.01-0.106-0.07-0.023-0.129 0.529-0.382 1.4-0.272 1.5-0.143 0.101 0.128-0.026 1.021-0.525 1.447-0.076 0.066-0.148 0.03-0.114-0.056 0.11-0.286 0.362-0.927 0.243-1.082" fill="#f90"/>
 </g>
</svg>
