<?xml version="1.0" encoding="UTF-8" standalone="no"?>
<svg
   xmlns:dc="http://purl.org/dc/elements/1.1/"
   xmlns:cc="http://creativecommons.org/ns#"
   xmlns:rdf="http://www.w3.org/1999/02/22-rdf-syntax-ns#"
   xmlns:svg="http://www.w3.org/2000/svg"
   xmlns="http://www.w3.org/2000/svg"
   xmlns:sodipodi="http://sodipodi.sourceforge.net/DTD/sodipodi-0.dtd"
   xmlns:inkscape="http://www.inkscape.org/namespaces/inkscape"
   width="64"
   height="64"
   version="1.1"
   id="svg34"
   sodipodi:docname="amule.svg"
   inkscape:version="1.0.1 (3bc2e813f5, 2020-09-07)">
  <defs
     id="defs38">
    <filter
       id="c"
       x="-.054049"
       y="-.067423"
       width="1.1081"
       height="1.1348"
       color-interpolation-filters="sRGB">
      <feGaussianBlur
         stdDeviation="1.0109576"
         id="feGaussianBlur865" />
    </filter>
  </defs>
  <sodipodi:namedview
     pagecolor="#ffffff"
     bordercolor="#666666"
     borderopacity="1"
     objecttolerance="10"
     gridtolerance="10"
     guidetolerance="10"
     inkscape:pageopacity="0"
     inkscape:pageshadow="2"
     inkscape:window-width="1920"
     inkscape:window-height="932"
     id="namedview36"
     showgrid="false"
     showguides="true"
     inkscape:guide-bbox="true"
     inkscape:object-paths="true"
     inkscape:zoom="8"
     inkscape:cx="21.629337"
     inkscape:cy="29.322184"
     inkscape:window-x="0"
     inkscape:window-y="36"
     inkscape:window-maximized="1"
     inkscape:current-layer="svg34" />
  <metadata
     id="metadata2">
    <rdf:RDF>
      <cc:Work
         rdf:about="">
        <dc:format>image/svg+xml</dc:format>
        <dc:type
           rdf:resource="http://purl.org/dc/dcmitype/StillImage" />
        <dc:title></dc:title>
      </cc:Work>
    </rdf:RDF>
  </metadata>
  <path
     id="rect993"
     style="opacity:1;fill:#f3f3f3;fill-opacity:1;stroke-width:4.648;stroke-linecap:round"
     d="M 2 32.003906 C 2.0004647 35.597974 2.6326957 39.042702 3.7929688 42.236328 C 4.5839688 44.414527 5.6181875 46.476619 6.8671875 48.386719 C 7.4047875 49.210719 7.9810631 50.005451 8.5957031 50.769531 C 10.575903 53.235331 12.938297 55.381541 15.591797 57.119141 C 16.556797 57.750841 17.561209 58.329626 18.599609 58.847656 C 22.632109 60.865556 27.1829 62 32 62 C 36.8175 62 41.368291 60.865456 45.400391 58.847656 C 46.438691 58.329756 47.443273 57.750941 48.408203 57.119141 C 51.028203 55.404341 53.362172 53.292787 55.326172 50.867188 C 55.939672 50.109186 56.517187 49.320566 57.054688 48.503906 C 58.337887 46.561505 59.400091 44.461434 60.207031 42.240234 C 61.367494 39.04621 61.999535 35.598876 62 32.003906 L 2 32.003906 z " />
  <path
     id="path934"
     style="fill:#ececec;fill-opacity:1"
     d="M 2 32.003906 L 62 32.003906 C 62 32.002583 62 32.001323 62 32 L 62 31.998047 C 62 28.402247 61.368031 24.955666 60.207031 21.759766 C 59.478431 19.753166 58.540322 17.844853 57.419922 16.064453 C 56.234722 14.173753 54.843444 12.424209 53.277344 10.849609 C 47.843344 5.3837093 40.317 2 32 2 C 15.431 2 2 15.431001 2 32 C 2 32.001323 1.9999998 32.002584 2 32.003906 z " />
  <g
     id="g927"
     transform="translate(0,1.762865)">
    <g
       stroke-width="0.95658"
       id="g18">
      <circle
         cx="40.269001"
         cy="52.431"
         r="3.4140999"
         fill="#f33434"
         id="circle8" />
      <path
         d="m 39.943,4.6292 c -0.50466,-0.00661 -1.329,1.0896 -1.9844,2.0705 -1.494,2.236 -3.0579,4.6823 -4.5856,7.763 -1.5194,3.0637 -1.6585,2.9194 -1.4773,9.3431 1.1352,0.06294 3.5398,0.66051 4.5995,1.1911 0.1546,-0.26656 0.30614,-0.70487 0.44898,-0.99149 2.2421,-4.5003 2.7241,-11.353 3.3641,-16.789 0.22491,-1.9104 0.02728,-2.5817 -0.36524,-2.5869 z m -24.96,8.5088 c -1.667,0.10656 1.8459,6.3946 2.88,7.9933 0.93796,1.45 3.2668,3.9217 5.1296,5.9216 0.39917,0.42852 0.75553,0.80024 1.0933,1.1516 0,0 0.21747,0.29982 0.35955,0.17129 0.80335,-0.72677 3.4148,-3.5482 4.4112,-3.932 L 28.7246,24.23576 c -2.7337,-4.064 -7.215,-7.6157 -12.688,-10.732 -0.4719,-0.26874 -0.81569,-0.38046 -1.0538,-0.36524 z"
         fill="#965f2e"
         id="path10" />
      <path
         d="m 31.316,23.408 c -3.7618,0.35011 -6.2495,2.3485 -7.7208,5.1848 -0.22883,0.70841 -0.35264,1.4947 -0.35264,2.3546 0,2.9745 0.92952,5.2723 0.66325,8.2943 -0.36083,4.0956 -3.4339,6.5683 -2.0692,10.27 0.02832,0.09053 0.03686,0.17324 0.07006,0.26547 0.28177,0.78261 0.84223,1.5934 1.6301,2.4978 0.12757,0.14643 0.27924,0.27388 0.43438,0.39936 0.61909,0.51121 1.4361,0.86513 2.3774,1.0942 0.64372,0.15665 1.3418,0.25943 2.0621,0.32088 0.24526,0.02088 0.49319,0.03622 0.74265,0.04846 l 0.21252,-0.02773 c 2.5281,0.09874 5.177,-0.18441 6.7259,-0.26778 0.36998,-0.01991 0.74136,-0.06082 1.1116,-0.12003 1.1438,-0.18299 2.2733,-0.54922 3.3139,-1.0619 h 0.007 c 0.05036,-0.02537 0.09488,-0.05924 0.14479,-0.08541 0.39648,-0.20283 0.78522,-0.41849 1.149,-0.66252 1.1643,-0.78091 2.1387,-1.7622 2.7744,-2.881 0.54256,-0.95461 0.83575,-2.0092 0.79403,-3.1233 -0.01378,-1.1538 -0.3679,-2.372 -1.1724,-3.6127 -2.6209,-4.0419 -5.4643,-9.0039 -5.612,-14.407 -0.07938,-0.78717 -0.35859,-1.4734 -0.78936,-2.0591 -1.4796,-1.8142 -4.4334,-2.4119 -6.497,-2.4215 z"
         fill="#c47831"
         id="path12" />
      <path
         d="m 36.78,38.78 c 1.36,0 2.6173,-0.02873 3.5564,0.29863 1.0135,0.35324 1.656,1.1214 1.656,2.7882 0,1.5244 -2.3716,3.76 -3.0768,5.8501 0.23729,1.7954 0.8146,3.5733 1.6091,4.9441 0.45003,-0.22221 0.883,-0.47201 1.2923,-0.74676 1.1637,-0.78091 2.1371,-1.7627 2.7725,-2.8814 1.0719,-1.887 1.1822,-4.1635 -0.378,-6.522 -3.7815,-7.3668 -18.701,-2.0958 -21.537,1.0191 -0.14636,0.98989 -1.8786,3.1385 -0.75896,6.2497 0.28162,0.7826 0.84174,1.592 1.6292,2.4964 0.63646,0.7309 1.6345,1.192 2.8109,1.4726 0.64337,0.15348 1.34,0.25295 2.06,0.31315 0.24512,0.02045 0.49286,0.03639 0.74219,0.04839 -0.0016,-1.1504 0.08127,-2.2966 0.05646,-3.3913 -0.0021,-0.09515 -0.0052,-0.18995 -0.009,-0.2843 -0.24745,-2.5122 -4.8668,-2.9949 -4.8668,-6.5257 0,-0.73216 0.24232,-1.363 0.66361,-1.9058 2.0938,-2.6976 8.6084,-3.223 11.777,-3.223 z"
         fill="#837f7a"
         id="path14" />
      <path
         d="m 36.78,38.78 c -3.169,0 -9.6836,0.52545 -11.777,3.223 1.4088,1.8151 2.5158,3.4874 3.5161,5.42 0.47551,0.91861 0.64234,1.9377 0.68704,3.0115 0.009,0.09201 0.01205,0.18661 0.009,0.2843 0.02481,1.0946 -0.05814,2.2409 -0.05644,3.3913 2.5894,0.12438 5.3429,-0.18022 6.9342,-0.26592 0.36978,-0.01991 0.74106,-0.06011 1.1111,-0.11932 1.1456,-0.1834 2.2791,-0.5496 3.3209,-1.064 -0.79454,-1.3708 -1.3719,-3.1486 -1.6091,-4.9441 -0.07819,-0.59141 -0.11945,-1.1846 -0.11945,-1.7659 0,-1.8192 0.68209,-5.0148 1.5402,-6.8723 -0.93907,-0.32728 -2.1964,-0.29854 -3.5564,-0.29854 z"
         fill="#d7d6d6"
         id="path16" />
    </g>
    <g
       stroke-width="0.95658"
       id="g32">
      <path
         d="m 28.519,47.422 c -1.0005,-1.9325 -2.1074,-3.6048 -3.5161,-5.42 -0.42129,0.54284 -0.66361,1.1737 -0.66361,1.9058 0,3.5308 4.6194,4.0134 4.8668,6.5257 -0.04469,-1.0737 -0.21153,-2.0928 -0.68704,-3.0115 z"
         fill="#3f3f3f"
         id="path20" />
      <path
         d="m 40.337,39.077 c -0.85817,1.8575 -1.5402,5.0532 -1.5402,6.8723 0,0.58131 0.04124,1.1745 0.11945,1.7659 0.70523,-2.09 3.0768,-4.3257 3.0768,-5.8501 0,-1.6668 -0.64253,-2.4349 -1.656,-2.7882 z"
         fill="#3f3f3f"
         id="path22" />
      <path
         d="m 35.276,30.313 c -0.72396,0.20419 -1.8939,3.3536 -1.8951,4.3836 -0.0017,1.3458 0.42401,1.8618 1.2374,2.4736 0.81332,0.61174 4.7274,1.3602 4.7369,-0.07303 0.0094,-1.4114 -0.04244,-2.61 -0.232,-3.4035 -0.18957,-0.79349 -0.57555,-2.297 -1.3535,-2.9445 -0.48883,-0.40681 -1.7696,-0.64043 -2.4936,-0.43624 z"
         fill="#ffffff"
         id="path24" />
      <circle
         cx="35.514999"
         cy="34.932999"
         r="1.2809"
         fill="#373737"
         id="circle26" />
      <path
         d="m 30.767,34.065 c -0.14103,-1.0545 -1.5248,-2.8383 -2.3996,-3.4042 -2.2094,-1.4291 -3.6917,1.0531 -3.5071,3.1175 0.1371,1.5342 0.95844,5.7651 2.8426,4.8733 1.8841,-0.89176 3.4263,-1.8804 3.0641,-4.5867 z"
         fill="#ffffff"
         id="path28" />
      <circle
         cx="28.686001"
         cy="34.932999"
         r="1.2809"
         fill="#373737"
         id="circle30" />
    </g>
  </g>
  <circle
     cx="-1334.1423"
     cy="-1246.7698"
     r="0"
     fill="#5e4aa6"
     id="circle870" />
</svg>
