<?xml version="1.0" encoding="UTF-8"?>
<svg width="64" height="64" version="1.1" xmlns="http://www.w3.org/2000/svg" xmlns:cc="http://creativecommons.org/ns#" xmlns:dc="http://purl.org/dc/elements/1.1/" xmlns:rdf="http://www.w3.org/1999/02/22-rdf-syntax-ns#">
 <metadata>
  <rdf:RDF>
   <cc:Work rdf:about="">
    <dc:format>image/svg+xml</dc:format>
    <dc:type rdf:resource="http://purl.org/dc/dcmitype/StillImage"/>
    <dc:title/>
   </cc:Work>
  </rdf:RDF>
 </metadata>
 <defs>
  <filter id="c" x="-.054049" y="-.067423" width="1.1081" height="1.1348" color-interpolation-filters="sRGB">
   <feGaussianBlur stdDeviation="1.0109576"/>
  </filter>
 </defs>
 <circle cx="-1248.6" cy="-1241.1" r="0" fill="#5e4aa6"/>
 <path d="m62 32c0 3.5964-0.63301 7.0448-1.7939 10.24-0.80694 2.2212-1.8686 4.3212-3.1518 6.2636-0.5375 0.81666-1.1155 1.6053-1.729 2.3633-1.964 2.4256-4.2982 4.5378-6.9182 6.2526-0.96493 0.6318-1.9678 1.2098-3.0061 1.7277-4.0321 2.0178-8.5835 3.1529-13.401 3.1529-4.8171 0-9.3685-1.1351-13.401-3.153-1.0384-0.51803-2.0424-1.096-3.0074-1.7277-2.6535-1.7376-5.0155-3.8832-6.9957-6.349-0.61464-0.76408-1.1914-1.56-1.729-2.384-1.249-1.9101-2.2836-3.9712-3.0746-6.1494-1.1607-3.1948-1.7926-6.6415-1.7926-10.237 0-16.569 13.431-30 30-30 8.317 0 15.843 3.3844 21.277 8.8503 1.5661 1.5746 2.9584 3.3233 4.1436 5.214 1.1204 1.7804 2.0571 3.6881 2.7857 5.6947 1.161 3.1959 1.794 6.6442 1.794 10.24z" fill="#fafafa" stroke-width=".11719"/>
 <rect x="24.957" y="14" width="5" height="10" ry="1" fill="#232323" opacity=".15" stroke-opacity=".55" stroke-width="2.8"/>
 <g transform="translate(-.043256)">
  <path d="m45.436 24.81c-0.47961 0.03323-0.93367 0.29824-1.1934 0.74805l-5.2422 9.082c-2.0641-0.5337-4.3642-0.84766-6.959-0.84766s-4.893 0.31396-6.957 0.84766l-5.2422-9.082c-0.31162-0.53985-0.90426-0.81103-1.4844-0.73828-0.19338 0.024-0.38649 0.0861-0.56641 0.18945-0.71966 0.4155-0.96237 1.3291-0.54688 2.0488l4.9297 8.5391c-7.3847 3.0509-10.893 9.4478-12.576 15.045a30 30 0 0 0 22.443 10.15 30 30 0 0 0 22.447-10.139c-1.6818-5.5998-5.1896-12.003-12.578-15.057l4.9316-8.5391c0.4155-0.7197 0.16889-1.6333-0.55078-2.0488-0.26987-0.15581-0.5677-0.21915-0.85547-0.19922z" filter="url(#c)" opacity=".1" stroke-opacity=".55" stroke-width="2.8"/>
  <path d="m45.395 26.018c-0.47961 0.03323-0.93367 0.29824-1.1934 0.74805l-5.2422 9.082c-2.0641-0.5337-4.3642-0.84766-6.959-0.84766s-4.893 0.31396-6.957 0.84766l-5.2422-9.082c-0.31162-0.53985-0.90426-0.81103-1.4844-0.73828-0.19338 0.024-0.38649 0.0861-0.56641 0.18945-0.71966 0.4155-0.96237 1.3291-0.54688 2.0488l4.9297 8.5391c-7.3847 3.0509-10.893 9.4478-12.576 15.045a30 30 0 0 0 22.443 10.15 30 30 0 0 0 22.447-10.139c-1.6818-5.5998-5.1896-12.003-12.578-15.057l4.9316-8.5391c0.4155-0.7197 0.16889-1.6333-0.55078-2.0488-0.26987-0.15581-0.5677-0.21915-0.85547-0.19922z" fill="#1ea00f" stroke-opacity=".55" stroke-width="2.8"/>
  <circle cx="23" cy="50" r="3" fill="#fff"/>
  <circle cx="41" cy="50" r="3" fill="#fff"/>
 </g>
 <rect x="34.957" y="14" width="5" height="10" ry="1" fill="#232323" opacity=".15" stroke-opacity=".55" stroke-width="2.8"/>
</svg>
