<?xml version="1.0" encoding="UTF-8"?>
<svg width="64" height="64" version="1.1" xmlns="http://www.w3.org/2000/svg" xmlns:cc="http://creativecommons.org/ns#" xmlns:dc="http://purl.org/dc/elements/1.1/" xmlns:rdf="http://www.w3.org/1999/02/22-rdf-syntax-ns#" xmlns:xlink="http://www.w3.org/1999/xlink">
 <metadata>
  <rdf:RDF>
   <cc:Work rdf:about="">
    <dc:format>image/svg+xml</dc:format>
    <dc:type rdf:resource="http://purl.org/dc/dcmitype/StillImage"/>
    <dc:title/>
   </cc:Work>
  </rdf:RDF>
 </metadata>
 <defs>
  <linearGradient id="b" x1="30.207" x2="14" y1="43" y2="10" gradientTransform="matrix(1.5 0 0 1.5 -3.8479 -1.1281)" gradientUnits="userSpaceOnUse">
   <stop stop-color="#cebee5" offset="0"/>
   <stop stop-color="#f1f1f1" offset="1"/>
  </linearGradient>
  <linearGradient id="linearGradient1005" x1="4.2557" x2="43.744" y1="1047.8" y2="1008.7" gradientUnits="userSpaceOnUse">
   <stop stop-color="#8232b4" offset="0"/>
   <stop stop-color="#7d3cb4" offset="1"/>
  </linearGradient>
  <linearGradient id="linearGradient878" x1="4.2557" x2="43.744" y1="1047.8" y2="1008.7" gradientUnits="userSpaceOnUse" xlink:href="#linearGradient1005"/>
 </defs>
 <g transform="matrix(1.5,0,0,1.5,-4,-1510.6)" fill="url(#linearGradient878)" stroke-linejoin="round" stroke-width=".33333">
  <circle cx="24" cy="1028.4" r="20" fill="url(#linearGradient878)" stroke-width=".33333"/>
 </g>
 <path d="m36.837 12.372s-4.7957 3.2895-5.124 5.1563c0 0-10.146-3.2072-19.061 5.3438h4.5s-11.795 7.3711-12 12c0.20508-0.12891 2.168-1.1526 3-1.5 0 0-3.6106 7.7512-1.4313 14.19 3.8637 7.9467 14.105 14.507 25.226 14.439 0.3295-2e-3 0.6491-0.03541 0.97559-0.04687 0.37603-1.2876 2.1169-7.9232-1.084-12.056-2.7553-3.5649-7.5632-13.236-1.1865-16.526 0 0 4.0301 5.6562 8.7627 6.2051 0 0 0.55244 4.8485 6.2725 1.7695 1.5266-0.81822 2.0942-3.5251 0.55371-5.7217l-1.2129-1.7549s-4.016-9.6444-6.876-12.498c0 0-1.5-4.5 0-7.5 0 0-1.6994 1.2619-2.25 2.25 0 0 0.38276-3.2049 0.93458-3.75z" fill="url(#b)"/>
</svg>
