<?xml version="1.0" encoding="UTF-8"?>
<svg id="App-Store" width="64" height="64" enable-background="new 0 0 1024 1024" image-rendering="optimizeSpeed" version="1.1" viewBox="0 0 64 64" xmlns="http://www.w3.org/2000/svg" xmlns:cc="http://creativecommons.org/ns#" xmlns:dc="http://purl.org/dc/elements/1.1/" xmlns:rdf="http://www.w3.org/1999/02/22-rdf-syntax-ns#" xmlns:xlink="http://www.w3.org/1999/xlink">
 <metadata>
  <rdf:RDF>
   <cc:Work rdf:about="">
    <dc:format>image/svg+xml</dc:format>
    <dc:type rdf:resource="http://purl.org/dc/dcmitype/StillImage"/>
    <dc:title/>
   </cc:Work>
  </rdf:RDF>
 </metadata>
 <defs>
  <linearGradient id="linearGradient978" x1="1.9643" x2="14.969" y1="14.924" y2="2.3319" gradientTransform="matrix(3.7796,0,0,3.7796,-8.355e-4,-2.77e-4)" gradientUnits="userSpaceOnUse">
   <stop stop-color="#007deb" offset="0"/>
   <stop stop-color="#009bf5" offset="1"/>
  </linearGradient>
  <linearGradient id="linearGradient882" x1="50.83" x2="26.305" y1="13.577" y2="38.102" gradientTransform="translate(.00045556 .0099972)" gradientUnits="userSpaceOnUse" xlink:href="#linearGradient978"/>
 </defs>
 <path d="m62 32c0 3.5964-0.63301 7.0448-1.7939 10.24-0.80694 2.2212-1.8686 4.3212-3.1518 6.2636-0.5375 0.81666-1.1155 1.6053-1.729 2.3633-1.964 2.4256-4.2982 4.5378-6.9182 6.2526-0.96493 0.6318-1.9678 1.2098-3.0061 1.7277-4.0321 2.0178-8.5835 3.1529-13.401 3.1529-4.8171 0-9.3685-1.1351-13.401-3.153-1.0384-0.51803-2.0424-1.096-3.0074-1.7277-2.6535-1.7376-5.0155-3.8832-6.9957-6.349-0.61464-0.76408-1.1914-1.56-1.729-2.384-1.249-1.9101-2.2836-3.9712-3.0746-6.1494-1.1607-3.1948-1.7926-6.6415-1.7926-10.237 0-16.569 13.431-30 30-30 8.317 0 15.843 3.3844 21.277 8.8503 1.5661 1.5746 2.9584 3.3233 4.1436 5.214 1.1204 1.7804 2.0571 3.6881 2.7857 5.6947 1.161 3.1959 1.794 6.6442 1.794 10.24z" fill="url(#linearGradient978)" stroke-width=".11719"/>
 <path d="m28.706 16.113c-1.2594 0.31302-2.2227 1.302-2.4772 2.5432l-1.4367 7.0206-6.7508 2.8284c-2.5698 1.0781-2.7566 4.557-0.31622 5.8902l6.41 3.4992 0.67422 7.127c0.25624 2.715 3.5981 3.9654 5.6552 2.116l5.4004-4.8572 7.168 1.5775c2.7312 0.60013 4.9834-2.1101 3.8112-4.5862l-3.0752-6.5004 3.7572-6.1524c1.429-2.3428-0.5189-5.2648-3.298-4.9472l-7.302 0.838-4.847-5.3812c-0.83893-0.93021-2.0075-1.3569-3.2392-1.0502z" fill="url(#linearGradient882)" stroke="#fff" stroke-width="2"/>
 <g fill="#5e4aa6">
  <circle cx="-1160" cy="-1257.6" r="0"/>
  <circle cx="-1160" cy="-1257.6" r="0"/>
  <circle cx="-1244.2" cy="-1289.6" r="0"/>
 </g>
</svg>
