<?xml version="1.0" encoding="UTF-8" standalone="no"?>
<svg
   xmlns:dc="http://purl.org/dc/elements/1.1/"
   xmlns:cc="http://creativecommons.org/ns#"
   xmlns:rdf="http://www.w3.org/1999/02/22-rdf-syntax-ns#"
   xmlns:svg="http://www.w3.org/2000/svg"
   xmlns="http://www.w3.org/2000/svg"
   xmlns:sodipodi="http://sodipodi.sourceforge.net/DTD/sodipodi-0.dtd"
   xmlns:inkscape="http://www.inkscape.org/namespaces/inkscape"
   width="64"
   height="64"
   version="1.1"
   viewBox="0 0 16.933 16.933"
   id="svg10"
   sodipodi:docname="anydesk.svg"
   inkscape:version="1.0.1 (3bc2e813f5, 2020-09-07)">
  <metadata
     id="metadata16">
    <rdf:RDF>
      <cc:Work
         rdf:about="">
        <dc:format>image/svg+xml</dc:format>
        <dc:type
           rdf:resource="http://purl.org/dc/dcmitype/StillImage" />
        <dc:title></dc:title>
      </cc:Work>
    </rdf:RDF>
  </metadata>
  <defs
     id="defs14" />
  <sodipodi:namedview
     pagecolor="#ffffff"
     bordercolor="#666666"
     borderopacity="1"
     objecttolerance="10"
     gridtolerance="10"
     guidetolerance="10"
     inkscape:pageopacity="0"
     inkscape:pageshadow="2"
     inkscape:window-width="1920"
     inkscape:window-height="932"
     id="namedview12"
     showgrid="false"
     inkscape:zoom="5.9765625"
     inkscape:cx="27.9913"
     inkscape:cy="23.046439"
     inkscape:window-x="0"
     inkscape:window-y="36"
     inkscape:window-maximized="1"
     inkscape:current-layer="svg10" />
  <g
     transform="matrix(1.7187454,0,0,1.7187454,-6.5878075,-6.2443638)"
     stroke-width="0.52916"
     id="g8">
    <path
       d="m 7.7005,5.3841 c -0.16631,0 -0.33274,0.06199 -0.45706,0.18631 l -2.5315,2.5318 C 4.46329,8.35085 4.46365,8.76695 4.712297,9.01559 l 2.5315,2.5318 c 0.24865,0.24864 0.66512,0.24899 0.91377,3.56e-4 l 2.5315,-2.5318 c 0.24865,-0.24864 0.24865,-0.6651 0,-0.91374 l -2.5315,-2.5318 c -0.12432,-0.12432 -0.29075,-0.18631 -0.45706,-0.18631 z"
       fill="#8e8e8e"
       id="path2" />
    <rect
       transform="rotate(45)"
       x="9.9524002"
       y="-0.94037998"
       width="3.0919001"
       height="3.0919001"
       rx="0.16827001"
       ry="0.16827001"
       fill="#ffffff"
       id="rect4" />
    <path
       d="m 9.8171,5.3841 c -0.16631,0 -0.33274,0.06199 -0.45706,0.18631 l -2.5315,2.5318 C 6.57989,8.35085 6.58025,8.76695 6.8288972,9.01559 l 2.5315,2.5318 c 0.24865,0.24864 0.6651198,0.24899 0.9137698,3.56e-4 l 2.5315,-2.5318 c 0.24865,-0.24864 0.24865,-0.6651 0,-0.91374 l -2.5315,-2.5318 C 10.149847,5.446086 9.9834172,5.384096 9.8171072,5.384096 Z"
       fill="#e52e38"
       id="path6" />
  </g>
</svg>
