<?xml version="1.0" encoding="UTF-8" standalone="no"?>
<svg
   xmlns:dc="http://purl.org/dc/elements/1.1/"
   xmlns:cc="http://creativecommons.org/ns#"
   xmlns:rdf="http://www.w3.org/1999/02/22-rdf-syntax-ns#"
   xmlns:svg="http://www.w3.org/2000/svg"
   xmlns="http://www.w3.org/2000/svg"
   xmlns:sodipodi="http://sodipodi.sourceforge.net/DTD/sodipodi-0.dtd"
   xmlns:inkscape="http://www.inkscape.org/namespaces/inkscape"
   width="64"
   height="64"
   version="1.1"
   viewBox="0 0 16.933 16.933"
   id="svg51"
   sodipodi:docname="appimagekit-balena-etcher-electron.svg"
   inkscape:version="1.0.1 (3bc2e813f5, 2020-09-07)">
  <sodipodi:namedview
     pagecolor="#ffffff"
     bordercolor="#666666"
     borderopacity="1"
     objecttolerance="10"
     gridtolerance="10"
     guidetolerance="10"
     inkscape:pageopacity="0"
     inkscape:pageshadow="2"
     inkscape:window-width="1920"
     inkscape:window-height="1004"
     id="namedview53"
     showgrid="false"
     inkscape:zoom="4.5906698"
     inkscape:cx="6.4244878"
     inkscape:cy="26.494932"
     inkscape:window-x="0"
     inkscape:window-y="0"
     inkscape:window-maximized="1"
     inkscape:current-layer="svg51" />
  <defs
     id="defs17">
    <style
       type="text/css"
       id="style2" />
    <style
       type="text/css"
       id="style4" />
    <linearGradient
       id="linearGradient938"
       x1="80.368"
       x2="82.141"
       y1="13.177"
       y2="14.704"
       gradientTransform="matrix(.96154 0 0 .96154 -65.275 -1.6916)"
       gradientUnits="userSpaceOnUse">
      <stop
         stop-color="#fafafa"
         offset="0"
         id="stop6" />
      <stop
         stop-color="#90a0b3"
         offset="1"
         id="stop8" />
    </linearGradient>
    <filter
       id="filter1066"
       x="-.063923"
       y="-.056531"
       width="1.1278"
       height="1.1131"
       color-interpolation-filters="sRGB">
      <feGaussianBlur
         stdDeviation="0.22705935"
         id="feGaussianBlur11" />
    </filter>
    <filter
       id="filter1100"
       x="-.12197"
       y="-.11848"
       width="1.2439"
       height="1.237"
       color-interpolation-filters="sRGB">
      <feGaussianBlur
         stdDeviation="0.47586465"
         id="feGaussianBlur14" />
    </filter>
  </defs>
  <metadata
     id="metadata19">
    <rdf:RDF>
      <cc:Work
         rdf:about="">
        <dc:format>image/svg+xml</dc:format>
        <dc:type
           rdf:resource="http://purl.org/dc/dcmitype/StillImage" />
        <dc:title></dc:title>
      </cc:Work>
    </rdf:RDF>
  </metadata>
  <circle
     cx="-330.38"
     cy="-328.51"
     r="0"
     fill="#5e4aa6"
     stroke-width=".26458"
     id="circle21" />
  <style
     type="text/css"
     id="style23">.st0{opacity:0.15;fill:#45413C;}
	.st1{fill:#FFE500;}
	.st2{fill:#EBCB00;}
	.st3{fill:none;stroke:#45413C;stroke-linecap:round;stroke-linejoin:round;stroke-miterlimit:10;}
	.st4{fill:#FFAA54;}
	.st5{fill:#FF8A14;}
	.st6{fill:#FFB0CA;stroke:#45413C;stroke-linecap:round;stroke-linejoin:round;stroke-miterlimit:10;}
	.st7{fill:#FF87AF;stroke:#45413C;stroke-linecap:round;stroke-linejoin:round;stroke-miterlimit:10;}
	.st8{fill:#FFCC99;}
	.st9{fill:#FFFFFF;}
	.st10{fill:#F0F0F0;}
	.st11{fill:#BF8256;}
	.st12{fill:#915E3A;}
	.st13{fill:#DEA47A;}
	.st14{fill:#F0D5A8;}
	.st15{fill:#DEBB7E;}
	.st16{fill:#F7E5C6;}
	.st17{fill:#FF8A14;stroke:#45413C;stroke-linecap:round;stroke-linejoin:round;stroke-miterlimit:10;}
	.st18{fill:#FFF5E3;}
	.st19{fill:#FFF48C;}
	.st20{fill:#FFFACF;}
	.st21{fill:#FFFCE5;}
	.st22{fill:#FF87AF;}
	.st23{fill:#FFB0CA;}
	.st24{fill:#FFE500;stroke:#45413C;stroke-linecap:round;stroke-linejoin:round;stroke-miterlimit:10;}
	.st25{fill:#9CEB60;stroke:#45413C;stroke-linecap:round;stroke-linejoin:round;stroke-miterlimit:10;}
	.st26{fill:#FFFACF;stroke:#45413C;stroke-linecap:round;stroke-linejoin:round;stroke-miterlimit:10;}
	.st27{fill:#00F5BC;stroke:#45413C;stroke-linecap:round;stroke-linejoin:round;stroke-miterlimit:10;}
	.st28{fill:#BF8256;stroke:#45413C;stroke-linecap:round;stroke-linejoin:round;stroke-miterlimit:10;}
	.st29{fill:#FFE3CF;stroke:#45413C;stroke-linecap:round;stroke-linejoin:round;stroke-miterlimit:10;}
	.st30{fill:#FF6242;}
	.st31{fill:#FF866E;}
	.st32{fill:none;stroke:#E04122;stroke-linecap:round;stroke-linejoin:round;stroke-miterlimit:10;}
	.st33{fill:#FFFEF2;stroke:#45413C;stroke-linecap:round;stroke-linejoin:round;stroke-miterlimit:10;}
	.st34{fill:#FF6242;stroke:#45413C;stroke-linecap:round;stroke-linejoin:round;stroke-miterlimit:10;}
	.st35{fill:#FFA694;}
	.st36{fill:#FFFFFF;stroke:#45413C;stroke-linecap:round;stroke-linejoin:round;stroke-miterlimit:10;}
	.st37{fill:#FFFEF2;}
	.st38{fill:#FF6196;}
	.st39{fill:#B89558;}
	.st40{fill:none;stroke:#915E3A;stroke-linecap:round;stroke-linejoin:round;stroke-miterlimit:10;}
	.st41{fill:#DEBB7E;stroke:#45413C;stroke-linecap:round;stroke-linejoin:round;stroke-miterlimit:10;}
	.st42{fill:#6DD627;stroke:#45413C;stroke-linecap:round;stroke-linejoin:round;stroke-miterlimit:10;}
	.st43{fill:#E5F8FF;}
	.st44{fill:#E8F4FA;}
	.st45{fill:#E8F4FA;stroke:#45413C;stroke-linecap:round;stroke-linejoin:round;stroke-miterlimit:10;}
	.st46{fill:#FFCCDD;}
	.st47{fill:#E5F8FF;stroke:#45413C;stroke-linecap:round;stroke-linejoin:round;stroke-miterlimit:10;}
	.st48{fill:#00B8F0;stroke:#45413C;stroke-linecap:round;stroke-linejoin:round;stroke-miterlimit:10;}
	.st49{fill:#00B8F0;}
	.st50{fill:#4ACFFF;}
	.st51{fill:#E04122;}
	.st52{fill:#E04122;stroke:#45413C;stroke-linecap:round;stroke-linejoin:round;stroke-miterlimit:10;}
	.st53{fill:#87898C;}
	.st54{fill:#BDBEC0;}
	.st55{fill:#656769;}
	.st56{fill:#525252;}
	.st57{fill:#FFF48C;stroke:#45413C;stroke-linecap:round;stroke-linejoin:round;stroke-miterlimit:10;}
	.st58{fill:#6DD627;}
	.st59{fill:#EB6D00;}
	.st60{fill:#46B000;}
	.st61{fill:#80DDFF;}
	.st62{fill:#DAEDF7;}
	.st63{fill:#BF8DF2;stroke:#45413C;stroke-linecap:round;stroke-linejoin:round;stroke-miterlimit:10;}
	.st64{fill:#9F5AE5;stroke:#45413C;stroke-linecap:round;stroke-linejoin:round;stroke-miterlimit:10;}
	.st65{fill:#C8FFA1;}
	.st66{fill:#E4FFD1;}
	.st67{fill:#9CEB60;}
	.st68{fill:#E5FEFF;}
	.st69{fill:#B8ECFF;}
	.st70{fill:#E0E0E0;stroke:#45413C;stroke-linecap:round;stroke-linejoin:round;stroke-miterlimit:10;}
	.st71{fill:#E0E0E0;}
	.st72{fill:none;stroke:#4F4B45;stroke-linejoin:round;stroke-miterlimit:10;}
	.st73{fill:none;stroke:#4F4B45;stroke-linecap:round;stroke-linejoin:round;stroke-miterlimit:10;}
	.st74{fill:#E0366F;stroke:#45413C;stroke-linecap:round;stroke-linejoin:round;stroke-miterlimit:10;}
	.st75{fill:none;stroke:#45413C;stroke-miterlimit:10;}
	.st76{fill:#FF866E;stroke:#45413C;stroke-linecap:round;stroke-linejoin:round;stroke-miterlimit:10;}
	.st77{fill:#45413C;stroke:#45413C;stroke-linecap:round;stroke-linejoin:round;stroke-miterlimit:10;}
	.st78{fill:#9F5AE5;}
	.st79{fill:#803EC2;}
	.st80{fill:#803EC2;stroke:#45413C;stroke-linecap:round;stroke-linejoin:round;stroke-miterlimit:10;}
	.st81{fill:#BF8DF2;}
	.st82{fill:#FFAA54;stroke:#45413C;stroke-linecap:round;stroke-linejoin:round;stroke-miterlimit:10;}
	.st83{fill:none;stroke:#45413C;stroke-linejoin:round;stroke-miterlimit:10;}
	.st84{fill:#FFCCDD;stroke:#45413C;stroke-linecap:round;stroke-linejoin:round;stroke-miterlimit:10;}
	.st85{fill:#FF6196;stroke:#45413C;stroke-linecap:round;stroke-linejoin:round;stroke-miterlimit:10;}
	.st86{fill:#FFE5EE;}
	.st87{fill:#F7E5C6;stroke:#45413C;stroke-linecap:round;stroke-linejoin:round;stroke-miterlimit:10;}
	.st88{fill:#E5FFF9;}
	.st89{fill:none;stroke:#45413C;stroke-width:1.0064;stroke-linecap:round;stroke-linejoin:round;stroke-miterlimit:10;}
	.st90{fill:#4AEFF7;}
	.st91{fill:#A6FBFF;}
	.st92{fill:#E5FEFF;stroke:#45413C;stroke-linecap:round;stroke-linejoin:round;stroke-miterlimit:10;}
	.st93{fill:#46B000;stroke:#45413C;stroke-linecap:round;stroke-linejoin:round;stroke-miterlimit:10;}
	.st94{fill:#FFFFFF;stroke:#45413C;stroke-linejoin:round;stroke-miterlimit:10;}
	.st95{fill:#FFFFFF;stroke:#45413C;stroke-miterlimit:10;}
	.st96{fill:#009FD9;}
	.st97{fill:#00DFEB;}
	.st98{fill:#C0DCEB;stroke:#45413C;stroke-linecap:round;stroke-linejoin:round;stroke-miterlimit:10;}
	.st99{fill:#00DFEB;stroke:#45413C;stroke-linecap:round;stroke-linejoin:round;stroke-miterlimit:10;}
	.st100{fill:#FFE5EE;stroke:#45413C;stroke-linecap:round;stroke-linejoin:round;stroke-miterlimit:10;}
	.st101{fill:#8CA4B8;}
	.st102{fill:#ADC4D9;}
	.st103{fill:#656769;stroke:#45413C;stroke-linecap:round;stroke-linejoin:round;stroke-miterlimit:10;}
	.st104{fill:#F0F0F0;stroke:#45413C;stroke-linecap:round;stroke-linejoin:round;stroke-miterlimit:10;}
	.st105{fill:#C0DCEB;}
	.st106{fill:#45413C;}
	.st107{fill:#FFCABF;}
	.st108{fill:#87898C;stroke:#45413C;stroke-linecap:round;stroke-linejoin:round;stroke-miterlimit:10;}
	.st109{fill:#EBCB00;stroke:#45413C;stroke-linecap:round;stroke-linejoin:round;stroke-miterlimit:10;}</style>
  <g
     fill="#5e4aa6"
     stroke-width=".26458"
     id="g31">
    <circle
       cx="-330.38"
       cy="-328.5"
       r="0"
       id="circle25" />
    <circle
       cx="-39.462"
       cy="6.3115"
       r="0"
       fill-rule="evenodd"
       id="circle27" />
    <circle
       cx="-330.38"
       cy="-328.5"
       r="0"
       image-rendering="optimizeSpeed"
       id="circle29" />
  </g>
  <g
     id="g892"
     transform="translate(-1.2567235e-5,0.0094027)">
    <path
       transform="scale(0.26458)"
       d="M 32.121,5 C 30.9532,4.99483 29.783,5.24588 28.8905,5.75586 l -17.922,10.242 c -0.69199,0.39546 -1.3312,1.0164 -1.8594,1.7441 l 6.3438,3.6992 12.549,7.3164 c 1.6983,0.9908 3.1093,2.6744 3.998,4.5684 0.88858,-1.8937 2.2997,-3.5776 3.998,-4.5684 l 18.873,-11.004 c -0.49327,-0.64805 -1.0725,-1.2027 -1.6992,-1.5684 l -8.9141,-5.1992 -8.916,-5.2012 C 34.4537,5.26672 33.2887,5.00477 32.1209,4.9996 Z m 23.748,14.486 -6.3184,3.6836 -12.541,7.3145 c -2.0854,1.2166 -4.0076,4.5659 -4.0137,6.9883 8e-6,0.01359 0.004,0.02744 0.0039,0.04102 l -0.002,0.67773 0.0625,13.842 0.03125,6.8652 c 0.73733,-0.1127 1.4378,-0.323 2.0176,-0.6543 l 17.922,-10.242 c 1.785,-1.02 3.2409,-3.5166 3.25,-5.5723 l 0.04687,-10.322 0.04492,-10.32 c 0.0033,-0.73856 -0.1857,-1.5345 -0.50391,-2.3008 z M 8.156,19.50163 c -0.26866,0.69328 -0.43456,1.4025 -0.4375,2.0684 l -0.046875,10.322 -0.044922,10.32 c -0.0092,2.056 1.4234,4.5658 3.1992,5.6016 l 8.916,5.1992 8.916,5.2012 c 0.63972,0.37314 1.4247,0.60766 2.25,0.71484 l 0.03125,-6.8965 0.0625,-13.842 -0.002,-0.67773 c -6.1e-5,-0.01356 0.0039,-0.02745 0.0039,-0.04102 -0.0061,-2.4224 -1.9283,-5.7717 -4.0137,-6.9883 l -12.541,-7.3145 -6.293,-3.668 z"
       fill="#c8f178"
       stroke-width="1.3333"
       style="isolation:isolate"
       id="path878" />
    <path
       transform="scale(0.26458)"
       d="m 32.09,12 c -0.86505,-0.0038 -1.7315,0.18278 -2.3926,0.56055 l -6.6387,3.793 -6.6367,3.793 c -0.45931,0.26249 -0.88606,0.66185 -1.252,1.1289 l 0.2832,0.16602 12.549,7.3164 c 1.6983,0.9908 3.1093,2.6744 3.998,4.5684 0.88858,-1.8937 2.2997,-3.5776 3.998,-4.5684 l 12.549,-7.3164 0.26367,-0.1543 c -0.33655,-0.40913 -0.71625,-0.76235 -1.127,-1.002 l -13.207,-7.7031 c -0.6577,-0.38373 -1.5217,-0.5782 -2.3867,-0.58203 z m 17.701,11.029 -0.24024,0.14062 -12.541,7.3145 c -2.0854,1.2166 -4.0076,4.5659 -4.0137,6.9883 8e-6,0.01359 0.004,0.02744 0.0039,0.04102 l -0.002,0.67383 0.0625,13.686 c 0.45109,-0.09105 0.8804,-0.22691 1.2422,-0.43359 l 6.6387,-3.793 6.6367,-3.793 c 1.3222,-0.75553 2.4014,-2.6062 2.4082,-4.1289 l 0.03516,-7.6445 0.0332,-7.6445 c 0.002,-0.45179 -0.0988,-0.93245 -0.26367,-1.4062 z m -35.564,0.01172 c -0.13316,0.4168 -0.21114,0.83686 -0.21289,1.2344 l -0.03516,7.6445 -0.0332,7.6445 c -0.0068,1.5229 1.0557,3.3832 2.3711,4.1504 l 13.207,7.7031 c 0.40774,0.2378 0.89855,0.39434 1.416,0.48633 l 0.0625,-13.717 -0.002,-0.67383 c -6.1e-5,-0.01356 0.0039,-0.02745 0.0039,-0.04102 -0.0061,-2.4224 -1.9283,-5.7717 -4.0137,-6.9883 l -12.541,-7.3145 -0.22266,-0.12891 z"
       fill="#a5de37"
       stroke-width="1.3333"
       style="isolation:isolate"
       id="path880" />
  </g>
</svg>
