<?xml version="1.0" encoding="UTF-8" standalone="no"?>
<svg
   xmlns:dc="http://purl.org/dc/elements/1.1/"
   xmlns:cc="http://creativecommons.org/ns#"
   xmlns:rdf="http://www.w3.org/1999/02/22-rdf-syntax-ns#"
   xmlns:svg="http://www.w3.org/2000/svg"
   xmlns="http://www.w3.org/2000/svg"
   xmlns:xlink="http://www.w3.org/1999/xlink"
   xmlns:sodipodi="http://sodipodi.sourceforge.net/DTD/sodipodi-0.dtd"
   xmlns:inkscape="http://www.inkscape.org/namespaces/inkscape"
   width="64"
   height="64"
   version="1.1"
   viewBox="0 0 16.933 16.933"
   id="svg34"
   sodipodi:docname="applications-utilities.svg"
   inkscape:version="1.0.1 (3bc2e813f5, 2020-09-07)">
  <sodipodi:namedview
     pagecolor="#ffffff"
     bordercolor="#666666"
     borderopacity="1"
     objecttolerance="10"
     gridtolerance="10"
     guidetolerance="10"
     inkscape:pageopacity="0"
     inkscape:pageshadow="2"
     inkscape:window-width="1920"
     inkscape:window-height="1004"
     id="namedview36"
     showgrid="false"
     inkscape:snap-bbox="true"
     inkscape:bbox-nodes="true"
     inkscape:snap-bbox-edge-midpoints="true"
     inkscape:snap-nodes="false"
     inkscape:zoom="5.6568543"
     inkscape:cx="8.8715743"
     inkscape:cy="23.594196"
     inkscape:window-x="0"
     inkscape:window-y="0"
     inkscape:window-maximized="1"
     inkscape:current-layer="svg34" />
  <metadata
     id="metadata2">
    <rdf:RDF>
      <cc:Work
         rdf:about="">
        <dc:format>image/svg+xml</dc:format>
        <dc:type
           rdf:resource="http://purl.org/dc/dcmitype/StillImage" />
        <dc:title></dc:title>
      </cc:Work>
    </rdf:RDF>
  </metadata>
  <defs
     id="defs14">
    <style
       type="text/css"
       id="style4" />
    <filter
       id="c"
       x="-.06"
       y="-.06"
       width="1.12"
       height="1.12"
       color-interpolation-filters="sRGB">
      <feGaussianBlur
         stdDeviation="0.6999997"
         id="feGaussianBlur6" />
    </filter>
    <linearGradient
       id="a-3"
       x1="32"
       x2="32"
       y1="2"
       y2="62"
       gradientTransform="matrix(.26459 0 0 .26459 .066756 .21412)"
       gradientUnits="userSpaceOnUse">
      <stop
         stop-color="#f5faff"
         offset="0"
         id="stop9" />
      <stop
         stop-color="#cfdef0"
         offset="1"
         id="stop11" />
    </linearGradient>
    <linearGradient
       id="a-3-3"
       x1="32"
       x2="32"
       y1="2"
       y2="62"
       gradientTransform="matrix(.95161 0 0 .95161 385.6 486.76)"
       gradientUnits="userSpaceOnUse">
      <stop
         stop-color="#f5faff"
         offset="0"
         id="stop2" />
      <stop
         stop-color="#cfdef0"
         offset="1"
         id="stop4" />
    </linearGradient>
    <clipPath
       id="clipPath13429">
      <path
         id="path4"
         d="m481 318h22v22h-22z" />
    </clipPath>
    <clipPath
       id="clipPath13465">
      <path
         id="path7"
         d="m507 318h22v22h-22z" />
    </clipPath>
    <clipPath
       id="clipPath13501">
      <path
         id="path10"
         d="m530 318h22v22h-22z" />
    </clipPath>
    <clipPath
       id="clipPath13753">
      <path
         id="path13"
         d="m672 1064c0-1.105 4.925-2 11-2s11 0.895 11 2-4.925 2-11 2-11-0.895-11-2" />
    </clipPath>
    <clipPath
       id="clipPath13771">
      <path
         id="path16"
         d="m660 1057h51v65.001h-51z" />
    </clipPath>
    <clipPath
       id="clipPath14035">
      <path
         id="path19"
         d="m659 517h53v18h-53z" />
    </clipPath>
    <clipPath
       id="clipPath14127">
      <path
         id="path22"
         d="m659 500h53v18h-53z" />
    </clipPath>
    <clipPath
       id="clipPath14445">
      <path
         id="path25"
         d="m648 112h73v60h-73z" />
    </clipPath>
    <clipPath
       id="clipPath14609">
      <path
         id="path28"
         d="m826 1056h59v60h-59z" />
    </clipPath>
    <clipPath
       id="clipPath15305">
      <path
         id="path31"
         d="m805 276h100v100h-100z" />
    </clipPath>
    <clipPath
       id="clipPath15341">
      <path
         id="path34"
         d="m145 1063.8h74.152v45.21h-74.152z" />
    </clipPath>
    <clipPath
       id="clipPath15715">
      <path
         id="path37"
         d="m151 667h57v57h-57z" />
    </clipPath>
    <clipPath
       id="clipPath15807">
      <path
         id="path40"
         d="m154 697h51v51h-51z" />
    </clipPath>
    <clipPath
       id="clipPath16001">
      <path
         id="path43"
         d="m500.04 864.45h36.012v67.52h-36.012z" />
    </clipPath>
    <clipPath
       id="clipPath16093">
      <path
         id="path46"
         d="m836 870.54h47v55.539h-47z" />
    </clipPath>
    <clipPath
       id="clipPath16477">
      <path
         id="path49"
         d="m318.03 702.35h62.848v37.991h-62.848z" />
    </clipPath>
    <clipPath
       id="clipPath16579">
      <path
         id="path52"
         d="m485.03 133.35h62.847v37.991h-62.847z" />
    </clipPath>
    <clipPath
       id="clipPath16709">
      <path
         id="path55"
         d="m493.37 677.93h45.643v68.067h-45.643z" />
    </clipPath>
    <clipPath
       id="clipPath24218">
      <path
         id="path58"
         d="m144.34 1018.2h71.467v78h-71.467z" />
    </clipPath>
    <clipPath
       id="clipPath24382">
      <path
         id="path61"
         d="m293.21 1068.6 66.323-38.292 36.047 62.435-66.323 38.292z" />
    </clipPath>
    <clipPath
       id="clipPath24650">
      <path
         id="path64"
         d="m488.86 1054.5h10v10.706h-10z" />
    </clipPath>
    <clipPath
       id="clipPath24700">
      <path
         id="path67"
         d="m508 1066.8h10.001v10.705h-10.001z" />
    </clipPath>
    <clipPath
       id="clipPath24750">
      <path
         id="path70"
         d="m525 1045.8h10v10.706h-10z" />
    </clipPath>
    <clipPath
       id="clipPath24864">
      <path
         id="path73"
         d="m836 1043.7h25.5v31.5h-25.5z" />
    </clipPath>
    <clipPath
       id="clipPath24896">
      <path
         id="path76"
         d="m838 1062.2h24v24h-24z" />
    </clipPath>
    <clipPath
       id="clipPath25070">
      <path
         id="path79"
         d="m134 489.24h7v6h-7z" />
    </clipPath>
    <clipPath
       id="clipPath25100">
      <path
         id="path82"
         d="m216 489.24h7v6h-7z" />
    </clipPath>
    <clipPath
       id="clipPath25502">
      <path
         id="path85"
         d="m838 477.24h22v22h-22z" />
    </clipPath>
    <clipPath
       id="clipPath25686">
      <path
         id="path88"
         d="m704 1061.2h25v25h-25z" />
    </clipPath>
    <clipPath
       id="clipPath25788">
      <path
         id="path91"
         d="m663.04 1078.6-1.808-3.514-21.07-47.453c13.336-18.439 48.336-26.938 73.836-3.439 0.842 0 6.476 6.246 6 7l-18.386 25.895c-0.483 0.765-1.453 0.946-2.177 0.431l-15.505-11.011c-0.359-0.255-0.847-0.153-1.07 0.238l-18.272 31.869c-0.218 0.384-0.502 0.578-0.782 0.578-0.282 0-0.561-0.197-0.766-0.594" />
    </clipPath>
    <clipPath
       id="clipPath26420">
      <path
         id="path94"
         d="m127 820.24h100v100h-100z" />
    </clipPath>
    <clipPath
       id="clipPath26860">
      <path
         id="path97"
         d="m809 680.24c0-22.092 17.908-40 40-40s40 17.908 40 40c0 22.091-17.908 40-40 40s-40-17.909-40-40" />
    </clipPath>
    <clipPath
       id="clipPath27506">
      <path
         id="path100"
         d="m658 469.24h44v45h-44z" />
    </clipPath>
    <clipPath
       id="clipPath27772">
      <path
         id="path103"
         d="m651 271.24h58v58h-58z" />
    </clipPath>
    <clipPath
       id="clipPath27864">
      <path
         id="path106"
         d="m662 307.24h38v8h-38z" />
    </clipPath>
    <clipPath
       id="clipPath28028">
      <path
         id="path109"
         d="m858.98 137.24c0.013-0.101 0.021-0.203 0.021-0.307v-6.693h15.75c1.237 0 2.25-1.013 2.25-2.25v-11.25l-27-4.5-27 4.5v-2.25l27-4.5 27 4.5v-27c0-1.237-1.013-2.25-2.25-2.25h-49.5c-1.237 0-2.25 1.013-2.25 2.25v-4.25h54v54zm-35.979 0v-9.25c0 1.237 1.013 2.25 2.25 2.25h15.75v6.693c0 0.104 7e-3 0.207 0.02 0.307zm22.5-7h9v4.5h-9zm1.125-9c-0.62 0-1.125-0.506-1.125-1.125v-2.25c0-0.619 0.505-1.125 1.125-1.125h6.75c0.619 0 1.125 0.506 1.125 1.125v2.25c0 0.619-0.506 1.125-1.125 1.125z" />
    </clipPath>
    <clipPath
       id="clipPath28200">
      <path
         id="path112"
         d="m531.27 136.24c6.325-2.29 10.727-8.277 10.727-15.484 0-11.316-10.2-20.563-25.65-34.575l-4.35-3.941-4.35 3.941c-15.45 14.012-25.65 23.259-25.65 34.575v-39.516h60v55zm-26.983 0c2.995-1.052 5.686-2.883 7.71-5.25 2.024 2.367 4.715 4.198 7.71 5.25zm-22.29 0v-15.484c0 7.207 4.402 13.194 10.727 15.484z" />
    </clipPath>
    <clipPath
       id="clipPath28364">
      <path
         id="path115"
         d="m648 79.241h64v64h-64z" />
    </clipPath>
    <clipPath
       id="clipPath28984">
      <path
         id="path118"
         d="m500 691.74c0-3.037 2.463-5.5 5.5-5.5s5.5 2.463 5.5 5.5-2.463 5.5-5.5 5.5-5.5-2.463-5.5-5.5" />
    </clipPath>
    <clipPath
       id="clipPath29012">
      <path
         id="path121"
         d="m500 669.74c0-3.037 2.463-5.5 5.5-5.5s5.5 2.463 5.5 5.5c0 3.038-2.463 5.5-5.5 5.5s-5.5-2.462-5.5-5.5" />
    </clipPath>
    <clipPath
       id="clipPath29040">
      <path
         id="path124"
         d="m494 680.74c0-3.037 2.462-5.5 5.5-5.5s5.5 2.463 5.5 5.5c0 3.038-2.462 5.5-5.5 5.5s-5.5-2.462-5.5-5.5" />
    </clipPath>
    <clipPath
       id="clipPath29068">
      <path
         id="path127"
         d="m513 691.74c0-3.037 2.463-5.5 5.5-5.5s5.5 2.463 5.5 5.5-2.463 5.5-5.5 5.5-5.5-2.463-5.5-5.5" />
    </clipPath>
    <clipPath
       id="clipPath29096">
      <path
         id="path130"
         d="m513 669.74c0-3.037 2.463-5.5 5.5-5.5s5.5 2.463 5.5 5.5c0 3.038-2.463 5.5-5.5 5.5s-5.5-2.462-5.5-5.5" />
    </clipPath>
    <clipPath
       id="clipPath29124">
      <path
         id="path133"
         d="m507 680.74c0-3.037 2.463-5.5 5.5-5.5s5.5 2.463 5.5 5.5c0 3.038-2.463 5.5-5.5 5.5s-5.5-2.462-5.5-5.5" />
    </clipPath>
    <clipPath
       id="clipPath29152">
      <path
         id="path136"
         d="m520 680.74c0-3.037 2.463-5.5 5.5-5.5s5.5 2.463 5.5 5.5c0 3.038-2.463 5.5-5.5 5.5s-5.5-2.462-5.5-5.5" />
    </clipPath>
    <clipPath
       id="clipPath29252">
      <path
         id="path139"
         d="m321 322.24c-4.97 0-9-4.029-9-9 0-4.97 4.03-9 9-9h45c4.971 0 9 4.03 9 9 0 4.971-4.029 9-9 9z" />
    </clipPath>
    <clipPath
       id="clipPath29280">
      <path
         id="path142"
         d="m322 297.24c-4.971 0-9-4.029-9-9 0-4.97 4.029-9 9-9h45c4.971 0 9 4.03 9 9 0 4.971-4.029 9-9 9z" />
    </clipPath>
    <clipPath
       id="clipPath29400">
      <path
         id="path145"
         d="m155 83.24h44v53h-44z" />
    </clipPath>
    <clipPath
       id="clipPath13429-6">
      <path
         id="path148"
         d="m481 318h22v22h-22z" />
    </clipPath>
    <clipPath
       id="clipPath13465-0">
      <path
         id="path151"
         d="m507 318h22v22h-22z" />
    </clipPath>
    <clipPath
       id="clipPath13501-6">
      <path
         id="path154"
         d="m530 318h22v22h-22z" />
    </clipPath>
    <clipPath
       id="clipPath13753-2">
      <path
         id="path157"
         d="m672 1064c0-1.105 4.925-2 11-2s11 0.895 11 2-4.925 2-11 2-11-0.895-11-2" />
    </clipPath>
    <clipPath
       id="clipPath13771-6">
      <path
         id="path160"
         d="m660 1057h51v65.001h-51z" />
    </clipPath>
    <clipPath
       id="clipPath14035-1">
      <path
         id="path163"
         d="m659 517h53v18h-53z" />
    </clipPath>
    <clipPath
       id="clipPath14127-8">
      <path
         id="path166"
         d="m659 500h53v18h-53z" />
    </clipPath>
    <clipPath
       id="clipPath14445-7">
      <path
         id="path169"
         d="m648 112h73v60h-73z" />
    </clipPath>
    <clipPath
       id="clipPath14609-9">
      <path
         id="path172"
         d="m826 1056h59v60h-59z" />
    </clipPath>
    <clipPath
       id="clipPath15305-2">
      <path
         id="path175"
         d="m805 276h100v100h-100z" />
    </clipPath>
    <clipPath
       id="clipPath15341-0">
      <path
         id="path178"
         d="m145 1063.8h74.152v45.21h-74.152z" />
    </clipPath>
    <clipPath
       id="clipPath15715-2">
      <path
         id="path181"
         d="m151 667h57v57h-57z" />
    </clipPath>
    <clipPath
       id="clipPath15807-3">
      <path
         id="path184"
         d="m154 697h51v51h-51z" />
    </clipPath>
    <clipPath
       id="clipPath16001-7">
      <path
         id="path187"
         d="m500.04 864.45h36.012v67.52h-36.012z" />
    </clipPath>
    <clipPath
       id="clipPath16093-5">
      <path
         id="path190"
         d="m836 870.54h47v55.539h-47z" />
    </clipPath>
    <clipPath
       id="clipPath16477-9">
      <path
         id="path193"
         d="m318.03 702.35h62.848v37.991h-62.848z" />
    </clipPath>
    <clipPath
       id="clipPath16579-2">
      <path
         id="path196"
         d="m485.03 133.35h62.847v37.991h-62.847z" />
    </clipPath>
    <clipPath
       id="clipPath16709-2">
      <path
         id="path199"
         d="m493.37 677.93h45.643v68.067h-45.643z" />
    </clipPath>
    <clipPath
       id="clipPath24218-8">
      <path
         id="path202"
         d="m144.34 1018.2h71.467v78h-71.467z" />
    </clipPath>
    <clipPath
       id="clipPath24382-9">
      <path
         id="path205"
         d="m293.21 1068.6 66.323-38.292 36.047 62.435-66.323 38.292z" />
    </clipPath>
    <clipPath
       id="clipPath24650-7">
      <path
         id="path208"
         d="m488.86 1054.5h10v10.706h-10z" />
    </clipPath>
    <clipPath
       id="clipPath24700-3">
      <path
         id="path211"
         d="m508 1066.8h10.001v10.705h-10.001z" />
    </clipPath>
    <clipPath
       id="clipPath24750-6">
      <path
         id="path214"
         d="m525 1045.8h10v10.706h-10z" />
    </clipPath>
    <clipPath
       id="clipPath24864-1">
      <path
         id="path217"
         d="m836 1043.7h25.5v31.5h-25.5z" />
    </clipPath>
    <clipPath
       id="clipPath24896-2">
      <path
         id="path220"
         d="m838 1062.2h24v24h-24z" />
    </clipPath>
    <clipPath
       id="clipPath25070-9">
      <path
         id="path223"
         d="m134 489.24h7v6h-7z" />
    </clipPath>
    <clipPath
       id="clipPath25100-3">
      <path
         id="path226"
         d="m216 489.24h7v6h-7z" />
    </clipPath>
    <clipPath
       id="clipPath25502-1">
      <path
         id="path229"
         d="m838 477.24h22v22h-22z" />
    </clipPath>
    <clipPath
       id="clipPath25686-9">
      <path
         id="path232"
         d="m704 1061.2h25v25h-25z" />
    </clipPath>
    <clipPath
       id="clipPath25788-4">
      <path
         id="path235"
         d="m663.04 1078.6-1.808-3.514-21.07-47.453c13.336-18.439 48.336-26.938 73.836-3.439 0.842 0 6.476 6.246 6 7l-18.386 25.895c-0.483 0.765-1.453 0.946-2.177 0.431l-15.505-11.011c-0.359-0.255-0.847-0.153-1.07 0.238l-18.272 31.869c-0.218 0.384-0.502 0.578-0.782 0.578-0.282 0-0.561-0.197-0.766-0.594" />
    </clipPath>
    <clipPath
       id="clipPath26420-7">
      <path
         id="path238"
         d="m127 820.24h100v100h-100z" />
    </clipPath>
    <clipPath
       id="clipPath26860-8">
      <path
         id="path241"
         d="m809 680.24c0-22.092 17.908-40 40-40s40 17.908 40 40c0 22.091-17.908 40-40 40s-40-17.909-40-40" />
    </clipPath>
    <clipPath
       id="clipPath27506-4">
      <path
         id="path244"
         d="m658 469.24h44v45h-44z" />
    </clipPath>
    <clipPath
       id="clipPath27772-5">
      <path
         id="path247"
         d="m651 271.24h58v58h-58z" />
    </clipPath>
    <clipPath
       id="clipPath27864-0">
      <path
         id="path250"
         d="m662 307.24h38v8h-38z" />
    </clipPath>
    <clipPath
       id="clipPath28028-3">
      <path
         id="path253"
         d="m858.98 137.24c0.013-0.101 0.021-0.203 0.021-0.307v-6.693h15.75c1.237 0 2.25-1.013 2.25-2.25v-11.25l-27-4.5-27 4.5v-2.25l27-4.5 27 4.5v-27c0-1.237-1.013-2.25-2.25-2.25h-49.5c-1.237 0-2.25 1.013-2.25 2.25v-4.25h54v54zm-35.979 0v-9.25c0 1.237 1.013 2.25 2.25 2.25h15.75v6.693c0 0.104 7e-3 0.207 0.02 0.307zm22.5-7h9v4.5h-9zm1.125-9c-0.62 0-1.125-0.506-1.125-1.125v-2.25c0-0.619 0.505-1.125 1.125-1.125h6.75c0.619 0 1.125 0.506 1.125 1.125v2.25c0 0.619-0.506 1.125-1.125 1.125z" />
    </clipPath>
    <clipPath
       id="clipPath28200-6">
      <path
         id="path256"
         d="m531.27 136.24c6.325-2.29 10.727-8.277 10.727-15.484 0-11.316-10.2-20.563-25.65-34.575l-4.35-3.941-4.35 3.941c-15.45 14.012-25.65 23.259-25.65 34.575v-39.516h60v55zm-26.983 0c2.995-1.052 5.686-2.883 7.71-5.25 2.024 2.367 4.715 4.198 7.71 5.25zm-22.29 0v-15.484c0 7.207 4.402 13.194 10.727 15.484z" />
    </clipPath>
    <clipPath
       id="clipPath28364-1">
      <path
         id="path259"
         d="m648 79.241h64v64h-64z" />
    </clipPath>
    <clipPath
       id="clipPath28984-0">
      <path
         id="path262"
         d="m500 691.74c0-3.037 2.463-5.5 5.5-5.5s5.5 2.463 5.5 5.5-2.463 5.5-5.5 5.5-5.5-2.463-5.5-5.5" />
    </clipPath>
    <clipPath
       id="clipPath29012-6">
      <path
         id="path265"
         d="m500 669.74c0-3.037 2.463-5.5 5.5-5.5s5.5 2.463 5.5 5.5c0 3.038-2.463 5.5-5.5 5.5s-5.5-2.462-5.5-5.5" />
    </clipPath>
    <clipPath
       id="clipPath29040-3">
      <path
         id="path268"
         d="m494 680.74c0-3.037 2.462-5.5 5.5-5.5s5.5 2.463 5.5 5.5c0 3.038-2.462 5.5-5.5 5.5s-5.5-2.462-5.5-5.5" />
    </clipPath>
    <clipPath
       id="clipPath29068-2">
      <path
         id="path271"
         d="m513 691.74c0-3.037 2.463-5.5 5.5-5.5s5.5 2.463 5.5 5.5-2.463 5.5-5.5 5.5-5.5-2.463-5.5-5.5" />
    </clipPath>
    <clipPath
       id="clipPath29096-0">
      <path
         id="path274"
         d="m513 669.74c0-3.037 2.463-5.5 5.5-5.5s5.5 2.463 5.5 5.5c0 3.038-2.463 5.5-5.5 5.5s-5.5-2.462-5.5-5.5" />
    </clipPath>
    <clipPath
       id="clipPath29124-6">
      <path
         id="path277"
         d="m507 680.74c0-3.037 2.463-5.5 5.5-5.5s5.5 2.463 5.5 5.5c0 3.038-2.463 5.5-5.5 5.5s-5.5-2.462-5.5-5.5" />
    </clipPath>
    <clipPath
       id="clipPath29152-1">
      <path
         id="path280"
         d="m520 680.74c0-3.037 2.463-5.5 5.5-5.5s5.5 2.463 5.5 5.5c0 3.038-2.463 5.5-5.5 5.5s-5.5-2.462-5.5-5.5" />
    </clipPath>
    <clipPath
       id="clipPath29252-5">
      <path
         id="path283"
         d="m321 322.24c-4.97 0-9-4.029-9-9 0-4.97 4.03-9 9-9h45c4.971 0 9 4.03 9 9 0 4.971-4.029 9-9 9z" />
    </clipPath>
    <clipPath
       id="clipPath29280-5">
      <path
         id="path286"
         d="m322 297.24c-4.971 0-9-4.029-9-9 0-4.97 4.029-9 9-9h45c4.971 0 9 4.03 9 9 0 4.971-4.029 9-9 9z" />
    </clipPath>
    <clipPath
       id="clipPath29400-4">
      <path
         id="path289"
         d="m155 83.24h44v53h-44z" />
    </clipPath>
    <linearGradient
       gradientUnits="userSpaceOnUse"
       y2="-.11215"
       y1="8.885"
       x2="35.2"
       x1="35.2"
       id="linearGradient2609">
      <stop
         id="stop292"
         offset="0"
         stop-color="#dcf0ff" />
      <stop
         id="stop294"
         offset="1"
         stop-color="#fff" />
    </linearGradient>
    <linearGradient
       gradientUnits="userSpaceOnUse"
       gradientTransform="matrix(1.0545,0,0,0.99997,195.63,17.008)"
       y2="-15.135"
       y1="-2.2168"
       x2="-177.36"
       x1="-177.36"
       id="linearGradient3016">
      <stop
         id="stop297"
         offset="0"
         stop-color="#14ab4b" />
      <stop
         id="stop299"
         offset=".49583"
         stop-color="#42c440" />
      <stop
         id="stop301"
         offset="1"
         stop-color="#76dd38" />
    </linearGradient>
    <linearGradient
       xlink:href="#linearGradient2609"
       gradientUnits="userSpaceOnUse"
       y2="-.11215"
       y1="8.885"
       x2="35.2"
       x1="35.2"
       id="linearGradient2554" />
    <filter
       id="filter968"
       x="-.12009"
       y="-.12009"
       width="1.2402"
       height="1.2402"
       color-interpolation-filters="sRGB">
      <feGaussianBlur
         stdDeviation="0.066194553"
         id="feGaussianBlur4" />
    </filter>
    <filter
       id="filter1016"
       x="-.036858"
       y="-.17692"
       width="1.0737"
       height="1.3538"
       color-interpolation-filters="sRGB">
      <feGaussianBlur
         stdDeviation="0.097518237"
         id="feGaussianBlur7" />
    </filter>
    <filter
       id="filter1024"
       x="-.10615"
       y="-.50953"
       width="1.2123"
       height="2.0191"
       color-interpolation-filters="sRGB">
      <feGaussianBlur
         stdDeviation="0.28085546"
         id="feGaussianBlur10" />
    </filter>
    <linearGradient
       id="linearGradient1154"
       x1="-184.76"
       x2="-170.21"
       y1="-15.818"
       y2="-1.2664"
       gradientTransform="translate(166.93,24.77)"
       gradientUnits="userSpaceOnUse">
      <stop
         stop-color="#fed54f"
         offset="0"
         id="stop13" />
      <stop
         stop-color="#ffbb4d"
         offset="1"
         id="stop15" />
    </linearGradient>
    <linearGradient
       id="linearGradient1190"
       x1="-38.893"
       x2="-38.893"
       y1="8.9957"
       y2="10.583"
       gradientTransform="matrix(0.96,0,0,0.83333,-12.871,2.9791)"
       gradientUnits="userSpaceOnUse">
      <stop
         stop-color="#c6d4e7"
         offset="0"
         id="stop18" />
      <stop
         stop-color="#d8e5f8"
         offset=".097346"
         id="stop20" />
      <stop
         stop-color="#fff"
         offset=".20734"
         id="stop22" />
      <stop
         stop-color="#f1f4f5"
         offset=".49769"
         id="stop24" />
      <stop
         stop-color="#a1aab0"
         offset=".73738"
         id="stop26" />
      <stop
         stop-color="#a2abb0"
         offset=".78932"
         id="stop28" />
      <stop
         stop-color="#a2a7a2"
         offset=".94113"
         id="stop30" />
      <stop
         stop-color="#d6d1b4"
         offset="1"
         id="stop32" />
    </linearGradient>
    <filter
       id="filter1221"
       x="-.018237"
       y="-.035087"
       width="1.0365"
       height="1.0702"
       color-interpolation-filters="sRGB">
      <feGaussianBlur
         stdDeviation="0.096503745"
         id="feGaussianBlur35" />
    </filter>
    <filter
       id="filter1227"
       x="-.021559"
       y="-.027064"
       width="1.0431"
       height="1.0541"
       color-interpolation-filters="sRGB">
      <feGaussianBlur
         stdDeviation="0.1140825"
         id="feGaussianBlur38" />
    </filter>
    <filter
       id="filter1233"
       x="-.024"
       y="-.024"
       width="1.048"
       height="1.048"
       color-interpolation-filters="sRGB">
      <feGaussianBlur
         stdDeviation="0.1269975"
         id="feGaussianBlur41" />
    </filter>
    <linearGradient
       gradientUnits="userSpaceOnUse"
       gradientTransform="matrix(0.91665,0,0,0.91665,15.147704,-16.893824)"
       y2=".64687"
       y1="16.296"
       x2="16.388"
       x1=".73911"
       id="linearGradient1005-6">
      <stop
         id="stop885"
         offset="0"
         stop-color="#323232" />
      <stop
         id="stop887"
         offset=".49575"
         stop-color="#4e4e4e" />
      <stop
         id="stop889"
         offset="1"
         stop-color="#323232" />
    </linearGradient>
    <linearGradient
       id="a">
      <stop
         id="stop981"
         offset="0" />
      <stop
         id="stop983"
         stop-opacity="0"
         offset="1" />
    </linearGradient>
    <linearGradient
       gradientTransform="matrix(0.26458,0,0,0.27517,0,279.463)"
       gradientUnits="userSpaceOnUse"
       y2="28.742"
       x2="44.062"
       y1="57"
       x1="44.062"
       id="b"
       xlink:href="#a" />
  </defs>
  <g
     transform="translate(-.0272 .0065001)"
     fill="#5e4aa6"
     stroke-width=".26458"
     id="g24">
    <circle
       cx="-330.35"
       cy="-328.38"
       r="0"
       id="circle16" />
    <circle
       cx="-312.11"
       cy="-326.25"
       r="0"
       id="circle18" />
    <circle
       cx="-306.02"
       cy="-333.07"
       r="0"
       id="circle20" />
    <circle
       cx="-308.84"
       cy="-326.01"
       r="0"
       id="circle22" />
  </g>
  <circle
     id="circle46"
     stroke-width="0.264581"
     fill="#5e4aa6"
     r="0"
     cy="-328.50977"
     cx="-330.38" />
  <circle
     id="circle48"
     stroke-width="0.264581"
     fill-rule="evenodd"
     fill="#5e4aa6"
     r="0"
     cy="6.3117323"
     cx="-39.460999" />
  <g
     transform="translate(-20.337131,-16.59386)"
     fill="#5e4aa6"
     stroke-width="0.26458"
     id="g906">
    <circle
       cx="-330.35001"
       cy="-328.38"
       r="0"
       id="circle898" />
    <circle
       cx="-312.10999"
       cy="-326.25"
       r="0"
       id="circle900" />
    <circle
       cx="-306.01999"
       cy="-333.07001"
       r="0"
       id="circle902" />
    <circle
       cx="-308.84"
       cy="-326.01001"
       r="0"
       id="circle904" />
  </g>
  <g
     id="g1542">
    <rect
       style="fill:none;fill-opacity:1;stroke:#333333;stroke-width:0.529156;stroke-linecap:round;stroke-miterlimit:4;stroke-dasharray:none;stroke-opacity:1"
       id="rect1515"
       width="4.9280457"
       height="4.2689772"
       x="6.0024767"
       y="2.9971313"
       ry="0.12166147" />
    <rect
       style="fill:#e84c49;fill-opacity:1;stroke:none;stroke-width:0.533215;stroke-linecap:round"
       id="rect1482"
       width="10.339486"
       height="3.4114997"
       x="3.2967567"
       y="4.4426374"
       ry="0" />
    <path
       id="rect979"
       style="fill:#e53935;fill-opacity:1;stroke-width:0.313587;stroke-linecap:round"
       d="M 2 29.525391 L 2 52.496094 C 2 55.418176 4.3533082 57.769531 7.2753906 57.769531 L 56.724609 57.769531 C 59.646691 57.769531 62 55.418176 62 52.496094 L 62 29.525391 L 2 29.525391 z "
       transform="scale(0.26457812)" />
    <path
       id="path1484"
       style="fill:#da3633;fill-opacity:1;stroke:none;stroke-width:1.37893px;stroke-linecap:butt;stroke-linejoin:miter;stroke-opacity:1"
       d="M 2 29.525391 L 2 52.496094 C 2 55.418176 4.3533083 57.769531 7.2753906 57.769531 L 12.515625 57.769531 L 12.515625 29.525391 L 2 29.525391 z "
       transform="scale(0.26457812)" />
    <path
       style="fill:#e53935;fill-opacity:1;stroke:none;stroke-width:0.364836px;stroke-linecap:butt;stroke-linejoin:miter;stroke-opacity:1"
       d="M 3.3111503,4.4426372 V 7.8117724 H 0.52915624 V 6.8898595 Z"
       id="path1489"
       sodipodi:nodetypes="ccccc" />
    <path
       id="path1491"
       style="fill:#da3633;fill-opacity:1;stroke:none;stroke-width:0.364835px;stroke-linecap:butt;stroke-linejoin:miter;stroke-opacity:1"
       d="m 16.403843,7.8117724 v 6.0775456 c 0,0.773119 -0.622634,1.395236 -1.395753,1.395236 H 13.621639 V 7.8117724 Z" />
    <path
       style="fill:#e53935;fill-opacity:1;stroke:none;stroke-width:0.364836px;stroke-linecap:butt;stroke-linejoin:miter;stroke-opacity:1"
       d="m 13.621849,4.4426372 v 3.3691352 h 2.781994 V 6.8898595 Z"
       id="path1493"
       sodipodi:nodetypes="ccccc" />
    <g
       id="g1524"
       transform="translate(-7.6260409e-4,-0.05495149)">
      <g
         id="g1506"
         transform="translate(19.910449,-0.11817704)">
        <rect
           style="fill:#ebebeb;fill-opacity:1;stroke:none;stroke-width:0.532831;stroke-linecap:round"
           id="rect1497"
           width="2.5256431"
           height="0.52299607"
           x="-15.979353"
           y="9.01828"
           ry="0.26149803" />
        <rect
           style="fill:#ebebeb;fill-opacity:1;stroke:none;stroke-width:0.563997;stroke-linecap:round"
           id="rect1499"
           width="0.48888183"
           height="1.9204223"
           x="-15.979353"
           y="7.3717542"
           ry="0" />
        <rect
           style="fill:#ebebeb;fill-opacity:1;stroke:none;stroke-width:0.563997;stroke-linecap:round"
           id="rect1501"
           width="0.48888183"
           height="1.9204223"
           x="-13.942592"
           y="7.3717542"
           ry="0" />
      </g>
      <g
         id="g1514"
         transform="translate(26.457139,-0.11817704)">
        <rect
           style="fill:#ebebeb;fill-opacity:1;stroke:none;stroke-width:0.532831;stroke-linecap:round"
           id="rect1508"
           width="2.5256431"
           height="0.52299607"
           x="-15.979353"
           y="9.01828"
           ry="0.26149803" />
        <rect
           style="fill:#ebebeb;fill-opacity:1;stroke:none;stroke-width:0.563997;stroke-linecap:round"
           id="rect1510"
           width="0.48888183"
           height="1.9204223"
           x="-15.979353"
           y="7.3717542"
           ry="0" />
        <rect
           style="fill:#ebebeb;fill-opacity:1;stroke:none;stroke-width:0.563997;stroke-linecap:round"
           id="rect1512"
           width="0.48888183"
           height="1.9204223"
           x="-13.942592"
           y="7.3717542"
           ry="0" />
      </g>
    </g>
  </g>
</svg>
