<?xml version="1.0" encoding="UTF-8" standalone="no"?>
<svg
   xmlns:dc="http://purl.org/dc/elements/1.1/"
   xmlns:cc="http://creativecommons.org/ns#"
   xmlns:rdf="http://www.w3.org/1999/02/22-rdf-syntax-ns#"
   xmlns:svg="http://www.w3.org/2000/svg"
   xmlns="http://www.w3.org/2000/svg"
   xmlns:xlink="http://www.w3.org/1999/xlink"
   xmlns:sodipodi="http://sodipodi.sourceforge.net/DTD/sodipodi-0.dtd"
   xmlns:inkscape="http://www.inkscape.org/namespaces/inkscape"
   width="64"
   height="64"
   version="1.1"
   viewBox="0 0 64 64"
   id="svg16"
   sodipodi:docname="applications-all.svg"
   inkscape:version="1.0.1 (3bc2e813f5, 2020-09-07)">
  <metadata
     id="metadata22">
    <rdf:RDF>
      <cc:Work
         rdf:about="">
        <dc:format>image/svg+xml</dc:format>
        <dc:type
           rdf:resource="http://purl.org/dc/dcmitype/StillImage" />
        <dc:title></dc:title>
      </cc:Work>
    </rdf:RDF>
  </metadata>
  <defs
     id="defs20">
    <linearGradient
       id="a">
      <stop
         id="stop2"
         offset="0" />
      <stop
         id="stop4"
         stop-opacity="0"
         offset="1" />
    </linearGradient>
    <linearGradient
       gradientUnits="userSpaceOnUse"
       y2="27.346"
       x2="46.168"
       y1="57"
       x1="46.168"
       id="b"
       xlink:href="#a"
       gradientTransform="matrix(0.26458,0,0,0.26458,0,280.067)" />
  </defs>
  <sodipodi:namedview
     pagecolor="#ffffff"
     bordercolor="#666666"
     borderopacity="1"
     objecttolerance="10"
     gridtolerance="10"
     guidetolerance="10"
     inkscape:pageopacity="0"
     inkscape:pageshadow="2"
     inkscape:window-width="1920"
     inkscape:window-height="932"
     id="namedview18"
     showgrid="false"
     inkscape:zoom="5.9765625"
     inkscape:cx="-13.079362"
     inkscape:cy="24.260929"
     inkscape:window-x="0"
     inkscape:window-y="36"
     inkscape:window-maximized="1"
     inkscape:current-layer="svg16" />
  <path
     id="rect952"
     style="fill:#528fff;fill-opacity:1;stroke-width:4.648;stroke-linecap:round"
     d="M 7.802734,4.5 C 5.973935,4.5 4.5,5.9719823 4.5,7.8007812 V 56.199219 C 4.5,58.028018 5.973935,59.5 7.802734,59.5 H 56.199218 C 58.028017,59.5 59.5,58.028018 59.5,56.199219 V 7.8007812 C 59.5,5.9719822 58.028017,4.5 56.199218,4.5 Z" />
  <g
     fill="#ffffff"
     stroke-width="2.8"
     id="g12"
     style="stroke-linecap:round;stroke-linejoin:round"
     transform="matrix(1.1875,0,0,1.1875,-7.1875,-7.1875)">
    <rect
       x="17"
       y="17"
       width="14"
       height="14"
       rx="2"
       ry="2"
       id="rect4" />
    <path
       d="m 37,17 c -1.108,0 -2,0.892 -2,2 v 10 c 0,1.108 0.892,2 2,2 h 10 c 1.108,0 2,-0.892 2,-2 V 19 c 0,-1.108 -0.892,-2 -2,-2 z m 0,2 H 47 V 29 H 37 Z"
       id="path6" />
    <path
       d="m 37,35 c -1.108,0 -2,0.892 -2,2 v 10 c 0,1.108 0.892,2 2,2 h 10 c 1.108,0 2,-0.892 2,-2 V 37 c 0,-1.108 -0.892,-2 -2,-2 z m 0,2 H 47 V 47 H 37 Z"
       id="path8" />
    <path
       d="m 19,35 c -1.108,0 -2,0.892 -2,2 v 10 c 0,1.108 0.892,2 2,2 h 10 c 1.108,0 2,-0.892 2,-2 V 37 c 0,-1.108 -0.892,-2 -2,-2 z m 0,2 H 29 V 47 H 19 Z"
       id="path10" />
  </g>
</svg>
