<?xml version="1.0" encoding="UTF-8"?>
<svg id="Apps-Visual-Studio-Code" width="64" height="64" enable-background="new 0 0 1024 1024" image-rendering="optimizeSpeed" version="1.1" viewBox="0 0 64 64" xmlns="http://www.w3.org/2000/svg" xmlns:cc="http://creativecommons.org/ns#" xmlns:dc="http://purl.org/dc/elements/1.1/" xmlns:rdf="http://www.w3.org/1999/02/22-rdf-syntax-ns#" xmlns:xlink="http://www.w3.org/1999/xlink">
 <metadata>
  <rdf:RDF>
   <cc:Work rdf:about="">
    <dc:format>image/svg+xml</dc:format>
    <dc:type rdf:resource="http://purl.org/dc/dcmitype/StillImage"/>
    <dc:title/>
   </cc:Work>
  </rdf:RDF>
 </metadata>
 <defs>
  <linearGradient id="h" x1="73.823" x2="68.874" y1="17.956" y2="119.07" gradientTransform="matrix(.465 0 0 .465 1.7819 1.6201)" gradientUnits="userSpaceOnUse">
   <stop stop-color="#2c2d31" offset="0"/>
   <stop stop-color="#3c3e43" offset="1"/>
  </linearGradient>
  <radialGradient id="a" cx="64.985" cy="65.333" r="59.751" gradientTransform="matrix(.465 0 0 .465 1.7819 1.6201)" gradientUnits="userSpaceOnUse">
   <stop stop-color="#2c2d31" offset="0"/>
   <stop stop-color="#393b3f" offset=".72577"/>
   <stop stop-color="#232529" offset="1"/>
  </radialGradient>
  <filter id="j" x="-.036" y="-.036" width="1.072" height="1.072" color-interpolation-filters="sRGB">
   <feGaussianBlur stdDeviation="1.7925294"/>
  </filter>
  <filter id="m" x="-.06" y="-.06" width="1.12" height="1.12" color-interpolation-filters="sRGB">
   <feGaussianBlur stdDeviation="2.98755"/>
  </filter>
  <linearGradient id="SVGID_8_" x1="282.4" x2="185.32" y1="237.23" y2="334.31" gradientTransform="matrix(.075503 0 0 -.075503 14.111 53.343)" gradientUnits="userSpaceOnUse" xlink:href="#SVGID_1_">
   <stop stop-color="#dee2e4" offset="0"/>
   <stop stop-color="#dee2e4" offset=".293"/>
   <stop stop-color="#a6aeb2" offset=".72"/>
   <stop stop-color="#9aa2a6" offset="1"/>
  </linearGradient>
  <linearGradient id="SVGID_7_" x1="236.94" x2="236.94" y1="303.37" y2="208.83" gradientTransform="matrix(.075503 0 0 -.075503 14.111 53.343)" gradientUnits="userSpaceOnUse">
   <stop stop-color="#dee2e4" offset="0"/>
   <stop stop-color="#9ea7aa" offset="1"/>
  </linearGradient>
  <linearGradient id="SVGID_2_" x1="236.94" x2="236.94" y1="360.12" y2="54.827" gradientTransform="matrix(.075503 0 0 -.075503 14.111 53.343)" gradientUnits="userSpaceOnUse">
   <stop stop-color="#dee2e4" offset="0"/>
   <stop stop-color="#889296" offset="1"/>
  </linearGradient>
  <linearGradient id="SVGID_1_" x1="445.27" x2="103.39" y1="491.02" y2="149.14" gradientTransform="matrix(.075503 0 0 -.075503 14.111 53.343)" gradientUnits="userSpaceOnUse">
   <stop stop-color="#5B6A6A" offset="0"/>
   <stop stop-color="#C2CECE" stop-opacity="0" offset=".311"/>
   <stop stop-color="#CAD5D5" stop-opacity=".157" offset=".348"/>
   <stop stop-color="#E0E8E7" stop-opacity=".669" offset=".47"/>
   <stop stop-color="#E8EFEE" offset=".549"/>
   <stop stop-color="#97AAAA" offset=".788"/>
   <stop stop-color="#9CAEAE" stop-opacity=".724" offset=".861"/>
   <stop stop-color="#AAB9B9" stop-opacity=".402" offset=".946"/>
   <stop stop-color="#B7C3C3" stop-opacity=".196" offset="1"/>
  </linearGradient>
 </defs>
 <circle cx="32" cy="32" r="27.784" fill="url(#h)" stroke-width=".96125"/>
 <circle cx="32" cy="32" r="27.784" fill="url(#a)" stroke-width=".96125"/>
 <path transform="matrix(.465 0 0 .465 1.7819 1.6201)" d="m64.985 5.5818a59.751 59.751 0 0 0-59.752 59.75 59.751 59.751 0 0 0 59.752 59.752 59.751 59.751 0 0 0 59.75-59.752 59.751 59.751 0 0 0-59.75-59.75zm0 5.25a54.501 54.501 0 0 1 54.5 54.5 54.501 54.501 0 0 1-54.5 54.502 54.501 54.501 0 0 1-54.502-54.502 54.501 54.501 0 0 1 54.502-54.5z" fill-opacity=".28736" filter="url(#j)" stroke-width="2.0672"/>
 <path transform="matrix(.465 0 0 .465 1.7819 1.6201)" d="m64.985 5.5818a59.751 59.751 0 0 0-59.752 59.75 59.751 59.751 0 0 0 59.752 59.752 59.751 59.751 0 0 0 59.75-59.752 59.751 59.751 0 0 0-59.75-59.75zm0 5.25a54.501 54.501 0 0 1 54.5 54.5 54.501 54.501 0 0 1-54.5 54.502 54.501 54.501 0 0 1-54.502-54.502 54.501 54.501 0 0 1 54.502-54.5z" fill-opacity=".28736" filter="url(#m)" stroke-width="2.0672"/>
 <path d="m32 2c-16.549 0-30 13.451-30 30s13.451 30 30 30 30-13.451 30-30-13.451-30-30-30zm0 3.255c14.79 0 26.745 11.955 26.745 26.745s-11.955 26.745-26.745 26.745c-14.79 9e-6 -26.745-11.955-26.745-26.745s11.955-26.745 26.745-26.745z" fill="#fafafa" fill-opacity=".98837" stroke-width=".96125"/>
 <path d="m32 4.681c-15.082 0-27.319 12.236-27.319 27.319 0 15.082 12.236 27.319 27.319 27.319s27.319-12.236 27.319-27.319c0-15.082-12.236-27.319-27.319-27.319zm0 0.574c14.79 0 26.745 11.955 26.745 26.745s-11.955 26.745-26.745 26.745c-14.79 1e-5 -26.745-11.955-26.745-26.745 0-8.8722 4.3021-16.724 10.937-21.587 4.4258-3.2436 9.8896-5.1578 15.807-5.1578z" fill="#c8c8c8" stroke-width=".96125"/>
 <circle cx="-788.62" cy="-783.81" r="0" fill="#5e4aa6" stroke-width=".64067"/>
 <g stroke-width=".070782">
  <path d="m30.033 13.879c-1.0547 0-1.912 0.85928-1.9121 1.9141v0.89453c0 0.54749-0.3515 1.0345-0.875 1.2109-0.6313 0.21284-1.2558 0.47092-1.8535 0.76758-0.17916 0.088916-0.37763 0.13672-0.57617 0.13672-0.3408 0-0.66072-0.13347-0.90039-0.37305l-0.63281-0.63281c-0.36128-0.36132-0.84261-0.56055-1.3535-0.56055-0.51105 0-0.99028 0.19919-1.3516 0.56055l-2.7812 2.7812c-0.3614 0.36135-0.56055 0.84059-0.56055 1.3516s0.19919 0.99223 0.56055 1.3535l0.63281 0.63281c0.38732 0.38731 0.48286 0.98212 0.23633 1.4785-0.29665 0.59747-0.55481 1.2201-0.76758 1.8516-0.17645 0.52342-0.66352 0.875-1.2109 0.875h-0.89453c-1.0547 0-1.9121 0.85732-1.9121 1.9121v3.9336c0 1.0548 0.8574 1.912 1.9121 1.9121h0.89453c0.54749 0 1.0345 0.35151 1.2109 0.875 0.21277 0.63137 0.47092 1.256 0.76758 1.8535 0.24652 0.49647 0.15098 1.0892-0.23633 1.4766l-0.63281 0.63281c-0.36141 0.36135-0.56055 0.84261-0.56055 1.3535 0 0.51098 0.19919 0.99028 0.56055 1.3516l2.7812 2.7812c0.36128 0.36126 0.84052 0.56055 1.3516 0.56055 0.51097 0 0.99223-0.19919 1.3535-0.56055l0.63281-0.63281c0.23965-0.23958 0.55957-0.37305 0.90039-0.37305 0.19861 0 0.39897 0.047758 0.57812 0.13672 0.59769 0.29673 1.2203 0.55473 1.8516 0.76758 0.52342 0.17648 0.875 0.66359 0.875 1.2109v0.89453c0 1.0548 0.8574 1.9141 1.9121 1.9141h3.9336c1.0547 0 1.9121-0.85928 1.9121-1.9141v-0.89453c0-0.54749 0.35151-1.0345 0.875-1.2109 0.6313-0.21284 1.2558-0.47093 1.8535-0.76758 0.17914-0.088989 0.37761-0.13672 0.57617-0.13672 0.34082 0 0.66072 0.13342 0.90039 0.37305l0.63281 0.63281c0.36128 0.36126 0.84247 0.56055 1.3535 0.56055 0.51098 0 0.99028-0.19919 1.3516-0.56055l2.7812-2.7812c0.36143-0.36135 0.56055-0.84059 0.56055-1.3516 0-0.51097-0.19919-0.99223-0.56055-1.3535l-0.63281-0.63281c-0.38734-0.38731-0.48286-0.98212-0.23633-1.4785 0.29665-0.59747 0.5548-1.2201 0.76758-1.8516 0.17645-0.52342 0.6635-0.875 1.2109-0.875h0.89453c1.0547 0 1.9121-0.85732 1.9121-1.9121v-3.9336c0-1.0548-0.8574-1.9121-1.9121-1.9121h-0.89453c-0.54749 0-1.0345-0.35151-1.2109-0.875-0.21277-0.63137-0.47093-1.256-0.76758-1.8535-0.24655-0.49647-0.15098-1.0893 0.23633-1.4766l0.63281-0.63281c0.36143-0.36128 0.56055-0.84261 0.56055-1.3535 0-0.51098-0.19922-0.99028-0.56055-1.3516l-2.7812-2.7812c-0.36135-0.36129-0.84066-0.56055-1.3516-0.56055-0.51105 0-0.99223 0.19919-1.3535 0.56055l-0.63281 0.63281c-0.23965 0.23958-0.55957 0.37297-0.90039 0.37305-0.19861 0-0.39701-0.047728-0.57617-0.13672-0.59769-0.29672-1.2222-0.55474-1.8535-0.76758-0.52342-0.17645-0.875-0.66352-0.875-1.2109v-0.89453c0-1.0548-0.8574-1.9141-1.9121-1.9141h-3.9336zm1.9668 7.0703c6.1038 0 11.053 4.9487 11.053 11.053s-4.9487 11.053-11.053 11.053c-6.104-1e-6 -11.053-4.9487-11.053-11.053s4.9487-11.053 11.053-11.053zm0 3.4199c-4.2145 0-7.6309 3.4183-7.6309 7.6328 0 4.2145 3.4163 7.6309 7.6309 7.6309 4.2145 0 7.6309-3.4163 7.6309-7.6309 0-4.2145-3.4163-7.6328-7.6309-7.6328zm0 1.7852c2.2084 0 4.204 1.2228 5.209 3.1914 1.0791 2.1137 0.78439 4.5904-0.81055 6.793-0.072572 0.10022-0.15974 0.1873-0.25977 0.25977-1.3073 0.94672-2.739 1.4473-4.1387 1.4473-2.2084 0-4.204-1.2229-5.209-3.1914-1.0791-2.1137-0.78439-4.5904 0.81055-6.793 0.072542-0.10023 0.15975-0.1873 0.25977-0.25977 1.3073-0.94672 2.739-1.4473 4.1387-1.4473z" fill="url(#SVGID_1_)"/>
  <path d="m30.035 14.199c-0.88039 0-1.5938 0.71328-1.5938 1.5938v0.89453c0 0.68694-0.44284 1.2943-1.0938 1.5137-0.62408 0.21036-1.2275 0.46064-1.8105 0.75-0.61638 0.306-1.3591 0.19161-1.8457-0.29492l-0.63281-0.63281c-0.6226-0.62261-1.6314-0.62261-2.2539 0l-2.7812 2.7793c-0.6226 0.6226-0.6226 1.6333 0 2.2559l0.63281 0.63281c0.48662 0.48662 0.60278 1.2274 0.29688 1.8438-0.28944 0.58304-0.54165 1.1884-0.75195 1.8125-0.21942 0.65098-0.82485 1.0918-1.5117 1.0918h-0.89648c-0.88039 0-1.5938 0.71526-1.5938 1.5957v3.9316c0 0.88039 0.71328 1.5938 1.5938 1.5938h0.89648c0.68694 0 1.2924 0.44091 1.5117 1.0918 0.21036 0.62408 0.46259 1.2295 0.75195 1.8125 0.306 0.61638 0.18969 1.3591-0.29688 1.8457l-0.63281 0.63281c-0.62261 0.6226-0.62261 1.6314 0 2.2539l2.7812 2.7812c0.6226 0.6226 1.6314 0.6226 2.2539 0l0.63281-0.63281c0.48662-0.48662 1.2293-0.60282 1.8457-0.29688 0.58304 0.28946 1.1865 0.54165 1.8105 0.75195 0.65098 0.21943 1.0938 0.82485 1.0938 1.5117v0.89453c0 0.88039 0.71331 1.5938 1.5938 1.5938h3.9316c0.88039 0 1.5938-0.71331 1.5938-1.5938v-0.89453c0-0.68694 0.44284-1.2925 1.0938-1.5117 0.62408-0.21035 1.2275-0.46259 1.8105-0.75195 0.61636-0.30598 1.3591-0.18967 1.8457 0.29688l0.63281 0.63281c0.6226 0.6226 1.6314 0.6226 2.2539 0l2.7812-2.7812c0.6226-0.6226 0.6226-1.6314 0-2.2539l-0.63281-0.63281c-0.48662-0.48664-0.60283-1.2293-0.29688-1.8457 0.28944-0.58304 0.54167-1.1884 0.75195-1.8125 0.21943-0.65098 0.82485-1.0918 1.5117-1.0918h0.89648c0.88068 0 1.5938-0.71338 1.5938-1.5938v-3.9316c0-0.88039-0.71328-1.5957-1.5938-1.5957h-0.89648c-0.68694 0-1.2924-0.44088-1.5117-1.0918-0.21035-0.62408-0.46259-1.2295-0.75195-1.8125-0.306-0.61638-0.18967-1.3571 0.29688-1.8438l0.63281-0.63281c0.6226-0.6226 0.6226-1.6333 0-2.2559l-2.7793-2.7793c-0.6226-0.6226-1.6334-0.6226-2.2559 0l-0.63281 0.63281c-0.48662 0.48664-1.2293 0.60085-1.8457 0.29492-0.58304-0.28941-1.1865-0.5397-1.8105-0.75-0.65098-0.21944-1.0938-0.8268-1.0938-1.5137v-0.89453c0-0.88039-0.71331-1.5938-1.5938-1.5938h-3.9316zm1.9648 7.2754c5.8132 0 10.525 4.712 10.525 10.525s-4.712 10.527-10.525 10.527c-5.8134 0-10.527-4.7139-10.527-10.527s4.7139-10.525 10.527-10.525z" fill="url(#SVGID_2_)"/>
  <path d="m32 25.523c-3.5775 0-6.4779 2.9004-6.4779 6.4779 0 3.5775 2.9004 6.4779 6.4779 6.4779 3.5775 0 6.4779-2.9004 6.4779-6.4779 0-3.5775-2.9004-6.4779-6.4779-6.4779zm0 9.7977c-1.8334 0-3.3198-1.4866-3.3198-3.3198 0-1.8333 1.4866-3.3198 3.3198-3.3198 1.8333 0 3.3198 1.4866 3.3198 3.3198 0 1.8333-1.4866 3.3198-3.3198 3.3198z" fill="url(#SVGID_7_)"/>
  <path d="m32 38.802c3.7564 0 6.8016-3.0455 6.8016-6.8016 0-3.7564-3.0455-6.8016-6.8016-6.8016-3.7564 0-6.8016 3.0455-6.8016 6.8016 0 3.7564 3.0455 6.8016 6.8016 6.8016zm0-11.498c2.5936 0 4.6964 2.1029 4.6964 4.6964 0 2.5936-2.1029 4.6964-4.6964 4.6964-2.5936 0-4.6964-2.1029-4.6964-4.6964 0-2.5936 2.1029-4.6964 4.6964-4.6964z" fill="url(#SVGID_8_)"/>
 </g>
</svg>
