<?xml version="1.0" encoding="UTF-8"?>
<svg width="64" height="64" version="1.1" xmlns="http://www.w3.org/2000/svg" xmlns:cc="http://creativecommons.org/ns#" xmlns:dc="http://purl.org/dc/elements/1.1/" xmlns:rdf="http://www.w3.org/1999/02/22-rdf-syntax-ns#" xmlns:xlink="http://www.w3.org/1999/xlink">
 <metadata>
  <rdf:RDF>
   <cc:Work rdf:about="">
    <dc:format>image/svg+xml</dc:format>
    <dc:type rdf:resource="http://purl.org/dc/dcmitype/StillImage"/>
    <dc:title/>
   </cc:Work>
  </rdf:RDF>
 </metadata>
 <defs>
  <radialGradient id="a" cx="24" cy="1028.4" r="16" gradientTransform="matrix(1.8465 .00501 -.00501 1.847 -7.165 -1867.4)" gradientUnits="userSpaceOnUse">
   <stop stop-color="#823cb4" offset="0"/>
   <stop stop-color="#41bed2" offset="1"/>
  </radialGradient>
  <linearGradient id="linearGradient1005" x1="4.2557" x2="43.744" y1="1047.8" y2="1008.7" gradientUnits="userSpaceOnUse">
   <stop stop-color="#8232b4" offset="0"/>
   <stop stop-color="#7d3cb4" offset="1"/>
  </linearGradient>
 </defs>
 <g stroke-linejoin="round">
  <g transform="matrix(1.5,0,0,1.5,-4,-1510.5)" fill="url(#linearGradient1005)" stroke-width=".33333">
   <circle cx="24" cy="1028.4" r="20" fill="url(#linearGradient1005)" stroke-width=".33333"/>
  </g>
  <circle cx="32" cy="32.1" r="27" fill="#fafafa" stroke-linecap="round" stroke-width="1.9999"/>
  <path d="m32 8.1c-4.5 0-7.5 3-7.5 3s1.7895 6.078 3 9c1.284 3.099 4.5 9 4.5 9s3.216-5.901 4.5-9c1.2105-2.922 3-9 3-9s-3-3-7.5-3m-9.5445 3.846s-4.245 0-7.4265 3.1815-3.1815 7.4265-3.1815 7.4265 5.565 3.03 8.487 4.242c3.099 1.284 9.5445 3.1815 9.5445 3.1815s-1.8975-6.4455-3.1815-9.5445c-1.2105-2.922-4.242-8.487-4.242-8.487m19.09 0s-3.03 5.565-4.242 8.487c-1.284 3.099-3.1815 9.5445-3.1815 9.5445s6.4455-1.8975 9.5445-3.1815c2.922-1.2105 8.487-4.242 8.487-4.242s0-4.245-3.1815-7.4265-7.4265-3.1815-7.4265-3.1815m-30.544 12.654s-3 3-3 7.5 3 7.5 3 7.5 6.078-1.7895 9-3c3.099-1.284 9-4.5 9-4.5s-5.901-3.216-9-4.5c-2.922-1.2105-9-3-9-3m42 0s-6.078 1.7895-9 3c-3.099 1.284-9 4.5-9 4.5s5.901 3.216 9 4.5c2.922 1.2105 9 3 9 3s3-3 3-7.5-3-7.5-3-7.5m-23.121 9.621s-6.4455 1.8975-9.5445 3.1815c-2.922 1.2105-8.487 4.242-8.487 4.242s0 4.245 3.1815 7.4265 7.4265 3.1815 7.4265 3.1815 3.03-5.565 4.242-8.487c1.284-3.099 3.1815-9.5445 3.1815-9.5445m4.242 0s1.8975 6.4455 3.1815 9.5445c1.2105 2.922 4.242 8.487 4.242 8.487s4.245 0 7.4265-3.1815 3.1815-7.4265 3.1815-7.4265-5.565-3.03-8.487-4.242c-3.099-1.284-9.5445-3.1815-9.5445-3.1815m-2.121 0.879s-3.216 5.901-4.5 9c-1.2105 2.922-3 9-3 9s3 3 7.5 3 7.5-3 7.5-3-1.7895-6.078-3-9c-1.284-3.099-4.5-9-4.5-9" fill="url(#a)" stroke-width="1.9999"/>
 </g>
</svg>
