<?xml version="1.0" encoding="UTF-8" standalone="no"?>
<svg
   xmlns:dc="http://purl.org/dc/elements/1.1/"
   xmlns:cc="http://creativecommons.org/ns#"
   xmlns:rdf="http://www.w3.org/1999/02/22-rdf-syntax-ns#"
   xmlns:svg="http://www.w3.org/2000/svg"
   xmlns="http://www.w3.org/2000/svg"
   xmlns:xlink="http://www.w3.org/1999/xlink"
   xmlns:sodipodi="http://sodipodi.sourceforge.net/DTD/sodipodi-0.dtd"
   xmlns:inkscape="http://www.inkscape.org/namespaces/inkscape"
   id="Apps-Visual-Studio-Code"
   width="64"
   height="64"
   enable-background="new 0 0 1024 1024"
   image-rendering="optimizeSpeed"
   version="1.1"
   viewBox="0 0 64 64"
   sodipodi:docname="applications-system.svg"
   inkscape:version="1.0.1 (3bc2e813f5, 2020-09-07)">
  <sodipodi:namedview
     pagecolor="#ffffff"
     bordercolor="#666666"
     borderopacity="1"
     objecttolerance="10"
     gridtolerance="10"
     guidetolerance="10"
     inkscape:pageopacity="0"
     inkscape:pageshadow="2"
     inkscape:window-width="1920"
     inkscape:window-height="975"
     id="namedview85"
     showgrid="false"
     inkscape:zoom="6.4921875"
     inkscape:cx="30.221976"
     inkscape:cy="35.021177"
     inkscape:window-x="0"
     inkscape:window-y="0"
     inkscape:window-maximized="1"
     inkscape:current-layer="Apps-Visual-Studio-Code" />
  <metadata
     id="metadata2">
    <rdf:RDF>
      <cc:Work
         rdf:about="">
        <dc:format>image/svg+xml</dc:format>
        <dc:type
           rdf:resource="http://purl.org/dc/dcmitype/StillImage" />
        <dc:title></dc:title>
      </cc:Work>
    </rdf:RDF>
  </metadata>
  <defs
     id="defs58">
    <linearGradient
       id="h"
       x1="73.823"
       x2="68.874"
       y1="17.956"
       y2="119.07"
       gradientTransform="matrix(0.465,0,0,0.465,1.782,1.62)"
       gradientUnits="userSpaceOnUse">
      <stop
         stop-color="#2c2d31"
         offset="0"
         id="stop4" />
      <stop
         stop-color="#3c3e43"
         offset="1"
         id="stop6" />
    </linearGradient>
    <radialGradient
       id="a"
       cx="64.985"
       cy="65.333"
       r="59.751"
       gradientTransform="matrix(0.465,0,0,0.465,1.782,1.62)"
       gradientUnits="userSpaceOnUse">
      <stop
         stop-color="#2c2d31"
         offset="0"
         id="stop9" />
      <stop
         stop-color="#393b3f"
         offset=".72577"
         id="stop11" />
      <stop
         stop-color="#232529"
         offset="1"
         id="stop13" />
    </radialGradient>
    <filter
       id="j"
       x="-.036"
       y="-.036"
       width="1.072"
       height="1.072"
       color-interpolation-filters="sRGB">
      <feGaussianBlur
         stdDeviation="1.7925294"
         id="feGaussianBlur16" />
    </filter>
    <linearGradient
       id="SVGID_8_"
       x1="282.4"
       x2="185.32"
       y1="237.23"
       y2="334.31"
       gradientTransform="matrix(0.11663642,0,0,-0.11663642,4.3639815,28.615388)"
       gradientUnits="userSpaceOnUse"
       xlink:href="#SVGID_1_">
      <stop
         stop-color="#dee2e4"
         offset="0"
         id="stop19" />
      <stop
         stop-color="#dee2e4"
         offset=".293"
         id="stop21" />
      <stop
         stop-color="#a6aeb2"
         offset=".72"
         id="stop23" />
      <stop
         stop-color="#9aa2a6"
         offset="1"
         id="stop25" />
    </linearGradient>
    <linearGradient
       id="SVGID_7_"
       x1="236.94"
       x2="236.94"
       y1="303.37"
       y2="208.83"
       gradientTransform="matrix(0.11663642,0,0,-0.11663642,4.3639815,64.970717)"
       gradientUnits="userSpaceOnUse">
      <stop
         stop-color="#dee2e4"
         offset="0"
         id="stop28" />
      <stop
         stop-color="#9ea7aa"
         offset="1"
         id="stop30" />
    </linearGradient>
    <linearGradient
       id="SVGID_2_"
       x1="236.94"
       x2="236.94"
       y1="360.12"
       y2="54.827"
       gradientTransform="matrix(0.11663642,0,0,-0.11663642,4.3639815,64.970717)"
       gradientUnits="userSpaceOnUse">
      <stop
         stop-color="#dee2e4"
         offset="0"
         id="stop33" />
      <stop
         stop-color="#889296"
         offset="1"
         id="stop35" />
    </linearGradient>
    <linearGradient
       id="SVGID_1_"
       x1="445.27"
       x2="103.39"
       y1="491.02"
       y2="149.14"
       gradientTransform="matrix(.075503 0 0 -.075503 14.111 53.343)"
       gradientUnits="userSpaceOnUse">
      <stop
         stop-color="#5B6A6A"
         offset="0"
         id="stop38" />
      <stop
         stop-color="#C2CECE"
         stop-opacity="0"
         offset=".311"
         id="stop40" />
      <stop
         stop-color="#CAD5D5"
         stop-opacity=".157"
         offset=".348"
         id="stop42" />
      <stop
         stop-color="#E0E8E7"
         stop-opacity=".669"
         offset=".47"
         id="stop44" />
      <stop
         stop-color="#E8EFEE"
         offset=".549"
         id="stop46" />
      <stop
         stop-color="#97AAAA"
         offset=".788"
         id="stop48" />
      <stop
         stop-color="#9CAEAE"
         stop-opacity=".724"
         offset=".861"
         id="stop50" />
      <stop
         stop-color="#AAB9B9"
         stop-opacity=".402"
         offset=".946"
         id="stop52" />
      <stop
         stop-color="#B7C3C3"
         stop-opacity=".196"
         offset="1"
         id="stop54" />
    </linearGradient>
    <linearGradient
       id="linearGradient894"
       x1="445.27"
       x2="103.39"
       y1="491.02"
       y2="149.14"
       gradientTransform="matrix(0.075503,0,0,-0.075503,32.581486,48.716976)"
       gradientUnits="userSpaceOnUse"
       xlink:href="#SVGID_1_" />
    <radialGradient
       id="a-7"
       cx="512.01"
       cy="512.01"
       r="470.16"
       gradientTransform="matrix(0.057428,0,0,0.057428,58.53713,-26.694232)"
       gradientUnits="userSpaceOnUse">
      <stop
         stop-opacity="0"
         offset="0"
         id="stop4-5" />
      <stop
         stop-opacity=".52593"
         offset="1"
         id="stop6-3" />
    </radialGradient>
    <filter
       id="d"
       x="-.036"
       y="-.036"
       width="1.072"
       height="1.072"
       color-interpolation-filters="sRGB">
      <feGaussianBlur
         stdDeviation="0.90000006"
         id="feGaussianBlur4" />
    </filter>
    <linearGradient
       id="linearGradient860"
       x1="533.34"
       x2="524.91"
       y1="1010.1"
       y2="2002.6"
       gradientTransform="matrix(0.06383,0,0,0.06383,11.106014,-101.31384)"
       gradientUnits="userSpaceOnUse">
      <stop
         stop-color="#8a26af"
         offset="0"
         id="stop7" />
      <stop
         stop-color="#3bcbd9"
         offset="1"
         id="stop9-5" />
    </linearGradient>
    <filter
       id="filter1033"
       x="-.059999"
       y="-.060001"
       width="1.12"
       height="1.12"
       color-interpolation-filters="sRGB">
      <feGaussianBlur
         stdDeviation="0.69998542"
         id="feGaussianBlur12" />
    </filter>
    <linearGradient
       gradientUnits="userSpaceOnUse"
       gradientTransform="matrix(3.7795 0 0 3.7795 -.13143 .0251)"
       y2=".64687"
       y1="16.296"
       x2="16.388"
       x1=".73911"
       id="linearGradient1005-9">
      <stop
         id="stop4-6"
         offset="0"
         stop-color="#cfdade" />
      <stop
         id="stop6-7"
         offset="1"
         stop-color="#eaeff2" />
    </linearGradient>
    <clipPath
       id="clipPath13429">
      <path
         id="path9"
         d="m481 318h22v22h-22z" />
    </clipPath>
    <clipPath
       id="clipPath13465">
      <path
         id="path12"
         d="m507 318h22v22h-22z" />
    </clipPath>
    <clipPath
       id="clipPath13501">
      <path
         id="path15"
         d="m530 318h22v22h-22z" />
    </clipPath>
    <clipPath
       id="clipPath13753">
      <path
         id="path18"
         d="m672 1064c0-1.105 4.925-2 11-2s11 0.895 11 2-4.925 2-11 2-11-0.895-11-2" />
    </clipPath>
    <clipPath
       id="clipPath13771">
      <path
         id="path21-5"
         d="m660 1057h51v65.001h-51z" />
    </clipPath>
    <clipPath
       id="clipPath14035">
      <path
         id="path24"
         d="m659 517h53v18h-53z" />
    </clipPath>
    <clipPath
       id="clipPath14127">
      <path
         id="path27"
         d="m659 500h53v18h-53z" />
    </clipPath>
    <clipPath
       id="clipPath14445">
      <path
         id="path30"
         d="m648 112h73v60h-73z" />
    </clipPath>
    <clipPath
       id="clipPath14609">
      <path
         id="path33"
         d="m826 1056h59v60h-59z" />
    </clipPath>
    <clipPath
       id="clipPath15305">
      <path
         id="path36"
         d="m805 276h100v100h-100z" />
    </clipPath>
    <clipPath
       id="clipPath15341">
      <path
         id="path39"
         d="m145 1063.8h74.152v45.21h-74.152z" />
    </clipPath>
    <clipPath
       id="clipPath15715">
      <path
         id="path42"
         d="m151 667h57v57h-57z" />
    </clipPath>
    <clipPath
       id="clipPath15807">
      <path
         id="path45"
         d="m154 697h51v51h-51z" />
    </clipPath>
    <clipPath
       id="clipPath16001">
      <path
         id="path48"
         d="m500.04 864.45h36.012v67.52h-36.012z" />
    </clipPath>
    <clipPath
       id="clipPath16093">
      <path
         id="path51"
         d="m836 870.54h47v55.539h-47z" />
    </clipPath>
    <clipPath
       id="clipPath16477">
      <path
         id="path54"
         d="m318.03 702.35h62.848v37.991h-62.848z" />
    </clipPath>
    <clipPath
       id="clipPath16579">
      <path
         id="path57"
         d="m485.03 133.35h62.847v37.991h-62.847z" />
    </clipPath>
    <clipPath
       id="clipPath16709">
      <path
         id="path60"
         d="m493.37 677.93h45.643v68.067h-45.643z" />
    </clipPath>
    <clipPath
       id="clipPath24218">
      <path
         id="path63"
         d="m144.34 1018.2h71.467v78h-71.467z" />
    </clipPath>
    <clipPath
       id="clipPath24382">
      <path
         id="path66-6"
         d="m293.21 1068.6 66.323-38.292 36.047 62.435-66.323 38.292z" />
    </clipPath>
    <clipPath
       id="clipPath24650">
      <path
         id="path69"
         d="m488.86 1054.5h10v10.706h-10z" />
    </clipPath>
    <clipPath
       id="clipPath24700">
      <path
         id="path72-2"
         d="m508 1066.8h10.001v10.705h-10.001z" />
    </clipPath>
    <clipPath
       id="clipPath24750">
      <path
         id="path75"
         d="m525 1045.8h10v10.706h-10z" />
    </clipPath>
    <clipPath
       id="clipPath24864">
      <path
         id="path78-9"
         d="m836 1043.7h25.5v31.5h-25.5z" />
    </clipPath>
    <clipPath
       id="clipPath24896">
      <path
         id="path81"
         d="m838 1062.2h24v24h-24z" />
    </clipPath>
    <clipPath
       id="clipPath25070">
      <path
         id="path84"
         d="m134 489.24h7v6h-7z" />
    </clipPath>
    <clipPath
       id="clipPath25100">
      <path
         id="path87"
         d="m216 489.24h7v6h-7z" />
    </clipPath>
    <clipPath
       id="clipPath25502">
      <path
         id="path90"
         d="m838 477.24h22v22h-22z" />
    </clipPath>
    <clipPath
       id="clipPath25686">
      <path
         id="path93"
         d="m704 1061.2h25v25h-25z" />
    </clipPath>
    <clipPath
       id="clipPath25788">
      <path
         id="path96"
         d="m663.04 1078.6-1.808-3.514-21.07-47.453c13.336-18.439 48.336-26.938 73.836-3.439 0.842 0 6.476 6.246 6 7l-18.386 25.895c-0.483 0.765-1.453 0.946-2.177 0.431l-15.505-11.011c-0.359-0.255-0.847-0.153-1.07 0.238l-18.272 31.869c-0.218 0.384-0.502 0.578-0.782 0.578-0.282 0-0.561-0.197-0.766-0.594" />
    </clipPath>
    <clipPath
       id="clipPath26420">
      <path
         id="path99"
         d="m127 820.24h100v100h-100z" />
    </clipPath>
    <clipPath
       id="clipPath26860">
      <path
         id="path102"
         d="m809 680.24c0-22.092 17.908-40 40-40s40 17.908 40 40c0 22.091-17.908 40-40 40s-40-17.909-40-40" />
    </clipPath>
    <clipPath
       id="clipPath27506">
      <path
         id="path105"
         d="m658 469.24h44v45h-44z" />
    </clipPath>
    <clipPath
       id="clipPath27772">
      <path
         id="path108"
         d="m651 271.24h58v58h-58z" />
    </clipPath>
    <clipPath
       id="clipPath27864">
      <path
         id="path111"
         d="m662 307.24h38v8h-38z" />
    </clipPath>
    <clipPath
       id="clipPath28028">
      <path
         id="path114"
         d="m858.98 137.24c0.013-0.101 0.021-0.203 0.021-0.307v-6.693h15.75c1.237 0 2.25-1.013 2.25-2.25v-11.25l-27-4.5-27 4.5v-2.25l27-4.5 27 4.5v-27c0-1.237-1.013-2.25-2.25-2.25h-49.5c-1.237 0-2.25 1.013-2.25 2.25v-4.25h54v54zm-35.979 0v-9.25c0 1.237 1.013 2.25 2.25 2.25h15.75v6.693c0 0.104 7e-3 0.207 0.02 0.307zm22.5-7h9v4.5h-9zm1.125-9c-0.62 0-1.125-0.506-1.125-1.125v-2.25c0-0.619 0.505-1.125 1.125-1.125h6.75c0.619 0 1.125 0.506 1.125 1.125v2.25c0 0.619-0.506 1.125-1.125 1.125z" />
    </clipPath>
    <clipPath
       id="clipPath28200">
      <path
         id="path117"
         d="m531.27 136.24c6.325-2.29 10.727-8.277 10.727-15.484 0-11.316-10.2-20.563-25.65-34.575l-4.35-3.941-4.35 3.941c-15.45 14.012-25.65 23.259-25.65 34.575v-39.516h60v55zm-26.983 0c2.995-1.052 5.686-2.883 7.71-5.25 2.024 2.367 4.715 4.198 7.71 5.25zm-22.29 0v-15.484c0 7.207 4.402 13.194 10.727 15.484z" />
    </clipPath>
    <clipPath
       id="clipPath28364">
      <path
         id="path120"
         d="m648 79.241h64v64h-64z" />
    </clipPath>
    <clipPath
       id="clipPath28984">
      <path
         id="path123"
         d="m500 691.74c0-3.037 2.463-5.5 5.5-5.5s5.5 2.463 5.5 5.5-2.463 5.5-5.5 5.5-5.5-2.463-5.5-5.5" />
    </clipPath>
    <clipPath
       id="clipPath29012">
      <path
         id="path126"
         d="m500 669.74c0-3.037 2.463-5.5 5.5-5.5s5.5 2.463 5.5 5.5c0 3.038-2.463 5.5-5.5 5.5s-5.5-2.462-5.5-5.5" />
    </clipPath>
    <clipPath
       id="clipPath29040">
      <path
         id="path129"
         d="m494 680.74c0-3.037 2.462-5.5 5.5-5.5s5.5 2.463 5.5 5.5c0 3.038-2.462 5.5-5.5 5.5s-5.5-2.462-5.5-5.5" />
    </clipPath>
    <clipPath
       id="clipPath29068">
      <path
         id="path132"
         d="m513 691.74c0-3.037 2.463-5.5 5.5-5.5s5.5 2.463 5.5 5.5-2.463 5.5-5.5 5.5-5.5-2.463-5.5-5.5" />
    </clipPath>
    <clipPath
       id="clipPath29096">
      <path
         id="path135"
         d="m513 669.74c0-3.037 2.463-5.5 5.5-5.5s5.5 2.463 5.5 5.5c0 3.038-2.463 5.5-5.5 5.5s-5.5-2.462-5.5-5.5" />
    </clipPath>
    <clipPath
       id="clipPath29124">
      <path
         id="path138"
         d="m507 680.74c0-3.037 2.463-5.5 5.5-5.5s5.5 2.463 5.5 5.5c0 3.038-2.463 5.5-5.5 5.5s-5.5-2.462-5.5-5.5" />
    </clipPath>
    <clipPath
       id="clipPath29152">
      <path
         id="path141"
         d="m520 680.74c0-3.037 2.463-5.5 5.5-5.5s5.5 2.463 5.5 5.5c0 3.038-2.463 5.5-5.5 5.5s-5.5-2.462-5.5-5.5" />
    </clipPath>
    <clipPath
       id="clipPath29252">
      <path
         id="path144"
         d="m321 322.24c-4.97 0-9-4.029-9-9 0-4.97 4.03-9 9-9h45c4.971 0 9 4.03 9 9 0 4.971-4.029 9-9 9z" />
    </clipPath>
    <clipPath
       id="clipPath29280">
      <path
         id="path147"
         d="m322 297.24c-4.971 0-9-4.029-9-9 0-4.97 4.029-9 9-9h45c4.971 0 9 4.03 9 9 0 4.971-4.029 9-9 9z" />
    </clipPath>
    <clipPath
       id="clipPath29400">
      <path
         id="path150"
         d="m155 83.24h44v53h-44z" />
    </clipPath>
    <linearGradient
       id="linearGradient1011">
      <stop
         id="stop153"
         offset="0"
         stop-color="#4bebfb" />
      <stop
         id="stop155"
         offset=".49979"
         stop-color="#2fcaf5" />
      <stop
         id="stop157"
         offset="1"
         stop-color="#40bce8" />
    </linearGradient>
    <style
       id="style160"
       type="text/css" />
    <linearGradient
       gradientUnits="userSpaceOnUse"
       gradientTransform="scale(.26458)"
       y2="62.01"
       y1="2.1827"
       x2="32.342"
       x1="32.342"
       id="linearGradient995">
      <stop
         id="stop162"
         offset="0"
         stop-color="#99b4c0" />
      <stop
         id="stop164"
         offset="1"
         stop-color="#537080" />
    </linearGradient>
    <linearGradient
       xlink:href="#linearGradient1011"
       gradientUnits="userSpaceOnUse"
       gradientTransform="matrix(.94444 0 0 .94444 .47036 -.47036)"
       y2="-8.4665"
       y1="-8.4665"
       x2="10.848"
       x1="6.0853"
       id="linearGradient1013" />
    <linearGradient
       gradientUnits="userSpaceOnUse"
       y2="-8.4665"
       y1="-8.4665"
       x2="7.5688"
       x1="3.5957"
       id="linearGradient1025">
      <stop
         id="stop168"
         offset="0"
         stop-color="#58edfd" />
      <stop
         id="stop170"
         offset="1"
         stop-color="#24ccf5" />
    </linearGradient>
    <linearGradient
       gradientUnits="userSpaceOnUse"
       y2="-8.4665"
       y1="-8.4665"
       x2="7.3018"
       x1="13.313"
       id="linearGradient1029">
      <stop
         id="stop173"
         offset="0"
         stop-color="#7dafc6" />
      <stop
         id="stop175"
         offset="1"
         stop-color="#cee1ea" />
    </linearGradient>
    <filter
       color-interpolation-filters="sRGB"
       height="1.864"
       width="1.864"
       y="-.432"
       x="-.432"
       id="filter1139">
      <feGaussianBlur
         id="feGaussianBlur178"
         stdDeviation="0.80960904" />
    </filter>
    <filter
       color-interpolation-filters="sRGB"
       height="1.216"
       width="1.216"
       y="-.108"
       x="-.108"
       id="filter904">
      <feGaussianBlur
         id="feGaussianBlur181"
         stdDeviation="0.20240099" />
    </filter>
    <linearGradient
       gradientTransform="matrix(2.3387296,0,0,2.3387296,12.198561,12.052379)"
       id="linearGradient977"
       x1="1.1408"
       x2="11.921"
       y1="15.909"
       y2="4.1256"
       gradientUnits="userSpaceOnUse">
      <stop
         stop-color="#607d8b"
         offset="0"
         id="stop1461" />
      <stop
         stop-color="#91aab4"
         offset="1"
         id="stop1463" />
    </linearGradient>
    <linearGradient
       id="linearGradient1105"
       x1="7.1045"
       x2="9.8105"
       y1="9.8656"
       y2="7.166"
       gradientTransform="matrix(3.7751773,0,0,3.7751773,0.03716708,-0.19928988)"
       gradientUnits="userSpaceOnUse">
      <stop
         stop-color="#0071e2"
         offset="0"
         id="stop1466" />
      <stop
         stop-color="#00a5fa"
         offset="1"
         id="stop1468" />
    </linearGradient>
    <filter
       color-interpolation-filters="sRGB"
       height="1.2402"
       width="1.2402"
       y="-.12009"
       x="-.12009"
       id="filter968">
      <feGaussianBlur
         id="feGaussianBlur4-3"
         stdDeviation="0.066194553" />
    </filter>
    <filter
       color-interpolation-filters="sRGB"
       height="1.3538"
       width="1.0737"
       y="-.17692"
       x="-.036858"
       id="filter1016">
      <feGaussianBlur
         id="feGaussianBlur7"
         stdDeviation="0.097518237" />
    </filter>
    <filter
       color-interpolation-filters="sRGB"
       height="2.0191"
       width="1.2123"
       y="-.50953"
       x="-.10615"
       id="filter1024">
      <feGaussianBlur
         id="feGaussianBlur10"
         stdDeviation="0.28085546" />
    </filter>
    <linearGradient
       gradientUnits="userSpaceOnUse"
       gradientTransform="translate(166.93,24.77)"
       y2="-1.2664"
       y1="-15.818"
       x2="-170.21"
       x1="-184.76"
       id="linearGradient1154">
      <stop
         id="stop13-1"
         offset="0"
         stop-color="#fed54f" />
      <stop
         id="stop15"
         offset="1"
         stop-color="#ffbb4d" />
    </linearGradient>
    <linearGradient
       gradientUnits="userSpaceOnUse"
       gradientTransform="matrix(0.96,0,0,0.83333,-12.871,2.9791)"
       y2="10.583"
       y1="8.9957"
       x2="-38.893"
       x1="-38.893"
       id="linearGradient1190">
      <stop
         id="stop18"
         offset="0"
         stop-color="#c6d4e7" />
      <stop
         id="stop20"
         offset=".097346"
         stop-color="#d8e5f8" />
      <stop
         id="stop22"
         offset=".20734"
         stop-color="#fff" />
      <stop
         id="stop24"
         offset=".49769"
         stop-color="#f1f4f5" />
      <stop
         id="stop26"
         offset=".73738"
         stop-color="#a1aab0" />
      <stop
         id="stop28-2"
         offset=".78932"
         stop-color="#a2abb0" />
      <stop
         id="stop30-7"
         offset=".94113"
         stop-color="#a2a7a2" />
      <stop
         id="stop32"
         offset="1"
         stop-color="#d6d1b4" />
    </linearGradient>
    <filter
       color-interpolation-filters="sRGB"
       height="1.0702"
       width="1.0365"
       y="-.035087"
       x="-.018237"
       id="filter1221">
      <feGaussianBlur
         id="feGaussianBlur35"
         stdDeviation="0.096503745" />
    </filter>
    <filter
       color-interpolation-filters="sRGB"
       height="1.0541"
       width="1.0431"
       y="-.027064"
       x="-.021559"
       id="filter1227">
      <feGaussianBlur
         id="feGaussianBlur38"
         stdDeviation="0.1140825" />
    </filter>
    <filter
       color-interpolation-filters="sRGB"
       height="1.048"
       width="1.048"
       y="-.024"
       x="-.024"
       id="filter1233">
      <feGaussianBlur
         id="feGaussianBlur41"
         stdDeviation="0.1269975" />
    </filter>
    <linearGradient
       id="linearGradient1005-6"
       x1=".73911"
       x2="16.388"
       y1="16.296"
       y2=".64687"
       gradientTransform="matrix(0.91665,0,0,0.91665,15.147704,-16.893824)"
       gradientUnits="userSpaceOnUse">
      <stop
         stop-color="#323232"
         offset="0"
         id="stop885" />
      <stop
         stop-color="#4e4e4e"
         offset=".49575"
         id="stop887" />
      <stop
         stop-color="#323232"
         offset="1"
         id="stop889" />
    </linearGradient>
    <linearGradient
       id="a-5">
      <stop
         offset="0"
         id="stop981" />
      <stop
         offset="1"
         stop-opacity="0"
         id="stop983" />
    </linearGradient>
    <linearGradient
       xlink:href="#a-5"
       id="b"
       x1="44.062"
       y1="57"
       x2="44.062"
       y2="28.742"
       gradientUnits="userSpaceOnUse"
       gradientTransform="matrix(0.26458,0,0,0.27517,0,279.463)" />
    <filter
       id="filter968-7"
       x="-.12009"
       y="-.12009"
       width="1.2402"
       height="1.2402"
       color-interpolation-filters="sRGB">
      <feGaussianBlur
         stdDeviation="0.066194553"
         id="feGaussianBlur4-5" />
    </filter>
    <filter
       id="filter1016-3"
       x="-.036858"
       y="-.17692"
       width="1.0737"
       height="1.3538"
       color-interpolation-filters="sRGB">
      <feGaussianBlur
         stdDeviation="0.097518237"
         id="feGaussianBlur7-5" />
    </filter>
    <filter
       id="filter1024-6"
       x="-.10615"
       y="-.50953"
       width="1.2123"
       height="2.0191"
       color-interpolation-filters="sRGB">
      <feGaussianBlur
         stdDeviation="0.28085546"
         id="feGaussianBlur10-2" />
    </filter>
    <filter
       id="filter1221-2"
       x="-.018237"
       y="-.035087"
       width="1.0365"
       height="1.0702"
       color-interpolation-filters="sRGB">
      <feGaussianBlur
         stdDeviation="0.096503745"
         id="feGaussianBlur35-6" />
    </filter>
    <filter
       id="filter1227-1"
       x="-.021559"
       y="-.027064"
       width="1.0431"
       height="1.0541"
       color-interpolation-filters="sRGB">
      <feGaussianBlur
         stdDeviation="0.1140825"
         id="feGaussianBlur38-8" />
    </filter>
    <filter
       id="filter1233-7"
       x="-.024"
       y="-.024"
       width="1.048"
       height="1.048"
       color-interpolation-filters="sRGB">
      <feGaussianBlur
         stdDeviation="0.1269975"
         id="feGaussianBlur41-9" />
    </filter>
    <filter
       inkscape:collect="always"
       style="color-interpolation-filters:sRGB"
       id="filter1742"
       x="-0.048"
       width="1.096"
       y="-0.048"
       height="1.096">
      <feGaussianBlur
         inkscape:collect="always"
         stdDeviation="0.4"
         id="feGaussianBlur1744" />
    </filter>
  </defs>
  <path
     id="rect1853"
     style="opacity:1;fill:#757575;fill-opacity:1;stroke:none;stroke-width:0.119;stroke-linecap:round"
     d="M 32 14.5 C 22.33541 14.5 14.5 22.335411 14.5 32 C 14.5 41.66459 22.33541 49.5 32 49.5 C 41.664589 49.5 49.5 41.66459 49.5 32 C 49.5 22.335411 41.664589 14.5 32 14.5 z M 32 23.03125 C 36.952646 23.03125 40.96875 27.047625 40.96875 32 C 40.96875 36.952646 36.952375 40.96875 32 40.96875 C 27.047082 40.96875 23.03125 36.952377 23.03125 32 C 23.03125 27.047354 27.047623 23.03125 32 23.03125 z " />
  <path
     id="rect1849"
     style="opacity:1;fill:#757575;fill-opacity:1;stroke:none;stroke-width:0.119;stroke-linecap:round"
     d="M 28.962891 4.5019531 C 27.602871 4.5019531 26.501953 5.6026705 26.501953 6.9628906 L 26.501953 8.3457031 C 26.501953 9.4068825 25.816145 10.344666 24.810547 10.683594 C 23.846473 11.008556 22.914286 11.394796 22.013672 11.841797 C 21.061493 12.314503 19.915758 12.138306 19.164062 11.386719 L 18.185547 10.408203 C 17.22376 9.4464001 15.664758 9.4464001 14.703125 10.408203 L 10.408203 14.703125 C 9.4464161 15.664912 9.4464161 17.225713 10.408203 18.1875 L 11.384766 19.164062 C 12.136493 19.915789 12.316302 21.061462 11.84375 22.013672 C 11.396625 22.914348 11.00651 23.848396 10.681641 24.8125 C 10.342682 25.818129 9.4086966 26.5 8.3476562 26.5 L 6.9628906 26.5 C 5.6028712 26.5 4.5 27.604747 4.5 28.964844 L 4.5 35.039062 C 4.5 36.399082 5.6026704 37.5 6.9628906 37.5 L 8.3476562 37.5 C 9.4088355 37.5 10.342868 38.18201 10.681641 39.1875 C 11.006603 40.151573 11.396749 41.085714 11.84375 41.986328 C 12.316456 42.938507 12.136416 44.086196 11.384766 44.837891 L 10.408203 45.816406 C 9.4464006 46.778194 9.4464006 48.335242 10.408203 49.296875 L 14.703125 53.59375 C 15.664912 54.555537 17.223914 54.555537 18.185547 53.59375 L 19.164062 52.617188 C 19.915789 51.86546 21.061463 51.68559 22.013672 52.158203 C 22.914348 52.605359 23.846597 52.995443 24.810547 53.320312 C 25.816176 53.659287 26.501953 54.593257 26.501953 55.654297 L 26.501953 57.037109 C 26.501953 58.397128 27.602717 59.498047 28.962891 59.498047 L 35.037109 59.498047 C 36.397128 59.498047 37.498047 58.397283 37.498047 57.037109 L 37.498047 55.654297 C 37.498047 54.593118 38.183856 53.658931 39.189453 53.320312 C 40.153527 52.995367 41.085714 52.605204 41.986328 52.158203 C 42.938476 51.685528 44.084243 51.865569 44.835938 52.617188 L 45.814453 53.59375 C 46.776241 54.555537 48.335242 54.555537 49.296875 53.59375 L 53.591797 49.296875 C 54.553584 48.335087 54.553584 46.778039 53.591797 45.816406 L 52.615234 44.837891 C 51.863507 44.086134 51.683621 42.938538 52.15625 41.986328 C 52.603375 41.085652 52.99352 40.151604 53.318359 39.1875 C 53.657332 38.181871 54.591304 37.5 55.652344 37.5 L 57.037109 37.5 C 58.397576 37.5 59.5 36.399129 59.5 35.039062 L 59.5 28.964844 C 59.5 27.604824 58.397329 26.5 57.037109 26.5 L 55.652344 26.5 C 54.591165 26.5 53.657131 25.818036 53.318359 24.8125 C 52.993412 23.848427 52.603251 22.914286 52.15625 22.013672 C 51.683544 21.061493 51.863616 19.915912 52.615234 19.164062 L 53.591797 18.1875 C 54.553584 17.225713 54.553584 15.664912 53.591797 14.703125 L 49.298828 10.408203 C 48.33704 9.4464155 46.776086 9.4464155 45.814453 10.408203 L 44.835938 11.386719 C 44.08421 12.138476 42.936584 12.314395 41.984375 11.841797 C 41.083699 11.394718 40.15145 11.008463 39.1875 10.683594 C 38.181871 10.344605 37.498047 9.4068207 37.498047 8.3457031 L 37.498047 6.9628906 C 37.498047 5.6028713 36.397283 4.5019531 35.037109 4.5019531 L 28.962891 4.5019531 z M 31.998047 15.740234 C 40.978231 15.740234 48.257812 23.020125 48.257812 32 C 48.257812 40.979875 40.977922 48.261719 31.998047 48.261719 C 23.017554 48.261719 15.736328 40.98003 15.736328 32 C 15.736328 23.01997 23.018017 15.740234 31.998047 15.740234 z " />
  <circle
     cx="-788.62"
     cy="-783.81"
     r="0"
     fill="#5e4aa6"
     stroke-width=".64067"
     id="circle60" />
  <circle
     style="fill:#000000;fill-opacity:1;stroke:none;stroke-width:0.260916;stroke-linecap:round;filter:url(#filter1742);opacity:0.3"
     id="circle1740"
     cx="32"
     cy="32.256763"
     r="10" />
  <circle
     style="fill:#ffffff;fill-opacity:1;stroke:none;stroke-width:0.260916;stroke-linecap:round"
     id="path1738"
     cx="32"
     cy="32"
     r="10" />
</svg>
