<?xml version="1.0" encoding="UTF-8"?>
<svg width="64" height="64" version="1.1" xmlns="http://www.w3.org/2000/svg" xmlns:cc="http://creativecommons.org/ns#" xmlns:dc="http://purl.org/dc/elements/1.1/" xmlns:rdf="http://www.w3.org/1999/02/22-rdf-syntax-ns#">
 <metadata>
  <rdf:RDF>
   <cc:Work rdf:about="">
    <dc:format>image/svg+xml</dc:format>
    <dc:type rdf:resource="http://purl.org/dc/dcmitype/StillImage"/>
    <dc:title/>
   </cc:Work>
  </rdf:RDF>
 </metadata>
 <defs>
  <linearGradient id="linearGradient978" x1="1.9643" x2="14.969" y1="14.924" y2="2.3319" gradientTransform="matrix(3.7796,0,0,3.7796,-7.3e-4,-2.63e-4)" gradientUnits="userSpaceOnUse">
   <stop stop-color="#ff673c" offset="0"/>
   <stop stop-color="#ff8f14" offset="1"/>
  </linearGradient>
 </defs>
 <path d="m62 32c0 3.5964-0.633 7.0448-1.7939 10.24-0.80694 2.2212-1.8686 4.3212-3.1518 6.2636-0.53749 0.81666-1.1155 1.6053-1.729 2.3633-1.964 2.4256-4.2982 4.5378-6.9182 6.2526-0.96493 0.6318-1.9678 1.2098-3.0061 1.7277-4.0321 2.0178-8.5835 3.1529-13.401 3.1529-4.8171 0-9.3685-1.1351-13.401-3.153-1.0384-0.51803-2.0424-1.096-3.0074-1.7277-2.6535-1.7376-5.0155-3.8832-6.9957-6.349-0.61464-0.76408-1.1914-1.56-1.729-2.384-1.249-1.9101-2.2836-3.9712-3.0746-6.1494-1.1607-3.1948-1.7926-6.6415-1.7926-10.237 0-16.569 13.431-30 30-30 8.317 0 15.843 3.3844 21.277 8.8503 1.5661 1.5746 2.9584 3.3233 4.1436 5.214 1.1204 1.7804 2.0571 3.6881 2.7857 5.6947 1.161 3.1959 1.794 6.6442 1.794 10.24z" fill="url(#linearGradient978)" stroke-width=".11719"/>
 <g transform="matrix(.68511 0 0 .68511 8.615 10.487)" fill="#fafafa" image-rendering="optimizeSpeed" stroke-width="1.3532">
  <path d="m55.175 34.378c0.13531-0.94721 0.27062-1.8944 0.27062-2.977s-0.13531-2.0298-0.27062-2.977l6.0893-4.3303c0.54128-0.40597 0.81189-1.2179 0.40597-1.8944l-5.954-10.014c-0.40597-0.67659-1.0826-0.94721-1.7591-0.54128l-6.7659 3.1123c-1.6238-1.2179-3.2476-2.1651-5.1422-2.977l-0.67658-7.4424c-0.13532-0.67659-0.67659-1.2179-1.3532-1.2179h-11.637c-0.67659 0-1.3532 0.54128-1.3532 1.2179l-0.67659 7.4424c-1.8944 0.8119-3.6536 1.7591-5.1421 2.977l-6.7659-3.1123c-0.67659-0.27063-1.4885 0-1.7591 0.54128l-5.8187 10.014c-0.40597 0.67659-0.13532 1.4885 0.40597 1.8944l6.0893 4.3303c-0.13532 0.94721-0.27064 1.8944-0.27064 2.977s0.13532 2.0298 0.27064 2.977l-6.3599 4.3303c-0.54128 0.40597-0.8119 1.2179-0.40597 1.8944l5.8187 10.014c0.40597 0.67659 1.0826 0.94721 1.7591 0.54128l6.7659-3.1123c1.6238 1.2179 3.2476 2.1651 5.1421 2.977l0.67659 7.4424c0.13532 0.67659 0.67659 1.2179 1.3532 1.2179h11.637c0.67659 0 1.3532-0.54128 1.3532-1.2179l0.67658-7.4424c1.8944-0.8119 3.6536-1.7591 5.1422-2.977l6.7659 3.1123c0.67659 0.27062 1.4885 0 1.7591-0.54128l5.8187-10.014c0.40596-0.67659 0.13531-1.4885-0.40597-1.8944zm-21.109 10.555c-7.4424 0-13.532-6.0893-13.532-13.532 0-7.4424 6.0893-13.532 13.532-13.532s13.532 6.0893 13.532 13.532c0 7.4424-6.0893 13.532-13.532 13.532z"/>
  <path d="m34.132 15.163c-8.9308 0-16.238 7.3071-16.238 16.238 0 8.9308 7.3071 16.238 16.238 16.238 8.9308 0 16.238-7.3071 16.238-16.238 0-8.9308-7.3071-16.238-16.238-16.238zm0 23.004c-3.7891 0-6.7659-2.977-6.7659-6.7659s2.977-6.7659 6.7659-6.7659c3.7891 0 6.7659 2.977 6.7659 6.7659s-2.977 6.7659-6.7659 6.7659z"/>
 </g>
</svg>
