<?xml version="1.0" encoding="UTF-8" standalone="no"?>
<svg
   xmlns:dc="http://purl.org/dc/elements/1.1/"
   xmlns:cc="http://creativecommons.org/ns#"
   xmlns:rdf="http://www.w3.org/1999/02/22-rdf-syntax-ns#"
   xmlns:svg="http://www.w3.org/2000/svg"
   xmlns="http://www.w3.org/2000/svg"
   xmlns:xlink="http://www.w3.org/1999/xlink"
   xmlns:sodipodi="http://sodipodi.sourceforge.net/DTD/sodipodi-0.dtd"
   xmlns:inkscape="http://www.inkscape.org/namespaces/inkscape"
   width="64"
   height="64"
   version="1.1"
   id="svg32"
   sodipodi:docname="ark.svg"
   inkscape:version="1.0.1 (3bc2e813f5, 2020-09-07)">
  <metadata
     id="metadata38">
    <rdf:RDF>
      <cc:Work
         rdf:about="">
        <dc:format>image/svg+xml</dc:format>
        <dc:type
           rdf:resource="http://purl.org/dc/dcmitype/StillImage" />
        <dc:title></dc:title>
      </cc:Work>
    </rdf:RDF>
  </metadata>
  <defs
     id="defs36">
    <clipPath
       id="clipPath13429">
      <path
         id="path4"
         d="m481 318h22v22h-22z" />
    </clipPath>
    <clipPath
       id="clipPath13465">
      <path
         id="path7"
         d="m507 318h22v22h-22z" />
    </clipPath>
    <clipPath
       id="clipPath13501">
      <path
         id="path10"
         d="m530 318h22v22h-22z" />
    </clipPath>
    <clipPath
       id="clipPath13753">
      <path
         id="path13"
         d="m672 1064c0-1.105 4.925-2 11-2s11 0.895 11 2-4.925 2-11 2-11-0.895-11-2" />
    </clipPath>
    <clipPath
       id="clipPath13771">
      <path
         id="path16-3"
         d="m660 1057h51v65.001h-51z" />
    </clipPath>
    <clipPath
       id="clipPath14035">
      <path
         id="path19"
         d="m659 517h53v18h-53z" />
    </clipPath>
    <clipPath
       id="clipPath14127">
      <path
         id="path22-6"
         d="m659 500h53v18h-53z" />
    </clipPath>
    <clipPath
       id="clipPath14445">
      <path
         id="path25"
         d="m648 112h73v60h-73z" />
    </clipPath>
    <clipPath
       id="clipPath14609">
      <path
         id="path28-7"
         d="m826 1056h59v60h-59z" />
    </clipPath>
    <clipPath
       id="clipPath15305">
      <path
         id="path31"
         d="m805 276h100v100h-100z" />
    </clipPath>
    <clipPath
       id="clipPath15341">
      <path
         id="path34"
         d="m145 1063.8h74.152v45.21h-74.152z" />
    </clipPath>
    <clipPath
       id="clipPath15715">
      <path
         id="path37"
         d="m151 667h57v57h-57z" />
    </clipPath>
    <clipPath
       id="clipPath15807">
      <path
         id="path40"
         d="m154 697h51v51h-51z" />
    </clipPath>
    <clipPath
       id="clipPath16001">
      <path
         id="path43"
         d="m500.04 864.45h36.012v67.52h-36.012z" />
    </clipPath>
    <clipPath
       id="clipPath16093">
      <path
         id="path46"
         d="m836 870.54h47v55.539h-47z" />
    </clipPath>
    <clipPath
       id="clipPath16477">
      <path
         id="path49"
         d="m318.03 702.35h62.848v37.991h-62.848z" />
    </clipPath>
    <clipPath
       id="clipPath16579">
      <path
         id="path52"
         d="m485.03 133.35h62.847v37.991h-62.847z" />
    </clipPath>
    <clipPath
       id="clipPath16709">
      <path
         id="path55"
         d="m493.37 677.93h45.643v68.067h-45.643z" />
    </clipPath>
    <clipPath
       id="clipPath24218">
      <path
         id="path58"
         d="m144.34 1018.2h71.467v78h-71.467z" />
    </clipPath>
    <clipPath
       id="clipPath24382">
      <path
         id="path61"
         d="m293.21 1068.6 66.323-38.292 36.047 62.435-66.323 38.292z" />
    </clipPath>
    <clipPath
       id="clipPath24650">
      <path
         id="path64"
         d="m488.86 1054.5h10v10.706h-10z" />
    </clipPath>
    <clipPath
       id="clipPath24700">
      <path
         id="path67"
         d="m508 1066.8h10.001v10.705h-10.001z" />
    </clipPath>
    <clipPath
       id="clipPath24750">
      <path
         id="path70"
         d="m525 1045.8h10v10.706h-10z" />
    </clipPath>
    <clipPath
       id="clipPath24864">
      <path
         id="path73"
         d="m836 1043.7h25.5v31.5h-25.5z" />
    </clipPath>
    <clipPath
       id="clipPath24896">
      <path
         id="path76"
         d="m838 1062.2h24v24h-24z" />
    </clipPath>
    <clipPath
       id="clipPath25070">
      <path
         id="path79"
         d="m134 489.24h7v6h-7z" />
    </clipPath>
    <clipPath
       id="clipPath25100">
      <path
         id="path82"
         d="m216 489.24h7v6h-7z" />
    </clipPath>
    <clipPath
       id="clipPath25502">
      <path
         id="path85"
         d="m838 477.24h22v22h-22z" />
    </clipPath>
    <clipPath
       id="clipPath25686">
      <path
         id="path88"
         d="m704 1061.2h25v25h-25z" />
    </clipPath>
    <clipPath
       id="clipPath25788">
      <path
         id="path91"
         d="m663.04 1078.6-1.808-3.514-21.07-47.453c13.336-18.439 48.336-26.938 73.836-3.439 0.842 0 6.476 6.246 6 7l-18.386 25.895c-0.483 0.765-1.453 0.946-2.177 0.431l-15.505-11.011c-0.359-0.255-0.847-0.153-1.07 0.238l-18.272 31.869c-0.218 0.384-0.502 0.578-0.782 0.578-0.282 0-0.561-0.197-0.766-0.594" />
    </clipPath>
    <clipPath
       id="clipPath26420">
      <path
         id="path94"
         d="m127 820.24h100v100h-100z" />
    </clipPath>
    <clipPath
       id="clipPath26860">
      <path
         id="path97"
         d="m809 680.24c0-22.092 17.908-40 40-40s40 17.908 40 40c0 22.091-17.908 40-40 40s-40-17.909-40-40" />
    </clipPath>
    <clipPath
       id="clipPath27506">
      <path
         id="path100"
         d="m658 469.24h44v45h-44z" />
    </clipPath>
    <clipPath
       id="clipPath27772">
      <path
         id="path103"
         d="m651 271.24h58v58h-58z" />
    </clipPath>
    <clipPath
       id="clipPath27864">
      <path
         id="path106"
         d="m662 307.24h38v8h-38z" />
    </clipPath>
    <clipPath
       id="clipPath28028">
      <path
         id="path109"
         d="m858.98 137.24c0.013-0.101 0.021-0.203 0.021-0.307v-6.693h15.75c1.237 0 2.25-1.013 2.25-2.25v-11.25l-27-4.5-27 4.5v-2.25l27-4.5 27 4.5v-27c0-1.237-1.013-2.25-2.25-2.25h-49.5c-1.237 0-2.25 1.013-2.25 2.25v-4.25h54v54zm-35.979 0v-9.25c0 1.237 1.013 2.25 2.25 2.25h15.75v6.693c0 0.104 7e-3 0.207 0.02 0.307zm22.5-7h9v4.5h-9zm1.125-9c-0.62 0-1.125-0.506-1.125-1.125v-2.25c0-0.619 0.505-1.125 1.125-1.125h6.75c0.619 0 1.125 0.506 1.125 1.125v2.25c0 0.619-0.506 1.125-1.125 1.125z" />
    </clipPath>
    <clipPath
       id="clipPath28200">
      <path
         id="path112"
         d="m531.27 136.24c6.325-2.29 10.727-8.277 10.727-15.484 0-11.316-10.2-20.563-25.65-34.575l-4.35-3.941-4.35 3.941c-15.45 14.012-25.65 23.259-25.65 34.575v-39.516h60v55zm-26.983 0c2.995-1.052 5.686-2.883 7.71-5.25 2.024 2.367 4.715 4.198 7.71 5.25zm-22.29 0v-15.484c0 7.207 4.402 13.194 10.727 15.484z" />
    </clipPath>
    <clipPath
       id="clipPath28364">
      <path
         id="path115"
         d="m648 79.241h64v64h-64z" />
    </clipPath>
    <clipPath
       id="clipPath28984">
      <path
         id="path118"
         d="m500 691.74c0-3.037 2.463-5.5 5.5-5.5s5.5 2.463 5.5 5.5-2.463 5.5-5.5 5.5-5.5-2.463-5.5-5.5" />
    </clipPath>
    <clipPath
       id="clipPath29012">
      <path
         id="path121"
         d="m500 669.74c0-3.037 2.463-5.5 5.5-5.5s5.5 2.463 5.5 5.5c0 3.038-2.463 5.5-5.5 5.5s-5.5-2.462-5.5-5.5" />
    </clipPath>
    <clipPath
       id="clipPath29040">
      <path
         id="path124"
         d="m494 680.74c0-3.037 2.462-5.5 5.5-5.5s5.5 2.463 5.5 5.5c0 3.038-2.462 5.5-5.5 5.5s-5.5-2.462-5.5-5.5" />
    </clipPath>
    <clipPath
       id="clipPath29068">
      <path
         id="path127"
         d="m513 691.74c0-3.037 2.463-5.5 5.5-5.5s5.5 2.463 5.5 5.5-2.463 5.5-5.5 5.5-5.5-2.463-5.5-5.5" />
    </clipPath>
    <clipPath
       id="clipPath29096">
      <path
         id="path130"
         d="m513 669.74c0-3.037 2.463-5.5 5.5-5.5s5.5 2.463 5.5 5.5c0 3.038-2.463 5.5-5.5 5.5s-5.5-2.462-5.5-5.5" />
    </clipPath>
    <clipPath
       id="clipPath29124">
      <path
         id="path133"
         d="m507 680.74c0-3.037 2.463-5.5 5.5-5.5s5.5 2.463 5.5 5.5c0 3.038-2.463 5.5-5.5 5.5s-5.5-2.462-5.5-5.5" />
    </clipPath>
    <clipPath
       id="clipPath29152">
      <path
         id="path136"
         d="m520 680.74c0-3.037 2.463-5.5 5.5-5.5s5.5 2.463 5.5 5.5c0 3.038-2.463 5.5-5.5 5.5s-5.5-2.462-5.5-5.5" />
    </clipPath>
    <clipPath
       id="clipPath29252">
      <path
         id="path139"
         d="m321 322.24c-4.97 0-9-4.029-9-9 0-4.97 4.03-9 9-9h45c4.971 0 9 4.03 9 9 0 4.971-4.029 9-9 9z" />
    </clipPath>
    <clipPath
       id="clipPath29280">
      <path
         id="path142"
         d="m322 297.24c-4.971 0-9-4.029-9-9 0-4.97 4.029-9 9-9h45c4.971 0 9 4.03 9 9 0 4.971-4.029 9-9 9z" />
    </clipPath>
    <clipPath
       id="clipPath29400">
      <path
         id="path145"
         d="m155 83.24h44v53h-44z" />
    </clipPath>
    <clipPath
       id="clipPath13429-6">
      <path
         id="path148"
         d="m481 318h22v22h-22z" />
    </clipPath>
    <clipPath
       id="clipPath13465-0">
      <path
         id="path151"
         d="m507 318h22v22h-22z" />
    </clipPath>
    <clipPath
       id="clipPath13501-6">
      <path
         id="path154"
         d="m530 318h22v22h-22z" />
    </clipPath>
    <clipPath
       id="clipPath13753-2">
      <path
         id="path157"
         d="m672 1064c0-1.105 4.925-2 11-2s11 0.895 11 2-4.925 2-11 2-11-0.895-11-2" />
    </clipPath>
    <clipPath
       id="clipPath13771-6">
      <path
         id="path160"
         d="m660 1057h51v65.001h-51z" />
    </clipPath>
    <clipPath
       id="clipPath14035-1">
      <path
         id="path163"
         d="m659 517h53v18h-53z" />
    </clipPath>
    <clipPath
       id="clipPath14127-8">
      <path
         id="path166"
         d="m659 500h53v18h-53z" />
    </clipPath>
    <clipPath
       id="clipPath14445-7">
      <path
         id="path169"
         d="m648 112h73v60h-73z" />
    </clipPath>
    <clipPath
       id="clipPath14609-9">
      <path
         id="path172"
         d="m826 1056h59v60h-59z" />
    </clipPath>
    <clipPath
       id="clipPath15305-2">
      <path
         id="path175"
         d="m805 276h100v100h-100z" />
    </clipPath>
    <clipPath
       id="clipPath15341-0">
      <path
         id="path178"
         d="m145 1063.8h74.152v45.21h-74.152z" />
    </clipPath>
    <clipPath
       id="clipPath15715-2">
      <path
         id="path181"
         d="m151 667h57v57h-57z" />
    </clipPath>
    <clipPath
       id="clipPath15807-3">
      <path
         id="path184"
         d="m154 697h51v51h-51z" />
    </clipPath>
    <clipPath
       id="clipPath16001-7">
      <path
         id="path187"
         d="m500.04 864.45h36.012v67.52h-36.012z" />
    </clipPath>
    <clipPath
       id="clipPath16093-5">
      <path
         id="path190"
         d="m836 870.54h47v55.539h-47z" />
    </clipPath>
    <clipPath
       id="clipPath16477-9">
      <path
         id="path193"
         d="m318.03 702.35h62.848v37.991h-62.848z" />
    </clipPath>
    <clipPath
       id="clipPath16579-2">
      <path
         id="path196"
         d="m485.03 133.35h62.847v37.991h-62.847z" />
    </clipPath>
    <clipPath
       id="clipPath16709-2">
      <path
         id="path199"
         d="m493.37 677.93h45.643v68.067h-45.643z" />
    </clipPath>
    <clipPath
       id="clipPath24218-8">
      <path
         id="path202"
         d="m144.34 1018.2h71.467v78h-71.467z" />
    </clipPath>
    <clipPath
       id="clipPath24382-9">
      <path
         id="path205"
         d="m293.21 1068.6 66.323-38.292 36.047 62.435-66.323 38.292z" />
    </clipPath>
    <clipPath
       id="clipPath24650-7">
      <path
         id="path208"
         d="m488.86 1054.5h10v10.706h-10z" />
    </clipPath>
    <clipPath
       id="clipPath24700-3">
      <path
         id="path211"
         d="m508 1066.8h10.001v10.705h-10.001z" />
    </clipPath>
    <clipPath
       id="clipPath24750-6">
      <path
         id="path214"
         d="m525 1045.8h10v10.706h-10z" />
    </clipPath>
    <clipPath
       id="clipPath24864-1">
      <path
         id="path217"
         d="m836 1043.7h25.5v31.5h-25.5z" />
    </clipPath>
    <clipPath
       id="clipPath24896-2">
      <path
         id="path220"
         d="m838 1062.2h24v24h-24z" />
    </clipPath>
    <clipPath
       id="clipPath25070-9">
      <path
         id="path223"
         d="m134 489.24h7v6h-7z" />
    </clipPath>
    <clipPath
       id="clipPath25100-3">
      <path
         id="path226"
         d="m216 489.24h7v6h-7z" />
    </clipPath>
    <clipPath
       id="clipPath25502-1">
      <path
         id="path229"
         d="m838 477.24h22v22h-22z" />
    </clipPath>
    <clipPath
       id="clipPath25686-9">
      <path
         id="path232"
         d="m704 1061.2h25v25h-25z" />
    </clipPath>
    <clipPath
       id="clipPath25788-4">
      <path
         id="path235"
         d="m663.04 1078.6-1.808-3.514-21.07-47.453c13.336-18.439 48.336-26.938 73.836-3.439 0.842 0 6.476 6.246 6 7l-18.386 25.895c-0.483 0.765-1.453 0.946-2.177 0.431l-15.505-11.011c-0.359-0.255-0.847-0.153-1.07 0.238l-18.272 31.869c-0.218 0.384-0.502 0.578-0.782 0.578-0.282 0-0.561-0.197-0.766-0.594" />
    </clipPath>
    <clipPath
       id="clipPath26420-7">
      <path
         id="path238"
         d="m127 820.24h100v100h-100z" />
    </clipPath>
    <clipPath
       id="clipPath26860-8">
      <path
         id="path241"
         d="m809 680.24c0-22.092 17.908-40 40-40s40 17.908 40 40c0 22.091-17.908 40-40 40s-40-17.909-40-40" />
    </clipPath>
    <clipPath
       id="clipPath27506-4">
      <path
         id="path244"
         d="m658 469.24h44v45h-44z" />
    </clipPath>
    <clipPath
       id="clipPath27772-5">
      <path
         id="path247"
         d="m651 271.24h58v58h-58z" />
    </clipPath>
    <clipPath
       id="clipPath27864-0">
      <path
         id="path250"
         d="m662 307.24h38v8h-38z" />
    </clipPath>
    <clipPath
       id="clipPath28028-3">
      <path
         id="path253"
         d="m858.98 137.24c0.013-0.101 0.021-0.203 0.021-0.307v-6.693h15.75c1.237 0 2.25-1.013 2.25-2.25v-11.25l-27-4.5-27 4.5v-2.25l27-4.5 27 4.5v-27c0-1.237-1.013-2.25-2.25-2.25h-49.5c-1.237 0-2.25 1.013-2.25 2.25v-4.25h54v54zm-35.979 0v-9.25c0 1.237 1.013 2.25 2.25 2.25h15.75v6.693c0 0.104 7e-3 0.207 0.02 0.307zm22.5-7h9v4.5h-9zm1.125-9c-0.62 0-1.125-0.506-1.125-1.125v-2.25c0-0.619 0.505-1.125 1.125-1.125h6.75c0.619 0 1.125 0.506 1.125 1.125v2.25c0 0.619-0.506 1.125-1.125 1.125z" />
    </clipPath>
    <clipPath
       id="clipPath28200-6">
      <path
         id="path256"
         d="m531.27 136.24c6.325-2.29 10.727-8.277 10.727-15.484 0-11.316-10.2-20.563-25.65-34.575l-4.35-3.941-4.35 3.941c-15.45 14.012-25.65 23.259-25.65 34.575v-39.516h60v55zm-26.983 0c2.995-1.052 5.686-2.883 7.71-5.25 2.024 2.367 4.715 4.198 7.71 5.25zm-22.29 0v-15.484c0 7.207 4.402 13.194 10.727 15.484z" />
    </clipPath>
    <clipPath
       id="clipPath28364-1">
      <path
         id="path259"
         d="m648 79.241h64v64h-64z" />
    </clipPath>
    <clipPath
       id="clipPath28984-0">
      <path
         id="path262"
         d="m500 691.74c0-3.037 2.463-5.5 5.5-5.5s5.5 2.463 5.5 5.5-2.463 5.5-5.5 5.5-5.5-2.463-5.5-5.5" />
    </clipPath>
    <clipPath
       id="clipPath29012-6">
      <path
         id="path265"
         d="m500 669.74c0-3.037 2.463-5.5 5.5-5.5s5.5 2.463 5.5 5.5c0 3.038-2.463 5.5-5.5 5.5s-5.5-2.462-5.5-5.5" />
    </clipPath>
    <clipPath
       id="clipPath29040-3">
      <path
         id="path268"
         d="m494 680.74c0-3.037 2.462-5.5 5.5-5.5s5.5 2.463 5.5 5.5c0 3.038-2.462 5.5-5.5 5.5s-5.5-2.462-5.5-5.5" />
    </clipPath>
    <clipPath
       id="clipPath29068-2">
      <path
         id="path271"
         d="m513 691.74c0-3.037 2.463-5.5 5.5-5.5s5.5 2.463 5.5 5.5-2.463 5.5-5.5 5.5-5.5-2.463-5.5-5.5" />
    </clipPath>
    <clipPath
       id="clipPath29096-0">
      <path
         id="path274"
         d="m513 669.74c0-3.037 2.463-5.5 5.5-5.5s5.5 2.463 5.5 5.5c0 3.038-2.463 5.5-5.5 5.5s-5.5-2.462-5.5-5.5" />
    </clipPath>
    <clipPath
       id="clipPath29124-6">
      <path
         id="path277"
         d="m507 680.74c0-3.037 2.463-5.5 5.5-5.5s5.5 2.463 5.5 5.5c0 3.038-2.463 5.5-5.5 5.5s-5.5-2.462-5.5-5.5" />
    </clipPath>
    <clipPath
       id="clipPath29152-1">
      <path
         id="path280"
         d="m520 680.74c0-3.037 2.463-5.5 5.5-5.5s5.5 2.463 5.5 5.5c0 3.038-2.463 5.5-5.5 5.5s-5.5-2.462-5.5-5.5" />
    </clipPath>
    <clipPath
       id="clipPath29252-5">
      <path
         id="path283"
         d="m321 322.24c-4.97 0-9-4.029-9-9 0-4.97 4.03-9 9-9h45c4.971 0 9 4.03 9 9 0 4.971-4.029 9-9 9z" />
    </clipPath>
    <clipPath
       id="clipPath29280-5">
      <path
         id="path286"
         d="m322 297.24c-4.971 0-9-4.029-9-9 0-4.97 4.029-9 9-9h45c4.971 0 9 4.03 9 9 0 4.971-4.029 9-9 9z" />
    </clipPath>
    <clipPath
       id="clipPath29400-4">
      <path
         id="path289"
         d="m155 83.24h44v53h-44z" />
    </clipPath>
    <linearGradient
       gradientUnits="userSpaceOnUse"
       y2="-.11215"
       y1="8.885"
       x2="35.2"
       x1="35.2"
       id="linearGradient2609">
      <stop
         id="stop292"
         offset="0"
         stop-color="#dcf0ff" />
      <stop
         id="stop294"
         offset="1"
         stop-color="#fff" />
    </linearGradient>
    <linearGradient
       gradientUnits="userSpaceOnUse"
       gradientTransform="matrix(1.0545,0,0,0.99997,195.63,17.008)"
       y2="-15.135"
       y1="-2.2168"
       x2="-177.36"
       x1="-177.36"
       id="linearGradient3016">
      <stop
         id="stop297"
         offset="0"
         stop-color="#14ab4b" />
      <stop
         id="stop299"
         offset=".49583"
         stop-color="#42c440" />
      <stop
         id="stop301"
         offset="1"
         stop-color="#76dd38" />
    </linearGradient>
    <linearGradient
       xlink:href="#linearGradient2609"
       gradientUnits="userSpaceOnUse"
       y2="-.11215"
       y1="8.885"
       x2="35.2"
       x1="35.2"
       id="linearGradient2554" />
    <filter
       id="filter968"
       x="-.12009"
       y="-.12009"
       width="1.2402"
       height="1.2402"
       color-interpolation-filters="sRGB">
      <feGaussianBlur
         stdDeviation="0.066194553"
         id="feGaussianBlur4" />
    </filter>
    <filter
       id="filter1016"
       x="-.036858"
       y="-.17692"
       width="1.0737"
       height="1.3538"
       color-interpolation-filters="sRGB">
      <feGaussianBlur
         stdDeviation="0.097518237"
         id="feGaussianBlur7" />
    </filter>
    <filter
       id="filter1024"
       x="-.10615"
       y="-.50953"
       width="1.2123"
       height="2.0191"
       color-interpolation-filters="sRGB">
      <feGaussianBlur
         stdDeviation="0.28085546"
         id="feGaussianBlur10" />
    </filter>
    <linearGradient
       id="linearGradient1154"
       x1="-184.76"
       x2="-170.21"
       y1="-15.818"
       y2="-1.2664"
       gradientTransform="translate(166.93,24.77)"
       gradientUnits="userSpaceOnUse">
      <stop
         stop-color="#fed54f"
         offset="0"
         id="stop13" />
      <stop
         stop-color="#ffbb4d"
         offset="1"
         id="stop15" />
    </linearGradient>
    <linearGradient
       id="linearGradient1190"
       x1="-38.893"
       x2="-38.893"
       y1="8.9957"
       y2="10.583"
       gradientTransform="matrix(0.96,0,0,0.83333,-12.871,2.9791)"
       gradientUnits="userSpaceOnUse">
      <stop
         stop-color="#c6d4e7"
         offset="0"
         id="stop18" />
      <stop
         stop-color="#d8e5f8"
         offset=".097346"
         id="stop20" />
      <stop
         stop-color="#fff"
         offset=".20734"
         id="stop22" />
      <stop
         stop-color="#f1f4f5"
         offset=".49769"
         id="stop24" />
      <stop
         stop-color="#a1aab0"
         offset=".73738"
         id="stop26" />
      <stop
         stop-color="#a2abb0"
         offset=".78932"
         id="stop28" />
      <stop
         stop-color="#a2a7a2"
         offset=".94113"
         id="stop30" />
      <stop
         stop-color="#d6d1b4"
         offset="1"
         id="stop32" />
    </linearGradient>
    <filter
       id="filter1221"
       x="-.018237"
       y="-.035087"
       width="1.0365"
       height="1.0702"
       color-interpolation-filters="sRGB">
      <feGaussianBlur
         stdDeviation="0.096503745"
         id="feGaussianBlur35" />
    </filter>
    <filter
       id="filter1227"
       x="-.021559"
       y="-.027064"
       width="1.0431"
       height="1.0541"
       color-interpolation-filters="sRGB">
      <feGaussianBlur
         stdDeviation="0.1140825"
         id="feGaussianBlur38" />
    </filter>
    <filter
       id="filter1233"
       x="-.024"
       y="-.024"
       width="1.048"
       height="1.048"
       color-interpolation-filters="sRGB">
      <feGaussianBlur
         stdDeviation="0.1269975"
         id="feGaussianBlur41" />
    </filter>
    <linearGradient
       gradientUnits="userSpaceOnUse"
       gradientTransform="matrix(0.91665,0,0,0.91665,15.147704,-16.893824)"
       y2=".64687"
       y1="16.296"
       x2="16.388"
       x1=".73911"
       id="linearGradient1005-6">
      <stop
         id="stop885"
         offset="0"
         stop-color="#323232" />
      <stop
         id="stop887"
         offset=".49575"
         stop-color="#4e4e4e" />
      <stop
         id="stop889"
         offset="1"
         stop-color="#323232" />
    </linearGradient>
    <linearGradient
       id="a">
      <stop
         id="stop981"
         offset="0" />
      <stop
         id="stop983"
         stop-opacity="0"
         offset="1" />
    </linearGradient>
    <linearGradient
       gradientTransform="matrix(0.26458,0,0,0.27517,0,279.463)"
       gradientUnits="userSpaceOnUse"
       y2="28.742"
       x2="44.062"
       y1="57"
       x1="44.062"
       id="b"
       xlink:href="#a" />
  </defs>
  <sodipodi:namedview
     pagecolor="#ffffff"
     bordercolor="#666666"
     borderopacity="1"
     objecttolerance="10"
     gridtolerance="10"
     guidetolerance="10"
     inkscape:pageopacity="0"
     inkscape:pageshadow="2"
     inkscape:window-width="1920"
     inkscape:window-height="932"
     id="namedview34"
     showgrid="false"
     inkscape:zoom="4"
     inkscape:cx="105.79468"
     inkscape:cy="61.941648"
     inkscape:window-x="0"
     inkscape:window-y="36"
     inkscape:window-maximized="1"
     inkscape:current-layer="svg32" />
  <rect
     x="28"
     y="8"
     width="28"
     height="32"
     ry="2"
     fill="#ffd351"
     id="rect2" />
  <rect
     x="8"
     y="6"
     width="28"
     height="32"
     ry="2"
     fill="#7bd57d"
     id="rect4" />
  <rect
     x="19"
     y="12"
     width="28"
     height="32"
     ry="2"
     fill="#707ed0"
     id="rect6" />
  <circle
     id="circle46"
     stroke-width="1.00001"
     fill="#5e4aa6"
     r="0"
     cy="-1241.6362"
     cx="-1319.6973" />
  <circle
     id="circle48"
     stroke-width="1.00001"
     fill-rule="evenodd"
     fill="#5e4aa6"
     r="0"
     cy="23.855837"
     cx="-220.13921" />
  <g
     transform="matrix(3.779602,0,0,3.779602,-147.85861,-62.718188)"
     fill="#5e4aa6"
     stroke-width="0.26458"
     id="g906">
    <circle
       cx="-330.35001"
       cy="-328.38"
       r="0"
       id="circle898" />
    <circle
       cx="-312.10999"
       cy="-326.25"
       r="0"
       id="circle900" />
    <circle
       cx="-306.01999"
       cy="-333.07001"
       r="0"
       id="circle902" />
    <circle
       cx="-308.84"
       cy="-326.01001"
       r="0"
       id="circle904" />
  </g>
  <path
     id="rect1663"
     style="fill:#bcaaa4;fill-opacity:1;stroke-width:4.648;stroke-linecap:round"
     d="M 7.1601562 20 C 5.9635562 20 5 20.917031 5 22.056641 L 5 52.914062 C 5 54.623562 6.4452344 56 8.2402344 56 L 55.759766 56 C 57.554766 56 59 54.623562 59 52.914062 L 59 22.056641 C 59 20.916941 58.036484 20 56.839844 20 L 7.1601562 20 z " />
  <g
     id="g1603"
     transform="translate(18.201152,1.123156)">
    <g
       transform="matrix(3.779602,0,0,3.779602,-17.438396,11.755313)"
       id="g1561">
      <path
         id="path1489"
         style="opacity:1;fill:#aa9994;fill-opacity:1;stroke-width:0.0615845;stroke-linecap:round"
         d="M 7.6032458,1.8842013 V 6.134834 c 0,0.3664407 0.295005,0.6614453 0.661446,0.6614453 0.3664407,0 0.661445,-0.2950046 0.661445,-0.6614453 V 1.8842013 Z"
         sodipodi:nodetypes="cssscc" />
      <g
         id="g1559"
         transform="translate(18.554383,2.9570544)">
        <g
           transform="matrix(0.83333374,0,0,0.83333374,1.6843399,-0.17106896)"
           id="g1499">
          <rect
             style="opacity:1;fill:#887a76;fill-opacity:1;stroke-width:0.0613936;stroke-linecap:round"
             id="rect1491"
             width="0.39686719"
             height="0.39686719"
             x="-14.757456"
             y="-1.0815821"
             ry="0" />
          <rect
             ry="0"
             y="-1.0815821"
             x="-14.360589"
             height="0.39686719"
             width="0.39686719"
             id="rect1493"
             style="opacity:1;fill:#b3b3b3;fill-opacity:1;stroke-width:0.0613936;stroke-linecap:round" />
          <rect
             ry="0"
             y="-0.68471485"
             x="-14.757456"
             height="0.39686719"
             width="0.39686719"
             id="rect1495"
             style="opacity:1;fill:#dddddd;fill-opacity:1;stroke-width:0.0613936;stroke-linecap:round" />
          <rect
             style="opacity:1;fill:#887a76;fill-opacity:1;stroke-width:0.0613936;stroke-linecap:round"
             id="rect1497"
             width="0.39686719"
             height="0.39686719"
             x="-14.360589"
             y="-0.68471485"
             ry="0" />
        </g>
        <g
           id="g1509"
           transform="matrix(0.83333374,0,0,0.83333374,1.6843399,0.49037671)">
          <rect
             ry="0"
             y="-1.0815821"
             x="-14.757456"
             height="0.39686719"
             width="0.39686719"
             id="rect1501"
             style="opacity:1;fill:#887a76;fill-opacity:1;stroke-width:0.0613936;stroke-linecap:round" />
          <rect
             style="opacity:1;fill:#b3b3b3;fill-opacity:1;stroke-width:0.0613936;stroke-linecap:round"
             id="rect1503"
             width="0.39686719"
             height="0.39686719"
             x="-14.360589"
             y="-1.0815821"
             ry="0" />
          <rect
             style="opacity:1;fill:#dddddd;fill-opacity:1;stroke-width:0.0613936;stroke-linecap:round"
             id="rect1505"
             width="0.39686719"
             height="0.39686719"
             x="-14.757456"
             y="-0.68471485"
             ry="0" />
          <rect
             ry="0"
             y="-0.68471485"
             x="-14.360589"
             height="0.39686719"
             width="0.39686719"
             id="rect1507"
             style="opacity:1;fill:#887a76;fill-opacity:1;stroke-width:0.0613936;stroke-linecap:round" />
        </g>
        <g
           transform="matrix(0.83333374,0,0,0.83333374,1.6843399,1.1518224)"
           id="g1519">
          <rect
             style="opacity:1;fill:#887a76;fill-opacity:1;stroke-width:0.0613936;stroke-linecap:round"
             id="rect1511"
             width="0.39686719"
             height="0.39686719"
             x="-14.757456"
             y="-1.0815821"
             ry="0" />
          <rect
             ry="0"
             y="-1.0815821"
             x="-14.360589"
             height="0.39686719"
             width="0.39686719"
             id="rect1513"
             style="opacity:1;fill:#b3b3b3;fill-opacity:1;stroke-width:0.0613936;stroke-linecap:round" />
          <rect
             ry="0"
             y="-0.68471485"
             x="-14.757456"
             height="0.39686719"
             width="0.39686719"
             id="rect1515"
             style="opacity:1;fill:#dddddd;fill-opacity:1;stroke-width:0.0613936;stroke-linecap:round" />
          <rect
             style="opacity:1;fill:#887a76;fill-opacity:1;stroke-width:0.0613936;stroke-linecap:round"
             id="rect1517"
             width="0.39686719"
             height="0.39686719"
             x="-14.360589"
             y="-0.68471485"
             ry="0" />
        </g>
        <g
           id="g1529"
           transform="matrix(0.83333374,0,0,0.83333374,1.6843399,1.8132681)">
          <rect
             ry="0"
             y="-1.0815821"
             x="-14.757456"
             height="0.39686719"
             width="0.39686719"
             id="rect1521"
             style="opacity:1;fill:#887a76;fill-opacity:1;stroke-width:0.0613936;stroke-linecap:round" />
          <rect
             style="opacity:1;fill:#b3b3b3;fill-opacity:1;stroke-width:0.0613936;stroke-linecap:round"
             id="rect1523"
             width="0.39686719"
             height="0.39686719"
             x="-14.360589"
             y="-1.0815821"
             ry="0" />
          <rect
             style="opacity:1;fill:#dddddd;fill-opacity:1;stroke-width:0.0613936;stroke-linecap:round"
             id="rect1525"
             width="0.39686719"
             height="0.39686719"
             x="-14.757456"
             y="-0.68471485"
             ry="0" />
          <rect
             ry="0"
             y="-0.68471485"
             x="-14.360589"
             height="0.39686719"
             width="0.39686719"
             id="rect1527"
             style="opacity:1;fill:#887a76;fill-opacity:1;stroke-width:0.0613936;stroke-linecap:round" />
        </g>
        <g
           transform="matrix(0.83333374,0,0,0.83333374,1.6843399,2.4747137)"
           id="g1539">
          <rect
             style="opacity:1;fill:#887a76;fill-opacity:1;stroke-width:0.0613936;stroke-linecap:round"
             id="rect1531"
             width="0.39686719"
             height="0.39686719"
             x="-14.757456"
             y="-1.0815821"
             ry="0" />
          <rect
             ry="0"
             y="-1.0815821"
             x="-14.360589"
             height="0.39686719"
             width="0.39686719"
             id="rect1533"
             style="opacity:1;fill:#b3b3b3;fill-opacity:1;stroke-width:0.0613936;stroke-linecap:round" />
          <rect
             ry="0"
             y="-0.68471485"
             x="-14.757456"
             height="0.39686719"
             width="0.39686719"
             id="rect1535"
             style="opacity:1;fill:#dddddd;fill-opacity:1;stroke-width:0.0613936;stroke-linecap:round" />
          <rect
             style="opacity:1;fill:#887a76;fill-opacity:1;stroke-width:0.0613936;stroke-linecap:round"
             id="rect1537"
             width="0.39686719"
             height="0.39686719"
             x="-14.360589"
             y="-0.68471485"
             ry="0" />
        </g>
        <g
           id="g1549"
           transform="matrix(0.83333374,0,0,0.83333374,1.6843399,3.1361594)">
          <rect
             ry="0"
             y="-1.0815821"
             x="-14.757456"
             height="0.39686719"
             width="0.39686719"
             id="rect1541"
             style="opacity:1;fill:#887a76;fill-opacity:1;stroke-width:0.0613936;stroke-linecap:round" />
          <rect
             style="opacity:1;fill:#b3b3b3;fill-opacity:1;stroke-width:0.0613936;stroke-linecap:round"
             id="rect1543"
             width="0.39686719"
             height="0.39686719"
             x="-14.360589"
             y="-1.0815821"
             ry="0" />
          <rect
             style="opacity:1;fill:#dddddd;fill-opacity:1;stroke-width:0.0613936;stroke-linecap:round"
             id="rect1545"
             width="0.39686719"
             height="0.39686719"
             x="-14.757456"
             y="-0.68471485"
             ry="0" />
          <rect
             ry="0"
             y="-0.68471485"
             x="-14.360589"
             height="0.39686719"
             width="0.39686719"
             id="rect1547"
             style="opacity:1;fill:#887a76;fill-opacity:1;stroke-width:0.0613936;stroke-linecap:round" />
        </g>
        <rect
           ry="0"
           y="2.8962862"
           x="-10.613546"
           height="0.33072281"
           width="0.33072281"
           id="rect1551"
           style="fill:#887a76;fill-opacity:1;stroke-width:0.0511614;stroke-linecap:round" />
        <rect
           style="fill:#b3b3b3;fill-opacity:1;stroke-width:0.0511614;stroke-linecap:round"
           id="rect1553"
           width="0.33072281"
           height="0.33072281"
           x="-10.282824"
           y="2.8962862"
           ry="0" />
        <path
           transform="scale(0.26457812)"
           d="m -40.113281,12.197266 c 0.01764,0.694313 0.564887,1.248922 1.248047,1.25 v -1.25 z"
           style="fill:#dddddd;fill-opacity:1;stroke-width:0.19337;stroke-linecap:round"
           id="path1555" />
        <path
           transform="scale(0.26457812)"
           d="m -38.865234,12.197266 v 1.25 c 6.65e-4,10e-7 0.0013,0 0.002,0 0.668291,0 1.206887,-0.530732 1.248047,-1.203125 v -0.04687 z"
           style="fill:#887a76;fill-opacity:1;stroke-width:0.19337;stroke-linecap:round"
           id="path1557" />
      </g>
    </g>
    <path
       style="stroke-width:2.36183"
       id="path1563"
       fill="#ffffff"
       d="m 13.800029,36.378791 a 2.5035429,2.5035429 0 0 0 -2.501181,2.498819 v 5.000001 a 2.5035429,2.5035429 0 0 0 2.501181,2.49882 2.5035429,2.5035429 0 0 0 2.498819,-2.49882 V 38.87761 a 2.5035429,2.5035429 0 0 0 -2.498819,-2.498819 z m 0,1.24941 c 0.689655,0 1.24941,0.498347 1.24941,1.249409 0,0.625886 -0.559755,1.251772 -1.251772,1.251772 A 1.2942844,1.2942844 0 0 1 12.548258,38.87761 c 0,-0.751062 0.562116,-1.251771 1.251771,-1.251771 z m 0,3.748229 a 1.2517715,1.2517715 0 0 1 1.24941,1.251771 v 1.24941 a 1.2517715,1.2517715 0 0 1 -2.501181,0 v -1.251772 a 1.2517715,1.2517715 0 0 1 1.251771,-1.249409 z" />
  </g>
  <path
     id="rect1667"
     style="fill:#887a76;fill-opacity:1;stroke-width:4.648;stroke-linecap:round"
     d="M 15 44 L 13 47 L 14 47 L 14 51 L 16 51 L 16 47 L 17 47 L 15 44 z M 17 47 L 18 47 L 18 51 L 20 51 L 20 47 L 21 47 L 19 44 L 17 47 z M 12 52 L 12 53 L 22 53 L 22 52 L 12 52 z " />
  <path
     id="rect1671"
     style="fill:#887a76;fill-opacity:1;stroke-width:4.648;stroke-linecap:round"
     d="M 42 47 C 41.446 47 41 47.446 41 48 L 41 52 C 41 52.554 41.446 53 42 53 L 53 53 C 53.554 53 54 52.554 54 52 L 54 48 C 54 47.446 53.554 47 53 47 L 42 47 z M 42 47.998047 L 44 47.998047 L 44 51.998047 L 42 51.998047 L 42 47.998047 z M 45 48 L 46 48 L 46 52 L 45 52 L 45 48 z M 47 48 L 48 48 L 48 52 L 47 52 L 47 48 z M 49 48 L 51 48 L 51 52 L 49 52 L 49 48 z M 52 48 L 53 48 L 53 52 L 52 52 L 52 48 z " />
</svg>
