<?xml version="1.0" encoding="UTF-8" standalone="no"?>
<svg
   xmlns:dc="http://purl.org/dc/elements/1.1/"
   xmlns:cc="http://creativecommons.org/ns#"
   xmlns:rdf="http://www.w3.org/1999/02/22-rdf-syntax-ns#"
   xmlns:svg="http://www.w3.org/2000/svg"
   xmlns="http://www.w3.org/2000/svg"
   xmlns:sodipodi="http://sodipodi.sourceforge.net/DTD/sodipodi-0.dtd"
   xmlns:inkscape="http://www.inkscape.org/namespaces/inkscape"
   width="64"
   height="64"
   version="1.1"
   id="svg26"
   sodipodi:docname="artikulate.svg"
   inkscape:version="1.0.1 (3bc2e813f5, 2020-09-07)">
  <metadata
     id="metadata32">
    <rdf:RDF>
      <cc:Work
         rdf:about="">
        <dc:format>image/svg+xml</dc:format>
        <dc:type
           rdf:resource="http://purl.org/dc/dcmitype/StillImage" />
        <dc:title></dc:title>
      </cc:Work>
    </rdf:RDF>
  </metadata>
  <defs
     id="defs30">
    <linearGradient
       id="a"
       gradientUnits="userSpaceOnUse"
       x1="355.73465"
       x2="355.6907"
       y1="546.99841"
       y2="505.32748"
       gradientTransform="matrix(0.97459608,0,0,0.97459608,-387.66245,-479.0222)">
      <stop
         offset="0"
         stop-color="#1297ca"
         id="stop2" />
      <stop
         offset="1"
         stop-color="#70e2ec"
         id="stop4" />
    </linearGradient>
    <linearGradient
       id="b"
       gradientTransform="matrix(-0.55335036,0,0,0.60251896,176.89495,-272.28091)"
       gradientUnits="userSpaceOnUse"
       x1="374.54285"
       x2="374.54285"
       y1="507.15387"
       y2="548.64636">
      <stop
         offset="0"
         stop-color="#fdcc59"
         id="stop7" />
      <stop
         offset="1"
         stop-color="#f5a844"
         id="stop9" />
    </linearGradient>
  </defs>
  <sodipodi:namedview
     pagecolor="#ffffff"
     bordercolor="#666666"
     borderopacity="1"
     objecttolerance="10"
     gridtolerance="10"
     guidetolerance="10"
     inkscape:pageopacity="0"
     inkscape:pageshadow="2"
     inkscape:window-width="1920"
     inkscape:window-height="932"
     id="namedview28"
     showgrid="false"
     inkscape:zoom="4.2260679"
     inkscape:cx="18.440309"
     inkscape:cy="18.283971"
     inkscape:window-x="0"
     inkscape:window-y="36"
     inkscape:window-maximized="1"
     inkscape:current-layer="svg26" />
  <g
     id="g1001"
     transform="translate(-1.2726035,-0.76917256)">
    <g
       id="g987"
       transform="translate(-27.31458,-7.135562)">
      <g
         id="g965"
         transform="matrix(-1,0,0,1,150.77331,-9.7000115)">
        <rect
           style="fill:#3f51b5;fill-opacity:1;stroke-width:4.66703;stroke-linecap:round"
           id="rect961"
           width="37.441162"
           height="28.081593"
           x="63.973621"
           y="24.480591"
           rx="3.30108"
           ry="3.6545911" />
        <path
           style="fill:#3f51b5;fill-opacity:1;stroke:none;stroke-width:1.33003px;stroke-linecap:butt;stroke-linejoin:miter;stroke-opacity:1"
           d="m 63.973621,49.395996 v 8.496032 l 8.513598,-8.513603 z"
           id="path963" />
      </g>
      <g
         fill="#ffffff"
         fill-opacity="0.85"
         transform="matrix(0.12005126,0,0,0.12005126,44.11045,2.2950905)"
         id="g979">
        <path
           d="m 120.31878,192.70649 h 59.117 c -1.666,10.675 -7.326,22.046 -16.84,33.827 -6.064,-9.714 -9.964,-19.135 -12.188,-25.408 -0.562,-1.583 -2.058,-2.641 -3.736,-2.641 h -9.728 c -1.264,0 -2.453,0.603 -3.2,1.623 -0.746,1.021 -0.961,2.335 -0.579,3.542 2.305,7.258 7.614,21.507 17.429,35.986 -11.594,11.271 -23.143,19.394 -27.611,22.387 -1.778,1.192 -2.289,3.581 -1.153,5.396 l 4.882,7.808 c 0.565,0.903 1.473,1.542 2.515,1.771 0.28,0.063 0.564,0.093 0.846,0.093 0.769,0 1.527,-0.224 2.178,-0.651 4.601,-3.024 16.538,-11.28 29.038,-23.255 4.625,4.82 15.499,13.268 21.942,17.954 0.983,0.715 2.242,0.938 3.415,0.607 1.172,-0.334 2.124,-1.188 2.586,-2.312 l 3.642,-8.903 c 0.732,-1.789 0.065,-3.85 -1.579,-4.867 -4.198,-2.604 -12.101,-7.952 -18.552,-14.902 14.163,-16.575 22.24,-32.734 24.018,-48.049 h 3.121 c 2.189,0 3.964,-1.775 3.964,-3.965 v -10.567 c 0,-2.189 -1.774,-3.964 -3.964,-3.964 h -30.872 v -5.426 c 0,-2.19 -1.774,-3.965 -3.964,-3.965 h -9.89 c -2.189,0 -3.964,1.774 -3.964,3.965 v 5.426 h -30.872 c -2.189,0 -3.964,1.774 -3.964,3.964 v 10.567 c -10e-4,2.184 1.774,3.959 3.963,3.959 z"
           fill="#ffffff"
           fill-opacity="0.85"
           id="path975" />
        <path
           d="m 256.10311,180.09731 c -0.516,-1.66 -2.049,-2.791 -3.787,-2.791 h -22.026 c -1.743,0 -3.281,1.139 -3.791,2.805 l -26.318,86.05 c -0.369,1.202 -0.145,2.508 0.604,3.521 0.748,1.009 1.93,1.604 3.188,1.604 h 13.664 c 1.779,0 3.342,-1.188 3.819,-2.901 l 5.9,-21.229 h 26.923 l 6.389,21.307 c 0.502,1.678 2.047,2.825 3.797,2.825 h 14.523 c 1.262,0 2.444,-0.599 3.19,-1.61 0.748,-1.015 0.969,-2.323 0.594,-3.526 z m -25.697,51.186 9.917,-38.067 h 0.27 l 10.604,38.067 z"
           fill="#ffffff"
           fill-opacity="0.85"
           id="path977" />
      </g>
    </g>
    <g
       id="g959"
       transform="translate(-31.711932,7.7718332)">
      <g
         id="g953"
         transform="translate(-25.201591,-7.7705334)">
        <rect
           style="fill:#2196f3;fill-opacity:1;stroke-width:4.66703;stroke-linecap:round"
           id="rect942"
           width="37.441162"
           height="28.081593"
           x="63.973621"
           y="24.480591"
           rx="3.30108"
           ry="3.6545911" />
        <path
           style="fill:#2196f3;fill-opacity:1;stroke:none;stroke-width:1.33003px;stroke-linecap:butt;stroke-linejoin:miter;stroke-opacity:1"
           d="m 63.973621,49.395996 v 8.496032 l 8.513598,-8.513603 z"
           id="path949" />
      </g>
      <path
         d="m 54.247974,21.750854 1.622316,0.386265 q -0.231757,0.618022 -0.540772,1.158795 h 7.802577 v 6.103009 H 51.544113 v 1.004287 h 13.673821 v 1.236052 H 51.544113 v 1.004296 h 13.828329 q -0.231758,5.021457 -0.77253,6.025752 -0.463522,1.081544 -1.776824,1.081544 -0.61803,0 -1.931331,-0.231757 l -0.309015,-1.545068 q 1.467809,0.231758 2.085839,0.231758 0.463514,0 0.618022,-0.463514 0.231757,-0.540773 0.386264,-3.785415 H 49.999046 V 23.295914 h 3.630906 q 0.386265,-0.772531 0.618022,-1.54506 z m -2.703861,2.781112 v 1.236051 h 10.042923 v -1.236051 z m 0,2.394853 v 1.236053 h 10.042923 v -1.236053 z m 3.321891,7.493562 h 1.545059 v 2.085839 h 3.785414 v -1.931331 h 1.467809 v 3.167384 H 51.157848 v 1.313301 h -1.545067 v -4.403436 h 1.545067 v 1.854082 h 3.708156 z"
         fill="#ffffff"
         opacity="0.8"
         id="path947"
         style="opacity:1;stroke-width:0.810004" />
    </g>
  </g>
</svg>
