<?xml version="1.0" encoding="UTF-8"?>
<svg width="64" height="64" version="1.1" viewBox="0 0 16.933 16.933" xmlns="http://www.w3.org/2000/svg" xmlns:cc="http://creativecommons.org/ns#" xmlns:dc="http://purl.org/dc/elements/1.1/" xmlns:osb="http://www.openswatchbook.org/uri/2009/osb" xmlns:rdf="http://www.w3.org/1999/02/22-rdf-syntax-ns#" xmlns:xlink="http://www.w3.org/1999/xlink">
 <metadata>
  <rdf:RDF>
   <cc:Work rdf:about="">
    <dc:format>image/svg+xml</dc:format>
    <dc:type rdf:resource="http://purl.org/dc/dcmitype/StillImage"/>
    <dc:title/>
   </cc:Work>
  </rdf:RDF>
 </metadata>
 <g transform="matrix(.26458 0 0 .26458 20.96 -4.8768)" fill="#5e4aa6" image-rendering="optimizeSpeed">
  <circle cx="-1248.6" cy="-1241.1" r="0"/>
  <g transform="matrix(3.7796,0,0,3.7796,-6.9956e-4,6.044e-4)" stroke-width=".26458">
   <circle cx="-330.35" cy="-328.38" r="0"/>
   <circle cx="-330.35" cy="-328.38" r="0"/>
   <circle cx="-352.63" cy="-336.84" r="0"/>
  </g>
  <circle cx="-1248.6" cy="-1241.1" r="0"/>
 </g>
 <circle cx="8.4665" cy="8.4665" r="7.9373" fill="#232323" stroke-linecap="round" stroke-width="1.5743"/>
 <path d="m8.2825 4.8756c-0.89125 0.00589-1.7271 0.19604-2.145 0.4165-0.83591 0.44093-0.41099 1.6168 0.21859 1.5797 0.62957-0.037033 1.8173-0.19606 1.974-0.11885 0 0 0.91641 0.055346 0.39635 0.64956-0.52006 0.59421-1.423-0.17251-2.9119 0.87021-1.4889 1.0427-0.48667 3.2991 0.63664 3.6607 1.1233 0.36162 2.024 0.05284 2.3424-0.17466 0.3184-0.2275 0.63969-0.34209 1.0382 0.01137 0.39847 0.35346 0.87421 0.28272 1.0748 0.1173 0.20064-0.16542 0.95156-0.46412 0.86505-1.0154-0.08651-0.5513-0.41208-0.26634-0.09198-1.2268 0.3201-0.96043 0.36152-3.0468-0.91879-4.0803-0.64016-0.51672-1.5871-0.69524-2.4784-0.68935zm0.29403 4.0224a0.74894 0.65687 0 0 1 0.74929 0.65731 0.74894 0.65687 0 0 1-0.74929 0.65679 0.74894 0.65687 0 0 1-0.74878-0.65679 0.74894 0.65687 0 0 1 0.74878-0.65731z" fill="#fff"/>
</svg>
