<?xml version="1.0" encoding="UTF-8"?>
<svg width="64" height="64" version="1" xmlns="http://www.w3.org/2000/svg" xmlns:cc="http://creativecommons.org/ns#" xmlns:dc="http://purl.org/dc/elements/1.1/" xmlns:rdf="http://www.w3.org/1999/02/22-rdf-syntax-ns#">
 <metadata>
  <rdf:RDF>
   <cc:Work rdf:about="">
    <dc:format>image/svg+xml</dc:format>
    <dc:type rdf:resource="http://purl.org/dc/dcmitype/StillImage"/>
    <dc:title/>
   </cc:Work>
  </rdf:RDF>
 </metadata>
 <g transform="matrix(.99256 0 0 .99256 188.52 -.34463)">
  <path d="m-170.91 40.068h4.6096l4.9991 14.926 8.4916-28.541 5.0541 13.572h4.087v2.0728h-5.5029l-3.3853-9.4575-8.6897 29.006-6.4874-19.595h-3.1891z" fill="#fec006"/>
  <path d="m-170.91 48.032h4.6096l4.9991-14.926 8.4916 28.541 5.0541-13.572h4.087v-2.0728h-5.5029l-3.3853 9.4575-8.6897-29.006-6.4874 19.595h-3.1891z" fill="#feea3a"/>
  <g fill="#3e50b4">
   <path d="m-157.74 3.5273c-13.391 0-24.247 10.856-24.247 24.247v15.587c0 6.1829 4.4025 7.8646 6.9276 8.3252v-23.912c0-9.5947 7.7243-17.319 17.319-17.319 9.5947 0 17.319 7.7243 17.319 17.319v23.921c2.5251-0.46415 6.9276-2.151 6.9276-8.3339v-15.587c0-13.391-10.856-24.247-24.247-24.247z" stroke-width="1.5587"/>
   <path d="m-173.82 30.065a14 14 0 0 0-9.0859 3.3516 14 14 0 0 0-4.9141 10.648 14 14 0 0 0 4.9141 10.65 14 14 0 0 0 9.0859 3.3496 14 14 0 0 0 2.6777-0.25781c0.28114-0.10203 0.60354-0.12698 0.81055-0.33398 0.36665-0.36665 0.5918-0.87365 0.5918-1.4355v-23.943c0-0.5619-0.22515-1.0689-0.5918-1.4355-0.2046-0.2046-0.52359-0.22981-0.80078-0.33203a14 14 0 0 0-2.6875-0.26172z" stroke="#fff" stroke-linecap="round" stroke-opacity=".3" stroke-width=".2"/>
   <path d="m-141.57 30.065a14 14 0 0 1 9.0859 3.3516 14 14 0 0 1 4.9141 10.648 14 14 0 0 1-4.9141 10.65 14 14 0 0 1-9.0859 3.3496 14 14 0 0 1-2.6777-0.25781c-0.28114-0.10203-0.60354-0.12698-0.81055-0.33398-0.36665-0.36665-0.59179-0.87365-0.59179-1.4355v-23.943c0-0.5619 0.22514-1.0689 0.59179-1.4355 0.2046-0.2046 0.52359-0.22981 0.80078-0.33203a14 14 0 0 1 2.6875-0.26172z" stroke="#fff" stroke-linecap="round" stroke-opacity=".3" stroke-width=".2"/>
  </g>
 </g>
</svg>
