<?xml version="1.0" encoding="UTF-8"?>
<svg width="64" height="64" version="1.1" viewBox="0 0 16.933 16.933" xmlns="http://www.w3.org/2000/svg" xmlns:cc="http://creativecommons.org/ns#" xmlns:dc="http://purl.org/dc/elements/1.1/" xmlns:rdf="http://www.w3.org/1999/02/22-rdf-syntax-ns#" xmlns:xlink="http://www.w3.org/1999/xlink">
 <metadata>
  <rdf:RDF>
   <cc:Work rdf:about="">
    <dc:format>image/svg+xml</dc:format>
    <dc:type rdf:resource="http://purl.org/dc/dcmitype/StillImage"/>
    <dc:title/>
   </cc:Work>
  </rdf:RDF>
 </metadata>
 <defs>
  <linearGradient id="linearGradient1197" x1="98.983" x2="105.37" y1="73.783" y2="85.196" gradientTransform="matrix(1.0519 0 0 1.0519 -94.874 -75.473)" gradientUnits="userSpaceOnUse">
   <stop stop-color="#aae64b" offset="0"/>
   <stop stop-color="#91b450" offset="1"/>
  </linearGradient>
  <linearGradient id="linearGradient966" x1="6.2204" x2="6.71" y1="17.072" y2="2.9798" gradientUnits="userSpaceOnUse">
   <stop stop-color="#ffc841" offset="0"/>
   <stop stop-color="#ffbe37" offset="1"/>
  </linearGradient>
  <linearGradient id="linearGradient968" x1="91.028" x2="91.028" y1="83.723" y2="102.55" gradientTransform="matrix(1.0519 0 0 1.0519 -86.456 -84.985)" gradientUnits="userSpaceOnUse">
   <stop stop-color="#008cff" offset="0"/>
   <stop stop-color="#00c8ff" offset="1"/>
  </linearGradient>
 </defs>
 <circle cx="-330.43" cy="-328.49" r="0" fill="#5e4aa6" stroke-width=".26458"/>
 <rect transform="rotate(6.006)" x="4.4" y="1.1162" width="11.734" height="13.357" ry=".78718" fill="url(#linearGradient1197)" stroke-width="1.0519" style="paint-order:stroke fill markers"/>
 <g>
  <rect transform="rotate(-9.9896)" x=".45793" y="2.9223" width="11.734" height="13.357" ry=".78718" fill="url(#linearGradient966)" stroke-width="1.0519" style="paint-order:stroke fill markers"/>
  <rect x="3.0119" y="2.6885" width="11.734" height="13.357" ry=".78718" fill="url(#linearGradient968)" stroke-width="1.0519" style="paint-order:stroke fill markers"/>
  <g transform="matrix(.79915 0 0 1.4095 2.1115 -1.8652)" fill="#0064ff">
   <path d="m3.9856 6.9374c-0.00585 0.029589-0.00947 0.060448-0.015081 0.09077h8.9931c-0.0053-0.030317-0.0092-0.061202-0.01567-0.09077z" opacity=".6" stroke-width=".60512" style="paint-order:normal"/>
   <path d="m4.1332 4.9655c0.00521 0.030317 0.010173 0.060579 0.015962 0.09077h8.6371c0.0054-0.032616 0.01-0.058576 0.01482-0.09077z" opacity=".6" stroke-width=".59404" style="paint-order:normal"/>
   <path d="m3.9856 8.9093c-0.00585 0.029589-0.00947 0.060448-0.015081 0.09077h8.9931c-0.0053-0.030317-0.0092-0.061202-0.01567-0.09077z" opacity=".6" stroke-width=".60512" style="paint-order:normal"/>
   <path d="m3.9856 10.881c-0.00585 0.02959-0.00947 0.06045-0.015081 0.09077h8.9931c-0.0053-0.03032-0.0092-0.0612-0.01567-0.09077z" opacity=".6" stroke-width=".60512" style="paint-order:normal"/>
  </g>
 </g>
</svg>
