<?xml version="1.0" encoding="UTF-8" standalone="no"?>
<svg
   xmlns:dc="http://purl.org/dc/elements/1.1/"
   xmlns:cc="http://creativecommons.org/ns#"
   xmlns:rdf="http://www.w3.org/1999/02/22-rdf-syntax-ns#"
   xmlns:svg="http://www.w3.org/2000/svg"
   xmlns="http://www.w3.org/2000/svg"
   xmlns:sodipodi="http://sodipodi.sourceforge.net/DTD/sodipodi-0.dtd"
   xmlns:inkscape="http://www.inkscape.org/namespaces/inkscape"
   width="64"
   height="64"
   version="1.1"
   viewBox="0 0 64 64"
   id="svg8"
   sodipodi:docname="bittorrent-sync.svg"
   inkscape:version="1.0.1 (3bc2e813f5, 2020-09-07)">
  <metadata
     id="metadata14">
    <rdf:RDF>
      <cc:Work
         rdf:about="">
        <dc:format>image/svg+xml</dc:format>
        <dc:type
           rdf:resource="http://purl.org/dc/dcmitype/StillImage" />
        <dc:title></dc:title>
      </cc:Work>
    </rdf:RDF>
  </metadata>
  <defs
     id="defs12" />
  <sodipodi:namedview
     pagecolor="#ffffff"
     bordercolor="#666666"
     borderopacity="1"
     objecttolerance="10"
     gridtolerance="10"
     guidetolerance="10"
     inkscape:pageopacity="0"
     inkscape:pageshadow="2"
     inkscape:window-width="1920"
     inkscape:window-height="932"
     id="namedview10"
     showgrid="false"
     inkscape:zoom="8.4521357"
     inkscape:cx="33.008558"
     inkscape:cy="27.069937"
     inkscape:window-x="0"
     inkscape:window-y="36"
     inkscape:window-maximized="1"
     inkscape:current-layer="svg8" />
  <path
     d="m 31.634868,2.0022221 a 30,30 0 1 1 0,59.9955559 30,30 0 0 1 0,-59.9955559 z"
     fill="#3a5d7f"
     stroke-width="4.19956"
     id="path2" />
  <g
     transform="matrix(4.1995556,0,0,4.1995556,-3.5555375,-3.5542269)"
     fill="#ffffff"
     style="paint-order:stroke markers fill"
     id="g6">
    <path
       d="M 8.326,4.236 A 4.238,4.238 0 0 0 5.47,5.472 4.235,4.235 0 0 0 5.124,11.061 l 0.89,-0.89 a 2.99,2.99 0 0 1 0.338,-3.818 2.992,2.992 0 0 1 3.112,-0.7 v 1.07 L 11.062,5.125 A 4.238,4.238 0 0 0 8.326,4.235 Z m 3.484,1.637 -0.891,0.89 a 2.99,2.99 0 0 1 -0.338,3.818 2.992,2.992 0 0 1 -3.111,0.7 v -1.07 l -1.058,1.057 -0.541,0.541 a 4.238,4.238 0 0 0 5.592,-0.347 4.235,4.235 0 0 0 0.346,-5.589 z"
       id="path4" />
  </g>
</svg>
