<?xml version="1.0" encoding="UTF-8"?>
<svg width="64" height="64" version="1.1" xmlns="http://www.w3.org/2000/svg" xmlns:cc="http://creativecommons.org/ns#" xmlns:dc="http://purl.org/dc/elements/1.1/" xmlns:rdf="http://www.w3.org/1999/02/22-rdf-syntax-ns#" xmlns:xlink="http://www.w3.org/1999/xlink">
 <metadata>
  <rdf:RDF>
   <cc:Work rdf:about="">
    <dc:format>image/svg+xml</dc:format>
    <dc:type rdf:resource="http://purl.org/dc/dcmitype/StillImage"/>
    <dc:title/>
   </cc:Work>
  </rdf:RDF>
 </metadata>
 <defs>
  <linearGradient id="linearGradient871" x1="65.98" x2="68.769" y1="5.4085" y2="5.4085" gradientTransform="matrix(3.7796 0 0 3.7796 -136.97 -5.9633)" gradientUnits="userSpaceOnUse">
   <stop stop-color="#007deb" offset="0"/>
   <stop stop-color="#0069d2" offset="1"/>
  </linearGradient>
  <linearGradient id="linearGradient1032" x2="0" y1="544.8" y2="503.8" gradientTransform="translate(-376.86 -491.8)" gradientUnits="userSpaceOnUse" xlink:href="#linearGradient871"/>
  <linearGradient id="linearGradient978-3" x1="1.9643" x2="14.969" y1="14.924" y2="2.3319" gradientTransform="matrix(3.7796 0 0 3.7796 -.00049168 -.00011372)" gradientUnits="userSpaceOnUse">
   <stop stop-color="#007deb" offset="0"/>
   <stop stop-color="#009bf5" offset="1"/>
  </linearGradient>
 </defs>
 <circle cx="-1248.6" cy="-1241.1" r="0" fill="#5e4aa6"/>
 <path d="m62 32c0 3.5964-0.63301 7.0448-1.7939 10.24-0.80694 2.2212-1.8686 4.3212-3.1518 6.2636-0.5375 0.81666-1.1155 1.6053-1.729 2.3633-1.964 2.4256-4.2982 4.5378-6.9182 6.2526-0.96493 0.6318-1.9678 1.2098-3.0061 1.7277-4.0321 2.0178-8.5835 3.1529-13.401 3.1529-4.8171 0-9.3685-1.1351-13.401-3.153-1.0384-0.51803-2.0424-1.096-3.0074-1.7277-2.6535-1.7376-5.0155-3.8832-6.9957-6.349-0.61464-0.76408-1.1914-1.56-1.729-2.384-1.249-1.9101-2.2836-3.9712-3.0746-6.1494-1.1607-3.1948-1.7926-6.6415-1.7926-10.237 0-16.569 13.431-30 30-30 8.317 0 15.843 3.3844 21.277 8.8503 1.5661 1.5746 2.9584 3.3233 4.1436 5.214 1.1204 1.7804 2.0571 3.6881 2.7857 5.6947 1.161 3.1959 1.794 6.6442 1.794 10.24z" fill="url(#linearGradient978-3)" stroke-width=".11719"/>
 <circle cx="-1248.6" cy="-1241.1" r="0" fill="#5e4aa6"/>
 <circle cx="-1332.8" cy="-1273.1" r="0" fill="#5e4aa6"/>
 <path d="m56.535 32c0 2.9412-0.51769 5.7616-1.4671 8.3745-0.65996 1.8165-1.5282 3.534-2.5777 5.1225-0.43957 0.66789-0.91232 1.3129-1.414 1.9327-1.6063 1.9838-3.5152 3.7112-5.6581 5.1134-0.78914 0.51671-1.6094 0.98942-2.4584 1.413-3.2976 1.6502-7.0199 2.5786-10.96 2.5786-3.9395 0-7.662-0.92831-10.96-2.5786-0.8492-0.42366-1.6704-0.89633-2.4595-1.413-2.1701-1.421-4.102-3.1758-5.7212-5.1924-0.50269-0.62488-0.97438-1.2758-1.414-1.9497-1.0214-1.5622-1.8676-3.2478-2.5145-5.0291-0.94928-2.6128-1.4661-5.4317-1.4661-8.3722 0-13.55 10.984-24.535 24.535-24.535 6.8018 0 12.956 2.7679 17.401 7.2379 1.2808 1.2878 2.4195 2.7179 3.3888 4.2641 0.91633 1.4561 1.6823 3.0163 2.2782 4.6572 0.94947 2.6137 1.4672 5.4339 1.4672 8.3745z" fill="#fafafa" stroke-width=".095839"/>
 <circle cx="-1164.8" cy="-1241" r="0" fill="#5e4aa6"/>
 <path d="m34.553 48.231c-2.118-2.134-3.851-3.891-3.851-3.902 0 0 1.711-1.801 3.803-3.975l3.802-3.953v1.936c0.01 1.065 0 1.946 0 1.959 0 0 5.588-0.01 9.829-0.102 2.073 0 2.155 0 2.367-0.102 0.45-0.123 0.88-0.409 1.043-0.696 0-0.102 0.1-0.123 0.1-0.113 0 0-0.11 0.532-0.19 0.706-0.1 0.164-0.77 1.419-3.212 5.829-0.32 0.573-0.63 1.095-0.71 1.197-0.37 0.45-0.94 0.819-1.588 1-0.21 0.102-0.27 0.102-3.643 0.102h-3.918l0.01 1.94c0 1.067 0 1.939-0.01 1.939s-1.749-1.746-3.866-3.882z" fill="url(#linearGradient1032)"/>
 <path d="m27.406 12.37c-0.136-0.02-0.27-0.018-0.402 0.01-0.24 0.051-0.412 0.135-0.672 0.35-0.364 0.296-0.364 0.297-1.857 2.93-0.429 0.754-1.491 2.631-2.371 4.172-0.872 1.54-1.591 2.822-1.592 2.822-1e-3 0.013 1.486 0.911 3.303 1.994l-8e-3 6e-3c1.818 1.08 3.332 1.97 3.332 1.971 0.015 1e-3 1.037-1.777 2.271-3.951l2.246-3.953-0.26-0.48c-1.689-3.046-2.752-4.957-2.852-5.08-0.323-0.453-0.732-0.728-1.139-0.789m18.664 15.855c-0.012-4e-3 -1.506 0.885-3.318 1.977-2.144 1.29-3.293 2.025-3.293 2.025 2e-3 0.023 0.577 1.049 1.287 2.279 0.707 1.229 1.718 2.997 2.248 3.918v4e-3l0.971 1.682 2.945-0.01c2.903-0.01 3.322-9e-3 3.652-0.111 0.767-0.202 1.237-0.84 1.137-1.557-0.07-0.456-0.13-0.629-0.43-1.172-0.423-0.767-5.199-9.03-5.199-9.04m-26.527 12.143-1.037 1.826c-0.567 1-1.258 2.205-1.518 2.666-0.26 0.46-0.47 0.932-0.57 1.055-0.32 0.752-0.249 1.397 0.191 1.848 0.2 0.205 0.589 0.368 0.979 0.471l8e-3 0.035h10.912l-0.01-3.939-0.01-3.941-4.473-0.01z" fill="#0094f3"/>
 <path d="m16.043 47.361c-0.12-0.123-0.26-0.297-0.3-0.369-0.21-0.348-3.771-6.679-3.825-6.804-0.12-0.287-0.18-0.594-0.2-1.024 0-0.471 0-0.788 0.15-1.139 0.1-0.143 0.69-1.302 1.875-3.407 0.99-1.754 1.793-3.203 1.786-3.22-0.01 0-0.75-0.471-1.641-0.993-0.9-0.532-1.619-0.972-1.61-0.983 0.01-0.01 0.21-0.102 0.44-0.133 0.23-0.102 1.593-0.44 3.02-0.829 1.429-0.389 3.128-0.86 3.775-1.036 0.65-0.174 1.637-0.45 2.2-0.604 0.56-0.154 1.026-0.276 1.029-0.276 0 0 0 0.174 0.1 0.389 0.11 0.43 1.01 3.87 1.319 5.04 0.11 0.42 0.32 1.217 0.46 1.764 0.14 0.543 0.41 1.56 0.59 2.252 0.18 0.696 0.32 1.264 0.32 1.27-0.01 0.01-0.74-0.42-1.629-0.942-0.89-0.522-1.632-0.952-1.65-0.952 0 0-0.59 0.993-1.275 2.205-0.68 1.212-1.983 3.509-2.889 5.103-0.91 1.594-1.69 2.989-1.745 3.1-0.28 0.573-0.33 1.205-0.13 1.653 0 0.102 0.1 0.174 0.1 0.174s-0.12-0.102-0.24-0.235z" fill="url(#linearGradient1032)"/>
 <path d="m41.493 28.441c-0.1 0-2.357-0.655-5.02-1.396-2.663-0.737-4.927-1.368-5.03-1.397l-0.19-0.102 0.19-0.113c0.1-0.102 0.73-0.43 1.394-0.819 0.66-0.389 1.313-0.768 1.446-0.85 0.13-0.102 0.25-0.154 0.25-0.174 0.01 0-0.3-0.583-0.68-1.261-1.474-2.635-2.8-5.01-3.896-6.984-0.63-1.132-1.205-2.15-1.28-2.262-0.35-0.532-0.92-0.901-1.386-0.901h-0.02s0.19-0.102 0.33-0.102c0.24-0.102 0.26-0.102 4.199 0l3.953 0.01 0.21 0.102c0.56 0.164 1.043 0.45 1.427 0.86l0.25 0.256 1.682 3.01c0.93 1.653 1.737 3.106 1.804 3.226 0.1 0.184 0.13 0.215 0.18 0.205 0-0.01 0.78-0.44 1.67-0.952s1.616-0.942 1.62-0.932c0 0-0.21 0.819-0.47 1.812-0.53 2-1.341 5.05-1.7 6.41-0.63 2.372-0.66 2.478-0.7 2.483h-0.22z" fill="url(#linearGradient1032)"/>
</svg>
