<?xml version="1.0" encoding="UTF-8"?>
<svg width="64" height="64" version="1.1" xmlns="http://www.w3.org/2000/svg" xmlns:cc="http://creativecommons.org/ns#" xmlns:dc="http://purl.org/dc/elements/1.1/" xmlns:rdf="http://www.w3.org/1999/02/22-rdf-syntax-ns#" xmlns:xlink="http://www.w3.org/1999/xlink">
 <metadata>
  <rdf:RDF>
   <cc:Work rdf:about="">
    <dc:format>image/svg+xml</dc:format>
    <dc:type rdf:resource="http://purl.org/dc/dcmitype/StillImage"/>
    <dc:title/>
   </cc:Work>
  </rdf:RDF>
 </metadata>
 <defs>
  <linearGradient id="e" x1="128.86" x2="891.7" y1="164.18" y2="924.9" gradientTransform="matrix(.062745 0 0 .062745 .21509 -1.8157)" gradientUnits="userSpaceOnUse">
   <stop stop-color="#e6e6e6" offset="0"/>
   <stop stop-color="#fff" offset="1"/>
  </linearGradient>
  <linearGradient id="d" x1="387.06" x2="649.89" y1="415.86" y2="687.91" gradientTransform="matrix(.062745 0 0 .062745 -4.8942 -9.5327)" gradientUnits="userSpaceOnUse">
   <stop stop-color="#009bf5" offset="0"/>
   <stop stop-color="#007deb" offset="1"/>
  </linearGradient>
  <linearGradient id="c" x1="67.024" x2="102.91" y1="283.91" y2="581.76" gradientTransform="matrix(.062745 0 0 .062745 3.5997 -1.4673)" gradientUnits="userSpaceOnUse">
   <stop stop-color="#e6e6e6" offset="0"/>
   <stop stop-color="#fff" offset="1"/>
  </linearGradient>
  <linearGradient id="linearGradient978" x1="1.9643" x2="14.969" y1="14.924" y2="2.3319" gradientTransform="matrix(3.7796 0 0 3.7796 -.00088381 -.00021294)" gradientUnits="userSpaceOnUse">
   <stop stop-color="#ff673c" offset="0"/>
   <stop stop-color="#ff8f14" offset="1"/>
  </linearGradient>
 </defs>
 <path d="m62 32c0 3.5964-0.63301 7.0448-1.7939 10.24-0.80694 2.2212-1.8686 4.3212-3.1518 6.2636-0.5375 0.81666-1.1155 1.6053-1.729 2.3633-1.964 2.4256-4.2982 4.5378-6.9182 6.2526-0.96493 0.6318-1.9678 1.2098-3.0061 1.7277-4.0321 2.0178-8.5835 3.1529-13.401 3.1529-4.8171 0-9.3685-1.1351-13.401-3.153-1.0384-0.51803-2.0424-1.096-3.0074-1.7277-2.6535-1.7376-5.0155-3.8832-6.9957-6.349-0.61464-0.76408-1.1914-1.56-1.729-2.384-1.249-1.9101-2.2836-3.9712-3.0746-6.1494-1.1607-3.1948-1.7926-6.6415-1.7926-10.237 0-16.569 13.431-30 30-30 8.317 0 15.843 3.3844 21.277 8.8503 1.5661 1.5746 2.9584 3.3233 4.1436 5.214 1.1204 1.7804 2.0571 3.6881 2.7857 5.6947 1.161 3.1959 1.794 6.6442 1.794 10.24z" fill="url(#linearGradient978)" stroke-width=".11719"/>
 <ellipse transform="rotate(-30)" cx="11.376" cy="27.243" rx="11.502" ry="10.051" fill="url(#c)" style="paint-order:stroke markers fill"/>
 <circle cx="32" cy="32.434" r="24.094" fill="url(#e)" style="paint-order:stroke markers fill"/>
 <circle cx="27.565" cy="24.961" r="8.0314" fill="url(#d)" stroke="#f0f0f0" stroke-linecap="square" stroke-width="1.109" style="paint-order:stroke markers fill"/>
</svg>
