<?xml version="1.0" encoding="UTF-8" standalone="no"?>
<svg
   xmlns:dc="http://purl.org/dc/elements/1.1/"
   xmlns:cc="http://creativecommons.org/ns#"
   xmlns:rdf="http://www.w3.org/1999/02/22-rdf-syntax-ns#"
   xmlns:svg="http://www.w3.org/2000/svg"
   xmlns="http://www.w3.org/2000/svg"
   xmlns:sodipodi="http://sodipodi.sourceforge.net/DTD/sodipodi-0.dtd"
   xmlns:inkscape="http://www.inkscape.org/namespaces/inkscape"
   width="64"
   height="64"
   version="1"
   id="svg21"
   sodipodi:docname="blinken.svg"
   inkscape:version="1.0.1 (3bc2e813f5, 2020-09-07)">
  <metadata
     id="metadata25">
    <rdf:RDF>
      <cc:Work
         rdf:about="">
        <dc:format>image/svg+xml</dc:format>
        <dc:type
           rdf:resource="http://purl.org/dc/dcmitype/StillImage" />
        <dc:title></dc:title>
      </cc:Work>
    </rdf:RDF>
  </metadata>
  <sodipodi:namedview
     pagecolor="#ffffff"
     bordercolor="#666666"
     borderopacity="1"
     objecttolerance="10"
     gridtolerance="10"
     guidetolerance="10"
     inkscape:pageopacity="0"
     inkscape:pageshadow="2"
     inkscape:window-width="1920"
     inkscape:window-height="932"
     id="namedview23"
     showgrid="false"
     inkscape:zoom="5.9765625"
     inkscape:cx="12.770485"
     inkscape:cy="25.877698"
     inkscape:window-x="0"
     inkscape:window-y="36"
     inkscape:window-maximized="1"
     inkscape:current-layer="svg21" />
  <defs
     id="defs3">
    <style
       id="current-color-scheme"
       type="text/css">.ColorScheme-Text { color:#4d4d4d; }</style>
  </defs>
  <path
     id="rect874"
     style="fill:#f44336;fill-opacity:1;stroke:none;stroke-width:1.43314"
     d="M 31.855469 2 A 30 30 0 0 0 10.787109 10.787109 L 32 32 L 53.212891 10.787109 A 30 30 0 0 0 32 2 A 30 30 0 0 0 31.855469 2 z " />
  <path
     id="rect864"
     style="fill:#ff5722;fill-opacity:1;stroke:none;stroke-width:1.43314"
     d="M 47 6.0175781 L 32 32 L 57.982422 47 A 30 30 0 0 0 62 32 A 30 30 0 0 0 47 6.0175781 z " />
  <path
     id="rect866"
     style="fill:#f9ce1d;fill-opacity:1;stroke:none;stroke-width:1.43314"
     d="M 60.976562 24.236328 L 32 32 L 39.763672 60.976562 A 30 30 0 0 0 62 32 A 30 30 0 0 0 60.976562 24.236328 z " />
  <path
     id="rect868"
     style="fill:#4caf50;fill-opacity:1;stroke:none;stroke-width:1.43314"
     d="M 32 32 L 10.787109 53.212891 A 30 30 0 0 0 32 62 A 30 30 0 0 0 53.212891 53.212891 L 32 32 z " />
  <path
     id="rect870"
     style="fill:#3f51b5;fill-opacity:1;stroke:none;stroke-width:1.43314"
     d="M 6.0175781 17 A 30 30 0 0 0 2 32 A 30 30 0 0 0 17 57.982422 L 32 32 L 6.0175781 17 z " />
  <path
     id="rect872"
     style="fill:#9c27b0;fill-opacity:1;stroke:none;stroke-width:1.43314"
     d="M 10.787109 10.787109 A 30 30 0 0 0 2 32 A 30 30 0 0 0 3.0234375 39.763672 L 32 32 L 10.787109 10.787109 z " />
  <g
     id="g948"
     transform="translate(2.4310799,-2.9375839)">
    <circle
       cx="29.56892"
       cy="34.937584"
       r="16.200001"
       fill="#2c3d3d"
       id="circle942"
       style="stroke-width:0.999999" />
    <path
       d="m 32.04212,23.702886 -3.8232,0.358587 v 14.76765 L 32,38.31233 V 32 l 5.044005,6.98733 3.94983,-1.191794 -5.167935,-6.70788 5.21019,-6.35445 L 37.001885,23.860458 32,30.212343 Z m -9.28125,4.0473 c -0.04275,0 -0.09431,0.02464 -0.126562,0.04219 l -1.47123,1.42911 c -0.06264,0.0621 -0.0881,0.164943 -0.04219,0.237303 l 1.724355,2.7 c -0.309312,0.491265 -0.537381,1.028943 -0.714555,1.58733 l -3.19302,0.635445 c -0.08905,0.02295 -0.16875,0.0743 -0.16875,0.160839 v 1.98288 c 0,0.0837 0.08305,0.177363 0.16875,0.197748 l 3.108645,0.717187 c 0.165578,0.647325 0.417366,1.261116 0.756743,1.82466 l -1.806165,2.581335 c -0.05013,0.0729 -0.02403,0.176418 0.04219,0.237303 l 1.468665,1.389555 c 0.06264,0.0567 0.176688,0.08809 0.253125,0.04219 l 2.815965,-1.62945 c 0.553608,0.301725 1.13292,0.553635 1.76391,0.714555 l 0.672367,2.97945 c 0.01929,0.0864 0.07807,0.158206 0.168751,0.158206 h 2.10141 c 0.08856,0 0.189755,-0.07599 0.210937,-0.158206 l 0.754096,-2.97945 c 0.650471,-0.165915 1.283891,-0.438467 1.850985,-0.754097 l 2.773845,1.748115 c 0.07633,0.0459 0.185585,0.02126 0.250493,-0.04219 l 1.47123,-1.389555 c 0.06302,-0.0621 0.08837,-0.165214 0.04219,-0.237304 l -1.007221,-1.58733 -0.3375,0.118652 c -0.04798,0.02295 -0.0984,9.49e-4 -0.126563,-0.03956 0,0 -0.636093,-0.909495 -1.47123,-2.064555 -0.998446,1.84626 -3.03318,3.09555 -5.37894,3.09555 -3.332745,0 -6.05124,-2.52801 -6.05124,-5.676885 0,-2.316195 1.47339,-4.309875 3.572775,-5.202225 v -1.468665 c -0.382104,0.1269 -0.740745,0.256662 -1.091596,0.437697 h -0.04219 l -2.815964,-1.748115 c -0.03829,-0.02295 -0.0837,-0.04096 -0.126563,-0.03691 v -0.0027 z"
       color="#4d4d4d"
       fill="#ffffff"
       id="path944"
       style="stroke-width:0.999999" />
  </g>
</svg>
