<?xml version="1.0" encoding="UTF-8" standalone="no"?>
<svg
   xmlns:dc="http://purl.org/dc/elements/1.1/"
   xmlns:cc="http://creativecommons.org/ns#"
   xmlns:rdf="http://www.w3.org/1999/02/22-rdf-syntax-ns#"
   xmlns:svg="http://www.w3.org/2000/svg"
   xmlns="http://www.w3.org/2000/svg"
   xmlns:sodipodi="http://sodipodi.sourceforge.net/DTD/sodipodi-0.dtd"
   xmlns:inkscape="http://www.inkscape.org/namespaces/inkscape"
   width="64"
   height="64"
   version="1.1"
   id="svg8"
   sodipodi:docname="bluegriffon.svg"
   inkscape:version="1.0.1 (3bc2e813f5, 2020-09-07)">
  <metadata
     id="metadata14">
    <rdf:RDF>
      <cc:Work
         rdf:about="">
        <dc:format>image/svg+xml</dc:format>
        <dc:type
           rdf:resource="http://purl.org/dc/dcmitype/StillImage" />
        <dc:title></dc:title>
      </cc:Work>
    </rdf:RDF>
  </metadata>
  <defs
     id="defs12">
    <linearGradient
       id="linearGradient978"
       x1="1.9643"
       x2="14.969"
       y1="14.924"
       y2="2.3319"
       gradientTransform="matrix(3.779602,0,0,3.779602,-9.826e-4,-2.2695e-4)"
       gradientUnits="userSpaceOnUse">
      <stop
         stop-color="#007deb"
         offset="0"
         id="stop841" />
      <stop
         stop-color="#009bf5"
         offset="1"
         id="stop843" />
    </linearGradient>
  </defs>
  <sodipodi:namedview
     pagecolor="#ffffff"
     bordercolor="#666666"
     borderopacity="1"
     objecttolerance="10"
     gridtolerance="10"
     guidetolerance="10"
     inkscape:pageopacity="0"
     inkscape:pageshadow="2"
     inkscape:window-width="1920"
     inkscape:window-height="932"
     id="namedview10"
     showgrid="false"
     inkscape:zoom="4.2260679"
     inkscape:cx="13.239639"
     inkscape:cy="35.522924"
     inkscape:window-x="0"
     inkscape:window-y="36"
     inkscape:window-maximized="1"
     inkscape:current-layer="svg8" />
  <path
     d="m 62.0001,31.999887 c 0,3.596367 -0.633008,7.0448 -1.793913,10.240076 -0.806945,2.221158 -1.868559,4.321218 -3.151848,6.263556 -0.537497,0.816659 -1.115511,1.60531 -1.729017,2.363272 -1.964032,2.425635 -4.298163,4.53779 -6.918183,6.252595 -0.964933,0.631799 -1.967812,1.209813 -3.006069,1.727694 -4.032079,2.017816 -8.583476,3.152906 -13.400957,3.152906 -4.817103,0 -9.368499,-1.13509 -13.400957,-3.152981 -1.03837,-0.518033 -2.042421,-1.095972 -3.007354,-1.727694 -2.653469,-1.737559 -5.015531,-3.883163 -6.9956646,-6.348976 -0.614639,-0.764084 -1.191444,-1.559993 -1.728979,-2.384021 -1.248969,-1.910136 -2.283635,-3.971228 -3.07463,-6.149413 -1.160716,-3.194784 -1.792628,-6.641517 -1.792628,-10.237052 0,-16.568641 13.4311936,-29.9998349 29.9998346,-29.9998349 8.317014,0 15.84258,3.3844446 21.276892,8.8503159 1.566078,1.57462 2.958408,3.323291 4.143578,5.213961 1.120425,1.780419 2.057086,3.688136 2.78568,5.694726 1.16098,3.195918 1.794026,6.644163 1.794026,10.240076 z"
     fill="url(#linearGradient978)"
     stroke-width="0.117187"
     id="path850"
     style="fill:url(#linearGradient978)" />
  <g
     transform="translate(-376.57004,-491.79502)"
     fill="#ffffff"
     id="g6">
    <path
       d="m 428.57,503.8 c 0,-0.0562 -0.6399,0.38104 -1.4225,0.97118 -7.3615,5.5516 -16.563,10.407 -21.715,11.458 l -0.97136,0.19856 -0.36828,0.96714 c -1.2831,3.3731 -4.9305,5.7652 -10.649,6.9833 -0.90345,0.19249 -1.8727,0.46695 -2.1536,0.60977 -0.86789,0.44125 -1.8763,1.4508 -2.3322,2.3354 -0.36832,0.71434 -0.4253,1.0224 -0.36966,1.9908 0.0468,0.81502 0.15926,1.2467 0.38952,1.4968 0.30965,0.33644 1.0815,0.51291 0.88648,0.20258 -0.15336,-0.24405 0.5733,-1.022 1.2918,-1.3824 1.1633,-0.58348 2.9706,-0.85926 4.8616,-0.83384 0.33764,0.006 0.74383,0.0207 1.024,0.0424 1.4161,0.1002 2.8238,0.36707 3.9923,0.80359 0.6283,0.23474 1.1604,0.51628 1.5922,0.8332 1.6123,0.82581 2.9686,1.9003 4.1079,3.141 9.7e-4,-0.0412 0.005,-0.0804 0.005,-0.12243 0.007,-0.81564 0.0356,-1.483 0.0615,-1.4834 0.026,-3.2e-4 0.12875,0.20861 0.22794,0.46506 0.24052,0.62104 0.36584,1.2748 0.3895,1.9322 2.1626,2.6856 3.4414,5.9942 4.1922,9.1881 1.0007,-1.7048 1.9488,-3.9594 1.953,-4.8801 0.006,-1.3629 0.9667,1.3124 1.2698,3.5374 l 0.20949,1.5406 0.37992,-0.93281 c 0.63507,-1.5598 0.93332,-3.1907 0.9351,-5.1116 9.6e-4,-0.99294 -0.0494,-1.9657 -0.11297,-2.1618 -0.0632,-0.1961 -0.0461,-0.3567 0.0386,-0.3567 0.20796,0 1.862,1.6571 2.2857,2.2896 0.39983,0.59683 0.43017,0.33618 0.10195,-0.87561 -0.86789,-3.2047 -3.3572,-6.224 -6.9091,-8.3805 l -1.3725,-0.83319 0.68317,-0.02 c 0.37544,-0.0109 0.91544,-0.0718 1.2,-0.13525 l 0.51748,-0.11512 -0.69,-0.23085 -0.69,-0.23153 1.1055,-0.22208 c 0.60819,-0.12215 1.6565,-0.47825 2.3288,-0.79148 l 1.2219,-0.56939 -1.5519,0.0605 -1.5525,0.0605 1.2075,-0.40048 c 1.68,-0.55746 4.9031,-2.2213 4.6967,-2.4242 -0.0291,-0.029 -0.63253,0.0958 -1.3403,0.27662 -2.0809,0.53127 -2.3006,0.4149 -0.67427,-0.35737 1.5832,-0.7518 3.8113,-2.1663 4.9061,-3.1148 l 0.69003,-0.59764 -1.2931,0.57341 c -1.0985,0.48707 -3.6058,1.2875 -4.0334,1.2875 -0.0721,0 0.36979,-0.25649 0.98163,-0.57003 1.7518,-0.89773 3.3349,-2.0866 5.2929,-3.9735 l 1.8113,-1.7458 -1.4656,0.76119 c -1.3862,0.71948 -4.312,2.0118 -4.312,1.9047 0,-0.0272 0.36884,-0.30606 0.81941,-0.61919 1.7484,-1.215 4.8436,-4.4253 6.6756,-6.9234 l 0.66542,-0.90659 -1.6313,1.2532 c -1.7416,1.3385 -5.2987,3.6071 -5.4394,3.4688 -0.0463,-0.0456 0.12677,-0.21943 0.38473,-0.38566 0.7616,-0.49062 4.114,-4.2137 5.9569,-6.6151 0.94006,-1.225 1.7093,-2.2732 1.7093,-2.3294 z"
       fill="#ffffff"
       id="path4" />
  </g>
  <circle
     cx="-1314.0671"
     cy="-1244.2476"
     r="0"
     fill="#5e4aa6"
     stroke-width="1.00001"
     id="circle848" />
  <circle
     cx="-1314.0671"
     cy="-1244.2476"
     r="0"
     fill="#5e4aa6"
     stroke-width="1.00001"
     id="circle852" />
  <circle
     cx="-1398.2766"
     cy="-1276.223"
     r="0"
     fill="#5e4aa6"
     stroke-width="1.00001"
     id="circle854" />
</svg>
