<?xml version="1.0" encoding="UTF-8" standalone="no"?>
<svg
   xmlns:dc="http://purl.org/dc/elements/1.1/"
   xmlns:cc="http://creativecommons.org/ns#"
   xmlns:rdf="http://www.w3.org/1999/02/22-rdf-syntax-ns#"
   xmlns:svg="http://www.w3.org/2000/svg"
   xmlns="http://www.w3.org/2000/svg"
   xmlns:sodipodi="http://sodipodi.sourceforge.net/DTD/sodipodi-0.dtd"
   xmlns:inkscape="http://www.inkscape.org/namespaces/inkscape"
   id="App-Store"
   width="64"
   height="64"
   enable-background="new 0 0 1024 1024"
   image-rendering="optimizeSpeed"
   version="1.1"
   viewBox="0 0 64 64"
   sodipodi:docname="bluetooth.svg"
   inkscape:version="1.0.1 (3bc2e813f5, 2020-09-07)">
  <sodipodi:namedview
     pagecolor="#ffffff"
     bordercolor="#666666"
     borderopacity="1"
     objecttolerance="10"
     gridtolerance="10"
     guidetolerance="10"
     inkscape:pageopacity="0"
     inkscape:pageshadow="2"
     inkscape:window-width="1920"
     inkscape:window-height="932"
     id="namedview27"
     showgrid="false"
     inkscape:zoom="5.9765625"
     inkscape:cx="21.030677"
     inkscape:cy="33.897258"
     inkscape:window-x="0"
     inkscape:window-y="36"
     inkscape:window-maximized="1"
     inkscape:current-layer="App-Store" />
  <metadata
     id="metadata2">
    <rdf:RDF>
      <cc:Work
         rdf:about="">
        <dc:format>image/svg+xml</dc:format>
        <dc:type
           rdf:resource="http://purl.org/dc/dcmitype/StillImage" />
        <dc:title></dc:title>
      </cc:Work>
    </rdf:RDF>
  </metadata>
  <defs
     id="defs14">
    <linearGradient
       id="a"
       x1="29.565"
       x2="29.728"
       y1="11.048"
       y2="53.559"
       gradientTransform="translate(-.00021504 7.4633e-5)"
       gradientUnits="userSpaceOnUse">
      <stop
         stop-color="#fff"
         offset="0"
         id="stop4" />
      <stop
         stop-color="#dbf6f8"
         offset="1"
         id="stop6" />
    </linearGradient>
    <linearGradient
       id="linearGradient978"
       x1="1.9643"
       x2="14.969"
       y1="14.924"
       y2="2.3319"
       gradientTransform="matrix(3.7796,0,0,3.7796,-0.44248592,-35.032139)"
       gradientUnits="userSpaceOnUse">
      <stop
         stop-color="#007deb"
         offset="0"
         id="stop9" />
      <stop
         stop-color="#009bf5"
         offset="1"
         id="stop11" />
    </linearGradient>
  </defs>
  <rect
     style="opacity:1;fill:#3f51b5;fill-opacity:1;stroke-width:0.900507"
     id="rect866"
     width="34"
     height="55"
     x="15"
     y="4.5"
     ry="17" />
  <circle
     cx="-1248.6"
     cy="-1241.1"
     r="0"
     fill="#5e4aa6"
     id="circle16" />
  <circle
     cx="-1248.6"
     cy="-1241.1"
     r="0"
     fill="#5e4aa6"
     id="circle20" />
  <circle
     cx="-1332.8"
     cy="-1273.1"
     r="0"
     fill="#5e4aa6"
     id="circle22" />
  <path
     id="rect913"
     style="opacity:1;fill:#ffffff;fill-opacity:1;stroke-width:0.5"
     d="M 30.832031 14.509766 C 30.530715 14.475226 30.221884 14.525652 29.9375 14.662109 C 29.36889 14.935005 29.007812 15.509862 29.007812 16.140625 L 29.007812 27.919922 L 24.097656 23.953125 C 23.393383 23.383793 22.362442 23.490758 21.792969 24.195312 C 21.223496 24.899726 21.332686 25.934433 22.037109 26.503906 L 28.839844 32.003906 L 22.037109 37.501953 C 21.332695 38.071426 21.223496 39.104153 21.792969 39.808594 C 22.117112 40.209542 22.590157 40.416016 23.068359 40.416016 C 23.430543 40.416016 23.794207 40.298063 24.097656 40.052734 L 29.007812 36.083984 L 29.007812 47.861328 C 29.007812 48.4921 29.368926 49.067001 29.9375 49.339844 C 30.163307 49.448082 30.405312 49.5 30.646484 49.5 C 31.012685 49.5 31.377137 49.378493 31.673828 49.140625 L 41.957031 40.894531 C 42.345346 40.583162 42.572266 40.112968 42.572266 39.615234 C 42.572266 39.117535 42.345346 38.647192 41.957031 38.335938 L 34.056641 32 L 41.957031 25.666016 C 42.345346 25.354647 42.572266 24.884312 42.572266 24.386719 C 42.572266 23.889161 42.345346 23.416723 41.957031 23.105469 L 31.673828 14.861328 C 31.427776 14.664082 31.133357 14.544309 30.832031 14.509766 z M 32.285156 19.556641 L 38.310547 24.386719 L 32.285156 29.214844 L 32.285156 19.556641 z M 32.285156 34.785156 L 38.310547 39.615234 L 32.285156 44.441406 L 32.285156 34.785156 z " />
</svg>
