<?xml version="1.0" encoding="UTF-8"?>
<svg width="64" height="64" version="1.1" viewBox="0 0 16.933 16.933" xmlns="http://www.w3.org/2000/svg" xmlns:cc="http://creativecommons.org/ns#" xmlns:dc="http://purl.org/dc/elements/1.1/" xmlns:rdf="http://www.w3.org/1999/02/22-rdf-syntax-ns#">
 <metadata>
  <rdf:RDF>
   <cc:Work rdf:about="">
    <dc:format>image/svg+xml</dc:format>
    <dc:type rdf:resource="http://purl.org/dc/dcmitype/StillImage"/>
    <dc:title/>
   </cc:Work>
  </rdf:RDF>
 </metadata>
 <defs>
  <linearGradient id="linearGradient1197" x1="98.983" x2="105.37" y1="73.783" y2="85.196" gradientUnits="userSpaceOnUse">
   <stop stop-color="#aae64b" offset="0"/>
   <stop stop-color="#91b450" offset="1"/>
  </linearGradient>
  <linearGradient id="linearGradient1213" x1="67.49" x2="77.392" y1="103.59" y2="97.918" gradientTransform="translate(195.07,46.371)" gradientUnits="userSpaceOnUse">
   <stop stop-color="#008cff" offset="0"/>
   <stop stop-color="#00c8ff" offset="1"/>
  </linearGradient>
  <linearGradient id="linearGradient1221" x1="90.806" x2="90.806" y1="95.918" y2="83.477" gradientUnits="userSpaceOnUse">
   <stop stop-color="#ffc841" offset="0"/>
   <stop stop-color="#ffbe37" offset="1"/>
  </linearGradient>
  <style type="text/css"/>
 </defs>
 <circle cx="-330.35" cy="-328.38" r="0" fill="#5e4aa6" stroke-width=".26458"/>
 <g transform="translate(-.081402 -.10827)">
  <circle cx="-330.35" cy="-328.38" r="0" fill="#5e4aa6" stroke-width=".26458"/>
  <g transform="matrix(1.0519,0,0,1.0519,-86.375,-84.877)">
   <rect transform="rotate(6.006)" x="94.376" y="72.81" width="11.155" height="12.698" ry=".74834" fill="url(#linearGradient1197)" style="paint-order:stroke fill markers"/>
   <rect transform="rotate(-9.9896)" x="67.365" y="96.603" width="11.155" height="12.698" ry=".74834" fill="url(#linearGradient1213)" style="paint-order:stroke fill markers"/>
   <rect x="85.054" y="83.348" width="11.155" height="12.698" ry=".74834" fill="url(#linearGradient1221)" style="paint-order:stroke fill markers"/>
   <g transform="matrix(.75972 0 0 1.34 84.198 79.019)" fill="#f08705">
    <path d="m3.9856 6.9374c-0.00585 0.029589-0.00947 0.060448-0.015081 0.09077h8.9931c-0.0053-0.030317-0.0092-0.061202-0.01567-0.09077z" opacity=".6" stroke-width=".60512" style="paint-order:normal"/>
    <path d="m4.1332 4.9655c0.00521 0.030317 0.010173 0.060579 0.015962 0.09077h8.6371c0.0054-0.032616 0.01-0.058576 0.01482-0.09077z" opacity=".6" stroke-width=".59404" style="paint-order:normal"/>
    <path d="m3.9856 8.9093c-0.00585 0.029589-0.00947 0.060448-0.015081 0.09077h8.9931c-0.0053-0.030317-0.0092-0.061202-0.01567-0.09077z" opacity=".6" stroke-width=".60512" style="paint-order:normal"/>
    <path d="m3.9856 10.881c-0.00585 0.02959-0.00947 0.06045-0.015081 0.09077h8.9931c-0.0053-0.03032-0.0092-0.0612-0.01567-0.09077z" opacity=".6" stroke-width=".60512" style="paint-order:normal"/>
   </g>
  </g>
 </g>
 <g transform="matrix(.0093122 0 0 .0093122 5.5792 4.5071)">
  <path d="m790.86 87.871c7.5772-8.0598 22.017-7.5236 29.183 0.82206 37.582 37.511 74.986 75.218 112.53 112.77 6.0225 6.362 6.3084 17.192 1.662 24.394-8.1312 10.169-19.265 17.924-26.735 28.486-5.0038 3.0738-9.3286 7.5594-12.527 12.474-3.9316 1.7871-6.3084 5.6651-9.4537 8.4708-3.0202 3.3776-7.327 5.951-8.7388 10.49-13.761-11.848-25.823-25.537-38.905-38.136-23.572-23.411-46.84-47.143-70.411-70.572-10.401-10.133-20.462-20.605-30.827-30.756 0.10722-1.2152 0.3038-3.6278 0.41103-4.8251 18.157-17.639 35.742-35.885 53.809-53.613z" fill="#d94453" p-id="8343"/>
  <path d="m724.48 151.47c3.5742-3.3418 6.6658-7.327 11.169-9.5252 0.0894 0.92929 0.25019 2.7878 0.33955 3.7171l0.64335 0.64335c10.365 10.151 20.426 20.623 30.827 30.756-16.298 14.922-31.363 31.167-46.911 46.857l-0.7327-0.69696c-10.651-10.454-21.123-21.088-31.649-31.631-1.3761-1.5548-1.2152-2.9487 0.48251-4.1818 11.92-12.009 23.947-23.893 35.831-35.938zm66.837 142.91c15.798-15.315 31.328-30.881 46.554-46.75 13.081 12.599 25.144 26.288 38.905 38.136-14.958 16.262-31.185 31.328-46.625 47.143-0.78631-0.57187-2.359-1.7156-3.1631-2.3053-11.777-12.17-23.715-24.215-35.867-36.028z" fill="#caced7" p-id="8344"/>
  <path d="m767.46 177.06c23.572 23.429 46.84 47.161 70.411 70.572-15.226 15.869-30.756 31.435-46.554 46.75-23.804-23.268-46.947-47.215-70.769-70.465 15.548-15.691 30.613-31.935 46.911-46.857z" fill="#e4e7ec" p-id="8345"/>
  <path d="m646.53 232.86c13.939-13.689 27.325-27.968 41.639-41.264 10.526 10.544 20.998 21.177 31.649 31.631-46.125 45.839-91.874 92.071-137.86 138.07-18.157 18.175-35.777 36.868-53.827 55.149-104.15 104.65-208.57 209.04-313.17 313.24-1.7692 1.1616-3.5742 2.2517-5.3791 3.3597-11.348 1.5905-22.66-4.7536-28.951-13.975-3.1095-4.3962-2.7164-10.043-3.3061-15.119 1.5369-2.1445 3.0202-4.3248 4.5749-6.4335 4.8788-1.8764 7.8632-6.4514 11.598-9.8647 151.21-151.42 301.93-303.3 453.03-454.8zm144.59 61.726c12.152 11.813 24.09 23.858 35.867 36.028l1.1974 1.2867c-6.2012 6.1654-12.259 12.474-18.568 18.532-20.355 19.229-39.62 39.584-59.581 59.224-48.144 48.359-96.878 96.109-144.9 144.56-5.7008 5.8616-12.099 11.116-16.566 18.032-85.995 87.103-172.85 173.4-259.02 260.34-3.2168 3.6993-7.756 5.7902-12.224 7.5772-10.58 1.1437-20.248-5.0932-27.289-12.384-5.8438-6.0046-10.061-14.493-7.5415-23 1.7156-1.7871 3.3955-3.6456 5.1468-5.3791 13.421-11.473 25.126-24.805 37.833-37.064 87.192-87.925 174.4-175.81 261.97-263.38 67.748-68.267 136.21-135.82 203.67-204.37z" fill="#f8a84b" p-id="8346"/>
  <path d="m719.82 223.22 0.73271 0.69696c23.822 23.25 46.965 47.197 70.769 70.465l-0.19658 0.19658c-67.462 68.553-135.93 136.1-203.67 204.37-87.567 87.567-174.78 175.46-261.97 263.38-12.706 12.259-24.412 25.591-37.833 37.064-2.5913 0.39316-4.8966 1.6084-7.0232 3.0738-11.062 3.2346-21.588-4.1639-30.13-10.311-13.189-10.026-23.875-23.214-32.257-37.422-3.2168-5.9153-5.808-12.492-5.1111-19.336 0.57186-1.9479 1.251-3.8065 1.8407-5.7187 104.6-104.2 209.02-208.59 313.17-313.24 18.05-18.282 35.67-36.975 53.827-55.149 45.982-46 91.731-92.231 137.86-138.07zm30.22 186.43c19.962-19.64 39.227-39.995 59.581-59.224-73.628 73.985-147.08 148.17-221.04 221.81 4.4677-6.916 10.865-12.17 16.566-18.032 48.019-48.448 96.753-96.199 144.9-144.56z" fill="#fdc876" p-id="8347"/>
  <path d="m176.74 707.42c0.14296-0.8578 0.44677-2.6091 0.58974-3.4669 0.58973 5.0753 0.19658 10.723 3.3061 15.119 6.2905 9.2214 17.603 15.566 28.951 13.975 1.1795 0.76844 2.359 1.5548 3.5384 2.359-0.69697 6.8445 1.8943 13.421 5.1111 19.336 8.3814 14.207 19.068 27.396 32.257 37.422 8.5423 6.1476 19.068 13.546 30.13 10.311-0.0894 0.75058-0.23232 2.2517-0.30381 3.0202 0.554-0.17871 1.6262-0.53612 2.1802-0.71483-2.5198 8.5065 1.6977 16.995 7.5415 23 7.0411 7.2913 16.709 13.528 27.289 12.384 0.0357 3.038-0.85781 5.2004-4.3069 4.1639l-0.0536 1.6799c-3.6099-0.0536-6.8445 1.7335-9.6681 3.7886-0.67909-0.10722-2.0551-0.3038-2.7342-0.39316l-0.0715 1.9479c-4.6286-0.16084-8.167 3.6099-12.724 3.7708l0.19658 1.6799c-4.6464-0.57187-7.8989 3.8422-12.456 3.7171l-0.0536 1.5369c-4.5928-0.23232-7.8989 3.735-12.384 3.8601l-0.14297 1.5012c-3.6456 0-6.8624 1.9122-9.7932 3.8601l-2.359-0.67909-0.4289 2.216c-4.5213-0.25019-7.8453 3.735-12.295 3.8244l-0.16084 1.519c-4.5392-0.23232-7.881 3.6993-12.349 3.878l-0.17871 1.5012c-4.4856-0.14297-7.8632 3.5384-12.259 3.8958l-0.26806 1.4833c-4.5213-0.26807-7.8453 3.592-12.259 3.9137l-0.25019 1.3939c-4.4498 0.16084-8.024 3.3776-12.42 3.8601l-0.0536 1.5548c-4.4856-0.0715-7.9347 3.4312-12.313 3.9852l-0.23232 1.3403c-4.4141 0.0358-7.8632 3.3955-12.188 3.8601-0.0894 0.37529-0.28594 1.1437-0.37529 1.519-3.3776-0.0179-6.2905 1.8228-9.1141 3.4312l-3.2168 0.64336-2.5913 0.4289c-14.6-14.082-28.54-28.861-43.14-42.962-1.251 2.4126-2.5198 4.843-3.7708 7.2556 0.75057-4.1282 4.2354-7.0947 4.8609-11.205 1.9122-2.8236 3.4848-6.0046 3.3776-9.4894l2.0552 0.0179-0.4289-2.7879c2.3768-2.6985 3.6278-6.219 3.7886-9.7575l2.0373-0.0357c-0.1251-0.69697-0.35742-2.073-0.48251-2.77 2.627-3.7529 4.1282-8.1848 5.7187-12.438 1.7871-2.9844 3.3418-6.2012 3.4491-9.7218l1.4297-0.12509c0.21445-4.4498 4.0924-7.8096 3.9137-12.331l1.3224-0.33955c0.82206-4.1103 3.4133-7.5951 4.2354-11.705 1.8764-2.8415 3.4312-6.0404 3.3597-9.5252l2.1088 0.0357-0.57187-2.8236c2.2696-2.7164 3.7708-6.1297 3.8422-9.686l1.9837-0.0179-0.4289-2.8415c2.359-2.6449 3.6635-6.1297 3.8244-9.6324l1.5369-0.0715c0.0357-4.5035 4.0031-7.8453 3.8244-12.402l1.376-0.21445c0.46465-4.3784 3.9495-7.8274 3.9673-12.277l1.2331-0.17871c0.89355-2.9308 2.3232-5.7544 2.3232-8.8818l2.216 0.19658c-0.1251-0.7327-0.39316-2.1981-0.51825-2.913 1.9837-2.8951 3.7886-6.1297 3.6814-9.7396l2.0373-0.0536c-0.1251-0.69696-0.35742-2.1088-0.48251-2.8057 1.7156-1.8943 1.8764-5.4149 5.2362-5.2004z" fill="#fddbae" p-id="8348"/>
  <path d="m104.69 871.88c14.6 14.1 28.54 28.879 43.14 42.962l2.5913-0.4289 0.50038 1.1795c-2.9487 0.76845-5.8438 1.7692-8.8639 2.2875-0.8578 0.37529-2.5913 1.1437-3.467 1.5369-12.51 6.7373-26.27 10.883-38.851 17.478-3.1631 0.73271-6.1833 2.0194-8.7031 4.1103-0.87567 0.0357-2.627 0.10722-3.4848 0.16084-2.4662-4.2533-9.0069-6.3263-7.9883-11.991 0.39316-0.8578 1.1616-2.5555 1.5548-3.4133l1.0544-1.9479c0.37529-0.87568 1.1259-2.6092 1.519-3.4848 0.51826-2.7164 1.6441-5.254 2.5555-7.8096 5.2898-10.955 9.2928-22.464 14.672-33.383 1.251-2.4126 2.5198-4.843 3.7708-7.2556z" fill="#656d78" p-id="8349"/>
  <path d="m138.59 919.42c0.87567-0.39316 2.6092-1.1616 3.467-1.5369l-0.25019 1.6084-1.7871 0.78632zm-56.508 1.2152 1.6084-0.3038c-0.39316 0.87567-1.1437 2.6091-1.519 3.4848l-0.87567-1.3939zm-2.5555 5.3791 1.5905-0.25019c-0.39316 0.8578-1.1616 2.5555-1.5548 3.4133l-0.82206-1.4297z" fill="#9c835a" p-id="8350"/>
 </g>
</svg>
