<?xml version="1.0" encoding="UTF-8" standalone="no"?>
<svg
   xmlns:dc="http://purl.org/dc/elements/1.1/"
   xmlns:cc="http://creativecommons.org/ns#"
   xmlns:rdf="http://www.w3.org/1999/02/22-rdf-syntax-ns#"
   xmlns:svg="http://www.w3.org/2000/svg"
   xmlns="http://www.w3.org/2000/svg"
   xmlns:sodipodi="http://sodipodi.sourceforge.net/DTD/sodipodi-0.dtd"
   xmlns:inkscape="http://www.inkscape.org/namespaces/inkscape"
   viewBox="0 0 64 64"
   version="1.1"
   id="svg43"
   sodipodi:docname="caffeine.svg"
   width="64"
   height="64"
   inkscape:version="1.0.1 (3bc2e813f5, 2020-09-07)">
  <metadata
     id="metadata47">
    <rdf:RDF>
      <cc:Work
         rdf:about="">
        <dc:format>image/svg+xml</dc:format>
        <dc:type
           rdf:resource="http://purl.org/dc/dcmitype/StillImage" />
        <dc:title></dc:title>
      </cc:Work>
    </rdf:RDF>
  </metadata>
  <sodipodi:namedview
     pagecolor="#ffffff"
     bordercolor="#666666"
     borderopacity="1"
     objecttolerance="10"
     gridtolerance="10"
     guidetolerance="10"
     inkscape:pageopacity="0"
     inkscape:pageshadow="2"
     inkscape:window-width="1920"
     inkscape:window-height="932"
     id="namedview45"
     showgrid="false"
     inkscape:zoom="5.6347572"
     inkscape:cx="-7.4730381"
     inkscape:cy="36.803792"
     inkscape:window-x="0"
     inkscape:window-y="36"
     inkscape:window-maximized="1"
     inkscape:current-layer="svg43" />
  <defs
     id="defs7">
    <linearGradient
       id="linearGradient3764"
       x1="1"
       x2="47"
       gradientUnits="userSpaceOnUse"
       gradientTransform="rotate(-90,23.999998,24)">
      <stop
         style="stop-color:#97713f;stop-opacity:1"
         id="stop2" />
      <stop
         offset="1"
         style="stop-color:#a57b44;stop-opacity:1"
         id="stop4" />
    </linearGradient>
  </defs>
  <g
     id="g27">
    <g
       id="g25">
      <g
         transform="translate(1,1)"
         id="g23">
        <g
           style="opacity:0.1"
           id="g21">
          <!-- color: #a57b44 -->
        </g>
      </g>
    </g>
  </g>
  <g
     id="g31">
    <g
       id="g29">
      <!-- color: #a57b44 -->
    </g>
  </g>
  <path
     d="M 5.6458328,25.125 V 50.333333 C 5.6458328,55.411667 9.7341662,59.5 14.8125,59.5 h 22.916667 c 5.078333,0 9.166666,-4.088333 9.166666,-9.166667 H 49.1875 c 5.078334,0 9.166667,-4.088333 9.166667,-9.166666 V 38.875 c 0,-5.078334 -4.088333,-9.166667 -9.166667,-9.166667 H 46.895833 V 25.125 Z M 46.895833,34.291666 H 49.1875 c 2.539167,0 4.583333,2.044167 4.583333,4.583334 v 2.291667 c 0,2.539166 -2.044166,4.583333 -4.583333,4.583333 h -2.291667 z"
     style="fill:#fef8e2;fill-opacity:1;stroke:none;stroke-width:2.29167"
     id="path39" />
  <path
     d="m 14.8125,4.4999994 c -4.583334,0 -8.0208338,3.6666667 -8.0208338,5.9583336 0,4.225833 5.7291668,5.5 5.7291668,7.791667 0,2.75 -2.291667,3.455833 -4.5833335,4.583333 4.5833335,0 8.0208335,-2.0625 8.0208335,-4.583333 0,-4.583334 -5.729167,-5.335 -5.729167,-8.020834 0,-3.4374999 5.227292,-5.7291666 4.583334,-5.7291666 z m 13.75,0 c -4.583334,0 -8.020834,3.6666667 -8.020834,5.9583336 0,4.225833 5.729167,5.5 5.729167,7.791667 0,2.75 -2.291667,3.455833 -4.583333,4.583333 4.583333,0 8.020833,-2.0625 8.020833,-4.583333 0,-4.583334 -5.729167,-5.335 -5.729167,-8.020834 0,-3.4374999 5.227292,-5.7291666 4.583334,-5.7291666 z m 12.604167,0 c -4.583334,0 -8.020834,3.6666667 -8.020834,5.9583336 0,4.225833 5.729167,5.5 5.729167,7.791667 0,2.75 -2.291667,3.455833 -4.583333,4.583333 4.583333,0 8.020833,-2.0625 8.020833,-4.583333 0,-4.583334 -5.729167,-5.335 -5.729167,-8.020834 0,-3.4374999 5.227292,-5.7291666 4.583334,-5.7291666 z"
     style="fill:#bcaaa4;fill-opacity:1;stroke:none;stroke-width:2.29167"
     id="path41" />
</svg>
