<?xml version="1.0" encoding="UTF-8" standalone="no"?>
<svg
   xmlns:dc="http://purl.org/dc/elements/1.1/"
   xmlns:cc="http://creativecommons.org/ns#"
   xmlns:rdf="http://www.w3.org/1999/02/22-rdf-syntax-ns#"
   xmlns:svg="http://www.w3.org/2000/svg"
   xmlns="http://www.w3.org/2000/svg"
   xmlns:sodipodi="http://sodipodi.sourceforge.net/DTD/sodipodi-0.dtd"
   xmlns:inkscape="http://www.inkscape.org/namespaces/inkscape"
   viewBox="0 0 64 64"
   version="1.1"
   id="svg51"
   sodipodi:docname="cairo-dock.svg"
   width="64"
   height="64"
   inkscape:version="1.0.1 (3bc2e813f5, 2020-09-07)">
  <metadata
     id="metadata55">
    <rdf:RDF>
      <cc:Work
         rdf:about="">
        <dc:format>image/svg+xml</dc:format>
        <dc:type
           rdf:resource="http://purl.org/dc/dcmitype/StillImage" />
        <dc:title></dc:title>
      </cc:Work>
    </rdf:RDF>
  </metadata>
  <sodipodi:namedview
     pagecolor="#ffffff"
     bordercolor="#666666"
     borderopacity="1"
     objecttolerance="10"
     gridtolerance="10"
     guidetolerance="10"
     inkscape:pageopacity="0"
     inkscape:pageshadow="2"
     inkscape:window-width="1920"
     inkscape:window-height="932"
     id="namedview53"
     showgrid="false"
     inkscape:zoom="11.269514"
     inkscape:cx="24.886058"
     inkscape:cy="61.777959"
     inkscape:window-x="0"
     inkscape:window-y="36"
     inkscape:window-maximized="1"
     inkscape:current-layer="svg51" />
  <defs
     id="defs7">
    <linearGradient
       id="linearGradient3764"
       x1="1"
       x2="47"
       gradientUnits="userSpaceOnUse"
       gradientTransform="rotate(-90,23.999998,24)">
      <stop
         style="stop-color:#dbd055;stop-opacity:1"
         id="stop2" />
      <stop
         offset="1"
         style="stop-color:#dfd466;stop-opacity:1"
         id="stop4" />
    </linearGradient>
  </defs>
  <circle
     style="opacity:1;fill:#ff9800;stroke:none;stroke-width:1.15644;fill-opacity:1"
     id="path894"
     cx="32"
     cy="32"
     r="30" />
  <g
     id="g908"
     transform="matrix(1.6817246,0,0,1.6817246,-8.3613904,-5.1325268)">
    <g
       id="g906">
      <!-- color: #dfd466 -->
      <g
         id="g904">
        <path
           d="M 9,30 8,35 H 40 L 39,30 M 9,30"
           style="fill:#e6e6e6;fill-opacity:1;fill-rule:nonzero;stroke:none"
           id="path896" />
        <path
           d="m 13.328,26 h 3.344 C 17.406,26 18,26.594 18,27.328 v 3.344 C 18,31.406 17.406,32 16.672,32 H 13.328 C 12.598,32 12,31.406 12,30.672 V 27.328 C 12,26.594 12.598,26 13.328,26 m 0,0"
           style="fill:#4a4a4a;fill-opacity:1;fill-rule:nonzero;stroke:none"
           id="path898" />
        <path
           d="m 22.328,26 h 3.344 C 26.406,26 27,26.594 27,27.328 v 3.344 C 27,31.406 26.406,32 25.672,32 H 22.328 C 21.598,32 21,31.406 21,30.672 V 27.328 C 21,26.594 21.598,26 22.328,26 m 0,0"
           style="fill:#4a4a4a;fill-opacity:1;fill-rule:nonzero;stroke:none"
           id="path900" />
        <path
           d="m 31.33,26 h 3.352 c 0.727,0 1.328,0.594 1.328,1.328 v 3.344 C 36.01,31.406 35.408,32 34.682,32 H 31.33 c -0.727,0 -1.32,-0.594 -1.32,-1.328 V 27.328 C 30.01,26.594 30.608,26 31.33,26 m 0,0"
           style="fill:#4a4a4a;fill-opacity:1;fill-rule:nonzero;stroke:none"
           id="path902" />
      </g>
    </g>
  </g>
</svg>
