<?xml version="1.0" encoding="UTF-8"?>
<!-- Created with Inkscape (http://www.inkscape.org/) -->
<svg width="64" height="64" version="1.1" viewBox="0 0 16.933 16.933" xmlns="http://www.w3.org/2000/svg" xmlns:cc="http://creativecommons.org/ns#" xmlns:dc="http://purl.org/dc/elements/1.1/" xmlns:rdf="http://www.w3.org/1999/02/22-rdf-syntax-ns#" xmlns:xlink="http://www.w3.org/1999/xlink">
 <defs>
  <linearGradient id="linearGradient2245" x1="63.532" x2="63.532" y1="3.547" y2="7.7803" gradientUnits="userSpaceOnUse">
   <stop stop-color="#282828" offset="0"/>
   <stop stop-color="#646464" offset="1"/>
  </linearGradient>
  <linearGradient id="linearGradient2288" x1="66.715" x2="68.475" y1="15.975" y2="8.6911" gradientUnits="userSpaceOnUse">
   <stop stop-color="#dc3737" offset="0"/>
   <stop stop-color="#be3237" offset="1"/>
  </linearGradient>
 </defs>
 <metadata>
  <rdf:RDF>
   <cc:Work rdf:about="">
    <dc:format>image/svg+xml</dc:format>
    <dc:type rdf:resource="http://purl.org/dc/dcmitype/StillImage"/>
    <dc:title/>
   </cc:Work>
  </rdf:RDF>
 </metadata>
 <circle cx="-330.35" cy="-328.38" r="0" fill="#5e4aa6" stroke-width=".26458"/>
 <g transform="matrix(1.0685 0 0 1.0685 -58.796 -1.848)">
  <rect x="57.413" y="2.3977" width="11.939" height="14.337" ry=".85475" fill="#ebebeb" style="paint-order:stroke fill markers"/>
  <rect x="58.174" y="3.423" width="10.418" height="4.2829" ry=".25534" fill="url(#linearGradient2245)" style="paint-order:stroke fill markers"/>
  <rect x="66.528" y="8.6131" width="2.0642" height="7.5207" ry=".26279" fill="url(#linearGradient2288)" style="paint-order:stroke fill markers"/>
  <g fill="#2d2d2d">
   <g transform="translate(-12.778)">
    <rect x="70.952" y="8.6131" width="2.0642" height="2.0642" ry=".19467" style="paint-order:stroke fill markers"/>
    <rect x="73.763" y="8.6131" width="2.0642" height="2.0642" ry=".19467" style="paint-order:stroke fill markers"/>
    <rect x="76.574" y="8.6131" width="2.0642" height="2.0642" ry=".19467" style="paint-order:stroke fill markers"/>
   </g>
   <g transform="translate(-12.778)">
    <rect x="70.952" y="11.342" width="2.0642" height="2.0642" ry=".19467" style="paint-order:stroke fill markers"/>
    <rect x="73.763" y="11.342" width="2.0642" height="2.0642" ry=".19467" style="paint-order:stroke fill markers"/>
    <rect x="76.574" y="11.342" width="2.0642" height="2.0642" ry=".19467" style="paint-order:stroke fill markers"/>
   </g>
   <g transform="translate(-12.778)">
    <rect x="70.952" y="14.07" width="2.0642" height="2.0642" ry=".19467" style="paint-order:stroke fill markers"/>
    <rect x="73.763" y="14.07" width="2.0642" height="2.0642" ry=".19467" style="paint-order:stroke fill markers"/>
    <rect x="76.574" y="14.07" width="2.0642" height="2.0642" ry=".19467" style="paint-order:stroke fill markers"/>
   </g>
  </g>
 </g>
</svg>
