<?xml version="1.0" encoding="UTF-8"?>
<svg width="64" height="64" version="1.1" xmlns="http://www.w3.org/2000/svg" xmlns:cc="http://creativecommons.org/ns#" xmlns:dc="http://purl.org/dc/elements/1.1/" xmlns:rdf="http://www.w3.org/1999/02/22-rdf-syntax-ns#" xmlns:xlink="http://www.w3.org/1999/xlink">
 <metadata>
  <rdf:RDF>
   <cc:Work rdf:about="">
    <dc:format>image/svg+xml</dc:format>
    <dc:type rdf:resource="http://purl.org/dc/dcmitype/StillImage"/>
    <dc:title/>
   </cc:Work>
  </rdf:RDF>
 </metadata>
 <defs>
  <linearGradient id="SVGID_8_" x1="282.4" x2="185.32" y1="237.23" y2="334.31" gradientTransform="matrix(.075503 0 0 -.075503 14.111 53.343)" gradientUnits="userSpaceOnUse">
   <stop stop-color="#dee2e4" offset="0"/>
   <stop stop-color="#dee2e4" offset=".293"/>
   <stop stop-color="#a6aeb2" offset=".72"/>
   <stop stop-color="#9aa2a6" offset="1"/>
  </linearGradient>
  <linearGradient id="SVGID_7_" x1="236.94" x2="236.94" y1="303.37" y2="208.83" gradientTransform="matrix(.075503 0 0 -.075503 14.111 53.343)" gradientUnits="userSpaceOnUse">
   <stop stop-color="#dee2e4" offset="0"/>
   <stop stop-color="#9ea7aa" offset="1"/>
  </linearGradient>
  <linearGradient id="SVGID_2_" x1="236.94" x2="236.94" y1="360.12" y2="54.827" gradientTransform="matrix(.075503 0 0 -.075503 14.111 53.343)" gradientUnits="userSpaceOnUse">
   <stop stop-color="#dee2e4" offset="0"/>
   <stop stop-color="#889296" offset="1"/>
  </linearGradient>
  <linearGradient id="linearGradient1031" x1="445.27" x2="103.39" y1="491.02" y2="149.14" gradientTransform="matrix(.075503 0 0 -.075503 14.111 53.343)" gradientUnits="userSpaceOnUse">
   <stop stop-color="#5B6A6A" offset="0"/>
   <stop stop-color="#C2CECE" stop-opacity="0" offset=".311"/>
   <stop stop-color="#CAD5D5" stop-opacity=".157" offset=".348"/>
   <stop stop-color="#E0E8E7" stop-opacity=".669" offset=".47"/>
   <stop stop-color="#E8EFEE" offset=".549"/>
   <stop stop-color="#97AAAA" offset=".788"/>
   <stop stop-color="#9CAEAE" stop-opacity=".724" offset=".861"/>
   <stop stop-color="#AAB9B9" stop-opacity=".402" offset=".946"/>
   <stop stop-color="#B7C3C3" stop-opacity=".196" offset="1"/>
  </linearGradient>
  <linearGradient id="linearGradient1039" x1="2.6831" x2="15.298" y1="8.4751" y2="8.4751" gradientTransform="matrix(3.7796 0 0 3.7796 -.85183 -.032543)" gradientUnits="userSpaceOnUse">
   <stop stop-color="#2c2d31" offset="0"/>
   <stop stop-color="#393b3f" offset=".72577"/>
   <stop stop-color="#232529" offset="1"/>
  </linearGradient>
  <linearGradient id="linearGradient1047" x1="2.683" x2="5.0696" y1="8.4751" y2="8.4751" gradientTransform="matrix(3.7796 0 0 3.7796 -.85183 -.032543)" gradientUnits="userSpaceOnUse" xlink:href="#SVGID_2_"/>
  <linearGradient id="linearGradient1051" x1="236.94" x2="236.94" y1="360.12" y2="54.827" gradientTransform="matrix(.075503 0 0 -.075503 14.111 53.343)" gradientUnits="userSpaceOnUse" xlink:href="#SVGID_2_"/>
  <linearGradient id="linearGradient1101" x1="7.1153" x2="12.229" y1="4.5544" y2="4.5544" gradientTransform="matrix(3.7796 0 0 3.7796 -.85024 -.032543)" gradientUnits="userSpaceOnUse" xlink:href="#SVGID_2_"/>
 </defs>
 <circle cx="-1249.4" cy="-1241.2" r="0" fill="#5e4aa6"/>
 <g transform="matrix(3.7796 0 0 3.7796 84.613 -16.355)" fill="#5e4aa6" stroke-width=".26458">
  <circle cx="-330.35" cy="-328.38" r="0"/>
  <circle cx="-312.11" cy="-326.25" r="0"/>
  <circle cx="-306.02" cy="-333.07" r="0"/>
  <circle cx="-308.84" cy="-326.01" r="0"/>
 </g>
 <g stroke-width=".11578">
  <path d="m54.391 61.639h-42.524c-1.4235 0-2.5773-1.1538-2.5773-2.5773v-54.124c0-1.4235 1.1538-2.5773 2.5773-2.5773h42.524c1.4235 0 2.5773 1.1538 2.5773 2.5773v54.124c0 1.4235-1.1538 2.5773-2.5773 2.5773z" fill="url(#linearGradient1039)"/>
  <path d="m18.309 61.639h-6.4431c-1.4235 0-2.5773-1.1538-2.5773-2.5773v-54.124c0-1.4235 1.1538-2.5773 2.5773-2.5773h6.4431z" fill="url(#linearGradient1047)"/>
  <path d="m44.15 22.98h-16.885c-0.67507 0-1.2225-0.54729-1.2225-1.2225v-9.1527c0-0.67507 0.54729-1.2225 1.2225-1.2225h16.885c0.67508 0 1.2225 0.54729 1.2225 1.2225v9.1527c0 0.6753-0.54729 1.2226-1.2225 1.2226z" fill="url(#linearGradient1101)"/>
 </g>
 <g fill="#2a2c30" stroke-width=".11578">
  <path d="m28.94 15.248c0-0.53372 0.43276-0.96648 0.96648-0.96648h11.598c0.53372 0 0.96648 0.43276 0.96648 0.96648 0 0.53372-0.43276 0.96648-0.96648 0.96648h-11.598c-0.53372 0-0.96648-0.43265-0.96648-0.96648zm12.564 2.8995h-11.598c-0.53372 0-0.96648 0.43276-0.96648 0.96648s0.43276 0.96648 0.96648 0.96648h11.598c0.53372 0 0.96648-0.43276 0.96648-0.96648 0-0.53383-0.43276-0.96648-0.96648-0.96648z"/>
  <path d="m57.611 37.155h-3.8658c-0.35577 0-0.64427-0.28851-0.64427-0.64431v-9.0204c0-0.35578 0.2885-0.64431 0.64427-0.64431h3.8658c0.35577 0 0.64427 0.28851 0.64427 0.64431v9.0204c1.17e-4 0.35578-0.2885 0.64431-0.64427 0.64431z"/>
  <path d="m5.7447 9.4493c0-0.53372 0.43276-0.96648 0.96648-0.96648h5.1546c0.53372 0 0.96648 0.43276 0.96648 0.96648s-0.43276 0.96648-0.96648 0.96648h-5.1546c-0.53372 0-0.96648-0.43265-0.96648-0.96648zm6.1211 5.4766h-5.1546c-0.53372 0-0.96648 0.43276-0.96648 0.96648 0 0.53372 0.43276 0.96648 0.96648 0.96648h5.1546c0.53372 0 0.96648-0.43276 0.96648-0.96648 0-0.53372-0.43276-0.96648-0.96648-0.96648zm0 6.4431h-5.1546c-0.53372 0-0.96648 0.43276-0.96648 0.96648 0 0.53372 0.43276 0.96648 0.96648 0.96648h5.1546c0.53372 0 0.96648-0.43276 0.96648-0.96648 0-0.53372-0.43276-0.96648-0.96648-0.96648zm0 6.4431h-5.1546c-0.53372 0-0.96648 0.43276-0.96648 0.96648 0 0.53372 0.43276 0.96648 0.96648 0.96648h5.1546c0.53372 0 0.96648-0.43276 0.96648-0.96648 0-0.53372-0.43276-0.96648-0.96648-0.96648zm0 6.4431h-5.1546c-0.53372 0-0.96648 0.43276-0.96648 0.96648 0 0.53372 0.43276 0.96648 0.96648 0.96648h5.1546c0.53372 0 0.96648-0.43276 0.96648-0.96648 0-0.53372-0.43276-0.96648-0.96648-0.96648zm0 6.4431h-5.1546c-0.53372 0-0.96648 0.43276-0.96648 0.96648 0 0.53372 0.43276 0.96648 0.96648 0.96648h5.1546c0.53372 0 0.96648-0.43276 0.96648-0.96648 0-0.53372-0.43276-0.96648-0.96648-0.96648zm0 6.4431h-5.1546c-0.53372 0-0.96648 0.43276-0.96648 0.96648 0 0.53372 0.43276 0.96648 0.96648 0.96648h5.1546c0.53372 0 0.96648-0.43276 0.96648-0.96648 0-0.53383-0.43276-0.96648-0.96648-0.96648zm0 6.4431h-5.1546c-0.53372 0-0.96648 0.43276-0.96648 0.96648 0 0.53372 0.43276 0.96648 0.96648 0.96648h5.1546c0.53372 0 0.96648-0.43276 0.96648-0.96648 0-0.53372-0.43276-0.96648-0.96648-0.96648z"/>
 </g>
 <circle cx="-717.39" cy="-775.82" r="0" fill="#5e4aa6" image-rendering="optimizeSpeed" stroke-width=".64067"/>
 <g transform="matrix(.65288 0 0 .65288 14.815 19.772)" image-rendering="optimizeSpeed" stroke-width=".070782">
  <path d="m30.033 13.879c-1.0547 0-1.912 0.85928-1.9121 1.9141v0.89453c0 0.54749-0.3515 1.0345-0.875 1.2109-0.6313 0.21284-1.2558 0.47092-1.8535 0.76758-0.17916 0.08892-0.37763 0.13672-0.57617 0.13672-0.3408 0-0.66072-0.13347-0.90039-0.37305l-0.63281-0.63281c-0.36128-0.36132-0.84261-0.56055-1.3535-0.56055-0.51105 0-0.99028 0.19919-1.3516 0.56055l-2.7812 2.7812c-0.3614 0.36135-0.56055 0.84059-0.56055 1.3516s0.19919 0.99223 0.56055 1.3535l0.63281 0.63281c0.38732 0.38731 0.48286 0.98212 0.23633 1.4785-0.29665 0.59747-0.55481 1.2201-0.76758 1.8516-0.17645 0.52342-0.66352 0.875-1.2109 0.875h-0.89453c-1.0547 0-1.9121 0.85732-1.9121 1.9121v3.9336c0 1.0548 0.8574 1.912 1.9121 1.9121h0.89453c0.54749 0 1.0345 0.35151 1.2109 0.875 0.21277 0.63137 0.47092 1.256 0.76758 1.8535 0.24652 0.49647 0.15098 1.0892-0.23633 1.4766l-0.63281 0.63281c-0.36141 0.36135-0.56055 0.84261-0.56055 1.3535 0 0.51098 0.19919 0.99028 0.56055 1.3516l2.7812 2.7812c0.36128 0.36126 0.84052 0.56055 1.3516 0.56055 0.51097 0 0.99223-0.19919 1.3535-0.56055l0.63281-0.63281c0.23965-0.23958 0.55957-0.37305 0.90039-0.37305 0.19861 0 0.39897 0.04776 0.57812 0.13672 0.59769 0.29673 1.2203 0.55473 1.8516 0.76758 0.52342 0.17648 0.875 0.66359 0.875 1.2109v0.89453c0 1.0548 0.8574 1.9141 1.9121 1.9141h3.9336c1.0547 0 1.9121-0.85928 1.9121-1.9141v-0.89453c0-0.54749 0.35151-1.0345 0.875-1.2109 0.6313-0.21284 1.2558-0.47093 1.8535-0.76758 0.17914-0.08899 0.37761-0.13672 0.57617-0.13672 0.34082 0 0.66072 0.13342 0.90039 0.37305l0.63281 0.63281c0.36128 0.36126 0.84247 0.56055 1.3535 0.56055 0.51098 0 0.99028-0.19919 1.3516-0.56055l2.7812-2.7812c0.36143-0.36135 0.56055-0.84059 0.56055-1.3516 0-0.51097-0.19919-0.99223-0.56055-1.3535l-0.63281-0.63281c-0.38734-0.38731-0.48286-0.98212-0.23633-1.4785 0.29665-0.59747 0.5548-1.2201 0.76758-1.8516 0.17645-0.52342 0.6635-0.875 1.2109-0.875h0.89453c1.0547 0 1.9121-0.85732 1.9121-1.9121v-3.9336c0-1.0548-0.8574-1.9121-1.9121-1.9121h-0.89453c-0.54749 0-1.0345-0.35151-1.2109-0.875-0.21277-0.63137-0.47093-1.256-0.76758-1.8535-0.24655-0.49647-0.15098-1.0893 0.23633-1.4766l0.63281-0.63281c0.36143-0.36128 0.56055-0.84261 0.56055-1.3535 0-0.51098-0.19922-0.99028-0.56055-1.3516l-2.7812-2.7812c-0.36135-0.36129-0.84066-0.56055-1.3516-0.56055-0.51105 0-0.99223 0.19919-1.3535 0.56055l-0.63281 0.63281c-0.23965 0.23958-0.55957 0.37297-0.90039 0.37305-0.19861 0-0.39701-0.04773-0.57617-0.13672-0.59769-0.29672-1.2222-0.55474-1.8535-0.76758-0.52342-0.17645-0.875-0.66352-0.875-1.2109v-0.89453c0-1.0548-0.8574-1.9141-1.9121-1.9141h-3.9336zm1.9668 7.0703c6.1038 0 11.053 4.9487 11.053 11.053s-4.9487 11.053-11.053 11.053c-6.104-1e-6 -11.053-4.9487-11.053-11.053s4.9487-11.053 11.053-11.053zm0 3.4199c-4.2145 0-7.6309 3.4183-7.6309 7.6328s3.4163 7.6309 7.6309 7.6309c4.2145 0 7.6309-3.4163 7.6309-7.6309 0-4.2145-3.4163-7.6328-7.6309-7.6328zm0 1.7852c2.2084 0 4.204 1.2228 5.209 3.1914 1.0791 2.1137 0.78439 4.5904-0.81055 6.793-0.07257 0.10022-0.15974 0.1873-0.25977 0.25977-1.3073 0.94672-2.739 1.4473-4.1387 1.4473-2.2084 0-4.204-1.2229-5.209-3.1914-1.0791-2.1137-0.78439-4.5904 0.81055-6.793 0.07254-0.10023 0.15975-0.1873 0.25977-0.25977 1.3073-0.94672 2.739-1.4473 4.1387-1.4473z" fill="url(#linearGradient1031)"/>
  <path d="m30.035 14.199c-0.88039 0-1.5938 0.71328-1.5938 1.5938v0.89453c0 0.68694-0.44284 1.2943-1.0938 1.5137-0.62408 0.21036-1.2275 0.46064-1.8105 0.75-0.61638 0.306-1.3591 0.19161-1.8457-0.29492l-0.63281-0.63281c-0.6226-0.62261-1.6314-0.62261-2.2539 0l-2.7812 2.7793c-0.6226 0.6226-0.6226 1.6333 0 2.2559l0.63281 0.63281c0.48662 0.48662 0.60278 1.2274 0.29688 1.8438-0.28944 0.58304-0.54165 1.1884-0.75195 1.8125-0.21942 0.65098-0.82485 1.0918-1.5117 1.0918h-0.89648c-0.88039 0-1.5938 0.71526-1.5938 1.5957v3.9316c0 0.88039 0.71328 1.5938 1.5938 1.5938h0.89648c0.68694 0 1.2924 0.44091 1.5117 1.0918 0.21036 0.62408 0.46259 1.2295 0.75195 1.8125 0.306 0.61638 0.18969 1.3591-0.29688 1.8457l-0.63281 0.63281c-0.62261 0.6226-0.62261 1.6314 0 2.2539l2.7812 2.7812c0.6226 0.6226 1.6314 0.6226 2.2539 0l0.63281-0.63281c0.48662-0.48662 1.2293-0.60282 1.8457-0.29688 0.58304 0.28946 1.1865 0.54165 1.8105 0.75195 0.65098 0.21943 1.0938 0.82485 1.0938 1.5117v0.89453c0 0.88039 0.71331 1.5938 1.5938 1.5938h3.9316c0.88039 0 1.5938-0.71331 1.5938-1.5938v-0.89453c0-0.68694 0.44284-1.2925 1.0938-1.5117 0.62408-0.21035 1.2275-0.46259 1.8105-0.75195 0.61636-0.30598 1.3591-0.18967 1.8457 0.29688l0.63281 0.63281c0.6226 0.6226 1.6314 0.6226 2.2539 0l2.7812-2.7812c0.6226-0.6226 0.6226-1.6314 0-2.2539l-0.63281-0.63281c-0.48662-0.48664-0.60283-1.2293-0.29688-1.8457 0.28944-0.58304 0.54167-1.1884 0.75195-1.8125 0.21943-0.65098 0.82485-1.0918 1.5117-1.0918h0.89648c0.88068 0 1.5938-0.71338 1.5938-1.5938v-3.9316c0-0.88039-0.71328-1.5957-1.5938-1.5957h-0.89648c-0.68694 0-1.2924-0.44088-1.5117-1.0918-0.21035-0.62408-0.46259-1.2295-0.75195-1.8125-0.306-0.61638-0.18967-1.3571 0.29688-1.8438l0.63281-0.63281c0.6226-0.6226 0.6226-1.6333 0-2.2559l-2.7793-2.7793c-0.6226-0.6226-1.6334-0.6226-2.2559 0l-0.63281 0.63281c-0.48662 0.48664-1.2293 0.60085-1.8457 0.29492-0.58304-0.28941-1.1865-0.5397-1.8105-0.75-0.65098-0.21944-1.0938-0.8268-1.0938-1.5137v-0.89453c0-0.88039-0.71331-1.5938-1.5938-1.5938h-3.9316zm1.9648 7.2754c5.8132 0 10.525 4.712 10.525 10.525s-4.712 10.527-10.525 10.527c-5.8134 0-10.527-4.7139-10.527-10.527s4.7139-10.525 10.527-10.525z" fill="url(#linearGradient1051)"/>
  <path d="m32 25.523c-3.5775 0-6.4779 2.9004-6.4779 6.4779s2.9004 6.4779 6.4779 6.4779 6.4779-2.9004 6.4779-6.4779-2.9004-6.4779-6.4779-6.4779zm0 9.7977c-1.8334 0-3.3198-1.4866-3.3198-3.3198 0-1.8333 1.4866-3.3198 3.3198-3.3198 1.8333 0 3.3198 1.4866 3.3198 3.3198 0 1.8333-1.4866 3.3198-3.3198 3.3198z" fill="url(#SVGID_7_)"/>
  <path d="m32 38.802c3.7564 0 6.8016-3.0455 6.8016-6.8016 0-3.7564-3.0455-6.8016-6.8016-6.8016-3.7564 0-6.8016 3.0455-6.8016 6.8016 0 3.7564 3.0455 6.8016 6.8016 6.8016zm0-11.498c2.5936 0 4.6964 2.1029 4.6964 4.6964 0 2.5936-2.1029 4.6964-4.6964 4.6964-2.5936 0-4.6964-2.1029-4.6964-4.6964 0-2.5936 2.1029-4.6964 4.6964-4.6964z" fill="url(#SVGID_8_)"/>
 </g>
</svg>
