<?xml version="1.0" encoding="UTF-8"?>
<svg width="64" height="64" version="1.1" xmlns="http://www.w3.org/2000/svg" xmlns:cc="http://creativecommons.org/ns#" xmlns:dc="http://purl.org/dc/elements/1.1/" xmlns:rdf="http://www.w3.org/1999/02/22-rdf-syntax-ns#" xmlns:xlink="http://www.w3.org/1999/xlink">
 <metadata>
  <rdf:RDF>
   <cc:Work rdf:about="">
    <dc:format>image/svg+xml</dc:format>
    <dc:type rdf:resource="http://purl.org/dc/dcmitype/StillImage"/>
    <dc:title/>
   </cc:Work>
  </rdf:RDF>
 </metadata>
 <defs>
  <linearGradient id="linearGradient925" x1="11.384" x2="55.734" y1="35.403" y2="35.403" gradientUnits="userSpaceOnUse">
   <stop stop-color="#00a192" offset="0"/>
   <stop stop-color="#00b27a" offset="1"/>
  </linearGradient>
  <linearGradient id="linearGradient933" x1="1.7308" x2="46.081" y1="36.287" y2="36.287" gradientTransform="matrix(3.9758,0,0,3.9758,-326.77,-321.21)" gradientUnits="userSpaceOnUse">
   <stop stop-color="#ff2d46" offset="0"/>
   <stop stop-color="#ff5715" offset="1"/>
  </linearGradient>
  <style type="text/css"/>
  <style type="text/css"/>
  <linearGradient id="linearGradient948" x1="16.63" x2="60.98" y1="29.461" y2="29.461" gradientUnits="userSpaceOnUse">
   <stop stop-color="#ffc841" offset="0"/>
   <stop stop-color="#ffbe37" offset="1"/>
  </linearGradient>
 </defs>
 <circle cx="-1248.9" cy="-1241.6" r="0" fill="#5e4aa6"/>
 <g stroke-width="3.9758">
  <rect transform="rotate(6.006)" x="16.63" y="4.2193" width="44.35" height="50.484" ry="2.9752" fill="url(#linearGradient948)" style="paint-order:stroke fill markers"/>
  <rect transform="rotate(-9.9896)" x="1.7308" y="11.045" width="44.35" height="50.484" ry="2.9752" fill="url(#linearGradient933)" style="paint-order:stroke fill markers"/>
  <rect x="11.384" y="10.161" width="44.35" height="50.484" ry="2.9752" fill="url(#linearGradient925)" style="paint-order:stroke fill markers"/>
 </g>
 <path d="m33.559 25.404c-3.1016 0.0304-6.2239 0.73887-8.9256 2.27-1.0768 0.70139-2.3695 1.6073-3.3436 2.52-1.5328 1.5008-2.8447 3.2511-3.7311 5.2127 2.4298 5.3602 7.7717 9.2888 13.648 9.8692 3.8546 0.43634 7.8888-0.22972 11.277-2.1371 1.0768-0.70139 2.3695-1.6073 3.3436-2.52 1.5328-1.504 2.8447-3.2543 3.7311-5.2127-2.4288-5.3599-7.7726-9.2894-13.648-9.8686-0.78078-0.0928-1.568-0.1344-2.352-0.1344zm0 4.0009c3.214-0.0712 6.0604 2.8042 5.9999 6.0012 0.10301 3.5334-3.4179 6.5829-6.8984 5.9231-3.5151-0.41273-5.9842-4.3564-4.8281-7.6968 0.73918-2.4576 3.1519-4.2559 5.7279-4.2271zm0 4.0009a2 2.0004 0 0 0-2 2.0032 2 2.0004 0 0 0 2 2 2 2.0004 0 0 0 2-2 2 2.0004 0 0 0-2-2z" fill="#fff" stroke-width="3.1999"/>
</svg>
