<?xml version="1.0" encoding="UTF-8" standalone="no"?>
<svg
   xmlns:dc="http://purl.org/dc/elements/1.1/"
   xmlns:cc="http://creativecommons.org/ns#"
   xmlns:rdf="http://www.w3.org/1999/02/22-rdf-syntax-ns#"
   xmlns:svg="http://www.w3.org/2000/svg"
   xmlns="http://www.w3.org/2000/svg"
   xmlns:xlink="http://www.w3.org/1999/xlink"
   xmlns:sodipodi="http://sodipodi.sourceforge.net/DTD/sodipodi-0.dtd"
   xmlns:inkscape="http://www.inkscape.org/namespaces/inkscape"
   width="64"
   height="64"
   version="1.1"
   id="svg94"
   sodipodi:docname="calibre.svg"
   inkscape:version="1.0.1 (3bc2e813f5, 2020-09-07)">
  <sodipodi:namedview
     pagecolor="#ffffff"
     bordercolor="#666666"
     borderopacity="1"
     objecttolerance="10"
     gridtolerance="10"
     guidetolerance="10"
     inkscape:pageopacity="0"
     inkscape:pageshadow="2"
     inkscape:window-width="1920"
     inkscape:window-height="932"
     id="namedview96"
     showgrid="false"
     inkscape:zoom="8.4521357"
     inkscape:cx="22.207964"
     inkscape:cy="36.479763"
     inkscape:window-x="0"
     inkscape:window-y="36"
     inkscape:window-maximized="1"
     inkscape:current-layer="svg94" />
  <metadata
     id="metadata2">
    <rdf:RDF>
      <cc:Work
         rdf:about="">
        <dc:format>image/svg+xml</dc:format>
        <dc:type
           rdf:resource="http://purl.org/dc/dcmitype/StillImage" />
        <dc:title></dc:title>
      </cc:Work>
    </rdf:RDF>
  </metadata>
  <defs
     id="defs52">
    <linearGradient
       id="SVGID_8_"
       x1="282.4"
       x2="185.32"
       y1="237.23"
       y2="334.31"
       gradientTransform="matrix(.075503 0 0 -.075503 14.111 53.343)"
       gradientUnits="userSpaceOnUse">
      <stop
         stop-color="#dee2e4"
         offset="0"
         id="stop4" />
      <stop
         stop-color="#dee2e4"
         offset=".293"
         id="stop6" />
      <stop
         stop-color="#a6aeb2"
         offset=".72"
         id="stop8" />
      <stop
         stop-color="#9aa2a6"
         offset="1"
         id="stop10" />
    </linearGradient>
    <linearGradient
       id="SVGID_7_"
       x1="236.94"
       x2="236.94"
       y1="303.37"
       y2="208.83"
       gradientTransform="matrix(.075503 0 0 -.075503 14.111 53.343)"
       gradientUnits="userSpaceOnUse">
      <stop
         stop-color="#dee2e4"
         offset="0"
         id="stop13" />
      <stop
         stop-color="#9ea7aa"
         offset="1"
         id="stop15" />
    </linearGradient>
    <linearGradient
       id="SVGID_2_"
       x1="236.94"
       x2="236.94"
       y1="360.12"
       y2="54.827"
       gradientTransform="matrix(.075503 0 0 -.075503 14.111 53.343)"
       gradientUnits="userSpaceOnUse">
      <stop
         stop-color="#dee2e4"
         offset="0"
         id="stop18" />
      <stop
         stop-color="#889296"
         offset="1"
         id="stop20" />
    </linearGradient>
    <linearGradient
       id="linearGradient1031"
       x1="445.27"
       x2="103.39"
       y1="491.02"
       y2="149.14"
       gradientTransform="matrix(.075503 0 0 -.075503 14.111 53.343)"
       gradientUnits="userSpaceOnUse">
      <stop
         stop-color="#5B6A6A"
         offset="0"
         id="stop23" />
      <stop
         stop-color="#C2CECE"
         stop-opacity="0"
         offset=".311"
         id="stop25" />
      <stop
         stop-color="#CAD5D5"
         stop-opacity=".157"
         offset=".348"
         id="stop27" />
      <stop
         stop-color="#E0E8E7"
         stop-opacity=".669"
         offset=".47"
         id="stop29" />
      <stop
         stop-color="#E8EFEE"
         offset=".549"
         id="stop31" />
      <stop
         stop-color="#97AAAA"
         offset=".788"
         id="stop33" />
      <stop
         stop-color="#9CAEAE"
         stop-opacity=".724"
         offset=".861"
         id="stop35" />
      <stop
         stop-color="#AAB9B9"
         stop-opacity=".402"
         offset=".946"
         id="stop37" />
      <stop
         stop-color="#B7C3C3"
         stop-opacity=".196"
         offset="1"
         id="stop39" />
    </linearGradient>
    <linearGradient
       id="linearGradient1039"
       x1="2.6831"
       x2="15.298"
       y1="8.4751"
       y2="8.4751"
       gradientTransform="matrix(3.7796 0 0 3.7796 -.85183 -.032543)"
       gradientUnits="userSpaceOnUse">
      <stop
         stop-color="#2c2d31"
         offset="0"
         id="stop42" />
      <stop
         stop-color="#393b3f"
         offset=".72577"
         id="stop44" />
      <stop
         stop-color="#232529"
         offset="1"
         id="stop46" />
    </linearGradient>
    <linearGradient
       id="linearGradient1047"
       x1="2.683"
       x2="5.0696"
       y1="8.4751"
       y2="8.4751"
       gradientTransform="matrix(3.7796 0 0 3.7796 -.85183 -.032543)"
       gradientUnits="userSpaceOnUse"
       xlink:href="#SVGID_2_" />
    <linearGradient
       id="linearGradient1051"
       x1="236.94"
       x2="236.94"
       y1="360.12"
       y2="54.827"
       gradientTransform="matrix(.075503 0 0 -.075503 14.111 53.343)"
       gradientUnits="userSpaceOnUse"
       xlink:href="#SVGID_2_" />
    <linearGradient
       id="linearGradient1101"
       x1="7.1153"
       x2="12.229"
       y1="4.5544"
       y2="4.5544"
       gradientTransform="matrix(3.7796 0 0 3.7796 -.85024 -.032543)"
       gradientUnits="userSpaceOnUse"
       xlink:href="#SVGID_2_" />
  </defs>
  <path
     id="rect1051"
     style="fill:#863b29;fill-opacity:1;stroke-width:0.5"
     d="M 11.867188 2.3613281 C 10.443688 2.3613281 9.2890625 3.514 9.2890625 4.9375 L 9.2890625 59.0625 C 9.2890625 60.486 10.443687 61.638672 11.867188 61.638672 L 54.390625 61.638672 C 55.814125 61.638672 56.96875 60.486 56.96875 59.0625 L 56.96875 4.9375 C 56.96875 3.514 55.814125 2.3613281 54.390625 2.3613281 L 11.867188 2.3613281 z " />
  <circle
     cx="-1249.4"
     cy="-1241.2"
     r="0"
     fill="#5e4aa6"
     id="circle54" />
  <g
     transform="matrix(3.7796 0 0 3.7796 84.613 -16.355)"
     fill="#5e4aa6"
     stroke-width=".26458"
     id="g64">
    <circle
       cx="-330.35"
       cy="-328.38"
       r="0"
       id="circle56" />
    <circle
       cx="-312.11"
       cy="-326.25"
       r="0"
       id="circle58" />
    <circle
       cx="-306.02"
       cy="-333.07"
       r="0"
       id="circle60" />
    <circle
       cx="-308.84"
       cy="-326.01"
       r="0"
       id="circle62" />
  </g>
  <path
     id="rect1049"
     style="fill:#6b2f21;fill-opacity:1;stroke-width:0.5"
     d="M 11.865234 2.3613281 C 10.441734 2.3613281 9.2890625 3.514 9.2890625 4.9375 L 9.2890625 59.0625 C 9.2890625 60.486 10.441734 61.638672 11.865234 61.638672 L 18.308594 61.638672 L 18.308594 2.3613281 L 11.865234 2.3613281 z " />
  <path
     id="rect1060"
     style="fill:#e6b17d;fill-opacity:1;stroke-width:0.5"
     d="M 27.265625 11.382812 C 26.590415 11.382812 26.042969 11.930399 26.042969 12.605469 L 26.042969 21.757812 C 26.042969 22.433022 26.590555 22.980469 27.265625 22.980469 L 44.150391 22.980469 C 44.825601 22.980469 45.373047 22.433113 45.373047 21.757812 L 45.373047 12.605469 C 45.373047 11.930259 44.825471 11.382812 44.150391 11.382812 L 27.265625 11.382812 z " />
  <g
     fill="#2a2c30"
     stroke-width=".11578"
     id="g80">
    <path
       d="m28.94 15.248c0-0.53372 0.43276-0.96648 0.96648-0.96648h11.598c0.53372 0 0.96648 0.43276 0.96648 0.96648 0 0.53372-0.43276 0.96648-0.96648 0.96648h-11.598c-0.53372 0-0.96648-0.43265-0.96648-0.96648zm12.564 2.8995h-11.598c-0.53372 0-0.96648 0.43276-0.96648 0.96648s0.43276 0.96648 0.96648 0.96648h11.598c0.53372 0 0.96648-0.43276 0.96648-0.96648 0-0.53383-0.43276-0.96648-0.96648-0.96648z"
       id="path74"
       style="fill:#6b2f21;fill-opacity:1" />
    <path
       d="m57.611 37.155h-3.8658c-0.35577 0-0.64427-0.28851-0.64427-0.64431v-9.0204c0-0.35578 0.2885-0.64431 0.64427-0.64431h3.8658c0.35577 0 0.64427 0.28851 0.64427 0.64431v9.0204c1.17e-4 0.35578-0.2885 0.64431-0.64427 0.64431z"
       id="path76"
       style="fill:#6b2f21;fill-opacity:1" />
    <path
       d="m5.7447 9.4493c0-0.53372 0.43276-0.96648 0.96648-0.96648h5.1546c0.53372 0 0.96648 0.43276 0.96648 0.96648s-0.43276 0.96648-0.96648 0.96648h-5.1546c-0.53372 0-0.96648-0.43265-0.96648-0.96648zm6.1211 5.4766h-5.1546c-0.53372 0-0.96648 0.43276-0.96648 0.96648 0 0.53372 0.43276 0.96648 0.96648 0.96648h5.1546c0.53372 0 0.96648-0.43276 0.96648-0.96648 0-0.53372-0.43276-0.96648-0.96648-0.96648zm0 6.4431h-5.1546c-0.53372 0-0.96648 0.43276-0.96648 0.96648 0 0.53372 0.43276 0.96648 0.96648 0.96648h5.1546c0.53372 0 0.96648-0.43276 0.96648-0.96648 0-0.53372-0.43276-0.96648-0.96648-0.96648zm0 6.4431h-5.1546c-0.53372 0-0.96648 0.43276-0.96648 0.96648 0 0.53372 0.43276 0.96648 0.96648 0.96648h5.1546c0.53372 0 0.96648-0.43276 0.96648-0.96648 0-0.53372-0.43276-0.96648-0.96648-0.96648zm0 6.4431h-5.1546c-0.53372 0-0.96648 0.43276-0.96648 0.96648 0 0.53372 0.43276 0.96648 0.96648 0.96648h5.1546c0.53372 0 0.96648-0.43276 0.96648-0.96648 0-0.53372-0.43276-0.96648-0.96648-0.96648zm0 6.4431h-5.1546c-0.53372 0-0.96648 0.43276-0.96648 0.96648 0 0.53372 0.43276 0.96648 0.96648 0.96648h5.1546c0.53372 0 0.96648-0.43276 0.96648-0.96648 0-0.53372-0.43276-0.96648-0.96648-0.96648zm0 6.4431h-5.1546c-0.53372 0-0.96648 0.43276-0.96648 0.96648 0 0.53372 0.43276 0.96648 0.96648 0.96648h5.1546c0.53372 0 0.96648-0.43276 0.96648-0.96648 0-0.53383-0.43276-0.96648-0.96648-0.96648zm0 6.4431h-5.1546c-0.53372 0-0.96648 0.43276-0.96648 0.96648 0 0.53372 0.43276 0.96648 0.96648 0.96648h5.1546c0.53372 0 0.96648-0.43276 0.96648-0.96648 0-0.53372-0.43276-0.96648-0.96648-0.96648z"
       id="path78"
       style="fill:#e6b17d;fill-opacity:1" />
  </g>
  <circle
     cx="-717.39"
     cy="-775.82"
     r="0"
     fill="#5e4aa6"
     image-rendering="optimizeSpeed"
     stroke-width=".64067"
     id="circle82" />
</svg>
