<?xml version="1.0" encoding="UTF-8"?>
<svg width="64" height="64" version="1.1" xmlns="http://www.w3.org/2000/svg" xmlns:cc="http://creativecommons.org/ns#" xmlns:dc="http://purl.org/dc/elements/1.1/" xmlns:rdf="http://www.w3.org/1999/02/22-rdf-syntax-ns#" xmlns:xlink="http://www.w3.org/1999/xlink">
 <metadata>
  <rdf:RDF>
   <cc:Work rdf:about="">
    <dc:format>image/svg+xml</dc:format>
    <dc:type rdf:resource="http://purl.org/dc/dcmitype/StillImage"/>
    <dc:title/>
   </cc:Work>
  </rdf:RDF>
 </metadata>
 <defs>
  <linearGradient id="linearGradient1074" x1="5.0188" x2="12.584" y1="18.955" y2="4.0867" gradientTransform="matrix(3.7796 0 0 3.7796 -.85183 -.032543)" gradientUnits="userSpaceOnUse">
   <stop stop-color="#f6a01c" offset="0"/>
   <stop stop-color="#ffc740" offset="1"/>
  </linearGradient>
  <style type="text/css"/>
  <style type="text/css"/>
  <style type="text/css"/>
  <style type="text/css"/>
 </defs>
 <circle cx="-1249.4" cy="-1241.2" r="0" fill="#5e4aa6"/>
 <g transform="matrix(3.7796 0 0 3.7796 84.613 -16.355)" fill="#5e4aa6" stroke-width=".26458">
  <circle cx="-330.35" cy="-328.38" r="0"/>
  <circle cx="-312.11" cy="-326.25" r="0"/>
  <circle cx="-306.02" cy="-333.07" r="0"/>
  <circle cx="-308.84" cy="-326.01" r="0"/>
 </g>
 <path d="m54.391 61.639h-42.524c-1.4235 0-2.5773-1.1538-2.5773-2.5773v-54.124c0-1.4235 1.1538-2.5773 2.5773-2.5773h42.524c1.4235 0 2.5773 1.1538 2.5773 2.5773v54.124c0 1.4235-1.1538 2.5773-2.5773 2.5773z" fill="url(#linearGradient1074)" stroke-width=".11578"/>
 <path d="m5.7447 9.4493c0-0.53372 0.43276-0.96648 0.96648-0.96648h5.1546c0.53372 0 0.96648 0.43276 0.96648 0.96648s-0.43276 0.96648-0.96648 0.96648h-5.1546c-0.53372 0-0.96648-0.43265-0.96648-0.96648zm6.1211 5.4766h-5.1546c-0.53372 0-0.96648 0.43276-0.96648 0.96648 0 0.53372 0.43276 0.96648 0.96648 0.96648h5.1546c0.53372 0 0.96648-0.43276 0.96648-0.96648 0-0.53372-0.43276-0.96648-0.96648-0.96648zm0 6.4431h-5.1546c-0.53372 0-0.96648 0.43276-0.96648 0.96648 0 0.53372 0.43276 0.96648 0.96648 0.96648h5.1546c0.53372 0 0.96648-0.43276 0.96648-0.96648 0-0.53372-0.43276-0.96648-0.96648-0.96648zm0 6.4431h-5.1546c-0.53372 0-0.96648 0.43276-0.96648 0.96648 0 0.53372 0.43276 0.96648 0.96648 0.96648h5.1546c0.53372 0 0.96648-0.43276 0.96648-0.96648 0-0.53372-0.43276-0.96648-0.96648-0.96648zm0 6.4431h-5.1546c-0.53372 0-0.96648 0.43276-0.96648 0.96648 0 0.53372 0.43276 0.96648 0.96648 0.96648h5.1546c0.53372 0 0.96648-0.43276 0.96648-0.96648 0-0.53372-0.43276-0.96648-0.96648-0.96648zm0 6.4431h-5.1546c-0.53372 0-0.96648 0.43276-0.96648 0.96648 0 0.53372 0.43276 0.96648 0.96648 0.96648h5.1546c0.53372 0 0.96648-0.43276 0.96648-0.96648 0-0.53372-0.43276-0.96648-0.96648-0.96648zm0 6.4431h-5.1546c-0.53372 0-0.96648 0.43276-0.96648 0.96648 0 0.53372 0.43276 0.96648 0.96648 0.96648h5.1546c0.53372 0 0.96648-0.43276 0.96648-0.96648 0-0.53383-0.43276-0.96648-0.96648-0.96648zm0 6.4431h-5.1546c-0.53372 0-0.96648 0.43276-0.96648 0.96648 0 0.53372 0.43276 0.96648 0.96648 0.96648h5.1546c0.53372 0 0.96648-0.43276 0.96648-0.96648 0-0.53372-0.43276-0.96648-0.96648-0.96648z" fill="#ffd76e" stroke-width=".11578"/>
 <circle cx="-1160.1" cy="-1292.7" r="0" fill="#5e4aa6"/>
 <g transform="matrix(1.1248 0 0 1 -5.5875 0)" fill="#f08705">
  <path d="m20.885 19.524c-0.01767 0.15764-0.0286 0.32204-0.04555 0.48358h27.163c-0.01601-0.16152-0.02779-0.32606-0.04733-0.48358z" opacity=".6" stroke-width="2.4274" style="paint-order:normal"/>
  <path d="m21.33 10.591c0.01574 0.16152 0.03073 0.32274 0.04821 0.48358h26.088c0.01631-0.17376 0.0302-0.31206 0.04476-0.48358z" opacity=".6" stroke-width="2.383" style="paint-order:normal"/>
  <g stroke-width="2.4274">
   <path d="m20.885 28.458c-0.01767 0.15764-0.0286 0.32204-0.04555 0.48358h27.163c-0.01601-0.16151-0.02779-0.32606-0.04733-0.48358z" opacity=".6" style="paint-order:normal"/>
   <path d="m20.885 37.391c-0.01767 0.15764-0.0286 0.32205-0.04555 0.48358h27.163c-0.01601-0.16153-0.02779-0.32604-0.04733-0.48358z" opacity=".6" style="paint-order:normal"/>
   <path d="m20.885 46.325c-0.01767 0.15764-0.0286 0.32205-0.04555 0.48358h27.163c-0.01601-0.16153-0.02779-0.32604-0.04733-0.48358z" opacity=".6" style="paint-order:normal"/>
   <path d="m20.885 55.258c-0.01767 0.15764-0.0286 0.32205-0.04555 0.48358h27.163c-0.01601-0.16153-0.02779-0.32604-0.04733-0.48358z" opacity=".6" style="paint-order:normal"/>
  </g>
 </g>
 <g transform="matrix(1.1948 0 0 1.1948 -62.28 93.999)" stroke-width=".051675">
  <path d="m94.156-59.201 3.3995 3.4232-20.325 20.184-3.3995-3.4235z" fill="#ff9700" p-id="1466"/>
  <path d="m71.268-33.071 2.4123-5.7063 3.3098 3.3318z" fill="#ff6d00" p-id="1467"/>
  <path d="m74.55-36.332a2.4123 1.3856 45.2 1 0 1.9664-1.9527 2.4123 1.3856 45.2 1 0-1.9664 1.9527z" fill="#ff9700" p-id="1468"/>
  <path d="m94.157-59.204 3.3995 3.4232-6.3352 6.2911-3.3995-3.4232z" fill="#543f99" p-id="1469"/>
  <path d="m94.88-56.516a2.4123 1.3856 45.2 1 0 1.9664-1.9527 2.4123 1.3856 45.2 1 0-1.9664 1.9527z" fill="#7357ff" p-id="1470"/>
  <path d="m88.475-50.211a2.4123 1.3856 45.2 1 0 1.9664-1.9527 2.4123 1.3856 45.2 1 0-1.9664 1.9527z" fill="#543f99" p-id="1471"/>
 </g>
 <circle cx="-1178.4" cy="-1245.2" r="0" fill="#5e4aa6"/>
 <circle cx="-1178.7" cy="-1245.6" r="0" fill="#5e4aa6"/>
</svg>
