<?xml version="1.0" encoding="UTF-8"?>
<svg width="64" height="64" version="1.1" xmlns="http://www.w3.org/2000/svg" xmlns:cc="http://creativecommons.org/ns#" xmlns:dc="http://purl.org/dc/elements/1.1/" xmlns:rdf="http://www.w3.org/1999/02/22-rdf-syntax-ns#" xmlns:xlink="http://www.w3.org/1999/xlink">
 <metadata>
  <rdf:RDF>
   <cc:Work rdf:about="">
    <dc:format>image/svg+xml</dc:format>
    <dc:type rdf:resource="http://purl.org/dc/dcmitype/StillImage"/>
    <dc:title/>
   </cc:Work>
  </rdf:RDF>
 </metadata>
 <defs>
  <linearGradient id="linearGradient887" x1="1.9643" x2="14.969" y1="14.924" y2="2.3319" gradientTransform="matrix(3.7796,0,0,3.7796,-6.865e-4,-3.2695e-4)" gradientUnits="userSpaceOnUse">
   <stop stop-color="#007deb" offset="0"/>
   <stop stop-color="#009bf5" offset="1"/>
  </linearGradient>
 </defs>
 <path d="m62 32c0 3.5964-0.63301 7.0448-1.7939 10.24-0.80694 2.2212-1.8686 4.3212-3.1518 6.2636-0.5375 0.81666-1.1155 1.6053-1.729 2.3633-1.964 2.4256-4.2982 4.5378-6.9182 6.2526-0.96493 0.6318-1.9678 1.2098-3.0061 1.7277-4.0321 2.0178-8.5835 3.1529-13.401 3.1529-4.8171 0-9.3685-1.1351-13.401-3.153-1.0384-0.51803-2.0424-1.096-3.0074-1.7277-2.6535-1.7376-5.0155-3.8832-6.9957-6.349-0.61464-0.76408-1.1914-1.56-1.729-2.384-1.249-1.9101-2.2836-3.9712-3.0746-6.1494-1.1607-3.1948-1.7926-6.6415-1.7926-10.237 0-16.569 13.431-30 30-30 8.317 0 15.843 3.3844 21.277 8.8503 1.5661 1.5746 2.9584 3.3233 4.1436 5.214 1.1204 1.7804 2.0571 3.6881 2.7857 5.6947 1.161 3.1959 1.794 6.6442 1.794 10.24z" fill="url(#linearGradient887)" image-rendering="optimizeSpeed" stroke-width=".11719"/>
 <path d="m49.779 28.185c0-0.5272-0.39868-0.8548-1.1971-0.98306l-10.727-1.5598-4.808-9.723c-0.27042-0.58412-0.61979-0.87604-1.0471-0.87604-0.42726 0-0.77637 0.29193-1.047 0.87604l-4.8083 9.723-10.727 1.5598c-0.79762 0.12826-1.1966 0.45586-1.1966 0.98306 0 0.29927 0.17809 0.6413 0.53428 1.0258l7.7784 7.5647-1.8376 10.685c-0.02859 0.1996-0.04276 0.34229-0.04276 0.42753 0 0.29927 0.07475 0.55186 0.22426 0.7588 0.1495 0.20668 0.37376 0.30976 0.67303 0.30976 0.25652 0 0.54136-0.08498 0.8548-0.25626l9.5945-5.0435 9.5953 5.0435c0.29953 0.17101 0.58437 0.25626 0.85453 0.25626 0.28564 0 0.50255-0.10282 0.65205-0.30976 0.14924-0.20668 0.22399-0.45953 0.22399-0.7588 0-0.18518-7e-3 -0.3276-0.0215-0.42753l-1.8379-10.685 7.7569-7.5647c0.37087-0.37035 0.55579-0.71238 0.55579-1.0258z" fill="#fff" stroke-width=".26492"/>
 <g transform="translate(81.356 -6.7797)" fill="#5e4aa6" image-rendering="optimizeSpeed">
  <circle cx="-1160" cy="-1257.6" r="0"/>
  <circle cx="-1160" cy="-1257.6" r="0"/>
  <circle cx="-1244.2" cy="-1289.6" r="0"/>
 </g>
</svg>
