<?xml version="1.0" encoding="UTF-8"?>
<svg width="64" height="64" version="1.1" xmlns="http://www.w3.org/2000/svg" xmlns:cc="http://creativecommons.org/ns#" xmlns:dc="http://purl.org/dc/elements/1.1/" xmlns:rdf="http://www.w3.org/1999/02/22-rdf-syntax-ns#" xmlns:xlink="http://www.w3.org/1999/xlink">
 <metadata>
  <rdf:RDF>
   <cc:Work rdf:about="">
    <dc:format>image/svg+xml</dc:format>
    <dc:type rdf:resource="http://purl.org/dc/dcmitype/StillImage"/>
    <dc:title/>
   </cc:Work>
  </rdf:RDF>
 </metadata>
 <defs>
  <linearGradient id="d" x1="522.44" x2="510.59" y1="24.766" y2="1052.4" gradientTransform="matrix(.0625 0 0 .0625 -91.932 -1.7676)" gradientUnits="userSpaceOnUse">
   <stop stop-color="#111" offset="0"/>
   <stop stop-color="#3b3b3b" offset="1"/>
  </linearGradient>
  <linearGradient id="a" x1="23.487" x2="23.487" y1="15.18" y2="32.913" gradientUnits="userSpaceOnUse">
   <stop stop-color="#8c59d9" offset="0"/>
   <stop stop-color="#8f76e4" offset="1"/>
  </linearGradient>
  <linearGradient id="b" x1="520" x2="520" y1="272.36" y2="792.36" gradientTransform="matrix(.0625 0 0 .0625 -91.932 -1.7676)" gradientUnits="userSpaceOnUse">
   <stop stop-color="#7839b7" offset="0"/>
   <stop stop-color="#2f5fdd" offset="1"/>
  </linearGradient>
 </defs>
 <circle cx="-1248.6" cy="-1241.1" r="0" fill="#5e4aa6"/>
 <path d="m62 32c0 3.5964-0.63301 7.0448-1.7939 10.24-0.80694 2.2212-1.8686 4.3212-3.1518 6.2636-0.5375 0.81666-1.1155 1.6053-1.729 2.3633-1.964 2.4256-4.2982 4.5378-6.9182 6.2526-0.96493 0.6318-1.9678 1.2098-3.0061 1.7277-4.0321 2.0178-8.5835 3.1529-13.401 3.1529-4.8171 0-9.3685-1.1351-13.401-3.153-1.0384-0.51803-2.0424-1.096-3.0074-1.7277-2.6535-1.7376-5.0155-3.8832-6.9957-6.349-0.61464-0.76408-1.1914-1.56-1.729-2.384-1.249-1.9101-2.2836-3.9712-3.0746-6.1494-1.1607-3.1948-1.7926-6.6415-1.7926-10.237 0-16.569 13.431-30 30-30 8.317 0 15.843 3.3844 21.277 8.8503 1.5661 1.5746 2.9584 3.3233 4.1436 5.214 1.1204 1.7804 2.0571 3.6881 2.7857 5.6947 1.161 3.1959 1.794 6.6442 1.794 10.24z" fill="#fafafa" stroke-width=".11719"/>
 <g transform="matrix(.92445 0 0 .92445 87.462 2.3551)">
  <circle cx="-59.995" cy="32.068" r="28.125" fill="url(#d)" stroke-width="21.345"/>
  <g transform="matrix(1.3393 0 0 1.3393 -92.138 -.075313)" stroke-width="15.938">
   <circle cx="24" cy="24" r="18" fill="#4d4d4d" stroke-width="15.938"/>
  </g>
  <g transform="matrix(1.3393 0 0 1.3393 -92.138 -.075313)" fill="#333" stroke-width="15.938">
   <circle cx="24" cy="24" r="15" fill="#333" stroke-width="15.938"/>
  </g>
  <circle cx="-59.995" cy="32.068" r="16.072" fill="url(#b)" stroke-width="21.345"/>
  <g transform="matrix(1.3393 0 0 1.3393 -92.138 -.075313)" fill="url(#a)" stroke-width="15.938">
   <circle cx="24" cy="24" r="9" fill="#282828" opacity=".5" stroke-width="15.938"/>
  </g>
  <circle cx="-54.638" cy="25.627" r="6.6961" fill="#fff" opacity=".5" stroke-width="21.345"/>
  <circle cx="-69.384" cy="40.103" r="3.3482" fill="#fff" opacity=".5" stroke-width="21.345"/>
 </g>
 <circle cx="-1178.5" cy="-1250.8" r="0" fill="#5e4aa6"/>
</svg>
