<?xml version="1.0" encoding="UTF-8" standalone="no"?>
<svg
   xmlns:dc="http://purl.org/dc/elements/1.1/"
   xmlns:cc="http://creativecommons.org/ns#"
   xmlns:rdf="http://www.w3.org/1999/02/22-rdf-syntax-ns#"
   xmlns:svg="http://www.w3.org/2000/svg"
   xmlns="http://www.w3.org/2000/svg"
   xmlns:sodipodi="http://sodipodi.sourceforge.net/DTD/sodipodi-0.dtd"
   xmlns:inkscape="http://www.inkscape.org/namespaces/inkscape"
   width="64"
   height="64"
   version="1.1"
   viewBox="0 0 16.933 16.933"
   id="svg18"
   sodipodi:docname="cherrytree.svg"
   inkscape:version="1.0.1 (3bc2e813f5, 2020-09-07, custom)">
  <metadata
     id="metadata24">
    <rdf:RDF>
      <cc:Work
         rdf:about="">
        <dc:format>image/svg+xml</dc:format>
        <dc:type
           rdf:resource="http://purl.org/dc/dcmitype/StillImage" />
        <dc:title></dc:title>
      </cc:Work>
    </rdf:RDF>
  </metadata>
  <defs
     id="defs22" />
  <sodipodi:namedview
     pagecolor="#ffffff"
     bordercolor="#666666"
     borderopacity="1"
     objecttolerance="10"
     gridtolerance="10"
     guidetolerance="10"
     inkscape:pageopacity="0"
     inkscape:pageshadow="2"
     inkscape:window-width="1920"
     inkscape:window-height="937"
     id="namedview20"
     showgrid="false"
     inkscape:zoom="6.1953125"
     inkscape:cx="16.67357"
     inkscape:cy="35.761123"
     inkscape:window-x="0"
     inkscape:window-y="38"
     inkscape:window-maximized="1"
     inkscape:current-layer="svg18" />
  <circle
     cx="8.4665003"
     cy="8.4665003"
     r="7.9373436"
     fill="#f2f2f2"
     stroke-width="1.11256"
     style="paint-order:stroke markers fill"
     id="circle2" />
  <g
     transform="matrix(0.37415605,0,0,0.37415605,-20.853491,0.03115185)"
     stroke-width="0.78571"
     id="g16">
    <g
       stroke-width="0.78571"
       id="g14">
      <g
         stroke-width="0.78571"
         id="g12">
        <g
           stroke-width="0.78571"
           id="g10">
          <path
             d="m 76.025,10.148 c -4.097,-0.021 -7.346,6.984 -5.662,11.203 4.653,-4.534 9.09,-3.73 8.184,-9.443 0.491,0.591 1.173,1.605 1.318,2.982 0.227,2.155 -0.843,5.189 -6.754,8.637 l 0.504,0.865 c 6.091,-3.553 7.519,-7.02 7.246,-9.613 -0.191,-1.808 -0.939,-2.289 -1.516,-2.928 1.555,0.236 2.959,0.589 3.619,1.447 0.839,1.091 1.142,2.597 1.143,4.158 0,3.122 -1.211,6.326 -1.211,6.326 l 0.934,0.359 c 0,0 1.282,-3.307 1.281,-6.686 0,-1.689 -0.322,-3.421 -1.357,-4.768 -1.851,-1.9 -3.914,-2.137 -6.27,-2.229 -0.493,-0.208 -0.982,-0.31 -1.459,-0.313 z"
             color="#000000"
             color-rendering="auto"
             fill="#50b721"
             image-rendering="auto"
             shape-rendering="auto"
             solid-color="#000000"
             style="white-space:normal;isolation:auto;mix-blend-mode:normal"
             isolation="auto"
             mix-blend-mode="normal"
             id="path4" />
          <path
             d="m 73.363,22.945 c -3.313,0 -6,2.688 -6,6 0,3.313 2.688,6 6,6 1.715,0 3.25,-0.723 4.344,-1.875 -0.852,-1.16 -1.344,-2.578 -1.344,-4.125 0,-1.547 0.492,-2.965 1.344,-4.125 -1.094,-1.152 -2.629,-1.875 -4.344,-1.875"
             fill="#e94040"
             id="path6" />
          <path
             d="m 89.363,28.945 c 0,3.313 -2.688,6 -6,6 -3.313,0 -6,-2.688 -6,-6 0,-3.313 2.688,-6 6,-6 3.313,0 6,2.688 6,6"
             fill="#e94040"
             id="path8" />
        </g>
      </g>
    </g>
  </g>
</svg>
