<?xml version="1.0" encoding="UTF-8" standalone="no"?>
<svg
   xmlns:dc="http://purl.org/dc/elements/1.1/"
   xmlns:cc="http://creativecommons.org/ns#"
   xmlns:rdf="http://www.w3.org/1999/02/22-rdf-syntax-ns#"
   xmlns:svg="http://www.w3.org/2000/svg"
   xmlns="http://www.w3.org/2000/svg"
   xmlns:sodipodi="http://sodipodi.sourceforge.net/DTD/sodipodi-0.dtd"
   xmlns:inkscape="http://www.inkscape.org/namespaces/inkscape"
   width="64"
   height="64"
   version="1.1"
   viewBox="0 0 16.933 16.933"
   id="svg14"
   sodipodi:docname="chromium.svg"
   inkscape:version="1.0.1 (3bc2e813f5, 2020-09-07, custom)">
  <metadata
     id="metadata20">
    <rdf:RDF>
      <cc:Work
         rdf:about="">
        <dc:format>image/svg+xml</dc:format>
        <dc:type
           rdf:resource="http://purl.org/dc/dcmitype/StillImage" />
        <dc:title></dc:title>
      </cc:Work>
    </rdf:RDF>
  </metadata>
  <defs
     id="defs18" />
  <sodipodi:namedview
     pagecolor="#ffffff"
     bordercolor="#666666"
     borderopacity="1"
     objecttolerance="10"
     gridtolerance="10"
     guidetolerance="10"
     inkscape:pageopacity="0"
     inkscape:pageshadow="2"
     inkscape:window-width="1920"
     inkscape:window-height="937"
     id="namedview16"
     showgrid="false"
     inkscape:zoom="4.3807475"
     inkscape:cx="13.736207"
     inkscape:cy="36.422285"
     inkscape:window-x="0"
     inkscape:window-y="38"
     inkscape:window-maximized="1"
     inkscape:current-layer="svg14" />
  <g
     transform="matrix(1.1537651,0,0,1.153654,-1.3018568,-1.3003769)"
     fill-rule="evenodd"
     stroke-width="0.92746"
     id="g8">
    <path
       d="m 2.965,4.34 a 6.917,6.917 0 0 0 -1.378,4.148 6.846,6.846 0 0 0 6.88,6.858 L 10.874,10.414 6.403,9.5 Z"
       fill="#649af5"
       id="path2" />
    <path
       d="m 8.81,5.371 2.064,5.022 -2.407,4.953 a 6.864,6.864 0 0 0 6.879,-6.88 6.865,6.865 0 0 0 -0.737,-3.095 z"
       fill="#a2c2f8"
       id="path4" />
    <path
       d="M 8.465,1.587 A 6.852,6.852 0 0 0 2.963,4.341 L 6.402,9.499 10.873,10.393 8.809,5.37 h 5.799 A 6.858,6.858 0 0 0 8.465,1.586 Z"
       fill="#3b6bd4"
       id="path6" />
  </g>
  <path
     d="M 8.4659446,4.6448752 A 3.8138469,3.8138469 0 0 1 12.288124,8.4659442 3.8138469,3.8138469 0 0 1 8.4659446,12.288125 3.8138469,3.8138469 0 0 1 4.6448756,8.4659442 3.8138469,3.8138469 0 0 1 8.4659446,4.6448752 Z"
     fill="#ffffff"
     id="path10"
     style="stroke-width:1.1111" />
  <path
     d="M 8.4653334,5.5268102 A 2.9337455,2.9331899 0 0 1 11.40619,8.465889 2.9337455,2.9331899 0 0 1 8.4653334,11.40619 2.9337455,2.9331899 0 0 1 5.5268102,8.465889 2.9337455,2.9331899 0 0 1 8.4653334,5.5268102 Z"
     fill="#5599ff"
     id="path12"
     style="stroke-width:1.1111" />
</svg>
