<?xml version="1.0" encoding="UTF-8" standalone="no"?>
<svg
   xmlns:dc="http://purl.org/dc/elements/1.1/"
   xmlns:cc="http://creativecommons.org/ns#"
   xmlns:rdf="http://www.w3.org/1999/02/22-rdf-syntax-ns#"
   xmlns:svg="http://www.w3.org/2000/svg"
   xmlns="http://www.w3.org/2000/svg"
   xmlns:sodipodi="http://sodipodi.sourceforge.net/DTD/sodipodi-0.dtd"
   xmlns:inkscape="http://www.inkscape.org/namespaces/inkscape"
   width="64"
   height="64"
   version="1.1"
   viewBox="0 0 16.933 16.933"
   id="svg10"
   sodipodi:docname="clion.svg"
   inkscape:version="1.0.1 (3bc2e813f5, 2020-09-07, custom)">
  <metadata
     id="metadata16">
    <rdf:RDF>
      <cc:Work
         rdf:about="">
        <dc:format>image/svg+xml</dc:format>
        <dc:type
           rdf:resource="http://purl.org/dc/dcmitype/StillImage" />
        <dc:title></dc:title>
      </cc:Work>
    </rdf:RDF>
  </metadata>
  <defs
     id="defs14" />
  <sodipodi:namedview
     pagecolor="#ffffff"
     bordercolor="#666666"
     borderopacity="1"
     objecttolerance="10"
     gridtolerance="10"
     guidetolerance="10"
     inkscape:pageopacity="0"
     inkscape:pageshadow="2"
     inkscape:window-width="1920"
     inkscape:window-height="937"
     id="namedview12"
     showgrid="false"
     inkscape:zoom="6.1953125"
     inkscape:cx="31.972692"
     inkscape:cy="30.818471"
     inkscape:window-x="0"
     inkscape:window-y="38"
     inkscape:window-maximized="1"
     inkscape:current-layer="svg10" />
  <path
     d="M 16.403843,8.4665002 A 7.9373437,7.9373437 0 0 1 8.4665002,16.403843 7.9373437,7.9373437 0 0 1 0.5291565,8.4665002 7.9373437,7.9373437 0 0 1 8.4665002,0.5291565 7.9373437,7.9373437 0 0 1 16.403843,8.4665002 Z"
     fill="#3ecac7"
     stroke-width="0.293978"
     id="path2" />
  <g
     id="g854"
     transform="translate(1.9454956e-7,5.550766e-5)">
    <rect
       x="4.0568829"
       y="4.0568275"
       width="8.8192339"
       height="8.8192339"
       rx="1.4698908"
       ry="1.4698908"
       fill="#303030"
       style="stroke-width:1.11111;paint-order:markers stroke fill"
       id="rect4" />
    <path
       d="m 7.0861094,5.0148291 c -1.1423348,0 -1.7255578,0.8185677 -1.7255578,1.8778913 0,1.0592681 0.6247008,1.9390026 1.7255578,1.9183359 0.7061787,0 1.1346682,-0.2775004 1.5084465,-0.692901 L 8.1213886,7.6362214 C 7.8306104,7.9062328 7.5014878,8.1208442 7.0860761,8.1208442 c -0.6402342,0 -1.0302458,-0.5984007 -1.0346347,-1.2382238 0.00438,-0.6393453 0.4148672,-1.1775571 1.0346347,-1.1775571 0.3738561,0 0.6906009,0.1391224 0.9813902,0.4091339 L 8.5183891,5.5736298 C 8.1652997,5.2205404 7.7922659,5.0148624 7.0860539,5.0148624 Z m 2.0706694,6.902e-4 V 8.8116354 H 11.572448 V 8.1214345 H 9.8468904 v -3.105893 z"
       fill="#f9f9f9"
       stroke-width="0.293978"
       id="path6" />
    <path
       d="m 6.7409977,11.228171 h 3.4510043 v 0.690201 H 6.7409977 Z"
       fill="#f9f9f9"
       stroke-width="0.293978"
       id="path8" />
  </g>
</svg>
