<?xml version="1.0" encoding="UTF-8" standalone="no"?>
<svg
   xmlns:dc="http://purl.org/dc/elements/1.1/"
   xmlns:cc="http://creativecommons.org/ns#"
   xmlns:rdf="http://www.w3.org/1999/02/22-rdf-syntax-ns#"
   xmlns:svg="http://www.w3.org/2000/svg"
   xmlns="http://www.w3.org/2000/svg"
   xmlns:sodipodi="http://sodipodi.sourceforge.net/DTD/sodipodi-0.dtd"
   xmlns:inkscape="http://www.inkscape.org/namespaces/inkscape"
   width="64"
   height="64"
   version="1.1"
   id="svg8"
   sodipodi:docname="converseen.svg"
   inkscape:version="1.0.1 (3bc2e813f5, 2020-09-07)">
  <metadata
     id="metadata14">
    <rdf:RDF>
      <cc:Work
         rdf:about="">
        <dc:format>image/svg+xml</dc:format>
        <dc:type
           rdf:resource="http://purl.org/dc/dcmitype/StillImage" />
        <dc:title></dc:title>
      </cc:Work>
    </rdf:RDF>
  </metadata>
  <defs
     id="defs12" />
  <sodipodi:namedview
     pagecolor="#ffffff"
     bordercolor="#666666"
     borderopacity="1"
     objecttolerance="10"
     gridtolerance="10"
     guidetolerance="10"
     inkscape:pageopacity="0"
     inkscape:pageshadow="2"
     inkscape:window-width="1920"
     inkscape:window-height="975"
     id="namedview10"
     showgrid="false"
     inkscape:zoom="6.4921875"
     inkscape:cx="24.383046"
     inkscape:cy="29.53123"
     inkscape:window-x="0"
     inkscape:window-y="0"
     inkscape:window-maximized="1"
     inkscape:current-layer="svg8" />
  <g
     transform="matrix(1.5,0,0,1.5,-580.85501,-753.69998)"
     stroke-width="0.74074"
     id="g6">
    <rect
       x="388.57001"
       y="503.79999"
       width="40"
       height="40"
       rx="20"
       fill="#1da0f6"
       id="rect2" />
    <path
       d="m 409.75,508.24 c 3.8293,3.3058 4.7867,6.6565 4.7867,11.922 l 1.5707,-4.0688 c 1.6536,1.6258 2.7806,3.7799 3.1114,6.1928 0.12172,1.8554 -0.18123,3.498 -0.65988,4.934 1.9533,-1.2437 4.4204,-2.6649 5.4764,-4.934 -0.70487,-7.5082 -6.7399,-13.472 -14.285,-14.046 z m -2.6913,0.0886 c -7.5082,0.70487 -13.472,6.7398 -14.046,14.285 3.3058,-3.8293 6.6564,-4.7866 11.922,-4.7866 l -4.0686,-1.5707 c 1.6258,-1.6536 3.7799,-2.7805 6.1928,-3.1112 1.8554,-0.12173 3.498,0.18108 4.934,0.65975 -1.2437,-1.9533 -2.6649,-4.4204 -4.934,-5.4764 z m -8.4807,12.043 c -1.9533,1.2437 -4.4206,2.6649 -5.4766,4.934 0.70488,7.5082 6.7399,13.472 14.285,14.046 -3.8293,-3.3058 -4.7867,-6.6565 -4.7867,-11.922 l -1.5707,4.0687 c -1.6536,-1.6258 -2.7805,-3.7799 -3.1112,-6.1928 -0.12173,-1.8554 0.18122,-3.498 0.65988,-4.934 z m 25.546,4.606 c -3.3058,3.8293 -6.6564,4.7867 -11.922,4.7867 l 4.0686,1.5707 c -1.6258,1.6536 -3.7799,2.7806 -6.1928,3.1114 -1.8554,0.12172 -3.498,-0.18123 -4.934,-0.6599 1.2437,1.9533 2.6649,4.4204 4.934,5.4764 7.5081,-0.70487 13.472,-6.7399 14.046,-14.285 z"
       fill="#ffffff"
       fill-rule="evenodd"
       id="path4" />
  </g>
</svg>
