<?xml version="1.0" encoding="UTF-8" standalone="no"?>
<svg
   xmlns:dc="http://purl.org/dc/elements/1.1/"
   xmlns:cc="http://creativecommons.org/ns#"
   xmlns:rdf="http://www.w3.org/1999/02/22-rdf-syntax-ns#"
   xmlns:svg="http://www.w3.org/2000/svg"
   xmlns="http://www.w3.org/2000/svg"
   xmlns:sodipodi="http://sodipodi.sourceforge.net/DTD/sodipodi-0.dtd"
   xmlns:inkscape="http://www.inkscape.org/namespaces/inkscape"
   width="64"
   height="64"
   version="1.1"
   id="svg52"
   sodipodi:docname="cpuinfo.svg"
   inkscape:version="1.0.1 (3bc2e813f5, 2020-09-07)">
  <metadata
     id="metadata58">
    <rdf:RDF>
      <cc:Work
         rdf:about="">
        <dc:format>image/svg+xml</dc:format>
        <dc:type
           rdf:resource="http://purl.org/dc/dcmitype/StillImage" />
        <dc:title></dc:title>
      </cc:Work>
    </rdf:RDF>
  </metadata>
  <defs
     id="defs56" />
  <sodipodi:namedview
     pagecolor="#ffffff"
     bordercolor="#666666"
     borderopacity="1"
     objecttolerance="10"
     gridtolerance="10"
     guidetolerance="10"
     inkscape:pageopacity="0"
     inkscape:pageshadow="2"
     inkscape:window-width="1920"
     inkscape:window-height="975"
     id="namedview54"
     showgrid="false"
     inkscape:zoom="4.5906698"
     inkscape:cx="2.3355136"
     inkscape:cy="49.740287"
     inkscape:window-x="0"
     inkscape:window-y="0"
     inkscape:window-maximized="1"
     inkscape:current-layer="svg52" />
  <g
     id="g908"
     transform="matrix(1.0576923,0,0,1.0576923,-1.8461536,-1.8459632)">
    <rect
       x="6"
       y="6"
       width="52"
       height="52"
       rx="3"
       ry="3"
       fill="#388e3c"
       stroke-width="1.0293"
       id="rect2" />
    <path
       d="M 16,37 6,45 v 3 l 6,-4 v 2 l -6,4 h 4 v 8 h 6 V 47 l 6,-5 h 3 l -6,5 v 11 h 36 c 1.662,0 3,-1.338 3,-3 V 47.9082 L 51,39 h -2 l -2,-2 z"
       fill="#43a047"
       fill-rule="evenodd"
       id="path4" />
    <g
       transform="translate(-5,3)"
       id="g10">
      <circle
         cx="58.5"
         cy="50.5"
         r="1.5"
         fill="#fbc02d"
         id="circle6" />
      <circle
         cx="58.5"
         cy="50.5"
         r="0.5"
         fill="#263238"
         id="circle8" />
    </g>
    <g
       transform="translate(-5,-1)"
       id="g16">
      <circle
         cx="58.5"
         cy="11.5"
         r="1.5"
         fill="#fbc02d"
         id="circle12" />
      <circle
         cx="58.5"
         cy="11.5"
         r="0.5"
         fill="#263238"
         id="circle14" />
    </g>
    <g
       transform="translate(5,3)"
       id="g22">
      <circle
         cx="5.5"
         cy="50.5"
         r="1.5"
         fill="#fbc02d"
         id="circle18" />
      <circle
         cx="5.5"
         cy="50.5"
         r="0.5"
         fill="#263238"
         id="circle20" />
    </g>
    <path
       d="M 9,6 C 8.64708,6 8.31399,6.070688 8,6.18164 v 11.818 l -2,2 v 2 l 3,3 h 38 l 7,-8 h 4 v -1 h -4 v -4 l -8,9 h -3 l 8,-9 v -6 z"
       fill="#43a047"
       fill-rule="evenodd"
       id="path24" />
    <rect
       x="18"
       y="24"
       width="28"
       height="16"
       ry="1"
       fill="#263238"
       id="rect26" />
    <rect
       x="10"
       y="13"
       width="17"
       height="6"
       ry="1"
       fill="#263238"
       stroke-width="1.1019"
       id="rect28" />
    <rect
       x="37"
       y="44"
       width="17"
       height="6"
       ry="1"
       fill="#eceff1"
       id="rect30" />
    <rect
       x="38"
       y="45"
       width="9"
       height="1"
       ry="0"
       fill="#37474f"
       id="rect32" />
    <path
       d="m 38,47 h 5 v 1 h -5 z"
       fill="#37474f"
       id="path34" />
    <path
       d="m 49,49 2,-3 2,3 z"
       fill="#37474f"
       fill-rule="evenodd"
       id="path36" />
    <path
       d="m 21,27 h 2 v 10 h -2 z m 4,0 h 2 v 10 h -2 z m 4,0 h 2 v 10 h -2 z m 4,0 h 2 v 10 h -2 z m 4,0 h 2 v 10 h -2 z m 4,0 h 2 v 10 h -2 z"
       fill="#fbc02d"
       fill-rule="evenodd"
       style="paint-order:fill markers stroke"
       id="path38" />
    <g
       transform="translate(0.3178,0.048618)"
       id="g44">
      <circle
         cx="10.182"
         cy="10.451"
         r="1.5"
         fill="#fbc02d"
         id="circle40" />
      <circle
         cx="10.182"
         cy="10.451"
         r="0.5"
         fill="#263238"
         id="circle42" />
    </g>
    <rect
       x="11"
       y="14"
       width="4"
       height="1"
       fill="#ffffff"
       opacity="0.5"
       style="paint-order:stroke fill markers"
       id="rect46" />
    <rect
       x="11"
       y="16"
       width="8"
       height="1"
       fill="#ffffff"
       opacity="0.5"
       style="paint-order:stroke fill markers"
       id="rect48" />
    <rect
       x="22"
       y="16"
       width="3"
       height="2"
       fill="#ffffff"
       opacity="0.5"
       style="paint-order:stroke fill markers"
       id="rect50" />
  </g>
</svg>
