<?xml version="1.0" encoding="UTF-8"?>
<!-- Created with Inkscape (http://www.inkscape.org/) -->
<svg width="64" height="64" version="1.1" viewBox="0 0 16.933 16.933" xmlns="http://www.w3.org/2000/svg" xmlns:cc="http://creativecommons.org/ns#" xmlns:dc="http://purl.org/dc/elements/1.1/" xmlns:rdf="http://www.w3.org/1999/02/22-rdf-syntax-ns#" xmlns:xlink="http://www.w3.org/1999/xlink">
 <defs>
  <linearGradient id="linearGradient977" x1="1.1408" x2="11.921" y1="15.909" y2="4.1256" gradientUnits="userSpaceOnUse">
   <stop stop-color="#607d8b" offset="0"/>
   <stop stop-color="#91aab4" offset="1"/>
  </linearGradient>
  <linearGradient id="linearGradient1105" x1="7.1045" x2="9.8105" y1="9.8656" y2="7.166" gradientTransform="matrix(1.6142 0 0 1.6142 -5.2 -5.2386)" gradientUnits="userSpaceOnUse">
   <stop stop-color="#0071e2" offset="0"/>
   <stop stop-color="#00a5fa" offset="1"/>
  </linearGradient>
 </defs>
 <metadata>
  <rdf:RDF>
   <cc:Work rdf:about="">
    <dc:format>image/svg+xml</dc:format>
    <dc:type rdf:resource="http://purl.org/dc/dcmitype/StillImage"/>
    <dc:title/>
   </cc:Work>
  </rdf:RDF>
 </metadata>
 <circle cx="-330.35" cy="-328.38" r="0" fill="#5e4aa6" stroke-width=".26458"/>
 <g>
  <path d="m14.034 9.3169c0.0358-0.25061 0.0716-0.50123 0.0716-0.78765 0-0.28642-0.0358-0.53703-0.0716-0.78764l1.6111-1.1457c0.14321-0.10741 0.21481-0.32222 0.10741-0.50123l-1.5753-2.6494c-0.10741-0.17901-0.28642-0.25061-0.46543-0.14321l-1.7901 0.82345c-0.42962-0.32222-0.85925-0.57283-1.3605-0.78764l-0.17901-1.9691c-0.035802-0.17901-0.17901-0.32222-0.35802-0.32222h-3.079c-0.17901 0-0.35802 0.14321-0.35802 0.32222l-0.17901 1.9691c-0.50123 0.21481-0.96666 0.46543-1.3605 0.78764l-1.7901-0.82345c-0.17901-0.071604-0.39382 0-0.46543 0.14321l-1.5395 2.6494c-0.10741 0.17901-0.035802 0.39382 0.10741 0.50123l1.6111 1.1457c-0.035802 0.25061-0.071604 0.50123-0.071604 0.78764 0 0.28642 0.035802 0.53703 0.071604 0.78765l-1.6827 1.1457c-0.14321 0.10741-0.21481 0.32222-0.10741 0.50123l1.5395 2.6494c0.10741 0.17901 0.28642 0.25061 0.46543 0.14321l1.7901-0.82345c0.42962 0.32222 0.85925 0.57283 1.3605 0.78764l0.17901 1.9691c0.035802 0.17901 0.17901 0.32222 0.35802 0.32222h3.079c0.17901 0 0.35802-0.14321 0.35802-0.32222l0.17901-1.9691c0.50123-0.21481 0.96666-0.46543 1.3605-0.78764l1.7901 0.82345c0.17901 0.0716 0.39382 0 0.46543-0.14321l1.5395-2.6494c0.10741-0.17901 0.0358-0.39382-0.10741-0.50123zm-5.5851 2.7926c-1.9691 0-3.5802-1.6111-3.5802-3.5802 0-1.9691 1.6111-3.5802 3.5802-3.5802 1.9691 0 3.5802 1.6111 3.5802 3.5802 0 1.9691-1.6111 3.5802-3.5802 3.5802z" fill="url(#linearGradient977)" stroke-width=".35802"/>
  <path d="m8.4665 4.233c-2.3629 0-4.2962 1.9333-4.2962 4.2962 0 2.3629 1.9333 4.2962 4.2962 4.2962 2.3629 0 4.2962-1.9333 4.2962-4.2962 0-2.3629-1.9333-4.2962-4.2962-4.2962zm0 6.0863c-1.0025 0-1.7901-0.78764-1.7901-1.7901s0.78765-1.7901 1.7901-1.7901c1.0025 0 1.7901 0.78765 1.7901 1.7901s-0.78765 1.7901-1.7901 1.7901z" fill="#2a495d" stroke-width=".35802"/>
  <path d="m10.694 8.5293a2.2274 2.2274 0 0 1-2.1391 2.2257 2.2274 2.2274 0 0 1-2.3088-2.0492 2.2274 2.2274 0 0 1 1.956-2.3882 2.2274 2.2274 0 0 1 2.4639 1.8598" fill="url(#linearGradient1105)" style="paint-order:stroke fill markers"/>
  <path d="m9.768 8.5293a1.3015 1.3015 0 0 1-1.2499 1.3005 1.3015 1.3015 0 0 1-1.349-1.1974 1.3015 1.3015 0 0 1 1.1429-1.3955 1.3015 1.3015 0 0 1 1.4397 1.0867" fill="#fff" style="paint-order:stroke fill markers"/>
 </g>
</svg>
