<?xml version="1.0" encoding="UTF-8" standalone="no"?>
<svg
   xmlns:dc="http://purl.org/dc/elements/1.1/"
   xmlns:cc="http://creativecommons.org/ns#"
   xmlns:rdf="http://www.w3.org/1999/02/22-rdf-syntax-ns#"
   xmlns:svg="http://www.w3.org/2000/svg"
   xmlns="http://www.w3.org/2000/svg"
   xmlns:sodipodi="http://sodipodi.sourceforge.net/DTD/sodipodi-0.dtd"
   xmlns:inkscape="http://www.inkscape.org/namespaces/inkscape"
   viewBox="0 0 64 64"
   version="1.1"
   id="svg43"
   sodipodi:docname="distributor-logo-fedora.svg"
   width="64"
   height="64"
   inkscape:version="1.0.1 (3bc2e813f5, 2020-09-07)">
  <metadata
     id="metadata47">
    <rdf:RDF>
      <cc:Work
         rdf:about="">
        <dc:format>image/svg+xml</dc:format>
        <dc:type
           rdf:resource="http://purl.org/dc/dcmitype/StillImage" />
        <dc:title></dc:title>
      </cc:Work>
    </rdf:RDF>
  </metadata>
  <sodipodi:namedview
     pagecolor="#ffffff"
     bordercolor="#666666"
     borderopacity="1"
     objecttolerance="10"
     gridtolerance="10"
     guidetolerance="10"
     inkscape:pageopacity="0"
     inkscape:pageshadow="2"
     inkscape:window-width="1920"
     inkscape:window-height="932"
     id="namedview45"
     showgrid="false"
     inkscape:pagecheckerboard="true"
     inkscape:zoom="2.8173786"
     inkscape:cx="0.042759384"
     inkscape:cy="43.440586"
     inkscape:window-x="0"
     inkscape:window-y="36"
     inkscape:window-maximized="1"
     inkscape:current-layer="svg43" />
  <defs
     id="defs7">
    <linearGradient
       id="linearGradient3764"
       x1="1"
       x2="47"
       gradientUnits="userSpaceOnUse"
       gradientTransform="rotate(-90,23.999998,24)">
      <stop
         style="stop-color:#243964;stop-opacity:1"
         id="stop2" />
      <stop
         offset="1"
         style="stop-color:#294172;stop-opacity:1"
         id="stop4" />
    </linearGradient>
  </defs>
  <g
     id="g27">
    <g
       id="g25">
      <g
         transform="translate(1,1)"
         id="g23">
        <g
           style="opacity:0.1"
           id="g21">
          <!-- color: #294172 -->
        </g>
      </g>
    </g>
  </g>
  <g
     transform="translate(-6.7970614e-5)"
     id="g31">
    <g
       id="g29">
      <!-- color: #294172 -->
    </g>
  </g>
  <path
     id="rect890"
     style="opacity:1;fill:#294172;fill-opacity:1;stroke-width:0.370289"
     d="M 32,1.6601563 A 30.34004,30.34004 0 0 0 1.6777343,30.964844 c -0.00244,0.06103 -0.017578,0.118034 -0.017578,0.179688 V 32 57.859375 c 0,2.4826 1.9978685,4.480469 4.4804685,4.480469 H 32 32.683594 c 0.03344,0 0.06439,-0.009 0.09766,-0.0098 A 30.34004,30.34004 0 0 0 62.339844,32 30.34004,30.34004 0 0 0 32,1.6601563 Z" />
  <g
     id="g906"
     transform="matrix(2.0384615,0,0,2.0384615,-226.15649,-14.977674)">
    <path
       d="m 131.28934,11 c -4.142,0 -7.5,3.358 -7.5,7.5 0,0 0,2.048 0,3.5 h -3.5 c -4.142,0 -7.5,3.358 -7.5,7.5 0,4.142 3.358,7.5 7.5,7.5 4.101,-0.003 7.44,-3.299 7.494,-7.4 h 0.006 V 29.5 26 h 3.5 c 4.142,0 7.5,-3.358 7.5,-7.5 0,-4.142 -3.358,-7.5 -7.5,-7.5 m 0,4 c 1.933,0 3.5,1.567 3.5,3.5 0,1.933 -1.567,3.5 -3.5,3.5 h -3.5 v -3.5 c 0,-1.933 1.567,-3.5 3.5,-3.5 m -11,11 h 3.5 v 3.5 a 3.5,3.5 0 0 1 -3.5,3.5 3.5,3.5 0 0 1 -3.5,-3.5 3.5,3.5 0 0 1 3.5,-3.5"
       style="opacity:1;fill:#3c6eb2;fill-opacity:1;stroke:none"
       id="path899" />
    <path
       d="m 131.23034,11 c -2.554,0.02 -4.922,1.338 -6.285,3.498 -0.774,1.228 -1.137,2.617 -1.137,4 l -0.01,3.5 h -3.01 c -1.108,0 -2,0.892 -2,2 0,1.108 0.892,2 2,2 h 2 c 0.554,0 1,0.446 1,1 v 2.5 c 0,1.933 -1.567,3.501 -3.5,3.5 -0.265,0 -0.528,-0.038 -0.787,-0.094 -2.568,-0.55 -4.075,3.105 -0.9,3.902 0.57,0.143 1.159,0.196 1.746,0.191 2.554,-0.02 4.922,-1.338 6.285,-3.498 0.774,-1.228 1.137,-2.617 1.137,-4 l 0.01,-3.5 c 1,0 2.01,0 3.01,0 1.108,0 2,-0.892 2,-2 0,-1.108 -0.892,-2 -2,-2 h -2 c -0.554,0 -1,-0.446 -1,-1 v -2.5 c 0,-1.933 1.567,-3.501 3.5,-3.5 0.265,0 0.528,0.038 0.787,0.094 2.568,0.55 4.075,-3.105 0.9,-3.902 -0.57,-0.143 -1.159,-0.196 -1.746,-0.191"
       style="opacity:1;fill:#f9f9f9;fill-opacity:1;stroke:none"
       id="path901" />
  </g>
</svg>
