<?xml version="1.0" encoding="UTF-8" standalone="no"?>
<svg
   xmlns:dc="http://purl.org/dc/elements/1.1/"
   xmlns:cc="http://creativecommons.org/ns#"
   xmlns:rdf="http://www.w3.org/1999/02/22-rdf-syntax-ns#"
   xmlns:svg="http://www.w3.org/2000/svg"
   xmlns="http://www.w3.org/2000/svg"
   xmlns:sodipodi="http://sodipodi.sourceforge.net/DTD/sodipodi-0.dtd"
   xmlns:inkscape="http://www.inkscape.org/namespaces/inkscape"
   viewBox="0 0 64 64"
   version="1.1"
   id="svg53"
   sodipodi:docname="distributor-logo-kubuntu.svg"
   width="64"
   height="64"
   inkscape:version="1.0.1 (3bc2e813f5, 2020-09-07)">
  <metadata
     id="metadata57">
    <rdf:RDF>
      <cc:Work
         rdf:about="">
        <dc:format>image/svg+xml</dc:format>
        <dc:type
           rdf:resource="http://purl.org/dc/dcmitype/StillImage" />
        <dc:title></dc:title>
      </cc:Work>
    </rdf:RDF>
  </metadata>
  <sodipodi:namedview
     pagecolor="#ffffff"
     bordercolor="#666666"
     borderopacity="1"
     objecttolerance="10"
     gridtolerance="10"
     guidetolerance="10"
     inkscape:pageopacity="0"
     inkscape:pageshadow="2"
     inkscape:window-width="1920"
     inkscape:window-height="932"
     id="namedview55"
     showgrid="false"
     inkscape:pagecheckerboard="true"
     inkscape:zoom="3.984375"
     inkscape:cx="92.965496"
     inkscape:cy="50.446327"
     inkscape:window-x="0"
     inkscape:window-y="36"
     inkscape:window-maximized="1"
     inkscape:current-layer="svg53" />
  <defs
     id="defs7">
    <linearGradient
       id="linearGradient3764"
       x1="1"
       x2="47"
       gradientUnits="userSpaceOnUse"
       gradientTransform="rotate(-90,23.999998,24)">
      <stop
         style="stop-color:#006dac;stop-opacity:1"
         id="stop2" />
      <stop
         offset="1"
         style="stop-color:#0079c1;stop-opacity:1"
         id="stop4" />
    </linearGradient>
  </defs>
  <circle
     style="opacity:1;fill:#0079c1;fill-opacity:1;stroke-width:0.539226"
     id="path896"
     cx="32"
     cy="32"
     r="30" />
  <g
     id="g908"
     transform="matrix(1.6662801,0,0,1.6662801,-7.9903621,-7.9920172)">
    <g
       id="g906">
      <!-- color: #0079c1 -->
      <g
         id="g904">
        <path
           d="m 23.254,12 c -0.012,0 -0.023,0.004 -0.035,0.008 l -2.168,0.523 c -0.094,0.023 -0.156,0.105 -0.156,0.199 l 0.957,4.391 0.039,0.02 c 0.73,-0.242 1.504,-0.375 2.316,-0.375 3.66,0 6.691,2.68 7.219,6.172 l 4.461,-0.973 c 0.09,-0.043 0.133,-0.137 0.109,-0.23 L 35.469,19.579 C 35.446,19.485 35.364,19.423 35.27,19.423 l -3.543,-0.004 c -0.301,-0.563 -0.672,-1.094 -1.109,-1.578 l 1.164,-3.25 c 0.031,-0.09 -0.004,-0.191 -0.086,-0.238 l -1.91,-1.152 c -0.082,-0.051 -0.18,-0.035 -0.25,0.027 l -2.398,2.383 C 26.427,15.384 25.697,15.259 24.97,15.236 l -1.492,-3.121 c -0.031,-0.063 -0.094,-0.102 -0.16,-0.117 -0.012,0 -0.027,0 -0.035,0 m -0.02,0.012"
           style="fill:#f9f9f9;fill-opacity:1;fill-rule:evenodd;stroke:none"
           id="path898" />
        <path
           d="m 16.215,15.18 c -0.047,0.004 -0.09,0.023 -0.125,0.059 l -1.578,1.57 c -0.066,0.066 -0.078,0.172 -0.027,0.25 l 1.852,3.03 c -0.332,0.551 -0.594,1.141 -0.781,1.766 l -3.395,0.703 c -0.094,0.016 -0.164,0.102 -0.164,0.195 v 2.223 c 0,0.098 0.066,0.18 0.152,0.199 l 3.297,0.797 c 0.176,0.723 0.449,1.406 0.809,2.039 l -1.906,2.895 c -0.055,0.082 -0.043,0.188 0.027,0.254 l 1.578,1.57 c 0.066,0.066 0.168,0.078 0.25,0.027 l 3.051,-3.355 v -0.051 c -1.441,-1.324 -2.344,-3.215 -2.344,-5.324 0,-2.336 1.109,-4.406 2.832,-5.738 L 16.348,15.215 C 16.309,15.192 16.262,15.18 16.215,15.184 m 0,0"
           style="fill:#f9f9f9;fill-opacity:1;fill-rule:evenodd;stroke:none"
           id="path900" />
        <path
           d="m 31.33,25.59 c -0.719,3.258 -3.633,5.699 -7.113,5.699 -0.926,0 -1.805,-0.172 -2.605,-0.48 l -0.023,0.016 -1.164,4.391 c -0.008,0.094 0.055,0.18 0.152,0.203 l 2.152,0.578 c 0.094,0.023 0.188,-0.016 0.227,-0.094 l 1.711,-3.109 c 0.648,0.008 1.289,-0.059 1.934,-0.207 l 2.305,2.574 c 0.066,0.07 0.176,0.09 0.258,0.039 l 1.934,-1.109 c 0.082,-0.047 0.121,-0.145 0.094,-0.234 l -0.949,-3.238 c 0.543,-0.508 1,-1.086 1.371,-1.711 l 3.469,0.199 c 0.098,0.008 0.188,-0.059 0.211,-0.145 l 0.578,-2.148 c 0.023,-0.09 -0.016,-0.188 -0.098,-0.234 l -4.43,-0.977 M 31.34,25.599"
           style="fill:#f9f9f9;fill-opacity:1;fill-rule:evenodd;stroke:none"
           id="path902" />
      </g>
    </g>
  </g>
</svg>
