<?xml version="1.0" encoding="UTF-8" standalone="no"?>
<svg
   xmlns:dc="http://purl.org/dc/elements/1.1/"
   xmlns:cc="http://creativecommons.org/ns#"
   xmlns:rdf="http://www.w3.org/1999/02/22-rdf-syntax-ns#"
   xmlns:svg="http://www.w3.org/2000/svg"
   xmlns="http://www.w3.org/2000/svg"
   xmlns:sodipodi="http://sodipodi.sourceforge.net/DTD/sodipodi-0.dtd"
   xmlns:inkscape="http://www.inkscape.org/namespaces/inkscape"
   width="64"
   height="64"
   version="1.1"
   viewBox="0 0 16.933 16.933"
   id="svg17"
   sodipodi:docname="distributor-logo-linux-mint.svg"
   inkscape:version="1.0.1 (3bc2e813f5, 2020-09-07)">
  <metadata
     id="metadata21">
    <rdf:RDF>
      <cc:Work
         rdf:about="">
        <dc:format>image/svg+xml</dc:format>
        <dc:type
           rdf:resource="http://purl.org/dc/dcmitype/StillImage" />
        <dc:title></dc:title>
      </cc:Work>
    </rdf:RDF>
  </metadata>
  <sodipodi:namedview
     pagecolor="#ffffff"
     bordercolor="#666666"
     borderopacity="1"
     objecttolerance="10"
     gridtolerance="10"
     guidetolerance="10"
     inkscape:pageopacity="0"
     inkscape:pageshadow="2"
     inkscape:window-width="1920"
     inkscape:window-height="932"
     id="namedview19"
     showgrid="false"
     inkscape:pagecheckerboard="true"
     inkscape:zoom="2.9882813"
     inkscape:cx="42.960499"
     inkscape:cy="9.7038773"
     inkscape:window-x="0"
     inkscape:window-y="36"
     inkscape:window-maximized="1"
     inkscape:current-layer="svg17" />
  <defs
     id="defs7">
    <linearGradient
       id="b"
       x1="45.628"
       x2="45.628"
       y1="57.955"
       y2="12.461"
       gradientTransform="matrix(0.26458,0,0,0.26458,0,280.07)"
       gradientUnits="userSpaceOnUse">
      <stop
         offset="0"
         id="stop2" />
      <stop
         stop-opacity="0"
         offset="1"
         id="stop4" />
    </linearGradient>
  </defs>
  <path
     id="path878"
     style="fill:#4caf50;fill-opacity:1;stroke-width:0.0793734"
     d="m 2.1804442,2.9524399 v 1.99467 H 2.880646 a 1.1111847,1.1111847 0 0 1 0.028938,0.0026 1.1111847,1.1111847 0 0 1 0.045474,0.0052 1.1111847,1.1111847 0 0 1 0.044958,0.0067 1.1111847,1.1111847 0 0 1 0.044958,0.0083 1.1111847,1.1111847 0 0 1 0.043924,0.01033 1.1111847,1.1111847 0 0 1 0.043924,0.0124 1.1111847,1.1111847 0 0 1 0.043407,0.01395 1.1111847,1.1111847 0 0 1 0.042891,0.0155 1.1111847,1.1111847 0 0 1 0.042374,0.01757 1.1111847,1.1111847 0 0 1 0.04134,0.01912 1.1111847,1.1111847 0 0 1 0.040307,0.02119 1.1111847,1.1111847 0 0 1 0.03979,0.02222 1.1111847,1.1111847 0 0 1 0.038756,0.02429 1.1111847,1.1111847 0 0 1 0.037723,0.02584 1.1111847,1.1111847 0 0 1 0.036173,0.02687 1.1111847,1.1111847 0 0 1 0.035656,0.02894 1.1111847,1.1111847 0 0 1 0.034106,0.02997 1.1111847,1.1111847 0 0 1 0.033072,0.03152 1.1111847,1.1111847 0 0 1 0.031522,0.03307 1.1111847,1.1111847 0 0 1 0.030488,0.03411 1.1111847,1.1111847 0 0 1 0.028422,0.03514 1.1111847,1.1111847 0 0 1 0.027388,0.03669 1.1111847,1.1111847 0 0 1 0.025838,0.03721 1.1111847,1.1111847 0 0 1 0.024287,0.03876 1.1111847,1.1111847 0 0 1 0.022737,0.03979 1.1111847,1.1111847 0 0 1 0.021187,0.04031 1.1111847,1.1111847 0 0 1 0.01912,0.04134 1.1111847,1.1111847 0 0 1 0.018086,0.04186 1.1111847,1.1111847 0 0 1 0.015503,0.04289 1.1111847,1.1111847 0 0 1 0.014469,0.043407 1.1111847,1.1111847 0 0 1 0.012402,0.043924 1.1111847,1.1111847 0 0 1 0.010852,0.043924 1.1111847,1.1111847 0 0 1 0.00878,0.044958 1.1111847,1.1111847 0 0 1 0.0062,0.044958 1.1111847,1.1111847 0 0 1 0.00568,0.045474 1.1111847,1.1111847 0 0 1 0.0031,0.045475 1.1111847,1.1111847 0 0 1 0.00103,0.045474 l 0.00568,4.2136131 c 0,0.256798 0.028067,0.507696 0.081647,0.749811 0.05357,0.242114 0.1323356,0.475679 0.2340897,0.698134 0.1017541,0.222456 0.2264894,0.433654 0.3710295,0.631474 0.1445409,0.19782 0.3089818,0.382134 0.4909165,0.550343 0.1819345,0.168209 0.3813656,0.320606 0.5953008,0.454227 0.213935,0.133621 0.4426064,0.248551 0.6831489,0.342608 0.2405425,0.09406 0.4927043,0.167003 0.7544609,0.21652 0.2617567,0.04952 0.5332099,0.07545 0.8107872,0.07545 h 5.4822455 c 0.175427,0 0.345344,-0.0276 0.501768,-0.0801 0.156424,-0.0525 0.299269,-0.129974 0.420121,-0.228405 0.120853,-0.09843 0.219638,-0.217723 0.288349,-0.355527 0.06871,-0.137805 0.107485,-0.293947 0.107485,-0.464562 V 6.7046616 c 0,-0.2567974 -0.02854,-0.5076956 -0.08216,-0.7498102 -0.05363,-0.2421146 -0.13224,-0.4756795 -0.23409,-0.6981355 -0.101849,-0.222456 -0.226872,-0.433652 -0.371546,-0.631473 -0.144674,-0.19782 -0.309335,-0.382135 -0.491433,-0.550344 -0.182099,-0.168209 -0.381695,-0.320089 -0.595818,-0.45371 -0.214123,-0.133621 -0.442401,-0.249067 -0.683149,-0.343124 -0.240747,-0.09406 -0.493522,-0.167003 -0.755494,-0.2165199 -0.261972,-0.04952 -0.533508,-0.07545 -0.811304,-0.07545 H 8.4197337 v -0.0052 z m 7.1451597,2.253564 a 1.8496414,1.8496414 0 0 1 0.047024,5.17e-4 1.8496414,1.8496414 0 0 1 0.05891,0.0026 1.8496414,1.8496414 0 0 1 0.058393,0.0031 1.8496414,1.8496414 0 0 1 0.05891,0.0062 1.8496414,1.8496414 0 0 1 0.057876,0.0072 1.8496414,1.8496414 0 0 1 0.058393,0.0098 1.8496414,1.8496414 0 0 1 0.057876,0.01085 1.8496414,1.8496414 0 0 1 0.056843,0.01344 1.8496414,1.8496414 0 0 1 0.05736,0.01499 1.8496414,1.8496414 0 0 1 0.056326,0.01654 1.8496414,1.8496414 0 0 1 0.055809,0.0186 1.8496414,1.8496414 0 0 1 0,5.17e-4 1.8496414,1.8496414 0 0 0 -0.055809,-0.0186 1.8496414,1.8496414 0 0 0 -0.056326,-0.01654 1.8496414,1.8496414 0 0 0 -0.05736,-0.01499 1.8496414,1.8496414 0 0 0 -0.056843,-0.01344 1.8496414,1.8496414 0 0 0 -0.057876,-0.01085 1.8496414,1.8496414 0 0 0 -0.058393,-0.0098 1.8496414,1.8496414 0 0 0 -0.057876,-0.0072 1.8496414,1.8496414 0 0 0 -0.05891,-0.0062 1.8496414,1.8496414 0 0 0 -0.058393,-0.0036 1.8496414,1.8496414 0 0 0 -0.05891,-0.0021 1.8496414,1.8496414 0 0 0 -0.047024,-5.17e-4 z m 2.6333791,0 a 1.8583909,1.8583909 0 0 1 0.03824,0 1.8583909,1.8583909 0 0 1 0.05891,0.0016 1.8583909,1.8583909 0 0 1 0.05839,0.0036 1.8583909,1.8583909 0 0 0 -0.05839,-0.0031 1.8583909,1.8583909 0 0 0 -0.05891,-0.0015 1.8583909,1.8583909 0 0 0 -0.03824,0 c -0.127743,0 -0.251212,0.01148 -0.370513,0.03462 0.119301,-0.02315 0.24277,-0.03514 0.370513,-0.03514 z m 0.16071,0.0057 a 1.8583909,1.8583909 0 0 1 0.05374,0.0046 1.8583909,1.8583909 0 0 1 0.05839,0.0072 1.8583909,1.8583909 0 0 1 0.05839,0.0093 1.8583909,1.8583909 0 0 0 -0.05839,-0.0093 1.8583909,1.8583909 0 0 0 -0.05839,-0.0067 1.8583909,1.8583909 0 0 0 -0.05374,-0.0052 z m 0.228406,0.03204 a 1.8583909,1.8583909 0 0 1 0.05788,0.0124 1.8583909,1.8583909 0 0 0 -0.05788,-0.0124 z m 0.114719,0.02687 a 1.8583909,1.8583909 0 0 1 0.05684,0.01654 1.8583909,1.8583909 0 0 1 0.05633,0.01809 1.8583909,1.8583909 0 0 0 -0.05633,-0.01809 1.8583909,1.8583909 0 0 0 -0.05684,-0.01654 z m -1.050044,0.01395 c -0.05743,0.01719 -0.113857,0.03725 -0.168979,0.05994 -0.05512,0.0227 -0.109002,0.04786 -0.161744,0.07596 -0.105484,0.0562 -0.205846,0.122948 -0.301267,0.199984 -0.04771,0.03852 -0.09446,0.07997 -0.139524,0.1235044 a 1.8496414,1.8496414 0 0 0 -0.04237,-0.040823 1.8496414,1.8496414 0 0 0 -0.04341,-0.03927 1.8496414,1.8496414 0 0 0 -0.04444,-0.03824 1.8496414,1.8496414 0 0 1 0.04444,0.03772 1.8496414,1.8496414 0 0 1 0.04341,0.03927 1.8496414,1.8496414 0 0 1 0.04237,0.040824 c 0.04506,-0.043529 0.09181,-0.08447 0.139524,-0.1229874 0.09542,-0.07704 0.195783,-0.143782 0.301267,-0.199984 0.05274,-0.0281 0.106623,-0.05378 0.161744,-0.07648 0.05512,-0.0227 0.111554,-0.04224 0.168979,-0.05943 z m -1.4629313,0.02584 a 1.8496414,1.8496414 0 0 1 0.054776,0.02015 1.8496414,1.8496414 0 0 1 0.05426,0.0217 1.8496414,1.8496414 0 0 1 0.05374,0.02377 1.8496414,1.8496414 0 0 1 0,5.17e-4 1.8496414,1.8496414 0 0 0 -0.05374,-0.02377 1.8496414,1.8496414 0 0 0 -0.05426,-0.0217 1.8496414,1.8496414 0 0 0 -0.054776,-0.02067 z m -1.3580298,0.03927 c -0.1136339,0.04758 -0.2226205,0.106849 -0.3265886,0.177763 0.1039681,-0.07091 0.2129547,-0.130188 0.3265886,-0.177763 z m 1.5213241,0.02687 a 1.8496414,1.8496414 0 0 1 0.05271,0.02532 1.8496414,1.8496414 0 0 1 0.05219,0.02687 1.8496414,1.8496414 0 0 1 0.05116,0.02894 1.8496414,1.8496414 0 0 1 0.05012,0.03049 1.8496414,1.8496414 0 0 1 0,5.17e-4 1.8496414,1.8496414 0 0 0 -0.05012,-0.03049 1.8496414,1.8496414 0 0 0 -0.05116,-0.02894 1.8496414,1.8496414 0 0 0 -0.05219,-0.02687 1.8496414,1.8496414 0 0 0 -0.05271,-0.02584 z m 0.206702,0.112136 a 1.8496414,1.8496414 0 0 1 0.04909,0.03152 1.8496414,1.8496414 0 0 1 0.04806,0.03359 1.8496414,1.8496414 0 0 1 0.04754,0.03462 1.8496414,1.8496414 0 0 1 0.04599,0.03669 1.8496414,1.8496414 0 0 1 0,5.17e-4 1.8496414,1.8496414 0 0 0 -0.04599,-0.03669 1.8496414,1.8496414 0 0 0 -0.04754,-0.03462 1.8496414,1.8496414 0 0 0 -0.04806,-0.03359 1.8496414,1.8496414 0 0 0 -0.04909,-0.03204 z m 2.995623,0.2862815 c 0.09318,0.09362 0.175046,0.1932429 0.245459,0.2981671 -0.07041,-0.1049242 -0.152276,-0.2045474 -0.245459,-0.2981671 z m -5.4073147,0.063561 a 1.9021383,1.9021383 0 0 0 -0.021187,0.022737 1.9021383,1.9021383 0 0 1 0.021187,-0.022737 z m -0.07648,0.088881 a 1.9021383,1.9021383 0 0 0 -0.021187,0.025321 1.9021383,1.9021383 0 0 0 -0.036173,0.047542 1.9021383,1.9021383 0 0 1 0.036173,-0.047542 1.9021383,1.9021383 0 0 1 0.021187,-0.025321 z M 7.675091,6.1490806 a 1.9021383,1.9021383 0 0 0 -0.029972,0.051675 1.9021383,1.9021383 0 0 1 0.029972,-0.051675 z m -0.1328058,0.266645 a 1.9021383,1.9021383 0 0 0 -0.021187,0.05581 1.9021383,1.9021383 0 0 1 0.021187,-0.05581 z m -0.026354,0.070795 a 1.9021383,1.9021383 0 0 0 -0.014986,0.04134 1.9021383,1.9021383 0 0 1 0.014986,-0.04134 z M 8.8491568,6.614159 a 0.65621147,0.65621147 0 0 1 5.167e-4,0 0.65621147,0.65621147 0 0 0 -5.167e-4,5.169e-4 0.65621147,0.65621147 0 0 0 -0.023771,0.024804 c -0.035872,0.03631 -0.067138,0.073612 -0.093532,0.1121357 0.026395,-0.038524 0.057144,-0.075826 0.093016,-0.1121357 a 0.65621147,0.65621147 0 0 1 0.024287,-0.024804 0.65621147,0.65621147 0 0 1 0,-5.169e-4 z m 2.6220102,0.012402 a 0.65446158,0.65446158 0 0 0 -0.0124,0.012919 0.65446158,0.65446158 0 0 1 0.0124,-0.012919 z M 7.4389348,6.7676348 a 1.9021383,1.9021383 0 0 0 -0.0093,0.049608 1.9021383,1.9021383 0 0 1 0.0093,-0.049608 z m -0.030488,0.2299557 a 1.9021383,1.9021383 0 0 0 -0.0031,0.056843 1.9021383,1.9021383 0 0 1 0.0031,-0.056843 z m 1.2195398,0.00517 c -0.00846,0.045742 -0.012402,0.093428 -0.012402,0.1441744 V 9.8170036 H 8.6150678 V 7.1469349 c 0,-0.050747 0.00446,-0.098433 0.012919,-0.1441744 z" />
  <path
     d="M 1.0583123,1.82564 V 6.0708908 H 2.8064596 V 6.923091 l 0.00175,3.342303 c 0,2.752588 2.3903597,4.841966 5.1446978,4.841966 H 15.874688 V 6.7043535 c 0,-2.7560882 -2.38861,-4.8419656 -5.144699,-4.8419656 l -2.3046142,-0.00524 z m 1.1251839,1.1286838 6.2383833,0.027998 v 0.00524 h 2.3081145 c 2.22237,0 4.024764,1.6641524 4.024764,3.7185316 v 6.1473876 c 0,0.682461 -0.615965,1.128684 -1.317673,1.128684 H 7.9546573 c -2.2206195,0 -4.0212638,-1.664152 -4.0212638,-3.718531 L 3.9281435,6.0498891 A 1.1111847,1.1111847 0 0 0 2.8834552,4.9492065 h -0.699959 z m 2.826084,1.2494266 v 6.1071406 c 0,0.647463 0.2362361,1.216179 0.6982091,1.674652 0.3937268,0.390228 0.8679488,0.642213 1.3999182,0.69996 h 1.5066609 v -1.19868 l -1.2949239,-0.0052 c -0.6264629,0 -1.1654315,-0.612464 -1.1654315,-1.398168 V 4.2037504 Z m 4.3187464,1.0044411 c -0.5214694,0 -0.9834425,0.1924886 -1.3561702,0.5687164 A 1.9021383,1.9021383 0 0 0 7.4069398,7.1488271 V 9.8191702 H 8.6178684 V 7.1488271 c 0,-0.2029879 0.0665,-0.3622284 0.2099879,-0.5074699 A 0.65621147,0.65621147 0 0 1 9.3283266,6.4278697 c 0.2029879,0 0.3552295,0.066496 0.5004702,0.2134875 0.1452413,0.1452415 0.2099872,0.304482 0.2099872,0.5074699 v 2.6703431 h 1.212679 V 7.1488271 c 0,-0.2029879 0.06651,-0.3622284 0.209988,-0.5074699 a 0.65446158,0.65446158 0 0 1 0.50047,-0.2134875 c 0.19949,0 0.35348,0.066496 0.498722,0.2134875 0.145241,0.1452415 0.209986,0.304482 0.209986,0.5074699 l 0.0088,2.6563441 h 1.207429 l -0.0035,-2.6563441 c 0,-0.5284687 -0.192488,-0.9974411 -0.565217,-1.3719192 a 1.8583909,1.8583909 0 0 0 -1.35616,-0.5687164 c -0.510971,0 -0.957194,0.1889888 -1.317672,0.5372184 A 1.8496414,1.8496414 0 0 0 9.3283956,5.2081915 Z"
     fill="#ffffff"
     fill-rule="evenodd"
     overflow="visible"
     id="path860"
     style="stroke-width:1.74989" />
  <path
     id="rect887"
     style="opacity:1;fill:#3d8c40;fill-opacity:1;stroke:none;stroke-width:0.328865"
     d="m 47.923196,37.059645 2.9e-4,2.25937 c 2.92e-4,2.26826 -1.825498,4.090293 -4.09375,4.095703 l -11.270852,9.02e-4 v 4.530533 l 11.102031,-9.02e-4 c 4.890431,-3.97e-4 8.826862,-3.937692 8.826172,-8.828124 l -2.9e-4,-2.057482 z"
     transform="scale(0.26457812)"
     sodipodi:nodetypes="cssccsscc" />
</svg>
