<?xml version="1.0" encoding="UTF-8" standalone="no"?>
<svg
   xmlns:dc="http://purl.org/dc/elements/1.1/"
   xmlns:cc="http://creativecommons.org/ns#"
   xmlns:rdf="http://www.w3.org/1999/02/22-rdf-syntax-ns#"
   xmlns:svg="http://www.w3.org/2000/svg"
   xmlns="http://www.w3.org/2000/svg"
   xmlns:sodipodi="http://sodipodi.sourceforge.net/DTD/sodipodi-0.dtd"
   xmlns:inkscape="http://www.inkscape.org/namespaces/inkscape"
   version="1.1"
   viewBox="0 0 64 64"
   id="svg30"
   sodipodi:docname="distributor-logo-antergos.svg"
   width="64"
   height="64"
   inkscape:version="1.0.1 (3bc2e813f5, 2020-09-07)">
  <metadata
     id="metadata34">
    <rdf:RDF>
      <cc:Work
         rdf:about="">
        <dc:format>image/svg+xml</dc:format>
        <dc:type
           rdf:resource="http://purl.org/dc/dcmitype/StillImage" />
        <dc:title></dc:title>
      </cc:Work>
    </rdf:RDF>
  </metadata>
  <sodipodi:namedview
     pagecolor="#ffffff"
     bordercolor="#666666"
     borderopacity="1"
     objecttolerance="10"
     gridtolerance="10"
     guidetolerance="10"
     inkscape:pageopacity="0"
     inkscape:pageshadow="2"
     inkscape:window-width="1920"
     inkscape:window-height="932"
     id="namedview32"
     showgrid="false"
     inkscape:pagecheckerboard="true"
     inkscape:zoom="2.8284271"
     inkscape:cx="-0.022248232"
     inkscape:cy="20.341525"
     inkscape:window-x="0"
     inkscape:window-y="36"
     inkscape:window-maximized="1"
     inkscape:current-layer="svg30" />
  <defs
     id="defs12">
    <linearGradient
       id="linearGradient3764"
       x1="1"
       x2="47"
       gradientTransform="rotate(-90,70.088836,-22.088836)"
       gradientUnits="userSpaceOnUse">
      <stop
         style="stop-color:#0f3f87"
         offset="0"
         id="stop2" />
      <stop
         style="stop-color:#114799"
         offset="1"
         id="stop4" />
    </linearGradient>
    <radialGradient
       id="radialGradient4185"
       cx="24"
       cy="24.02"
       r="15"
       gradientTransform="matrix(1,0,0,0.99837,92.177673,0.039099)"
       gradientUnits="userSpaceOnUse">
      <stop
         style="stop-color:#839cc1"
         offset="0"
         id="stop7" />
      <stop
         style="stop-color:#7692bb"
         offset="1"
         id="stop9" />
    </radialGradient>
  </defs>
  <g
     transform="translate(1,1)"
     id="g22" />
  <path
     style="fill:#7986cb;fill-opacity:1;stroke:none;stroke-width:1px;stroke-linecap:butt;stroke-linejoin:miter;stroke-opacity:1"
     d="m 42.36348,7.6549171 c 0,0 -8.606541,-7.52782624 -17.306756,-2.406227 C 16.35651,10.370289 4.485344,28.68825 2.849944,41.610837 1.214554,54.533425 13.936596,59.300451 30.906204,60.435393 47.875811,61.570335 61.98282,52.945634 61.265487,44.121982 60.548154,35.29833 52.384512,16.48051 42.36348,7.6549171 Z"
     id="path875" />
  <path
     d="m 33.140061,18.25474 c -4.140161,3.10162 -14.291912,7.83336 -16.56648,9.198673 -2.274568,1.365313 -2.07131,5.371315 -2.073581,8.249983 0.0063,1.390464 0.178274,2.775223 0.512269,4.124992 C 21.058737,35.430185 33.588562,26.06971 33.140061,18.25474 Z m 3.524038,0.595119 c -1.596319,9.100653 -6.232413,21.672835 -14.547742,31.298593 2.911038,1.991061 6.355655,3.056293 9.882476,3.056111 0.935507,-0.0027 1.869296,-0.08031 2.792392,-0.232213 4.999,-10.388911 6.525305,-22.593519 1.879876,-34.120157 l -0.007,-0.0023 z m 4.41205,1.910215 C 45.778756,31.773277 45.991132,36.880799 45.9993,46.171657 48.265185,43.150494 49.493194,39.477518 49.5,35.701063 49.4917,29.591053 46.297986,23.927557 41.073815,20.758908"
     style="fill:#ffffff;fill-opacity:1;stroke-width:1.1669"
     id="path877"
     sodipodi:nodetypes="czcccccccccccccc" />
</svg>
