<?xml version="1.0" encoding="UTF-8"?>
<!-- Created with Inkscape (http://www.inkscape.org/) -->
<svg width="64" height="64" version="1.1" viewBox="0 0 16.933 16.933" xmlns="http://www.w3.org/2000/svg" xmlns:cc="http://creativecommons.org/ns#" xmlns:dc="http://purl.org/dc/elements/1.1/" xmlns:rdf="http://www.w3.org/1999/02/22-rdf-syntax-ns#" xmlns:xlink="http://www.w3.org/1999/xlink">
 <defs>
  <linearGradient id="linearGradient978" x1="1.9643" x2="14.969" y1="14.924" y2="2.3319" gradientUnits="userSpaceOnUse">
   <stop stop-color="#007deb" offset="0"/>
   <stop stop-color="#009bf5" offset="1"/>
  </linearGradient>
 </defs>
 <metadata>
  <rdf:RDF>
   <cc:Work rdf:about="">
    <dc:format>image/svg+xml</dc:format>
    <dc:type rdf:resource="http://purl.org/dc/dcmitype/StillImage"/>
    <dc:title/>
   </cc:Work>
  </rdf:RDF>
 </metadata>
 <circle cx="-330.35" cy="-328.38" r="0" fill="#5e4aa6" stroke-width=".26458"/>
 <path d="m16.404 8.4665c0 0.95152-0.16748 1.8639-0.47463 2.7093-0.2135 0.58767-0.49438 1.1433-0.83391 1.6572-0.14221 0.21607-0.29514 0.42473-0.45746 0.62527-0.51964 0.64177-1.1372 1.2006-1.8304 1.6543-0.2553 0.16716-0.52064 0.32009-0.79534 0.45711-1.0668 0.53387-2.271 0.83419-3.5456 0.83419-1.2745 0-2.4787-0.30032-3.5456-0.83421-0.27473-0.13706-0.54038-0.28997-0.79568-0.45711-0.70205-0.45972-1.327-1.0274-1.8509-1.6798-0.16262-0.20216-0.31523-0.41274-0.45745-0.63076-0.33045-0.50538-0.6042-1.0507-0.81348-1.627-0.3071-0.84527-0.47429-1.7572-0.47429-2.7085 0-4.3837 3.5536-7.9373 7.9373-7.9373 2.2005 0 4.1916 0.89545 5.6294 2.3416 0.41435 0.41661 0.78273 0.87927 1.0963 1.3795 0.29644 0.47106 0.54426 0.9758 0.73703 1.5067 0.30717 0.84557 0.47466 1.7579 0.47466 2.7093z" fill="url(#linearGradient978)" stroke-width=".031005"/>
 <circle cx="-330.35" cy="-328.38" r="0" fill="#5e4aa6" stroke-width=".26458"/>
 <circle cx="-352.63" cy="-336.84" r="0" fill="#5e4aa6" stroke-width=".26458"/>
 <path d="m14.958 8.4665c0 0.77818-0.13697 1.5244-0.38817 2.2157-0.17461 0.48061-0.40432 0.93502-0.682 1.3553-0.1163 0.17671-0.24138 0.34736-0.37412 0.51136-0.42498 0.52486-0.93004 0.98189-1.497 1.3529-0.20879 0.13671-0.4258 0.26178-0.65045 0.37384-0.87246 0.43662-1.8573 0.68223-2.8997 0.68223-1.0423 0-2.0272-0.24561-2.8997-0.68224-0.22468-0.11209-0.44194-0.23715-0.65073-0.37384-0.57416-0.37597-1.0853-0.84024-1.5137-1.3738-0.133-0.16533-0.2578-0.33755-0.37412-0.51586-0.27025-0.41332-0.49413-0.8593-0.66529-1.3306-0.25116-0.69129-0.38789-1.4371-0.38789-2.2151 0-3.5851 2.9062-6.4914 6.4914-6.4914 1.7996 0 3.428 0.73233 4.6039 1.915 0.33887 0.34072 0.64014 0.71909 0.89659 1.1282 0.24244 0.38525 0.44511 0.79804 0.60276 1.2322 0.25121 0.69153 0.38819 1.4377 0.38819 2.2157z" fill="#fafafa" stroke-width=".025357"/>
 <path d="m7.8372 11.167-0.39474-1.2973h-1.9893l-0.39594 1.2985h-1.2456l1.9255-5.4782h1.4141l1.9328 5.4782h-1.2468m-0.67153-2.2685c-0.36585-1.177-0.57165-1.8413-0.61858-1.9978a6.2725 6.2725 0 0 1-0.09748-0.36465c-0.081836 0.31892-0.31771 1.106-0.70523 2.3624h1.4213m5.1605 2.2673-0.22024-0.56563h-0.02888c-0.19256 0.24069-0.38992 0.40918-0.59331 0.50305-0.20218 0.09267-0.46574 0.1384-0.79188 0.1384-0.39955 0-0.71606-0.11433-0.94713-0.34299-0.22866-0.22866-0.34299-0.5548-0.34299-0.97842 0-0.44288 0.15404-0.76781 0.46213-0.97721 0.3105-0.21181 0.77864-0.32855 1.4032-0.35021l0.72328-0.024069v-0.18172c0-0.42242-0.21662-0.63423-0.64987-0.63423-0.33216 0-0.72449 0.10109-1.1746 0.30207l-0.37668-0.76901a3.3914 3.3914 0 0 1 1.597-0.37668c0.55961 0 0.98925 0.12155 1.2877 0.36585s0.44769 0.61377 0.44769 1.112v2.78h-0.79429m-0.33697-1.9328-0.43926 0.014442c-0.33095 0.00963-0.57766 0.069801-0.73893 0.17932-0.16247 0.10952-0.2431 0.2768-0.2431 0.50064 0 0.32012 0.18413 0.48139 0.55239 0.48139 0.26356 0 0.47416-0.07702 0.63062-0.22866a0.79669 0.79669 0 0 0 0.23829-0.60414v-0.34299" fill="#e8eef1" font-size="24" font-weight="700" letter-spacing="0" stroke-width=".88575" word-spacing="0"/>
</svg>
