<?xml version="1.0" encoding="UTF-8" standalone="no"?>
<svg
   xmlns:dc="http://purl.org/dc/elements/1.1/"
   xmlns:cc="http://creativecommons.org/ns#"
   xmlns:rdf="http://www.w3.org/1999/02/22-rdf-syntax-ns#"
   xmlns:svg="http://www.w3.org/2000/svg"
   xmlns="http://www.w3.org/2000/svg"
   xmlns:sodipodi="http://sodipodi.sourceforge.net/DTD/sodipodi-0.dtd"
   xmlns:inkscape="http://www.inkscape.org/namespaces/inkscape"
   inkscape:version="1.0 (4035a4fb49, 2020-05-01)"
   sodipodi:docname="freeoffice-presentations.svg"
   id="svg19"
   viewBox="0 0 16.933 16.933"
   version="1.1"
   height="64"
   width="64">
  <metadata
     id="metadata23">
    <rdf:RDF>
      <cc:Work
         rdf:about="">
        <dc:format>image/svg+xml</dc:format>
        <dc:type
           rdf:resource="http://purl.org/dc/dcmitype/StillImage" />
        <dc:title></dc:title>
      </cc:Work>
    </rdf:RDF>
  </metadata>
  <sodipodi:namedview
     inkscape:current-layer="svg19"
     inkscape:window-maximized="1"
     inkscape:window-y="36"
     inkscape:window-x="0"
     inkscape:cy="27.149381"
     inkscape:cx="5.5745382"
     inkscape:zoom="5.9609375"
     showgrid="false"
     id="namedview21"
     inkscape:window-height="932"
     inkscape:window-width="1920"
     inkscape:pageshadow="2"
     inkscape:pageopacity="0"
     guidetolerance="10"
     gridtolerance="10"
     objecttolerance="10"
     borderopacity="1"
     bordercolor="#666666"
     pagecolor="#ffffff" />
  <defs
     id="defs7">
    <linearGradient
       gradientUnits="userSpaceOnUse"
       gradientTransform="matrix(0.28646,0,0,0.28646,2.0479737,-2.2343674)"
       y2="56.734"
       y1="5.759"
       x2="18.438"
       x1="19.22"
       id="a">
      <stop
         id="stop2"
         offset="0"
         stop-color="#f68855" />
      <stop
         id="stop4"
         offset="1"
         stop-color="#f69655" />
    </linearGradient>
    <linearGradient
       gradientUnits="userSpaceOnUse"
       gradientTransform="matrix(0.91665,0,0,0.91665,-18.673592,0.71168)"
       y2=".64687"
       y1="16.296"
       x2="16.388"
       x1=".73911"
       id="linearGradient1005">
      <stop
         id="stop2-3"
         offset="0"
         stop-color="#ff8228" />
      <stop
         id="stop4-6"
         offset=".48355"
         stop-color="#ff5a1e" />
      <stop
         id="stop6"
         offset="1"
         stop-color="#ff8c55" />
    </linearGradient>
    <linearGradient
       id="b"
       x1="399.57"
       x2="399.57"
       y1="545.8"
       y2="517.8"
       gradientTransform="matrix(2.1429 0 0 2.1429 -826.36 -1107.5)"
       gradientUnits="userSpaceOnUse">
      <stop
         stop-color="#3889e9"
         offset="0"
         id="stop856" />
      <stop
         stop-color="#5ea5fb"
         offset="1"
         id="stop858" />
    </linearGradient>
    <linearGradient
       id="a-7"
       x1="399.99"
       x2="399.99"
       y1="545.14"
       y2="518.14"
       gradientTransform="matrix(2.1429 0 0 2.1429 -826.36 -1107.5)"
       gradientUnits="userSpaceOnUse">
      <stop
         stop-color="#ff9243"
         offset="0"
         id="stop861" />
      <stop
         stop-color="#fb3021"
         offset="1"
         id="stop863" />
    </linearGradient>
    <filter
       id="c"
       x="-.036"
       y="-.036"
       width="1.072"
       height="1.072"
       color-interpolation-filters="sRGB">
      <feGaussianBlur
         stdDeviation="0.41999874"
         id="feGaussianBlur866" />
    </filter>
    <linearGradient
       id="d"
       x1="31.121"
       x2="31.525"
       y1="18.007"
       y2="47.409"
       gradientUnits="userSpaceOnUse">
      <stop
         stop-color="#fff"
         offset="0"
         id="stop869" />
      <stop
         stop-color="#fdeae1"
         offset="1"
         id="stop871" />
    </linearGradient>
    <filter
       id="e"
       x="-.060001"
       y="-.059999"
       width="1.12"
       height="1.12"
       color-interpolation-filters="sRGB">
      <feGaussianBlur
         stdDeviation="0.70000967"
         id="feGaussianBlur874" />
    </filter>
    <linearGradient
       id="linearGradient978"
       x1="1.9643"
       x2="14.969"
       y1="14.924"
       y2="2.3319"
       gradientTransform="translate(-1.53e-4,-8.2737952e-5)"
       gradientUnits="userSpaceOnUse">
      <stop
         stop-color="#ff673c"
         offset="0"
         id="stop923" />
      <stop
         stop-color="#ff8f14"
         offset="1"
         id="stop925" />
    </linearGradient>
  </defs>
  <path
     style="fill:url(#linearGradient978)"
     d="m 16.403883,8.4664867 c 0,0.9515287 -0.167478,1.8639003 -0.474626,2.7092803 -0.213499,0.587681 -0.494391,1.143295 -0.833898,1.657211 -0.142208,0.216071 -0.295137,0.424727 -0.457455,0.625278 -0.519632,0.64176 -1.13721,1.200602 -1.830405,1.654301 -0.255299,0.16716 -0.520636,0.320086 -0.795348,0.457111 -1.066805,0.533866 -2.2710062,0.834189 -3.545611,0.834189 -1.2745,0 -2.4787,-0.300323 -3.545612,-0.834215 C 4.64619,15.432583 4.380554,15.279664 4.125236,15.11253 3.423178,14.652799 2.798244,14.085121 2.274327,13.432724 2.111707,13.230565 1.959108,13.019982 1.816871,12.80197 1.486413,12.296599 1.212681,11.751277 1.0034,11.174973 0.696304,10.329699 0.529117,9.4177773 0.529117,8.4664867 c 0,-4.3837949 3.553548,-7.93734361 7.937343,-7.93734361 2.200497,0 4.191711,0.89543821 5.629429,2.34159571 0.414356,0.4166047 0.782728,0.8792725 1.096306,1.3795103 0.296433,0.4710549 0.544264,0.9757906 0.737035,1.506693 0.307175,0.8455653 0.474653,1.75791 0.474653,2.70928 z"
     fill="url(#linearGradient978)"
     stroke-width="0.0310059"
     id="path930" />
  <path
     d="m 10.716965,4.856965 v 1.018 q -0.59427,-0.28421 -1.1214,-0.42374 -0.52709,-0.13952 -1.018,-0.13952 -0.85264,0 -1.3177,0.33072 -0.45991,0.33072 -0.45991,0.94049 0,0.51159 0.30488,0.77513 0.31005,0.25838 1.1679,0.41857 l 0.63044,0.12919 q 1.1679,0.2222 1.7208,0.78547 0.55809,0.55809 0.55809,1.4986 0,1.1214 -0.75446,1.7001 -0.74929,0.57876 -2.2014,0.57876 -0.54776,0 -1.1679,-0.12402 -0.61494,-0.12402 -1.2764,-0.3669 v -1.0748 q 0.63561,0.35656 1.2454,0.53742 0.60979,0.18086 1.1989,0.18086 0.89398,0 1.3797,-0.35139 0.48575,-0.35139 0.48575,-1.0025 0,-0.56843 -0.35139,-0.88882 -0.34623,-0.32039 -1.142,-0.48058 l -0.63561,-0.12402 q -1.1679,-0.23254 -1.6898,-0.72862 -0.5219,-0.49608 -0.52192,-1.3797 0,-1.0232 0.71829,-1.6123 0.72346,-0.5891 1.9895,-0.5891 0.54259,0 1.1059,0.098183 0.56326,0.098183 1.1524,0.29455 z"
     fill="#ffffff"
     stroke-width="0.26458"
     id="path15" />
  <g
     transform="translate(-19.527328)"
     fill="#5e4aa6"
     stroke-width="0.26458"
     id="g21">
    <circle
       cx="-330.35001"
       cy="-328.38"
       r="0"
       id="circle13" />
    <circle
       cx="-312.10999"
       cy="-326.25"
       r="0"
       id="circle15" />
    <circle
       cx="-306.01999"
       cy="-333.07001"
       r="0"
       id="circle17" />
    <circle
       cx="-308.84"
       cy="-326.01001"
       r="0"
       id="circle19" />
  </g>
</svg>
