<?xml version="1.0" encoding="UTF-8"?>
<!-- Created with Inkscape (http://www.inkscape.org/) -->
<svg width="64" height="64" version="1.1" viewBox="0 0 16.933 16.933" xmlns="http://www.w3.org/2000/svg" xmlns:cc="http://creativecommons.org/ns#" xmlns:dc="http://purl.org/dc/elements/1.1/" xmlns:rdf="http://www.w3.org/1999/02/22-rdf-syntax-ns#" xmlns:xlink="http://www.w3.org/1999/xlink">
 <defs>
  <linearGradient id="a" x1="301" x2="104" y1="33.559" y2="33.559" gradientTransform="matrix(.037607 0 0 .037607 -.55376 6.2652)" gradientUnits="userSpaceOnUse">
   <stop stop-color="#f9f06b" offset="0"/>
   <stop stop-color="#f9f06b" stop-opacity="0" offset="1"/>
  </linearGradient>
 </defs>
 <metadata>
  <rdf:RDF>
   <cc:Work rdf:about="">
    <dc:format>image/svg+xml</dc:format>
    <dc:type rdf:resource="http://purl.org/dc/dcmitype/StillImage"/>
    <dc:title/>
   </cc:Work>
  </rdf:RDF>
 </metadata>
 <circle cx="-330.35" cy="-328.38" r="0" fill="#5e4aa6" stroke-width=".26458"/>
 <circle cx="-330.35" cy="-328.38" r="0" fill="#5e4aa6" stroke-width=".26458"/>
 <path d="m16.404 8.4665c0 0.95152-0.16748 1.8639-0.47463 2.7093-0.2135 0.58767-0.49438 1.1433-0.83391 1.6572-0.14221 0.21607-0.29514 0.42473-0.45746 0.62527-0.51964 0.64177-1.1372 1.2006-1.8304 1.6543-0.2553 0.16716-0.52064 0.32009-0.79534 0.45711-1.0668 0.53387-2.271 0.83419-3.5456 0.83419-1.2745 0-2.4787-0.30032-3.5456-0.83421-0.27473-0.13706-0.54038-0.28997-0.79568-0.45711-0.70205-0.45972-1.327-1.0274-1.8509-1.6798-0.16262-0.20216-0.31523-0.41274-0.45745-0.63076-0.33045-0.50538-0.6042-1.0507-0.81348-1.627-0.3071-0.84527-0.47429-1.7572-0.47429-2.7085 0-4.3837 3.5536-7.9373 7.9373-7.9373 2.2005 0 4.1916 0.89545 5.6294 2.3416 0.41435 0.41661 0.78273 0.87927 1.0963 1.3795 0.29644 0.47106 0.54426 0.9758 0.73703 1.5067 0.30717 0.84557 0.47466 1.7579 0.47466 2.7093z" fill="#fafafa" stroke-width=".031005"/>
 <path d="m15.055 8.4665c0 0.78983-0.13902 1.5472-0.39397 2.2489-0.17722 0.48781-0.41037 0.94902-0.6922 1.3756-0.11804 0.17935-0.24499 0.35256-0.37972 0.51902-0.43134 0.53271-0.94395 0.99658-1.5194 1.3732-0.21192 0.13875-0.43217 0.2657-0.66019 0.37943-0.88552 0.44315-1.8851 0.69243-2.9431 0.69243-1.0579 0-2.0575-0.24929-2.9431-0.69245-0.22804-0.11377-0.44855-0.2407-0.66047-0.37943-0.58275-0.3816-1.1015-0.85281-1.5364-1.3943-0.13499-0.16781-0.26166-0.3426-0.37971-0.52357-0.2743-0.4195-0.50153-0.87215-0.67524-1.3505-0.25491-0.70163-0.39369-1.4586-0.39369-2.2482 0-3.6388 2.9497-6.5885 6.5885-6.5885 1.8266 0 3.4793 0.74328 4.6728 1.9437 0.34394 0.34581 0.64972 0.72985 0.91 1.1451 0.24606 0.39101 0.45177 0.80998 0.61178 1.2507 0.25497 0.70188 0.394 1.4592 0.394 2.2489z" fill="#393545" stroke="#241f31" stroke-width=".50029"/>
 <path d="m7.7816 2.165c-0.11555 0.012428-0.23034 0.028166-0.34394 0.046721v1.1039h-1.3723v-0.71622c-0.11634 0.047682-0.23119 0.097809-0.34394 0.15209v0.56413h-0.94684c-0.27333 0.19635-0.53102 0.41323-0.7694 0.64961v1.0666h-0.86433c-0.072343 0.11201-0.14144 0.22624-0.20676 0.34295h1.0711v1.3733h-1.3728v-0.76145c-0.15001 0.35278-0.26744 0.72276-0.3519 1.1049h0.00845v1.3728h-0.15955c0 0.1157 0.00879 0.22929 0.014911 0.34345h0.14463v1.0487c0.058973 0.26255 0.12867 0.52125 0.21919 0.77039 0.038414 0.10578 0.080477 0.21005 0.12426 0.31313v-0.41651h1.3728v1.3728h-0.86532c0.00622 0.0096 0.011628 0.01974 0.017892 0.02932 0.070024 0.10734 0.14442 0.21148 0.22068 0.31412h0.62675v0.7182c0.11064 0.10984 0.22499 0.21561 0.34345 0.3171v-1.0353h1.3728v1.3723h-0.94286c0.073902 0.05305 0.14594 0.10864 0.22217 0.15855 0.098492 0.06448 0.19896 0.12586 0.3012 0.1849h0.41949v0.21969c0.11248 0.0542 0.22689 0.10496 0.34295 0.15259v-0.37228h1.3728v0.76045c0.11348 0.01855 0.22802 0.03478 0.34345 0.04721v-0.80767h1.3728v0.80767c0.11556-0.01245 0.22984-0.02863 0.34345-0.04721v-0.76045h1.3723v0.37227c0.1164-0.04777 0.23115-0.0987 0.34394-0.15309v-0.21919h0.418c0.10217-0.05903 0.20271-0.12041 0.3012-0.1849 0.07634-0.04997 0.14867-0.10544 0.22267-0.15855h-0.94236v-1.3723h1.3728v1.0348c0.11849-0.10154 0.23279-0.2072 0.34344-0.3171v-0.71771h0.62675c0.07021-0.09454 0.13845-0.19077 0.20328-0.28927 0.01172-0.01776 0.02225-0.0363 0.0338-0.05418h-0.86384v-1.3728h1.3728v0.41353c0.04331-0.10205 0.08523-0.20496 0.12326-0.30965 0.09081-0.24996 0.16059-0.50938 0.21969-0.77288v-1.0472h0.14414c0.0061-0.11403 0.01491-0.22739 0.01491-0.34295h-0.15905v-1.3733h0.0039c-0.059576-0.26943-0.13082-0.53441-0.22359-0.78978-0.038297-0.10547-0.079601-0.20984-0.12326-0.31263v0.75946h-1.3728v-1.3733h1.0716c-0.05246-0.093671-0.10698-0.18572-0.16402-0.27635-0.01418-0.022613-0.02977-0.044184-0.04423-0.066601h-0.86334v-1.0656c-0.23869-0.23674-0.49667-0.454-0.77039-0.65061h-0.94535v-0.56363c-0.11236-0.054125-0.22702-0.10353-0.34295-0.1511v0.71473h-1.3733v-1.1039c-0.11346-0.018562-0.22754-0.03427-0.34295-0.046721v1.1506h-1.3723zm-3.433 1.4946h1.3728v1.3723h-1.3728zm1.7157 0h1.3728v1.3723h-1.3728zm1.7162 0h1.3728v1.3723h-1.3728zm1.7157 0h1.3728v1.3723h-1.3728zm1.7162 0h1.3728v1.3723h-1.3728zm-6.8639 1.7152h1.3728v1.3733h-1.3728zm1.7157 0h1.3728v1.3733h-1.3728zm1.7162 0h1.3728v1.3733h-1.3728zm1.7157 0h1.3728v1.3733h-1.3728zm1.7162 0h1.3728v1.3733h-1.3728zm-8.5802 1.7162h1.3728v1.3733h-1.3728zm1.7162 0h1.3728v1.3733h-1.3728zm1.7157 0h1.3728v1.3733h-1.3728zm1.7162 0h1.3728v1.3733h-1.3728zm1.7157 0h1.3728v1.3733h-1.3728zm1.7162 0h1.3728v1.3733h-1.3728zm1.7162 0h1.3728v1.3733h-1.3728zm-10.296 1.7162h1.3728v1.3728h-1.3728zm1.7162 0h1.3728v1.3728h-1.3728zm1.7157 0h1.3728v1.3728h-1.3728zm1.7162 0h1.3728v1.3728h-1.3728zm1.7157 0h1.3728v1.3728h-1.3728zm1.7162 0h1.3728v1.3728h-1.3728zm1.7162 0h1.3728v1.3728h-1.3728zm-8.5802 1.7162h1.3728v1.3728h-1.3728zm1.7157 0h1.3728v1.3728h-1.3728zm1.7162 0h1.3728v1.3728h-1.3728zm1.7157 0h1.3728v1.3728h-1.3728zm1.7162 0h1.3728v1.3728h-1.3728zm-5.1482 1.7162h1.3728v1.3723h-1.3728zm1.7162 0h1.3728v1.3723h-1.3728zm1.7157 0h1.3728v1.3723h-1.3728z" fill="#fff" opacity=".1" stroke-width="1.2972"/>
 <path d="m2.1541 8.2209h3.9114l1.5037-3.4594 0.9028 5.8665 1.2035-2.4071h5.1138" fill="none" opacity=".236" stroke="#e5a50a" stroke-miterlimit="10" stroke-width=".60149"/>
 <path d="m2.1541 8.2209h3.9114l1.5037-3.4594 0.9028 5.8665 1.2035-2.4071h0.90223" fill="none" stroke="url(#a)" stroke-linecap="round" stroke-miterlimit="10" stroke-width=".60149"/>
</svg>
