<?xml version="1.0" encoding="UTF-8"?>
<!-- Created with Inkscape (http://www.inkscape.org/) -->
<svg width="64" height="64" version="1.1" viewBox="0 0 16.933 16.933" xmlns="http://www.w3.org/2000/svg" xmlns:cc="http://creativecommons.org/ns#" xmlns:dc="http://purl.org/dc/elements/1.1/" xmlns:rdf="http://www.w3.org/1999/02/22-rdf-syntax-ns#">
 <defs>
  <linearGradient id="linearGradient978" x1="1.9643" x2="14.969" y1="14.924" y2="2.3319" gradientTransform="translate(-1.0375e-4,-2.625e-5)" gradientUnits="userSpaceOnUse">
   <stop stop-color="#ff673c" offset="0"/>
   <stop stop-color="#ff8f14" offset="1"/>
  </linearGradient>
  <linearGradient id="linearGradient1278" x1="31.261" x2="41.844" y1="47.939" y2="27.839" gradientTransform="matrix(11.154,0,0,11.154,-261.04,-256.45)" gradientUnits="userSpaceOnUse">
   <stop stop-color="#ff3f54" offset="0"/>
   <stop stop-color="#ffaa14" offset="1"/>
  </linearGradient>
  <linearGradient id="linearGradient32549-7" x1="-6.1472" x2="-6.1472" y1="-137.82" y2="-100.78" gradientTransform="matrix(.090443 0 0 .090443 7.9768 15.071)" gradientUnits="userSpaceOnUse">
   <stop stop-color="#32b4ff" offset="0"/>
   <stop stop-color="#3287ff" offset="1"/>
  </linearGradient>
  <linearGradient id="linearGradient957-3" x1="-6.1472" x2="-6.1472" y1="-137.82" y2="-100.78" gradientTransform="matrix(.059598 0 0 .059598 4.8326 13.137)" gradientUnits="userSpaceOnUse">
   <stop stop-color="#14dc78" offset="0"/>
   <stop stop-color="#14a03c" offset="1"/>
  </linearGradient>
  <linearGradient id="linearGradient961-5" x1="-6.1472" x2="-6.1472" y1="-137.82" y2="-100.78" gradientTransform="matrix(.059598 0 0 .059598 11.037 11.356)" gradientUnits="userSpaceOnUse">
   <stop stop-color="#dc28e6" offset="0"/>
   <stop stop-color="#8c14e6" offset="1"/>
  </linearGradient>
  <linearGradient id="linearGradient963-6" x1="-6.1472" x2="-6.1472" y1="-137.82" y2="-100.78" gradientTransform="matrix(.090443 0 0 .090443 4.6675 19.997)" gradientUnits="userSpaceOnUse">
   <stop stop-color="#ffbe14" offset="0"/>
   <stop stop-color="#ff8214" offset="1"/>
  </linearGradient>
  <linearGradient id="linearGradient1342" x1="-6.1472" x2="-6.1472" y1="-137.82" y2="-100.78" gradientTransform="matrix(.059598 0 0 .059598 5.6575 19.213)" gradientUnits="userSpaceOnUse">
   <stop stop-color="#ff3c69" offset="0"/>
   <stop stop-color="#ff462b" offset="1"/>
  </linearGradient>
 </defs>
 <metadata>
  <rdf:RDF>
   <cc:Work rdf:about="">
    <dc:format>image/svg+xml</dc:format>
    <dc:type rdf:resource="http://purl.org/dc/dcmitype/StillImage"/>
    <dc:title/>
   </cc:Work>
  </rdf:RDF>
 </metadata>
 <g fill="#5e4aa6" stroke-width=".26458">
  <circle cx="-330.35" cy="-328.38" r="0"/>
  <circle cx="-311.92" cy="-329.28" r="0"/>
  <circle cx="-330.35" cy="-328.38" r="0"/>
 </g>
 <path d="m16.404 8.4665c0 0.95152-0.16748 1.8639-0.47463 2.7093-0.2135 0.58767-0.49438 1.1433-0.83391 1.6572-0.14221 0.21607-0.29514 0.42473-0.45746 0.62527-0.51964 0.64177-1.1372 1.2006-1.8304 1.6543-0.2553 0.16716-0.52064 0.32009-0.79534 0.45711-1.0668 0.53387-2.271 0.83419-3.5456 0.83419-1.2745 0-2.4787-0.30032-3.5456-0.83421-0.27473-0.13706-0.54038-0.28997-0.79568-0.45711-0.70205-0.45972-1.327-1.0274-1.8509-1.6798-0.16262-0.20216-0.31523-0.41274-0.45745-0.63076-0.33045-0.50538-0.6042-1.0507-0.81348-1.627-0.3071-0.84527-0.47429-1.7572-0.47429-2.7085 0-4.3837 3.5536-7.9373 7.9373-7.9373 2.2005 0 4.1916 0.89545 5.6294 2.3416 0.41435 0.41661 0.78273 0.87927 1.0963 1.3795 0.29644 0.47106 0.54426 0.9758 0.73703 1.5067 0.30717 0.84557 0.47466 1.7579 0.47466 2.7093z" fill="url(#linearGradient978)" stroke-width=".031005"/>
 <circle cx="-330.35" cy="-328.38" r="0" fill="#5e4aa6" stroke-width=".26458"/>
 <circle cx="-352.63" cy="-336.84" r="0" fill="#5e4aa6" stroke-width=".26458"/>
 <path d="m15.113 8.4665c0 0.7967-0.14022 1.5606-0.3974 2.2685-0.17876 0.49205-0.41394 0.95727-0.69822 1.3876-0.11907 0.18092-0.24712 0.35562-0.38302 0.52353-0.43509 0.53735-0.95216 1.0053-1.5325 1.3851-0.21376 0.13996-0.43592 0.26801-0.66593 0.38273-0.89322 0.44701-1.9015 0.69846-2.9687 0.69846-1.0671 0-2.0754-0.25145-2.9687-0.69848-0.23003-0.11476-0.45246-0.24279-0.66622-0.38273-0.58781-0.38492-1.1111-0.86023-1.5498-1.4064-0.13616-0.16926-0.26394-0.34558-0.38302-0.52812-0.27668-0.42315-0.50589-0.87974-0.68112-1.3622-0.25713-0.70774-0.39712-1.4713-0.39712-2.2678 0-3.6704 2.9754-6.6458 6.6458-6.6458 1.8425 0 3.5096 0.74975 4.7135 1.9606 0.34694 0.34883 0.65537 0.7362 0.91792 1.155 0.24821 0.39441 0.4557 0.81703 0.6171 1.2616 0.25719 0.70799 0.39742 1.4719 0.39742 2.2685z" fill="#fff" stroke-width=".02596"/>
 <g transform="matrix(.74097 0 0 .74097 -11.158 8.1886)">
  <g transform="matrix(.023719 0 0 .023719 26.322 -.72991)" fill="#fff" fill-opacity=".84722" stroke-width=".79208">
   <path d="m286.99-106.74c-7.1204 0.29603-13.983 3.8718-18.256 10.174-4.299 6.338-105.41 155.48-118.42 177.92-6.509 11.224-13.853 29.44-19.956 46.097l52.545 30.804c11.443-13.576 23.659-29.073 30.26-40.456 13.17-22.708 92.256-184.28 95.615-191.15 5.357-10.945 1.3477-24.171-9.1934-30.281-3.9518-2.2917-8.3195-3.2929-12.592-3.1153zm-379.47 177.62c-0.4862-0.0602-1.0123 0.0614-1.4379 0.37031-15.781 11.433-26.224 32.211-25.401 50.52 0.43902 9.7641 4.1916 23.324 19.606 32.504 8.298 4.94 21.726 5.9653 34.703 6.9712 12.768 0.98902 25.973 2.029 30.042 6.993 1.066 1.301 1.4808 2.875 1.2418 4.8581-0.88797 9.078-5.3026 18.022-9.5637 26.665-8.0471 16.327-16.364 33.201-1.9824 51.935 12.631 16.451 29.394 16.459 46.62 16.338 1.41-0.01 2.8361-0.0223 4.2481-0.0223 7.515 0 16.179 0.22074 24.05 2.9627 5.602 2.171 8.4199 6.6673 9.738 15.577 1.009 5.462 3.4452 9.7677 6.6663 13.006 0.47104-2.511 1.5765-4.9046 3.2895-6.9276 8.4581-9.9861 6.7967-19.325 2.5707-37.819-1.962-8.595-4.1378-18.134-4.6838-28.516-4.4981-1.502-8.8865-2.3848-13.332-2.6578-0.74699-0.0457-1.5406-0.0658-2.3746-0.0658-6.69 0-15.092 1.4795-23.223 2.8975-7.2451 1.265-14.091 2.4399-18.866 2.4399-3.359 0-4.5266-0.59495-4.9016-0.91496-4.0591-5.095 1.8242-18.931 4.3352-24.857 0.64202-1.512 1.1459-2.7198 1.4379-3.5727 4.072-11.982 7.054-24.733 1.416-36.838-4.687-10.065-15.639-18.076-27.819-20.391-3.548-0.838-7.6136-1.22-12.809-1.22-4.277 0-8.862 0.25989-13.289 0.52279-4.54 0.27004-9.2286 0.5664-13.725 0.5664-15.464 0-24.376-3.5447-29.759-11.785-9.9921-15.865 2.0115-44.285 14.335-56.118 0.75803-0.72802 0.82651-1.9161 0.15248-2.7231-0.33752-0.40355-0.79907-0.63644-1.2853-0.69712zm216.59 68.057c-2.865 0.34499-5.7491 0.92578-8.6051 1.7428-13.717 3.937-33.542 15.223-50.171 46.664-13.202 24.962-8.3292 46.325-4.0303 65.182 4.108 18.023 7.3447 32.271-4.7274 46.511-1.187 1.399-1.5156 3.3213-0.8496 5.0324 0.41905 1.076 1.1947 1.9671 2.1567 2.527 0.57097 0.33005 1.2202 0.54577 1.8953 0.63177 30.535 3.8361 76.23-14.183 104.42-62.785 12.803-22.074 18.301-43.288 15.903-61.369-0.62396-4.717-1.792-9.1775-3.442-13.332l-52.545-30.804z" fill="url(#linearGradient1278)" fill-opacity="1" stroke-width=".79208"/>
  </g>
 </g>
 <circle cx="4.1484" cy="9.163" r="1.3537" fill="url(#linearGradient963-6)" stroke-width=".02393"/>
 <circle cx="7.4579" cy="4.2375" r="1.3537" fill="url(#linearGradient32549-7)" stroke-width="1.0724" style="paint-order:normal"/>
 <g stroke-width=".01577">
  <circle cx="4.4905" cy="5.9987" r=".89201" fill="url(#linearGradient957-3)"/>
  <circle cx="10.696" cy="4.217" r=".89201" fill="url(#linearGradient961-5)"/>
  <circle cx="5.3155" cy="12.074" r=".89201" fill="url(#linearGradient1342)"/>
 </g>
</svg>
