<?xml version="1.0" encoding="UTF-8" standalone="no"?>
<svg
   xmlns:dc="http://purl.org/dc/elements/1.1/"
   xmlns:cc="http://creativecommons.org/ns#"
   xmlns:rdf="http://www.w3.org/1999/02/22-rdf-syntax-ns#"
   xmlns:svg="http://www.w3.org/2000/svg"
   xmlns="http://www.w3.org/2000/svg"
   xmlns:xlink="http://www.w3.org/1999/xlink"
   xmlns:sodipodi="http://sodipodi.sourceforge.net/DTD/sodipodi-0.dtd"
   xmlns:inkscape="http://www.inkscape.org/namespaces/inkscape"
   id="Iterm"
   width="64"
   height="64"
   enable-background="new 0 0 1024 1024"
   image-rendering="optimizeSpeed"
   version="1.1"
   viewBox="0 0 64 64"
   sodipodi:docname="gnome-power-manager.svg"
   inkscape:version="1.0.1 (3bc2e813f5, 2020-09-07)">
  <sodipodi:namedview
     pagecolor="#ffffff"
     bordercolor="#666666"
     borderopacity="1"
     objecttolerance="10"
     gridtolerance="10"
     guidetolerance="10"
     inkscape:pageopacity="0"
     inkscape:pageshadow="2"
     inkscape:window-width="1920"
     inkscape:window-height="985"
     id="namedview90"
     showgrid="false"
     inkscape:zoom="6.421875"
     inkscape:cx="-1.0085416"
     inkscape:cy="34.342726"
     inkscape:window-x="0"
     inkscape:window-y="0"
     inkscape:window-maximized="1"
     inkscape:current-layer="Iterm" />
  <metadata
     id="metadata2">
    <rdf:RDF>
      <cc:Work
         rdf:about="">
        <dc:format>image/svg+xml</dc:format>
        <dc:type
           rdf:resource="http://purl.org/dc/dcmitype/StillImage" />
        <dc:title></dc:title>
      </cc:Work>
    </rdf:RDF>
  </metadata>
  <defs
     id="defs54">
    <linearGradient
       id="linearGradient616004"
       x1="484.21"
       x2="484.56"
       y1="410.09"
       y2="397.31"
       gradientTransform="matrix(-0.33145,0,0,-0.33145,191.72797,142.29441)"
       gradientUnits="userSpaceOnUse"
       xlink:href="#linearGradient615986" />
    <linearGradient
       id="linearGradient615986">
      <stop
         stop-color="#717171"
         offset="0"
         id="stop5" />
      <stop
         stop-color="#ddd"
         offset=".47489"
         id="stop7" />
      <stop
         stop-color="#f0f0f0"
         offset=".6268"
         id="stop9" />
      <stop
         stop-color="#7a7a7a"
         offset="1"
         id="stop11" />
    </linearGradient>
    <linearGradient
       id="linearGradient616016"
       x1="372.48"
       x2="398.95"
       y1="223.5"
       y2="223.5"
       gradientTransform="matrix(0.33145,0,0,0.33145,-95.89403,-69.02159)"
       gradientUnits="userSpaceOnUse"
       xlink:href="#linearGradient615986" />
    <linearGradient
       id="linearGradient615988"
       x1="484.21"
       x2="484.56"
       y1="410.09"
       y2="397.31"
       gradientTransform="matrix(0.33145,0,0,0.33145,-127.82203,-74.59959)"
       gradientUnits="userSpaceOnUse"
       xlink:href="#linearGradient615986" />
    <clipPath
       id="clipPath239767">
      <path
         d="m1373.6 472.18h190.8v85.199h-190.8z"
         id="path16" />
    </clipPath>
    <linearGradient
       id="linearGradient239747"
       x2="1"
       gradientTransform="matrix(107.49,0,0,-107.49,1414.5,514.9)"
       gradientUnits="userSpaceOnUse">
      <stop
         stop-color="#177500"
         offset="0"
         id="stop19" />
      <stop
         stop-color="#177500"
         offset=".041463"
         id="stop21" />
      <stop
         stop-color="#13e900"
         offset=".52927"
         id="stop23" />
      <stop
         stop-color="#c5ff9b"
         offset=".84146"
         id="stop25" />
      <stop
         stop-color="#6fed07"
         offset="1"
         id="stop27" />
    </linearGradient>
    <linearGradient
       id="linearGradient239721"
       x2="1"
       gradientTransform="matrix(219.53,0,0,-219.53,1339.5,327.54)"
       gradientUnits="userSpaceOnUse">
      <stop
         stop-color="#177500"
         offset="0"
         id="stop30" />
      <stop
         stop-color="#177500"
         offset=".041463"
         id="stop32" />
      <stop
         stop-color="#13e900"
         offset=".52927"
         id="stop34" />
      <stop
         stop-color="#c5ff9b"
         offset=".84146"
         id="stop36" />
      <stop
         stop-color="#6fed07"
         offset="1"
         id="stop38" />
    </linearGradient>
    <linearGradient
       id="linearGradient207299"
       x2="1"
       gradientTransform="matrix(229.79,0,0,-229.79,1337.3,510.13)"
       gradientUnits="userSpaceOnUse">
      <stop
         stop-color="#dbd8d8"
         offset="0"
         id="stop41" />
      <stop
         stop-color="#dbd8d8"
         offset=".012195"
         id="stop43" />
      <stop
         stop-color="#fbfbfb"
         offset=".17805"
         id="stop45" />
      <stop
         stop-color="#d5d2d2"
         offset=".40732"
         id="stop47" />
      <stop
         stop-color="#fff"
         offset=".84634"
         id="stop49" />
      <stop
         stop-color="#bebaba"
         offset="1"
         id="stop51" />
    </linearGradient>
  </defs>
  <mask
     id="mask59">
    <g
       id="g">
      <path
         d="m969.75 392.05c-1.1-4.35-2.35-9-3.65-13.6-1-3.4-2-6.85-3.15-10.5-1.6-5.15-3.4-10.5-5.3-15.85-6.45-18.25-14.15-36.05-23.15-53.65-3.8-7.4-7.95-14.95-12.3-22.4-20.3-34.5-45.8-67.2-76.35-97.75-72.6-72.6-157.15-116.65-253.65-132.05-16.25-2.6-32.8-4.4-50.05-5.35-9.7-0.55-19.85-0.85-30.1-0.85-9.35 0-18.6 0.25-27.9 0.75-118.35 6.1-220.3 51.95-305.85 137.5q-138.25 138.25-138.25 333.75c0 130.35 46.1 241.65 138.25 333.8 56.7 56.65 120.55 95.9 191.1 117.55 36.75 11.25 74.8 17.85 114.75 19.95h0.4c8.5 0.45 16.6 0.7 24.5 0.7h3c10.3 0 20.5-0.3 30.1-0.8 2.5-0.15 4.75-0.3 6.95-0.45 20.2-1.45 39.9-4.05 58.7-7.7 7.95-1.55 15.8-3.3 23.4-5.15 80.8-20.3 152.15-61.6 214.65-124.1 48.6-48.6 84.4-102.5 107.35-161.8 18.45-47.65 28.65-98.8 30.55-153.5 0.2-6.05 0.3-12.25 0.3-18.5v-3c-0.2-40.65-4.95-79.5-14.3-117z"
         fill="#fff"
         id="path56" />
    </g>
  </mask>
  <g
     transform="matrix(0.11693,0,0,-0.11693,-137.85203,93.45741)"
     id="g63">
    <path
       d="m 1337.3,713.61 v -407.5 c 0,0 37.882,-10.094 114.9,-10.094 77.017,0 114.9,10.094 114.9,10.094 v 407.5 c 0,0 -42.997,10.624 -114.9,10.624 -71.9,0 -114.9,-10.624 -114.9,-10.624"
       fill="url(#linearGradient207299)"
       id="path61"
       style="fill:url(#linearGradient207299)" />
  </g>
  <g
     transform="matrix(0.11693,0,0,-0.11693,-137.85203,93.45741)"
     id="g67">
    <path
       d="m 1347,342.54 c -4.123,0 -7.496,-3.374 -7.496,-7.497 v -15.022 c 0,-4.122 3.373,-7.497 7.496,-7.497 h 204.54 c 4.123,0 7.497,3.375 7.497,7.497 v 15.022 c 0,4.123 -3.374,7.497 -7.497,7.497 z"
       fill="url(#linearGradient239721)"
       id="path65"
       style="fill:url(#linearGradient239721)" />
  </g>
  <g
     transform="matrix(0.11693,0,0,-0.11693,-137.85203,93.45741)"
     id="g71">
    <path
       d="m 1414.5,510.13 h 53.222 l -53.222,-126.74 107.49,158.26 -69.82,-1.531 13.235,106.29 z"
       fill="url(#linearGradient239747)"
       id="path69"
       style="fill:url(#linearGradient239747)" />
  </g>
  <g
     transform="matrix(0.11693,0,0,-0.11693,-137.85203,93.45741)"
     id="g73" />
  <g
     transform="matrix(0.11693,0,0,-0.11693,-137.85203,93.45741)"
     id="g77">
    <g
       clip-path="url(#clipPath239767)"
       id="g75" />
  </g>
  <path
     d="m 18.51897,57.66441 c 0,0 -0.34084,2.9186 1.798,3.1502 2.1388,0.23162 7.0693,0.66491 11.635,0.66491 4.5661,0 9.4965,-0.43329 11.635,-0.66491 2.1388,-0.23162 1.798,-3.1502 1.798,-3.1502 h -13.433 z"
     fill="url(#linearGradient615988)"
     id="path79"
     style="fill:url(#linearGradient615988)" />
  <rect
     x="27.56497"
     y="2.39151"
     width="8.7744999"
     height="5.3329"
     ry="1.5813"
     fill="url(#linearGradient616016)"
     fill-rule="evenodd"
     style="fill:url(#linearGradient616016);paint-order:stroke fill markers"
     id="rect81" />
  <path
     d="m 45.38497,10.02641 c 0,0 0.34084,-2.9186 -1.798,-3.1502 -2.1388,-0.23162 -7.0693,-0.66491 -11.635,-0.66491 -4.5661,0 -9.4965,0.43329 -11.635,0.66491 -2.1388,0.23162 -1.798,3.1502 -1.798,3.1502 h 13.433 z"
     fill="url(#linearGradient616004)"
     id="path83"
     style="fill:url(#linearGradient616004)" />
</svg>
