<?xml version="1.0" encoding="UTF-8"?>
<!-- Created with Inkscape (http://www.inkscape.org/) -->
<svg width="64" height="64" version="1.1" viewBox="0 0 16.933 16.933" xmlns="http://www.w3.org/2000/svg" xmlns:cc="http://creativecommons.org/ns#" xmlns:dc="http://purl.org/dc/elements/1.1/" xmlns:rdf="http://www.w3.org/1999/02/22-rdf-syntax-ns#" xmlns:xlink="http://www.w3.org/1999/xlink">
 <defs>
  <linearGradient id="linearGradient947">
   <stop stop-color="#eb002e" offset="0"/>
   <stop stop-color="#f55400" offset="1"/>
  </linearGradient>
  <linearGradient id="linearGradient985">
   <stop stop-color="#007deb" offset="0"/>
   <stop stop-color="#009bf5" offset="1"/>
  </linearGradient>
  <linearGradient id="linearGradient987" x1="5.3364" x2="11.74" y1="12.054" y2="5.2378" gradientUnits="userSpaceOnUse" xlink:href="#linearGradient985"/>
  <linearGradient id="linearGradient991" x1="5.3364" x2="11.74" y1="12.054" y2="5.2378" gradientTransform="matrix(.069395 0 0 .069395 7.7355 1.5427)" gradientUnits="userSpaceOnUse" xlink:href="#linearGradient985"/>
  <linearGradient id="linearGradient1001" x1="5.3364" x2="11.74" y1="12.054" y2="5.2378" gradientTransform="matrix(0 .069395 -.069395 0 15.336 7.6817)" gradientUnits="userSpaceOnUse" xlink:href="#linearGradient985"/>
  <linearGradient id="linearGradient1003" x1="5.3364" x2="11.74" y1="12.054" y2="5.2378" gradientTransform="matrix(0 .069395 -.069395 0 2.7716 7.6817)" gradientUnits="userSpaceOnUse" xlink:href="#linearGradient985"/>
  <linearGradient id="linearGradient884" x1="5.3364" x2="11.74" y1="12.054" y2="5.2378" gradientTransform="matrix(.060098 .034698 -.034698 .060098 11.276 2.1766)" gradientUnits="userSpaceOnUse" xlink:href="#linearGradient985"/>
  <linearGradient id="linearGradient892" x1="5.3364" x2="11.74" y1="12.054" y2="5.2378" gradientTransform="matrix(.034698 .060098 -.060098 .034698 14.025 4.4958)" gradientUnits="userSpaceOnUse" xlink:href="#linearGradient985"/>
  <linearGradient id="linearGradient902" x1="5.3364" x2="11.74" y1="12.054" y2="5.2378" gradientTransform="matrix(-.034698 .060098 -.060098 -.034698 3.6378 5.0831)" gradientUnits="userSpaceOnUse" xlink:href="#linearGradient947"/>
  <linearGradient id="linearGradient910" x1="5.3364" x2="11.74" y1="12.054" y2="5.2378" gradientTransform="matrix(-.060098 .034698 -.034698 -.060098 5.9571 3.1938)" gradientUnits="userSpaceOnUse" xlink:href="#linearGradient985"/>
  <linearGradient id="linearGradient918" x1="10.867" x2="6.2629" y1="6.1108" y2="10.715" gradientTransform="matrix(.57486 0 0 .57486 3.5996 3.5994)" gradientUnits="userSpaceOnUse" xlink:href="#linearGradient985"/>
  <linearGradient id="linearGradient941" x1="5.3364" x2="11.74" y1="12.054" y2="5.2378" gradientTransform="matrix(0 .10267 -.10267 0 5.98 5.7009)" gradientUnits="userSpaceOnUse" xlink:href="#linearGradient947"/>
  <linearGradient id="linearGradient982" x1="5.9579" x2="10.987" y1="6.9597" y2="9.8633" gradientUnits="userSpaceOnUse">
   <stop stop-color="#f0f0f0" stop-opacity=".78431" offset="0"/>
   <stop stop-color="#fafafa" stop-opacity="0" offset="1"/>
  </linearGradient>
 </defs>
 <metadata>
  <rdf:RDF>
   <cc:Work rdf:about="">
    <dc:format>image/svg+xml</dc:format>
    <dc:type rdf:resource="http://purl.org/dc/dcmitype/StillImage"/>
    <dc:title/>
   </cc:Work>
  </rdf:RDF>
 </metadata>
 <circle cx="-330.35" cy="-328.38" r="0" fill="#5e4aa6" stroke-width=".26458"/>
 <circle cx="-330.35" cy="-328.38" r="0" fill="#5e4aa6" stroke-width=".26458"/>
 <path d="m16.404 8.4665c0 0.95152-0.16748 1.8639-0.47463 2.7093-0.2135 0.58767-0.49438 1.1433-0.83391 1.6572-0.14221 0.21607-0.29514 0.42473-0.45746 0.62527-0.51964 0.64177-1.1372 1.2006-1.8304 1.6543-0.2553 0.16716-0.52064 0.32009-0.79534 0.45711-1.0668 0.53387-2.271 0.83419-3.5456 0.83419-1.2745 0-2.4787-0.30032-3.5456-0.83421-0.27473-0.13706-0.54038-0.28997-0.79568-0.45711-0.70205-0.45972-1.327-1.0274-1.8509-1.6798-0.16262-0.20216-0.31523-0.41274-0.45745-0.63076-0.33045-0.50538-0.6042-1.0507-0.81348-1.627-0.3071-0.84527-0.47429-1.7572-0.47429-2.7085 0-4.3837 3.5536-7.9373 7.9373-7.9373 2.2005 0 4.1916 0.89545 5.6294 2.3416 0.41435 0.41661 0.78273 0.87927 1.0963 1.3795 0.29644 0.47106 0.54426 0.9758 0.73703 1.5067 0.30717 0.84557 0.47466 1.7579 0.47466 2.7093z" fill="#fafafa" stroke-width=".031005"/>
 <path d="m13.319 8.4665c0 0.58166-0.10238 1.1394-0.29014 1.6562-0.13051 0.35924-0.30222 0.6989-0.50977 1.013-0.08693 0.13208-0.18042 0.25964-0.27965 0.38223-0.31766 0.39232-0.69517 0.73393-1.1189 1.0113-0.15606 0.10218-0.31827 0.19567-0.48619 0.27943-0.65214 0.32636-1.3883 0.50994-2.1674 0.50994s-1.5152-0.18359-2.1674-0.50995c-0.16794-0.083784-0.33033-0.17726-0.4864-0.27943-0.42916-0.28103-0.8112-0.62805-1.1315-1.0269-0.09941-0.12358-0.1927-0.25231-0.27964-0.38558-0.202-0.30894-0.36935-0.64229-0.49728-0.99459-0.18773-0.51671-0.28993-1.0742-0.28993-1.6557 0-2.6798 2.1723-4.8521 4.8521-4.8521 1.3452 0 2.5623 0.54739 3.4413 1.4314 0.25329 0.25467 0.47848 0.5375 0.67017 0.84329 0.18121 0.28796 0.33271 0.59651 0.45055 0.92105 0.18777 0.5169 0.29016 1.0746 0.29016 1.6562z" fill="url(#linearGradient987)" stroke-width=".018953"/>
 <g stroke-width=".0013153">
  <path d="m8.6597 2.1303c0 0.040365-0.0071 0.079069-0.020134 0.11493-0.00906 0.02493-0.020972 0.0485-0.035375 0.0703-0.00603 0.00917-0.01252 0.018017-0.019406 0.026525-0.022044 0.027225-0.048241 0.050931-0.077648 0.070177-0.01083 0.00709-0.022086 0.013578-0.033739 0.019391-0.045255 0.022647-0.096339 0.035387-0.15041 0.035387-0.054066 0-0.10515-0.01274-0.15041-0.035388-0.011654-0.00581-0.022923-0.012301-0.033754-0.019391-0.029782-0.019502-0.056293-0.043584-0.078517-0.071259-0.0069-0.00858-0.013372-0.017509-0.019406-0.026758-0.014018-0.021439-0.025631-0.044572-0.034509-0.069019-0.013028-0.035857-0.02012-0.074542-0.02012-0.1149 0-0.18596 0.15075-0.33671 0.33671-0.33671 0.093348 0 0.17781 0.037986 0.23881 0.099334 0.017577 0.017673 0.033204 0.0373 0.046506 0.05852 0.012575 0.019983 0.023088 0.041395 0.031266 0.063916 0.013031 0.03587 0.020136 0.074572 0.020136 0.11493z" fill="url(#linearGradient991)"/>
  <path d="m14.748 8.6059c-0.04036 0-0.07907-0.0071-0.11493-0.020134-0.02493-0.00906-0.0485-0.020972-0.0703-0.035375-0.0092-0.00603-0.01802-0.01252-0.02653-0.019406-0.02722-0.022044-0.05093-0.048241-0.07018-0.077648-0.0071-0.01083-0.01358-0.022086-0.01939-0.033739-0.02265-0.045255-0.03539-0.096339-0.03539-0.15041 0-0.054066 0.01274-0.10515 0.03539-0.15041 0.0058-0.011654 0.0123-0.022923 0.01939-0.033754 0.0195-0.029782 0.04358-0.056293 0.07126-0.078517 0.0086-0.0069 0.01751-0.013372 0.02676-0.019406 0.02144-0.014018 0.04457-0.025631 0.06902-0.034509 0.03586-0.013028 0.07454-0.02012 0.1149-0.02012 0.18596 0 0.33671 0.15075 0.33671 0.33671 0 0.093348-0.03799 0.17781-0.09933 0.23881-0.01767 0.017577-0.0373 0.033204-0.05852 0.046506-0.01998 0.012575-0.0414 0.023088-0.06392 0.031266-0.03587 0.013031-0.07457 0.020136-0.11493 0.020136z" fill="url(#linearGradient1001)"/>
  <path d="m2.1841 8.6059c-0.04036 1e-7 -0.07907-0.0071-0.11493-0.020134-0.02493-0.00906-0.0485-0.020972-0.0703-0.035375-0.0092-0.00603-0.01802-0.01252-0.02652-0.019406-0.02722-0.022044-0.05093-0.048241-0.07018-0.077648-0.0071-0.01083-0.01358-0.022086-0.01939-0.033739-0.02265-0.045255-0.03539-0.096339-0.03539-0.15041 0-0.054066 0.01274-0.10515 0.03539-0.15041 0.0058-0.011654 0.0123-0.022923 0.01939-0.033754 0.0195-0.029782 0.04358-0.056293 0.07126-0.078517 0.0086-0.0069 0.01751-0.013372 0.02676-0.019406 0.02144-0.014018 0.04457-0.025631 0.06902-0.034509 0.03586-0.013028 0.07454-0.02012 0.1149-0.02012 0.18596 0 0.33671 0.15075 0.33671 0.33671 0 0.093348-0.03799 0.17781-0.09933 0.23881-0.01767 0.017577-0.0373 0.033204-0.05852 0.046506-0.01998 0.012575-0.04139 0.023088-0.06392 0.031266-0.03587 0.013031-0.07457 0.020136-0.11493 0.020136z" fill="url(#linearGradient1003)"/>
  <path d="m11.783 3.1475c-0.02018 0.034957-0.04568 0.064926-0.0749 0.089465-0.02031 0.01706-0.04241 0.031516-0.06579 0.043194-0.0098 0.00493-0.01985 0.00934-0.03007 0.013268-0.0327 0.012556-0.06724 0.019987-0.10233 0.021951-0.01292 7.251e-4 -0.02592 7.159e-4 -0.03891-7.64e-5 -0.05052-0.00301-0.10113-0.017523-0.14795-0.044559-0.04682-0.027033-0.08469-0.063608-0.11256-0.10585-0.0072-0.010859-0.0137-0.022115-0.01954-0.03367-0.01604-0.03178-0.02696-0.065891-0.03237-0.10097-0.0017-0.01088-0.0028-0.021849-0.0034-0.032876-0.0014-0.025576 8.9e-5 -0.051416 0.0046-0.077027 0.0066-0.037567 0.01985-0.074615 0.04002-0.10957 0.09298-0.16105 0.29891-0.21622 0.45996-0.12324 0.08084 0.046674 0.135 0.1218 0.15715 0.20543 0.0064 0.024094 0.01011 0.048905 0.01102 0.073933 8.98e-4 0.023593-7.03e-4 0.047393-0.0049 0.070986-0.0067 0.03758-0.01985 0.074649-0.04003 0.1096z" fill="url(#linearGradient884)"/>
  <path d="m13.979 5.59c-0.03496 0.020184-0.07202 0.033388-0.1096 0.040029-0.02612 0.00462-0.05249 0.00609-0.07857 0.00451-0.01095-6.305e-4 -0.02186-0.00184-0.03268-0.00354-0.0346-0.00548-0.06822-0.016311-0.0996-0.032157-0.01155-0.00583-0.0228-0.01234-0.03366-0.019521-0.04225-0.027867-0.07882-0.065738-0.10585-0.11257-0.02703-0.046821-0.04154-0.097431-0.04456-0.14795-8.06e-4 -0.013004-8.07e-4 -0.026002-8.8e-5 -0.038929 2e-3 -0.035542 0.0096-0.070543 0.02245-0.10363 4e-3 -0.010272 0.0085-0.020322 0.01349-0.030171 0.01158-0.022849 0.02578-0.044483 0.0425-0.064407 0.0245-0.029234 0.0545-0.054693 0.08944-0.074877 0.16105-0.09298 0.36698-0.037801 0.45996 0.12324 0.04667 0.080841 0.05601 0.17298 0.03338 0.25648-0.0065 0.024066-0.0157 0.047408-0.02742 0.069538-0.01102 0.020881-0.02431 0.040692-0.03974 0.059026-0.02459 0.029195-0.05452 0.054723-0.08947 0.074902z" fill="url(#linearGradient892)"/>
  <path d="m2.6673 5.59c-0.034952-0.020178-0.064931-0.045684-0.089468-0.074903-0.017044-0.020321-0.031528-0.042408-0.043181-0.065791-5e-3 -0.00982-0.00928-0.019867-0.013216-0.030091-0.012534-0.03271-0.01999-0.067243-0.021949-0.10234-7.59e-4 -0.012915-7.147e-4 -0.025918 7.38e-5 -0.038912 3e-3 -0.050519 0.017523-0.10113 0.04456-0.14795 0.02703-0.046823 0.063606-0.084691 0.10585-0.11256 0.010849-0.00719 0.022111-0.013702 0.033672-0.019538 0.031779-0.016038 0.065889-0.026956 0.10097-0.032368 0.010903-0.00168 0.02185-0.00283 0.03288-0.00343 0.025577-0.00142 0.051411 8.7e-5 0.07703 0.00462 0.037569 0.00665 0.074609 0.019846 0.10956 0.040027 0.16105 0.09298 0.21622 0.29891 0.12324 0.45995-0.046671 0.080843-0.12181 0.13499-0.20543 0.15715-0.024092 0.00639-0.04891 0.010106-0.073928 0.011013-0.02359 9.007e-4 -0.047389-7.003e-4 -0.070991-0.00488-0.03758-0.00665-0.074646-0.01985-0.1096-0.040029z" fill="url(#linearGradient902)"/>
  <path d="m4.8633 3.1475c-0.02018-0.034951-0.03339-0.072029-0.04003-0.1096-0.0046-0.02612-0.0061-0.05249-0.0045-0.078567 5.798e-4 -0.011004 0.0019-0.021845 0.0036-0.032668 0.0055-0.034595 0.01631-0.068229 0.03216-0.0996 0.0058-0.011564 0.01234-0.022803 0.01952-0.033662 0.027858-0.042251 0.06574-0.078819 0.11257-0.10585 0.04682-0.027035 0.09743-0.041542 0.14795-0.044557 0.01299-8.022e-4 0.026-8.108e-4 0.03893-8.44e-5 0.03554 2e-3 0.070539 0.0096 0.10363 0.022454 0.010282 4e-3 0.020338 0.00847 0.03019 0.01347 0.02286 0.011559 0.04448 0.025781 0.0644 0.042516 0.029211 0.024544 0.05469 0.054492 0.07487 0.089446 0.09298 0.16105 0.0378 0.36697-0.12324 0.45995-0.08084 0.046677-0.17298 0.056005-0.25648 0.033383-0.024059-0.00651-0.04741-0.015703-0.06953-0.027426-0.02088-0.011015-0.04069-0.024301-0.05904-0.039722-0.02922-0.024549-0.05472-0.054514-0.0749-0.089465z" fill="url(#linearGradient910)"/>
  <path d="m4.8633 3.1475c-0.02018-0.034951-0.03339-0.072029-0.04003-0.1096-0.0046-0.02612-0.0061-0.05249-0.0045-0.078567 5.798e-4 -0.011004 0.0019-0.021845 0.0036-0.032668 0.0055-0.034595 0.01631-0.068229 0.03216-0.0996 0.0058-0.011564 0.01234-0.022803 0.01952-0.033662 0.027858-0.042251 0.06574-0.078819 0.11257-0.10585 0.04682-0.027035 0.09743-0.041542 0.14795-0.044557 0.01299-8.022e-4 0.026-8.108e-4 0.03893-8.44e-5 0.03554 2e-3 0.070539 0.0096 0.10363 0.022454 0.010282 4e-3 0.020338 0.00847 0.03019 0.01347 0.02286 0.011559 0.04448 0.025781 0.0644 0.042516 0.029211 0.024544 0.05469 0.054492 0.07487 0.089446 0.09298 0.16105 0.0378 0.36697-0.12324 0.45995-0.08084 0.046677-0.17298 0.056005-0.25648 0.033383-0.024059-0.00651-0.04741-0.015703-0.06953-0.027426-0.02088-0.011015-0.04069-0.024301-0.05904-0.039722-0.02922-0.024549-0.05472-0.054514-0.0749-0.089465z" fill="url(#linearGradient910)"/>
 </g>
 <path d="m11.256 8.4665c0 0.33438-0.05885 0.655-0.16679 0.95209-0.07503 0.20651-0.17374 0.40177-0.29305 0.58234-0.04997 0.07593-0.10372 0.14926-0.16076 0.21973-0.18261 0.22553-0.39963 0.42191-0.64322 0.58136-0.089713 0.05874-0.18296 0.11248-0.27949 0.16064-0.37489 0.18761-0.79808 0.29315-1.246 0.29315s-0.87104-0.10554-1.246-0.29315c-0.096543-0.04816-0.1899-0.1019-0.27961-0.16063-0.24671-0.16155-0.46633-0.36104-0.65046-0.59033-0.057147-0.071042-0.11078-0.14504-0.16076-0.22166-0.11612-0.1776-0.21233-0.36923-0.28587-0.57176-0.10792-0.29704-0.16667-0.61752-0.16667-0.9518 0-1.5405 1.2488-2.7893 2.7893-2.7893 0.77331 0 1.473 0.31468 1.9783 0.82286 0.14561 0.1464 0.27506 0.30899 0.38526 0.48478 0.10417 0.16554 0.19126 0.34291 0.259 0.52948 0.10794 0.29715 0.1668 0.61775 0.1668 0.95209z" fill="url(#linearGradient918)" stroke="url(#linearGradient982)" stroke-width=".26458"/>
 <path d="m5.1109 7.0682c-0.059711 1e-7 -0.11698-0.010504-0.17003-0.029787-0.036883-0.013404-0.071753-0.031027-0.10401-0.052336-0.013611-0.00892-0.02666-0.018523-0.039235-0.02871-0.040271-0.032613-0.075348-0.07137-0.10383-0.11488-0.010504-0.016023-0.020091-0.032675-0.028687-0.049915-0.03351-0.066952-0.052358-0.14253-0.052358-0.22252 0-0.079988 0.018848-0.15556 0.052358-0.22252 0.00858-0.017241 0.018197-0.033913 0.028687-0.049937 0.028849-0.044061 0.064474-0.083283 0.10543-0.11616 0.012723-0.010208 0.025905-0.019783 0.03959-0.02871 0.031719-0.020739 0.065939-0.03792 0.10211-0.051054 0.053053-0.019274 0.11028-0.029767 0.16999-0.029767 0.27512 0 0.49815 0.22303 0.49815 0.49815 0 0.1381-0.056204 0.26306-0.14695 0.35331-0.026142 0.026004-0.055184 0.049124-0.086577 0.068803-0.029559 0.018604-0.061234 0.034158-0.094566 0.046257-0.053068 0.019279-0.11032 0.02979-0.17003 0.02979z" fill="url(#linearGradient941)" stroke-width=".0019459"/>
</svg>
