<?xml version="1.0" encoding="UTF-8"?>
<!-- Created with Inkscape (http://www.inkscape.org/) -->
<svg width="64" height="64" version="1.1" viewBox="0 0 16.933 16.933" xmlns="http://www.w3.org/2000/svg" xmlns:cc="http://creativecommons.org/ns#" xmlns:dc="http://purl.org/dc/elements/1.1/" xmlns:rdf="http://www.w3.org/1999/02/22-rdf-syntax-ns#" xmlns:xlink="http://www.w3.org/1999/xlink">
 <metadata>
  <rdf:RDF>
   <cc:Work rdf:about="">
    <dc:format>image/svg+xml</dc:format>
    <dc:type rdf:resource="http://purl.org/dc/dcmitype/StillImage"/>
    <dc:title/>
   </cc:Work>
  </rdf:RDF>
 </metadata>
 <circle cx="-330.35" cy="-328.38" r="0" fill="#5e4aa6" stroke-width=".26458"/>
 <circle cx="-330.35" cy="-328.38" r="0" fill="#5e4aa6" stroke-width=".26458"/>
 <path d="m16.404 8.4665c0 0.95152-0.16748 1.8639-0.47463 2.7093-0.2135 0.58767-0.49438 1.1433-0.83391 1.6572-0.14221 0.21607-0.29514 0.42473-0.45746 0.62527-0.51964 0.64177-1.1372 1.2006-1.8304 1.6543-0.2553 0.16716-0.52064 0.32009-0.79534 0.45711-1.0668 0.53387-2.271 0.83419-3.5456 0.83419-1.2745 0-2.4787-0.30032-3.5456-0.83421-0.27473-0.13706-0.54038-0.28997-0.79568-0.45711-0.70205-0.45972-1.327-1.0274-1.8509-1.6798-0.16262-0.20216-0.31523-0.41274-0.45745-0.63076-0.33045-0.50538-0.6042-1.0507-0.81348-1.627-0.3071-0.84527-0.47429-1.7572-0.47429-2.7085 0-4.3837 3.5536-7.9373 7.9373-7.9373 2.2005 0 4.1916 0.89545 5.6294 2.3416 0.41435 0.41661 0.78273 0.87927 1.0963 1.3795 0.29644 0.47106 0.54426 0.9758 0.73703 1.5067 0.30717 0.84557 0.47466 1.7579 0.47466 2.7093z" fill="#fafafa" stroke-width=".031005"/>
 <path d="m15.609 8.4665c0 0.8562-0.1507 1.6772-0.42708 2.4379-0.19211 0.5288-0.44486 1.0288-0.75037 1.4912-0.12796 0.19443-0.26558 0.38218-0.41164 0.56264-0.46759 0.57748-1.0233 1.0803-1.647 1.4886-0.22973 0.15042-0.46849 0.28802-0.71567 0.41132-0.95994 0.48039-2.0435 0.75063-3.1904 0.75063-1.1468 0-2.2304-0.27024-3.1904-0.75064-0.24721-0.12333-0.48625-0.26092-0.71597-0.41132-0.63172-0.41367-1.1941-0.92448-1.6655-1.5115-0.14633-0.18191-0.28365-0.37139-0.41163-0.56757-0.29735-0.45476-0.54368-0.94545-0.73199-1.464-0.27634-0.7606-0.42678-1.5812-0.42678-2.4372 0-3.9446 3.1976-7.1422 7.1422-7.1422 1.9801 0 3.7717 0.80575 5.0655 2.107 0.37284 0.37488 0.70432 0.79119 0.98648 1.2413 0.26674 0.42387 0.48974 0.87805 0.6632 1.3558 0.2764 0.76087 0.42711 1.5818 0.42711 2.4379z" fill="#e1e3e7" stroke-width=".027899"/>
 <rect x="1.9018" y="8.202" width=".52916" height=".52916" rx=".26458" ry=".26458" fill="#8c8c8c" stroke-width=".26458"/>
 <rect x="14.502" y="8.202" width=".52916" height=".52916" rx=".26458" ry=".26458" fill="#8c8c8c" stroke-width=".26458"/>
 <g transform="matrix(.85238 0 0 .85238 1.6663 1.3687)">
  <g stroke-width=".26458">
   <path d="m9.9624 2.1095-4.7449 4.8074a4.3655 4.3655 0 0 0-1.4726 3.2622 4.3655 4.3655 0 0 0 4.3655 4.3655 4.3655 4.3655 0 0 0 4.3655-4.3655 4.3655 4.3655 0 0 0-0.0079-0.22542 0.12991 0.12991 0 0 0 0.0079-0.039158v-7.6728c0-0.073288-0.059-0.13229-0.13229-0.13229z" fill="#edeff3" stroke="#cbcdd1"/>
   <circle cx="8.1104" cy="10.179" r="1.7198" fill="#e1e3e7" stroke="#cfd1d5"/>
   <rect x="4.274" y="2.9032" width="5.2916" height="3.1749" rx=".39687" ry=".39687" fill="#4c5263" stroke="#313643"/>
   <path d="m4.6709 3.5647v0.26458h0.844v-0.26458zm0.95486 0v0.26458h0.79929v-0.26458zm0.91041 0v0.26458h0.69954v-0.26458zm0.8104 0v0.26458h0.31088v-0.26458zm-2.6757 0.79373v0.26458h1.3435v-0.26458zm1.4766 0v0.26458h0.64398v-0.26458zm0.76622 0v0.26458h0.29977v-0.26458zm-2.2428 0.79373v0.26458h1.4877v-0.26458zm1.5988 0v0.26458h0.77865v-0.26458zm1.5761 0v0.26458h1.3435v-0.26458z" fill="#e9eaee"/>
  </g>
  <path d="m5.3185 14.036 3.2612-4.0541a0.30426 0.30426 0 0 0 0.07488-0.19976c0-0.17012-0.14128-0.30823-0.31538-0.30823-0.07752 0-0.14843 0.026987-0.20372 0.073024l-4.1385 3.1945a0.91809 0.91809 0 0 0-0.38443 0.74479c0 0.51196 0.42332 0.92602 0.94534 0.92602a0.94984 0.94984 0 0 0 0.76066-0.37623z" fill="#fff" stroke="#cbcdd1" stroke-width=".52916"/>
  <path d="m5.3185 14.036 3.2612-4.0541a0.30426 0.30426 0 0 0 0.07488-0.19976c0-0.17012-0.14128-0.30823-0.31538-0.30823-0.07752 0-0.14843 0.026987-0.20372 0.073024l-4.1385 3.1945a0.91809 0.91809 0 0 0-0.38443 0.74479c0 0.51196 0.42332 0.92602 0.94534 0.92602a0.94984 0.94984 0 0 0 0.76066-0.37623z" fill="#fff" stroke-width=".26458"/>
 </g>
 <rect transform="rotate(-90)" x="-15.031" y="8.2021" width=".52916" height=".52916" rx=".26458" ry=".26458" fill="#8c8c8c" stroke-width=".26458"/>
 <rect transform="rotate(-90)" x="-2.4308" y="8.2021" width=".52916" height=".52916" rx=".26458" ry=".26458" fill="#8c8c8c" stroke-width=".26458"/>
</svg>
