<?xml version="1.0" encoding="UTF-8"?>
<!-- Created with Inkscape (http://www.inkscape.org/) -->
<svg width="64" height="64" version="1.1" viewBox="0 0 16.933 16.933" xmlns="http://www.w3.org/2000/svg" xmlns:cc="http://creativecommons.org/ns#" xmlns:dc="http://purl.org/dc/elements/1.1/" xmlns:rdf="http://www.w3.org/1999/02/22-rdf-syntax-ns#" xmlns:xlink="http://www.w3.org/1999/xlink">
 <defs>
  <linearGradient id="linearGradient1174">
   <stop stop-color="#dc0000" offset="0"/>
   <stop stop-color="#a00" offset="1"/>
  </linearGradient>
  <linearGradient id="linearGradient1150">
   <stop stop-color="#4c4e4c" offset="0"/>
   <stop stop-color="#202020" offset="1"/>
  </linearGradient>
  <linearGradient id="linearGradient1152" x1="2.8791" x2="6.521" y1="3.103" y2="6.745" gradientUnits="userSpaceOnUse" xlink:href="#linearGradient1150"/>
  <linearGradient id="linearGradient1160" x1="13.833" x2="10.362" y1="13.592" y2="10.122" gradientUnits="userSpaceOnUse" xlink:href="#linearGradient1150"/>
  <linearGradient id="linearGradient1176" x1="6.7098" x2="10.184" y1="10.247" y2="6.7732" gradientUnits="userSpaceOnUse" xlink:href="#linearGradient1174"/>
  <linearGradient id="linearGradient1261" x1="-3.5951" x2="-1.4147" y1="-.08157" y2="-2.7277" gradientTransform="matrix(1.4809 0 0 1.4809 16.417 5.2999)" gradientUnits="userSpaceOnUse" xlink:href="#linearGradient1174"/>
 </defs>
 <metadata>
  <rdf:RDF>
   <cc:Work rdf:about="">
    <dc:format>image/svg+xml</dc:format>
    <dc:type rdf:resource="http://purl.org/dc/dcmitype/StillImage"/>
    <dc:title/>
   </cc:Work>
  </rdf:RDF>
 </metadata>
 <path d="m11.39 8.4665a2.9238 2.9238 0 0 1-2.8079 2.9215 2.9238 2.9238 0 0 1-3.0306-2.6898 2.9238 2.9238 0 0 1 2.5675-3.1348 2.9238 2.9238 0 0 1 3.2342 2.4412" fill="#141414" style="paint-order:stroke fill markers"/>
 <circle cx="-330.35" cy="-328.38" r="0" fill="#5e4aa6" stroke-width=".26458"/>
 <g fill="#5e4aa6" stroke-width=".26458">
  <circle cx="-330.35" cy="-328.38" r="0"/>
  <circle cx="-330.35" cy="-328.38" r="0"/>
  <circle cx="-352.63" cy="-336.84" r="0"/>
 </g>
 <g stroke-width=".031005">
  <path d="m11.133 11.089-4.1271-1.26-1.1028-3.6482-4.6886-0.94334c-0.16607 0.37443-0.30539 0.7662-0.41477 1.1744-1.1345 4.2342 1.3784 8.5867 5.6125 9.7212 2.1171 0.56727 4.2637 0.22285 6.023-0.79292z" fill="#141414"/>
  <path d="m10.521 0.79962c-2.1171-0.56727-4.2637-0.22285-6.023 0.79292l1.3023 4.2513 3.809 1.0845 1.421 3.8236 4.6886 0.94334c0.16606-0.3744 0.30535-0.7662 0.41474-1.1744 1.1345-4.2342-1.3784-8.5867-5.6125-9.7213z" fill="#141414"/>
  <path d="m4.4978 1.5925c-1.4202 0.81991-2.5875 2.0772-3.2834 3.6452l4.4147 1.9656 1.2846-1.4263z" fill="url(#linearGradient1152)"/>
  <path d="m11.304 9.7297-1.2846 1.4263 2.4159 4.1845c1.4202-0.81991 2.5875-2.0772 3.2834-3.6452z" fill="url(#linearGradient1160)"/>
  <path d="m8.4665 5.3611c-1.7151 0-3.1054 1.3903-3.1054 3.1054s1.3903 3.1054 3.1054 3.1054c1.715 0 3.1054-1.3903 3.1054-3.1054s-1.3903-3.1054-3.1054-3.1054zm0 4.1813c-0.59425 0-1.0759-0.4817-1.0759-1.0759 0-0.59425 0.4817-1.0759 1.0759-1.0759 0.59425 0 1.0759 0.4817 1.0759 1.0759 0 0.59425-0.4817 1.0759-1.0759 1.0759z" fill="#050505"/>
 </g>
 <path d="m8.4665 5.7916c-1.4773 0-2.6749 1.1976-2.6749 2.6749s1.1976 2.6749 2.6749 2.6749 2.6749-1.1976 2.6749-2.6749-1.1976-2.6749-2.6749-2.6749zm0 3.6016c-0.51187 0-0.92678-0.41492-0.92678-0.92678 0-0.51187 0.41492-0.92678 0.92678-0.92678 0.51187 0 0.92678 0.41492 0.92678 0.92678 0 0.51187-0.41492 0.92678-0.92678 0.92678z" fill="url(#linearGradient1176)" stroke-width=".026707"/>
 <circle cx="8.4665" cy="8.4665" r="1.032" fill="none" stroke="#050505" stroke-dashoffset="3" stroke-linecap="round" stroke-width=".24953" style="paint-order:stroke fill markers"/>
 <path d="m11.644 6.0082c0.58968 0.014379 1.1096-0.19099 1.3934-0.50811 0.10086-0.11291 0.16613-0.24628 0.17869-0.2727 0.0076-0.015666 0.01377-0.032242 0.01903-0.049334l0.74507-2.4548c0.04403-0.1449 0.16471-0.1739 0.26351-0.059046 0.0764 0.088956 0.15836 0.18983 0.24175 0.30196 0.3434 0.46136 0.37111 1.0683 0.18801 1.5577-0.18335 0.48933-0.52973 0.62749-0.4185 0.78249 0.11136 0.15525 0.54799-0.23062 0.83208-0.68939 0.28396-0.4589 0.31569-1.2265 0.059425-1.8548-0.25626-0.6284-0.62956-1.0324-0.70078-1.3603-0.0044-0.020976-0.0089-0.041565-0.01347-0.061636-0.0076-0.033925-0.0044-0.091936 0.0069-0.12923l0.02059-0.067721c0.0559-0.18387-0.04769-0.3781-0.23182-0.43391-0.18374-0.055809-0.37797 0.04804-0.43378 0.23178l-0.9033 2.9763c-0.04403 0.1449-0.17947 0.18944-0.31569 0.12366-0.25004-0.12081-0.55174-0.19501-0.87805-0.20291-0.88064-0.021624-1.6063 0.44673-1.6209 1.0461-0.01466 0.59914 0.68719 1.1025 1.5678 1.1238z" fill="url(#linearGradient1261)" stroke-width=".12949"/>
</svg>
