<?xml version="1.0" encoding="UTF-8"?>
<!-- Created with Inkscape (http://www.inkscape.org/) -->
<svg width="64" height="64" version="1.1" viewBox="0 0 16.933 16.933" xmlns="http://www.w3.org/2000/svg" xmlns:cc="http://creativecommons.org/ns#" xmlns:dc="http://purl.org/dc/elements/1.1/" xmlns:rdf="http://www.w3.org/1999/02/22-rdf-syntax-ns#">
 <defs>
  <linearGradient id="linearGradient862" x1="30.346" x2="43.23" y1="-33.498" y2="-27.983" gradientTransform="translate(-26.817 34.845)" gradientUnits="userSpaceOnUse">
   <stop stop-color="#d72823" offset="0"/>
   <stop stop-color="#ff4646" offset="1"/>
  </linearGradient>
  <linearGradient id="linearGradient879" x1="35.42" x2="35.42" y1="-27.703" y2="-23.942" gradientTransform="matrix(1 0 0 .81449 -26.817 30.063)" gradientUnits="userSpaceOnUse">
   <stop stop-color="#fafafa" offset="0"/>
   <stop stop-color="#dcdcdc" offset="1"/>
  </linearGradient>
  <filter id="filter895" x="-.01404" y="-.11249" width="1.0281" height="1.225" color-interpolation-filters="sRGB">
   <feGaussianBlur stdDeviation="0.083528231"/>
  </filter>
 </defs>
 <metadata>
  <rdf:RDF>
   <cc:Work rdf:about="">
    <dc:format>image/svg+xml</dc:format>
    <dc:type rdf:resource="http://purl.org/dc/dcmitype/StillImage"/>
    <dc:title/>
   </cc:Work>
  </rdf:RDF>
 </metadata>
 <circle cx="-330.35" cy="-328.38" r="0" fill="#5e4aa6" stroke-width=".26458"/>
 <circle cx="-330.35" cy="-328.38" r="0" fill="#5e4aa6" stroke-width=".26458"/>
 <g transform="matrix(1.0249 0 0 1.0249 -.91558 -.13563)">
  <rect x="2.1342" y="1.302" width="14.278" height="14.35" ry="1.5802" fill="#fafafa" style="paint-order:stroke fill markers"/>
  <path d="m3.7145 1.3021c-0.87544 0-1.5802 0.70479-1.5802 1.5802v3.98h14.278v-3.98c0-0.87544-0.70479-1.5802-1.5802-1.5802z" fill="url(#linearGradient862)" style="paint-order:stroke fill markers"/>
  <path transform="matrix(.97273 0 0 .86791 -25.832 31.495)" d="m28.951-27.983v1.5262l0.30489-0.07998 0.1974 0.10228 0.32297-0.13132 0.23306 0.17509 0.43046-0.2921 0.93274 0.16078 0.35862-0.24833 0.44854 0.26264h0.62786l0.2868 0.07323 0.34106-0.16078 0.34054 0.2921 0.5922-0.27737 0.37671 0.02904 0.35863-0.16078 0.71726 0.27779 0.41288 0.04377 0.50229-0.05851 0.23306 0.24833 0.71726-0.37964 0.43097-0.01473 0.21497-0.08755 0.1974 0.20455 0.3948-0.11701 0.64543 0.04377 0.32297 0.10228-0.03566-0.17509 0.59168 0.27737 0.37672-0.13132 0.1974-0.10228 0.12557 0.13132 0.17932-0.10228 0.2868 0.07324 0.1974-0.10228 0.26923 0.14605 0.30488-0.20455h0.35863l0.10748-0.04377 0.37672 0.14184v-1.442z" filter="url(#filter895)" opacity=".25"/>
  <path d="m2.1342 6.8624v1.5262l0.30489-0.07998 0.1974 0.10228 0.32297-0.13132 0.23306 0.17509 0.43046-0.2921 0.93274 0.16078 0.35862-0.24833 0.44854 0.26264h0.62786l0.2868 0.07323 0.34106-0.16078 0.34054 0.2921 0.5922-0.27737 0.37671 0.02904 0.35863-0.16078 0.71726 0.27779 0.41288 0.04377 0.50229-0.05851 0.23306 0.24833 0.71726-0.37964 0.43097-0.01473 0.21497-0.08755 0.1974 0.20455 0.3948-0.11701 0.64543 0.04377 0.32297 0.10228-0.03566-0.17509 0.59168 0.27737 0.37672-0.13132 0.1974-0.10228 0.12557 0.13132 0.17932-0.10228 0.2868 0.07324 0.1974-0.10228 0.26923 0.14605 0.30488-0.20455h0.35863l0.10748-0.04377 0.37672 0.14184v-1.442z" fill="url(#linearGradient879)"/>
  <text x="6.9894266" y="13.890241" fill="#828282" font-family="Akaash" font-size="6.492px" font-weight="500" letter-spacing="0px" stroke-width=".1623" word-spacing="0px" style="font-feature-settings:normal;font-variant-caps:normal;font-variant-ligatures:normal;font-variant-numeric:normal;line-height:1.25" xml:space="preserve"><tspan x="6.9894266" y="13.890241" fill="#828282" font-family="Akaash" font-size="6.492px" font-weight="500" stroke-width=".1623" style="font-feature-settings:normal;font-variant-caps:normal;font-variant-ligatures:normal;font-variant-numeric:normal">31</tspan></text>
  <text x="4.5987635" y="4.9145322" fill="#ffffff" font-family="'Droid Arabic Kufi'" font-size="3.0168px" letter-spacing="0px" stroke-width=".07542" word-spacing="0px" style="font-feature-settings:normal;font-variant-caps:normal;font-variant-ligatures:normal;font-variant-numeric:normal;line-height:1.25" xml:space="preserve"><tspan x="4.5987635" y="4.9145322" fill="#ffffff" font-family="'Droid Arabic Kufi'" font-size="3.0168px" stroke-width=".07542" style="font-feature-settings:normal;font-variant-caps:normal;font-variant-ligatures:normal;font-variant-numeric:normal">Friday</tspan></text>
 </g>
</svg>
