<?xml version="1.0" encoding="UTF-8"?>
<svg id="Iterm" width="64" height="64" enable-background="new 0 0 1024 1024" image-rendering="optimizeSpeed" version="1.1" viewBox="0 0 64 64" xmlns="http://www.w3.org/2000/svg" xmlns:cc="http://creativecommons.org/ns#" xmlns:dc="http://purl.org/dc/elements/1.1/" xmlns:rdf="http://www.w3.org/1999/02/22-rdf-syntax-ns#">
 <metadata>
  <rdf:RDF>
   <cc:Work rdf:about="">
    <dc:format>image/svg+xml</dc:format>
    <dc:type rdf:resource="http://purl.org/dc/dcmitype/StillImage"/>
    <dc:title/>
   </cc:Work>
  </rdf:RDF>
 </metadata>
 <defs>
  <style type="text/css"/>
  <linearGradient id="linearGradient978" x1="17.899" x2="57.01" y1="54.198" y2="13.258" gradientTransform="matrix(1.1807,0,0,1.1807,-6.4481,-8.0085)" gradientUnits="userSpaceOnUse">
   <stop stop-color="#dcdcdc" offset="0"/>
   <stop stop-color="#fff" offset=".20849"/>
   <stop stop-color="#fafafa" offset=".56561"/>
   <stop stop-color="#e6e6e6" offset="1"/>
  </linearGradient>
  <linearGradient id="linearGradient996" x1="11.566" x2="54.905" y1="29.44" y2="29.44" gradientTransform="matrix(1.1807,0,0,1.1807,-6.4481,-8.0085)" gradientUnits="userSpaceOnUse">
   <stop stop-color="#19d2fa" offset="0"/>
   <stop stop-color="#1e7df0" offset="1"/>
  </linearGradient>
 </defs>
 <mask>
  <g id="g">
   <path d="m969.75 392.05c-1.1-4.35-2.35-9-3.65-13.6-1-3.4-2-6.85-3.15-10.5-1.6-5.15-3.4-10.5-5.3-15.85-6.45-18.25-14.15-36.05-23.15-53.65-3.8-7.4-7.95-14.95-12.3-22.4-20.3-34.5-45.8-67.2-76.35-97.75-72.6-72.6-157.15-116.65-253.65-132.05-16.25-2.6-32.8-4.4-50.05-5.35-9.7-0.55-19.85-0.85-30.1-0.85-9.35 0-18.6 0.25-27.9 0.75-118.35 6.1-220.3 51.95-305.85 137.5q-138.25 138.25-138.25 333.75c0 130.35 46.1 241.65 138.25 333.8 56.7 56.65 120.55 95.9 191.1 117.55 36.75 11.25 74.8 17.85 114.75 19.95h0.4c8.5 0.45 16.6 0.7 24.5 0.7h3c10.3 0 20.5-0.3 30.1-0.8 2.5-0.15 4.75-0.3 6.95-0.45 20.2-1.45 39.9-4.05 58.7-7.7 7.95-1.55 15.8-3.3 23.4-5.15 80.8-20.3 152.15-61.6 214.65-124.1 48.6-48.6 84.4-102.5 107.35-161.8 18.45-47.65 28.65-98.8 30.55-153.5 0.2-6.05 0.3-12.25 0.3-18.5v-3c-0.2-40.65-4.95-79.5-14.3-117z" fill="#fff"/>
  </g>
 </mask>
 <g transform="matrix(1.0695 0 0 1.0695 -3.0243 -3.3439)" stroke-width=".11054">
  <path d="m8.5054 9.9501c-0.70743 0-1.297 0.58952-1.297 1.297v30.891c0 0.70743 0.58953 1.297 1.297 1.297h48.577c0.70743 0 1.297-0.58952 1.297-1.297v-30.773c0-0.70743-0.58952-1.297-1.297-1.297h-48.577zm0-2.5939h48.577c2.2402 0 4.0088 1.7686 4.0088 4.0088v30.891c0 2.2402-1.7686 4.0088-4.0088 4.0088h-48.577c-2.2402 0-4.0088-1.7686-4.0088-4.0088v-30.891c0-2.2402 1.7686-4.0088 4.0088-4.0088zm13.677 38.909h21.223v7.0743h-21.223zm0 0v7.0743c2.0044 0 3.5371-1.5328 3.5371-3.5371v-3.5371zm21.223 0h-3.5371v3.5371c0 2.0044 1.5328 3.5371 3.5371 3.5371zm-27.354 9.6682c-0.70742 0-1.297-0.58952-1.297-1.297s0.47162-1.297 1.297-1.297h33.603c0.70743 0 1.297 0.58952 1.297 1.297s-0.58952 1.297-1.297 1.297z" fill="url(#linearGradient978)" p-id="24705"/>
  <path d="m8.5054 10.068c-0.70743 0-1.297 0.47162-1.297 1.179v30.891c0 0.70743 0.58953 1.297 1.297 1.297h48.577c0.70743 0 1.297-0.58952 1.297-1.297v-30.773c0-0.70743-0.58952-1.297-1.297-1.297z" fill="url(#linearGradient996)" p-id="24706"/>
  <path d="m57.082 9.9501c0.70743 0 1.297 0.58952 1.297 1.297v30.891c0 0.70743-0.58952 1.297-1.297 1.297h-11.083l-13.205-33.485z" fill="#fafafa" opacity=".6" p-id="24707"/>
 </g>
 <path d="m24.482 46.136v1.0088l15.132 2.7741v-3.7829z" fill="#ccc" stroke-width=".11822" p-id="24708"/>
</svg>
