<?xml version="1.0" encoding="UTF-8"?>
<!-- Created with Inkscape (http://www.inkscape.org/) -->
<svg width="64" height="64" version="1.1" viewBox="0 0 16.933 16.933" xmlns="http://www.w3.org/2000/svg" xmlns:cc="http://creativecommons.org/ns#" xmlns:dc="http://purl.org/dc/elements/1.1/" xmlns:rdf="http://www.w3.org/1999/02/22-rdf-syntax-ns#">
 <defs>
  <style type="text/css"/>
  <linearGradient id="linearGradient978" x1="17.899" x2="57.01" y1="54.198" y2="13.258" gradientTransform="matrix(1.1807,0,0,1.1807,-6.4481,-8.0085)" gradientUnits="userSpaceOnUse">
   <stop stop-color="#dcdcdc" offset="0"/>
   <stop stop-color="#fff" offset=".20849"/>
   <stop stop-color="#fafafa" offset=".56561"/>
   <stop stop-color="#e6e6e6" offset="1"/>
  </linearGradient>
  <linearGradient id="linearGradient996" x1="11.566" x2="54.905" y1="29.44" y2="29.44" gradientTransform="matrix(1.1807,0,0,1.1807,-6.4481,-8.0085)" gradientUnits="userSpaceOnUse">
   <stop stop-color="#19d2fa" offset="0"/>
   <stop stop-color="#1e7df0" offset="1"/>
  </linearGradient>
  <style type="text/css"/>
 </defs>
 <metadata>
  <rdf:RDF>
   <cc:Work rdf:about="">
    <dc:format>image/svg+xml</dc:format>
    <dc:type rdf:resource="http://purl.org/dc/dcmitype/StillImage"/>
    <dc:title/>
   </cc:Work>
  </rdf:RDF>
 </metadata>
 <circle cx="-330.35" cy="-328.38" r="0" fill="#5e4aa6" stroke-width=".26458"/>
 <g transform="matrix(.26458 0 0 .26458 -.012905 .39681)" image-rendering="optimizeSpeed">
  <g transform="matrix(1.0695,0,0,1.0695,-3.0243,-3.3439)" stroke-width=".11054">
   <path d="m8.5054 9.9501c-0.70743 0-1.297 0.58952-1.297 1.297v30.891c0 0.70743 0.58953 1.297 1.297 1.297h48.577c0.70743 0 1.297-0.58952 1.297-1.297v-30.773c0-0.70743-0.58952-1.297-1.297-1.297h-48.577zm0-2.5939h48.577c2.2402 0 4.0088 1.7686 4.0088 4.0088v30.891c0 2.2402-1.7686 4.0088-4.0088 4.0088h-48.577c-2.2402 0-4.0088-1.7686-4.0088-4.0088v-30.891c0-2.2402 1.7686-4.0088 4.0088-4.0088zm13.677 38.909h21.223v7.0743h-21.223zm0 0v7.0743c2.0044 0 3.5371-1.5328 3.5371-3.5371v-3.5371zm21.223 0h-3.5371v3.5371c0 2.0044 1.5328 3.5371 3.5371 3.5371zm-27.354 9.6682c-0.70742 0-1.297-0.58952-1.297-1.297s0.47162-1.297 1.297-1.297h33.603c0.70743 0 1.297 0.58952 1.297 1.297s-0.58952 1.297-1.297 1.297z" fill="url(#linearGradient978)" p-id="24705"/>
   <path d="m8.5054 10.068c-0.70743 0-1.297 0.47162-1.297 1.179v30.891c0 0.70743 0.58953 1.297 1.297 1.297h48.577c0.70743 0 1.297-0.58952 1.297-1.297v-30.773c0-0.70743-0.58952-1.297-1.297-1.297z" fill="url(#linearGradient996)" p-id="24706"/>
  </g>
  <path d="m24.482 46.136v1.0088l15.132 2.7741v-3.7829z" fill="#ccc" stroke-width=".11822" p-id="24708"/>
 </g>
 <path d="m8.4665 4.3588c1.6148 0 2.9238 1.309 2.9238 2.9238 0 1.6148-1.309 2.9238-2.9238 2.9238-1.6148 0-2.9238-1.309-2.9238-2.9238 0-1.6148 1.309-2.9238 2.9238-2.9238zm0.52351 1.7932a0.12309 0.12309 0 0 0-0.1573 0.067979 0.11695 0.11695 0 0 0 0.070171 0.15248c0.47453 0.17631 0.79089 0.62277 0.78168 1.1233-0.012134 0.65157-0.56722 1.1704-1.2397 1.1587-0.67277-0.011695-1.2084-0.54924-1.1964-1.201 0.00877-0.47863 0.31343-0.89893 0.76399-1.0745a0.11681 0.11681 0 0 0 0.06754-0.1535 0.12324 0.12324 0 0 0-0.15847-0.065493c-0.54061 0.21066-0.90594 0.71502-0.91662 1.2894-0.014473 0.78197 0.62833 1.4271 1.4356 1.441 0.80697 0.014034 1.4732-0.60845 1.4876-1.3906 0.011111-0.60055-0.36855-1.1363-0.9381-1.3479zm-0.52351-0.47746a0.11988 0.11988 0 0 0-0.12178 0.11798v1.709a0.11988 0.11988 0 0 0 0.12178 0.11798 0.11988 0.11988 0 0 0 0.12178-0.11798v-1.709a0.11988 0.11988 0 0 0-0.12178-0.11798z" fill="#fff" stroke-width=".0057106" p-id="6618"/>
</svg>
