<?xml version="1.0" encoding="UTF-8"?>
<svg width="64" height="64" version="1.1" viewBox="0 0 16.933 16.933" xmlns="http://www.w3.org/2000/svg" xmlns:cc="http://creativecommons.org/ns#" xmlns:dc="http://purl.org/dc/elements/1.1/" xmlns:rdf="http://www.w3.org/1999/02/22-rdf-syntax-ns#" xmlns:xlink="http://www.w3.org/1999/xlink">
 <metadata>
  <rdf:RDF>
   <cc:Work rdf:about="">
    <dc:format>image/svg+xml</dc:format>
    <dc:type rdf:resource="http://purl.org/dc/dcmitype/StillImage"/>
    <dc:title/>
   </cc:Work>
  </rdf:RDF>
 </metadata>
 <circle cx="-330.35" cy="-328.38" r="0" fill="#5e4aa6" stroke-width=".26458"/>
 <g transform="matrix(.26458 0 0 .26458 -22.094 -.46545)" fill="#5e4aa6">
  <circle cx="-1156.1" cy="-1246.6" r="0"/>
  <circle cx="-1156.1" cy="-1246.6" r="0"/>
  <circle cx="-1240.3" cy="-1278.5" r="0"/>
 </g>
 <g transform="translate(17.33 .13229)" stroke-linecap="round" stroke-linejoin="round" stroke-width=".53274">
  <g transform="translate(.52916 -.52916)">
   <path d="m-13.758 3.1749v7.4082c0 0.43973 0.354 0.79373 0.79373 0.79373h10.054c0.43973 0 0.79373-0.354 0.79373-0.79373v-7.4082z" fill="#cfd8dc" style="paint-order:stroke fill markers"/>
   <path d="m-13.758 3.1749h11.641v-0.79373c0-0.43973-0.35401-0.79373-0.79373-0.79373h-10.054c-0.43973 0-0.79373 0.35401-0.79373 0.79373z" fill="#455a64" style="paint-order:stroke fill markers"/>
  </g>
  <path d="m-16.139 7.4082v7.4082c0 0.43973 0.354 0.79373 0.79373 0.79373h10.054c0.43973 0 0.79373-0.354 0.79373-0.79373v-7.4082z" fill="#eceff1" style="paint-order:stroke fill markers"/>
  <path d="m-16.139 7.4082h11.641v-0.79373c0-0.43973-0.35401-0.79373-0.79373-0.79373h-10.054c-0.43973 0-0.79373 0.35401-0.79373 0.79373z" fill="#607d8b" style="paint-order:stroke fill markers"/>
 </g>
</svg>
