<?xml version="1.0" encoding="UTF-8"?>
<!-- Created with Inkscape (http://www.inkscape.org/) -->
<svg width="64" height="64" version="1.1" viewBox="0 0 16.933 16.933" xmlns="http://www.w3.org/2000/svg" xmlns:cc="http://creativecommons.org/ns#" xmlns:dc="http://purl.org/dc/elements/1.1/" xmlns:rdf="http://www.w3.org/1999/02/22-rdf-syntax-ns#">
 <defs>
  <linearGradient id="SVGID_8_" x1="282.4" x2="185.32" y1="237.23" y2="334.31" gradientTransform="matrix(.031181 0 0 -.031181 1.1563 17.344)" gradientUnits="userSpaceOnUse">
   <stop stop-color="#C2CECE" offset="0"/>
   <stop stop-color="#BBC8C8" offset=".293"/>
   <stop stop-color="#A8B8B8" offset=".72"/>
   <stop stop-color="#97AAAA" offset="1"/>
  </linearGradient>
  <linearGradient id="SVGID_7_" x1="236.94" x2="236.94" y1="303.37" y2="208.83" gradientTransform="matrix(.031181 0 0 -.031181 1.1563 17.344)" gradientUnits="userSpaceOnUse">
   <stop stop-color="#C2CECE" offset="0"/>
   <stop stop-color="#97AAAA" offset="1"/>
  </linearGradient>
  <linearGradient id="SVGID_5_" x1="342.58" x2="116.31" y1="388.33" y2="162.06" gradientTransform="matrix(.031181 0 0 -.031181 1.1563 17.344)" gradientUnits="userSpaceOnUse">
   <stop stop-color="#00A6F9" offset="0"/>
   <stop stop-color="#0071E2" offset="1"/>
  </linearGradient>
  <linearGradient id="SVGID_4_" x1="310.81" x2="153.06" y1="208.82" y2="366.57" gradientTransform="matrix(.031181 0 0 -.031181 1.1563 17.344)" gradientUnits="userSpaceOnUse">
   <stop stop-color="#C2CECE" offset="0"/>
   <stop stop-color="#BBC8C8" offset=".293"/>
   <stop stop-color="#A8B8B8" offset=".72"/>
   <stop stop-color="#97AAAA" offset="1"/>
  </linearGradient>
  <linearGradient id="SVGID_2_" x1="236.94" x2="236.94" y1="360.12" y2="54.827" gradientTransform="matrix(.031181 0 0 -.031181 1.1563 17.344)" gradientUnits="userSpaceOnUse">
   <stop stop-color="#C2CECE" offset="0"/>
   <stop stop-color="#97AAAA" offset="1"/>
  </linearGradient>
  <linearGradient id="SVGID_1_" x1="445.27" x2="103.39" y1="491.02" y2="149.14" gradientTransform="matrix(.031181 0 0 -.031181 1.1563 17.344)" gradientUnits="userSpaceOnUse">
   <stop stop-color="#5B6A6A" offset="0"/>
   <stop stop-color="#C2CECE" stop-opacity="0" offset=".311"/>
   <stop stop-color="#CAD5D5" stop-opacity=".157" offset=".348"/>
   <stop stop-color="#E0E8E7" stop-opacity=".669" offset=".47"/>
   <stop stop-color="#E8EFEE" offset=".549"/>
   <stop stop-color="#97AAAA" offset=".788"/>
   <stop stop-color="#9CAEAE" stop-opacity=".724" offset=".861"/>
   <stop stop-color="#AAB9B9" stop-opacity=".402" offset=".946"/>
   <stop stop-color="#B7C3C3" stop-opacity=".196" offset="1"/>
  </linearGradient>
 </defs>
 <metadata>
  <rdf:RDF>
   <cc:Work rdf:about="">
    <dc:format>image/svg+xml</dc:format>
    <dc:type rdf:resource="http://purl.org/dc/dcmitype/StillImage"/>
    <dc:title/>
   </cc:Work>
  </rdf:RDF>
 </metadata>
 <circle cx="-330.35" cy="-328.38" r="0" fill="#5e4aa6" stroke-width=".26458"/>
 <g stroke-width=".029231">
  <path d="m7.7321 16.013c-0.43557 0-0.79-0.3544-0.79-0.79v-0.3696c0-0.22604-0.14528-0.42695-0.36144-0.49983-0.26071-0.0879-0.51806-0.19456-0.76489-0.3171-0.073985-0.03674-0.15642-0.05616-0.23844-0.05616-0.14075 0-0.27276 0.05455-0.37173 0.15349l-0.26153 0.26153c-0.1492 0.14923-0.34759 0.23142-0.55861 0.23142-0.21105 0-0.40944-0.0822-0.55864-0.23139l-1.1482-1.1483c-0.14923-0.1492-0.23142-0.34759-0.23142-0.55861 0-0.21099 0.082168-0.40938 0.23142-0.55861l0.26153-0.26153c0.15995-0.15995 0.19909-0.40514 0.097282-0.61017-0.12251-0.24677-0.22917-0.50412-0.31704-0.76486-0.072874-0.21619-0.27375-0.36144-0.49985-0.36144h-0.3696c-0.43557-5.9e-5 -0.79-0.35446-0.79-0.79006v-1.6239c0-0.4356 0.35443-0.79 0.79-0.79h0.36957c0.22607 0 0.42698-0.14528 0.49985-0.36144 0.08787-0.26077 0.19453-0.51812 0.31704-0.76486 0.10181-0.205 0.062672-0.45022-0.097282-0.61017l-0.26153-0.26156c-0.14923-0.1492-0.23142-0.34759-0.23142-0.55861s0.082169-0.40941 0.23142-0.55864l1.1482-1.1483c0.1492-0.14923 0.34759-0.23142 0.55864-0.23142 0.21099 0 0.40941 0.082186 0.55861 0.2314l0.26153 0.26156c0.098977 0.098938 0.23099 0.15346 0.37173 0.15346 0.081993 0 0.16445-0.019437 0.23844-0.056155 0.24686-0.12251 0.50418-0.2292 0.76489-0.3171 0.21619-0.072866 0.36144-0.27372 0.36144-0.49982v-0.36957c5.86e-5 -0.4356 0.35449-0.79 0.79006-0.79h1.6239c0.43557 0 0.79 0.3544 0.79 0.79v0.3696c0 0.22607 0.14528 0.42695 0.36144 0.49982 0.26071 0.087898 0.51806 0.19456 0.76489 0.3171 0.07399 0.036749 0.15642 0.056156 0.23844 0.056156 0.14075-3.01e-5 0.27276-0.054549 0.37173-0.15349l0.26153-0.26153c0.1492-0.14923 0.34759-0.23142 0.55864-0.23142 0.21099 0 0.40938 0.082196 0.55861 0.2314l1.1482 1.1483c0.14922 0.1492 0.23142 0.34759 0.23142 0.55861 0 0.21099-0.08216 0.40941-0.23142 0.55861l-0.26153 0.26153c-0.15995 0.15995-0.1991 0.40514-0.09728 0.61017 0.12251 0.24677 0.22917 0.50412 0.31704 0.76486 0.07288 0.21619 0.27375 0.36144 0.49985 0.36144h0.36957c0.43557 0 0.79 0.3544 0.79 0.79v1.6239c0 0.4356-0.35443 0.79-0.79 0.79h-0.36954c-0.22608 0-0.42698 0.14528-0.49985 0.36144-0.08787 0.26077-0.19453 0.51812-0.31704 0.76486-0.10181 0.205-0.06268 0.45022 0.09728 0.61017l0.26153 0.26156c0.14923 0.1492 0.23142 0.34759 0.23142 0.55861s-0.08216 0.40941-0.23142 0.55864l-1.1482 1.1483c-0.1492 0.14923-0.34759 0.23142-0.55861 0.23142-0.21105 0-0.40944-0.0822-0.55864-0.23139l-0.26153-0.26156c-0.09898-0.09896-0.23098-0.15346-0.37173-0.15346-0.082 0-0.16446 0.01941-0.23844 0.05616-0.24686 0.12251-0.50418 0.2292-0.76489 0.3171-0.21619 0.07287-0.36144 0.27372-0.36144 0.49982v0.3696c0 0.4356-0.35443 0.79-0.79 0.79zm0.81198-9.8971c-0.57802 0-1.1689 0.20666-1.7088 0.59763-0.041303 0.029928-0.077492 0.066086-0.10745 0.10748-0.65867 0.90959-0.78088 1.9319-0.33525 2.8048 0.41502 0.81295 1.2395 1.318 2.1515 1.318 0.57802 0 1.1689-0.20666 1.7088-0.59763 0.04131-0.02993 0.07749-0.06609 0.10746-0.10748 0.65867-0.90959 0.78088-1.9319 0.33525-2.8048-0.41505-0.81298-1.2395-1.318-2.1515-1.318z" fill="url(#SVGID_1_)"/>
  <path d="m15.896 9.342v-1.6239c0-0.36358-0.29474-0.65834-0.65835-0.65834h-0.3696c-0.28369 0-0.534-0.18226-0.62456-0.45107-0.086871-0.25773-0.19073-0.5076-0.31023-0.74838-0.12637-0.25455-0.078775-0.56086 0.12215-0.76182l0.26156-0.26156c0.25712-0.25712 0.25712-0.67395 0-0.93104l-1.1483-1.1483c-0.25712-0.25712-0.67396-0.25712-0.93104 0l-0.26156 0.26156c-0.20096 0.20097-0.50728 0.24849-0.76182 0.12215-0.24078-0.11952-0.49065-0.22338-0.74838-0.31023-0.26884-0.090622-0.45107-0.34089-0.45107-0.62455v-0.36966c0-0.36358-0.29474-0.65835-0.65834-0.65835h-1.6239c-0.36358 0-0.65835 0.29474-0.65835 0.65835v0.3696c0 0.28369-0.18226 0.53397-0.45107 0.62455-0.25773 0.086871-0.5076 0.19073-0.74838 0.31023-0.25455 0.12637-0.56086 0.078775-0.76182-0.12215l-0.26156-0.26156c-0.25712-0.25712-0.67395-0.25712-0.93104 0l-1.1483 1.1483c-0.25712 0.25712-0.25712 0.67395 0 0.93104l0.26156 0.26156c0.20096 0.20096 0.24849 0.50728 0.12216 0.76182-0.11953 0.24078-0.22338 0.49065-0.31023 0.74838-0.090617 0.26884-0.34089 0.45107-0.62455 0.45107h-0.36966c-0.36358 0-0.65835 0.29474-0.65835 0.65834v1.6239c0 0.36358 0.29474 0.65834 0.65835 0.65834h0.3696c0.28369 0 0.53397 0.18226 0.62455 0.45106 0.086874 0.25773 0.19073 0.5076 0.31023 0.74838 0.12637 0.25455 0.078778 0.56086-0.12216 0.76182l-0.26156 0.26156c-0.25712 0.25712-0.25712 0.67396 0 0.93104l1.1483 1.1483c0.25712 0.25712 0.67395 0.25712 0.93104 0l0.26156-0.26156c0.20096-0.20096 0.50728-0.2485 0.76182-0.12215 0.24078 0.11954 0.49065 0.22338 0.74838 0.31023 0.26884 0.09062 0.45107 0.34089 0.45107 0.62455v0.3696c0 0.36358 0.29474 0.65834 0.65834 0.65834h1.6239c0.36358 0 0.65835-0.29474 0.65835-0.65834v-0.3696c0-0.28369 0.18226-0.534 0.45107-0.62455 0.25773-0.08687 0.5076-0.19073 0.74838-0.31023 0.25454-0.12636 0.56086-0.07878 0.76182 0.12215l0.26156 0.26156c0.25712 0.25712 0.67396 0.25712 0.93104 0l1.1483-1.1483c0.25712-0.25712 0.25712-0.67396 0-0.93104l-0.26156-0.26156c-0.20096-0.20097-0.2485-0.50728-0.12215-0.76182 0.11953-0.24078 0.22339-0.49065 0.31023-0.74838 0.09062-0.26884 0.34089-0.45106 0.62455-0.45106h0.3696c0.3637 0 0.65844-0.29477 0.65844-0.65834zm-5.5655 1.111c-2.6781 1.9393-5.6483-1.0309-3.709-3.709 0.038-0.052496 0.084361-0.098855 0.13689-0.13689 2.6781-1.9393 5.6483 1.0309 3.709 3.709-0.038 0.05254-0.08435 0.09889-0.13689 0.13689z" fill="url(#SVGID_2_)"/>
  <path d="m8.544 13.095c2.5208 0 4.5645-2.0437 4.5645-4.5645s-2.0438-4.5645-4.5645-4.5645c-2.5208 0-4.5645 2.0437-4.5645 4.5645s2.0437 4.5645 4.5645 4.5645zm0-7.7162c1.7405 0 3.1517 1.4112 3.1517 3.1517s-1.4112 3.1517-3.1517 3.1517-3.1517-1.4112-3.1517-3.1517 1.4112-3.1517 3.1517-3.1517z" fill="url(#SVGID_4_)"/>
  <path d="m8.544 4.1829c-2.4008 0-4.3472 1.9464-4.3472 4.3472s1.9464 4.3472 4.3472 4.3472 4.3471-1.9464 4.3471-4.3472-1.9464-4.3472-4.3471-4.3472zm0 6.5751c-1.2304 0-2.2279-0.99757-2.2279-2.2279 0-1.2304 0.99757-2.2279 2.2279-2.2279 1.2304 0 2.2279 0.99757 2.2279 2.2279 0 1.2304-0.9976 2.2279-2.2279 2.2279z" fill="url(#SVGID_5_)"/>
  <path d="m8.544 5.8548c-1.4774 0-2.6752 1.1978-2.6752 2.6752s1.1978 2.6752 2.6752 2.6752 2.6752-1.1978 2.6752-2.6752-1.1978-2.6752-2.6752-2.6752zm0 4.0462c-0.75715 0-1.371-0.61391-1.371-1.371 0-0.75712 0.61391-1.371 1.371-1.371 0.75712 0 1.371 0.61391 1.371 1.371 0 0.75712-0.61391 1.371-1.371 1.371z" fill="url(#SVGID_7_)"/>
  <path d="m8.544 11.339c1.5513 0 2.8089-1.2577 2.8089-2.8089 0-1.5513-1.2577-2.8089-2.8089-2.8089-1.5513 0-2.8089 1.2577-2.8089 2.8089 0 1.5513 1.2577 2.8089 2.8089 2.8089zm0-4.7485c1.0711 0 1.9395 0.86843 1.9395 1.9395 0 1.0711-0.86846 1.9395-1.9395 1.9395-1.0711 0-1.9395-0.86846-1.9395-1.9395 0-1.0711 0.86843-1.9395 1.9395-1.9395z" fill="url(#SVGID_8_)"/>
 </g>
</svg>
