<?xml version="1.0" encoding="UTF-8"?>
<!-- Created with Inkscape (http://www.inkscape.org/) -->
<svg width="64" height="64" version="1.1" viewBox="0 0 16.933 16.933" xmlns="http://www.w3.org/2000/svg" xmlns:cc="http://creativecommons.org/ns#" xmlns:dc="http://purl.org/dc/elements/1.1/" xmlns:rdf="http://www.w3.org/1999/02/22-rdf-syntax-ns#">
 <defs>
  <style type="text/css"/>
  <linearGradient id="c" x2="0" y1="532.79" y2="514.8" gradientTransform="matrix(.45061 0 0 .45061 -174.82 -226.77)" gradientUnits="userSpaceOnUse">
   <stop stop-color="#7cbaf8" offset="0"/>
   <stop stop-color="#f4fcff" offset="1"/>
  </linearGradient>
  <linearGradient id="linearGradient978-3" x1="1.9643" x2="14.969" y1="14.924" y2="2.3319" gradientTransform="translate(-.00022024 -7.3157e-5)" gradientUnits="userSpaceOnUse">
   <stop stop-color="#007deb" offset="0"/>
   <stop stop-color="#009bf5" offset="1"/>
  </linearGradient>
 </defs>
 <metadata>
  <rdf:RDF>
   <cc:Work rdf:about="">
    <dc:format>image/svg+xml</dc:format>
    <dc:type rdf:resource="http://purl.org/dc/dcmitype/StillImage"/>
    <dc:title/>
   </cc:Work>
  </rdf:RDF>
 </metadata>
 <circle cx="-330.35" cy="-328.38" r="0" fill="#5e4aa6" stroke-width=".26458"/>
 <circle cx="-330.35" cy="-328.37" r="0" fill="#5e4aa6" stroke-width=".26458"/>
 <path d="m16.404 8.4665c0 0.95153-0.16748 1.8639-0.47463 2.7093-0.2135 0.58768-0.49439 1.1433-0.8339 1.6572-0.14221 0.21607-0.29514 0.42473-0.45746 0.62528-0.51963 0.64176-1.1372 1.2006-1.8304 1.6543-0.2553 0.16716-0.52064 0.32009-0.79535 0.45711-1.0668 0.53387-2.271 0.83419-3.5456 0.83419-1.2745 0-2.4787-0.30032-3.5456-0.83422-0.27474-0.13706-0.54037-0.28998-0.79569-0.45711-0.70206-0.45973-1.327-1.0274-1.8509-1.6798-0.16262-0.20216-0.31522-0.41274-0.45746-0.63075-0.33046-0.50537-0.60419-1.0507-0.81347-1.627-0.3071-0.84527-0.47428-1.7572-0.47428-2.7085 0-4.3838 3.5535-7.9373 7.9373-7.9373 2.2005 0 4.1917 0.89544 5.6294 2.3416 0.41436 0.4166 0.78273 0.87927 1.0963 1.3795 0.29643 0.47105 0.54426 0.97579 0.73704 1.5067 0.30718 0.84557 0.47465 1.7579 0.47465 2.7093z" fill="url(#linearGradient978-3)" stroke-width=".031006"/>
 <circle cx="-330.35" cy="-328.37" r="0" fill="#5e4aa6" stroke-width=".26458"/>
 <circle cx="-352.63" cy="-336.83" r="0" fill="#5e4aa6" stroke-width=".26458"/>
 <path d="m8.3841 5.1992a3.1526 3.1526 0 0 0-3.1526 3.1526 3.1526 3.1526 0 0 0 3.1526 3.1526 3.1526 3.1526 0 0 0 1.885-0.6307l2.4365 2.4365 0.63671-0.63671-2.4365-2.4365a3.1526 3.1526 0 0 0 0.63069-1.885 3.1526 3.1526 0 0 0-3.1526-3.1526m0 0.90074a2.2518 2.2518 0 0 1 2.2518 2.2518 2.2518 2.2518 0 0 1-0.01145 0.22518 2.2518 2.2518 0 0 1-0.36329 1.0151 2.2518 2.2518 0 0 1-0.63684 0.63684 2.2518 2.2518 0 0 1-0.17153 0.10204 2.2518 2.2518 0 0 1-0.021989 0.0132 2.2518 2.2518 0 0 1-0.00451 0.0018 2.2518 2.2518 0 0 1-0.19968 0.09236 2.2518 2.2518 0 0 1-0.19616 0.06861 2.2518 2.2518 0 0 1-0.016725 0.0062 2.2518 2.2518 0 0 1-0.00271 9.01e-4 2.2518 2.2518 0 0 1-0.20495 0.04838 2.2518 2.2518 0 0 1-0.011445 0.0027 2.2518 2.2518 0 0 1-0.00181 0 2.2518 2.2518 0 0 1-0.16537 0.02289 2.2518 2.2518 0 0 1-0.066853 0.0088 2.2518 2.2518 0 0 1-0.17681 7e-3 2.2518 2.2518 0 0 1-2.2518-2.2518 2.2518 2.2518 0 0 1 0.011445-0.22518 2.2518 2.2518 0 0 1 1.0239-1.6695 2.2518 2.2518 0 0 1 0.40023-0.20407 2.2518 2.2518 0 0 1 0.81629-0.15306" fill="url(#c)" stroke-width=".58579"/>
</svg>
