<?xml version="1.0" encoding="UTF-8"?>
<!-- Created with Inkscape (http://www.inkscape.org/) -->
<svg width="64" height="64" version="1.1" viewBox="0 0 16.933 16.933" xmlns="http://www.w3.org/2000/svg" xmlns:cc="http://creativecommons.org/ns#" xmlns:dc="http://purl.org/dc/elements/1.1/" xmlns:rdf="http://www.w3.org/1999/02/22-rdf-syntax-ns#" xmlns:xlink="http://www.w3.org/1999/xlink">
 <defs>
  <linearGradient id="linearGradient1029" x2="512" y1="71.92" y2="71.92" gradientUnits="userSpaceOnUse">
   <stop stop-color="#1d2123" offset="0"/>
   <stop stop-color="#33383d" offset="1"/>
  </linearGradient>
  <linearGradient id="linearGradient1047" x2="512" y1="283.2" y2="283.2" gradientUnits="userSpaceOnUse" xlink:href="#linearGradient1029"/>
 </defs>
 <metadata>
  <rdf:RDF>
   <cc:Work rdf:about="">
    <dc:format>image/svg+xml</dc:format>
    <dc:type rdf:resource="http://purl.org/dc/dcmitype/StillImage"/>
    <dc:title/>
   </cc:Work>
  </rdf:RDF>
 </metadata>
 <circle cx="-330.35" cy="-328.38" r="0" fill="#5e4aa6" stroke-width=".26458"/>
 <g transform="matrix(.031005 0 0 .031005 .52916 .52916)">
  <path d="m512 99.04v-25.44c0-15.84-12.96-28.8-28.8-28.8h-454.4c-15.84 0-28.8 12.96-28.8 28.8v25.44z" fill="url(#linearGradient1029)"/>
  <g fill="#fff">
   <path d="m147.04 44.8h-118.24c-15.84 0-28.8 12.96-28.8 28.8v25.44h115.84z" enable-background="new" opacity=".25"/>
   <rect x="8" y="107.2" width="496" height="352"/>
  </g>
  <path d="m496 115.2v336h-480v-336h480m16-16h-512v368h512z" fill="url(#linearGradient1047)"/>
  <path d="m483.37 126.39v313.61h-454.74v-313.61h454.74m3.9202-3.9202h-462.58v321.45h462.58z" fill="#c8c8c8" stroke-width=".98004"/>
  <circle cx="40.48" cy="72" r="8.16" fill="#f00"/>
  <circle cx="65.12" cy="72" r="8.16" fill="#22acdd"/>
  <g fill="#fff">
   <circle cx="89.6" cy="72" r="8.16"/>
   <path d="m428.32 86.4h-257.44c-7.84 0-14.4-6.4-14.4-14.4 0-7.84 6.4-14.4 14.4-14.4h257.44c7.84 0 14.4 6.4 14.4 14.4-0.16 7.84-6.56 14.4-14.4 14.4z"/>
  </g>
  <path d="m180.64 65.44 1.92 7.52c0.48 1.6 0.8 3.2 1.12 4.8h0.16c0.32-1.44 0.8-3.04 1.28-4.64l2.4-7.52h2.24l2.24 7.52c0.48 1.76 0.96 3.36 1.28 4.8h0.16c0.32-1.44 0.64-3.04 1.12-4.8l2.08-7.52h2.72l-4.8 14.88h-2.4l-2.24-7.04c-0.48-1.6-0.96-3.2-1.28-4.96-0.32 1.76-0.8 3.36-1.28 4.96l-2.4 7.04h-2.4l-4.48-14.88h2.56z"/>
  <path d="m203.52 65.44 1.92 7.52c0.48 1.6 0.8 3.2 1.12 4.8h0.16c0.32-1.44 0.8-3.04 1.28-4.64l2.4-7.52h2.24l2.24 7.52c0.48 1.76 0.96 3.36 1.28 4.8h0.16c0.32-1.44 0.64-3.04 1.12-4.8l2.08-7.52h2.72l-4.8 14.88h-2.4l-2.24-7.36c-0.48-1.6-0.96-3.2-1.28-4.96-0.32 1.76-0.8 3.36-1.28 4.96l-2.4 7.04h-2.4l-4.48-14.88h2.56z"/>
  <path d="m226.56 65.44 1.92 7.52c0.48 1.6 0.8 3.2 1.12 4.8h0.16c0.32-1.44 0.8-3.04 1.28-4.64l2.4-7.52h2.24l2.24 7.52c0.48 1.76 0.96 3.36 1.28 4.8h0.16c0.32-1.44 0.64-3.04 1.12-4.8l2.08-7.52h2.72l-4.8 14.88h-2.4l-2.24-7.04c-0.48-1.6-0.96-3.2-1.28-4.96-0.32 1.76-0.8 3.36-1.28 4.96l-2.4 7.04h-2.4l-4.48-14.88h2.56z"/>
  <path d="m246.24 78.72c0-1.12 0.8-1.92 1.92-1.92s1.76 0.8 1.76 1.92-0.64 1.92-1.92 1.92c-1.12 0-1.76-0.8-1.76-1.92z"/>
  <g fill="#fff">
   <rect x="461.28" y="70.4" width="23.04" height="4"/>
   <polygon points="486.56 72.32 474.56 84.32 471.68 81.44 480.8 72.32 471.68 63.2 474.56 60.48"/>
  </g>
  <polygon points="414.56 67.36 429.76 67.36 422.24 77.28" fill="#c9c9c9"/>
  <polygon transform="translate(-25.456 -11.571)" points="343.36 387.68 369.76 361.12 307.68 299.04 334.24 272.64 236.32 255.52 253.28 353.6 281.28 325.6" fill="#1e2224"/>
 </g>
</svg>
