<?xml version="1.0" encoding="UTF-8"?>
<!-- Created with Inkscape (http://www.inkscape.org/) -->
<svg width="64" height="64" version="1.1" viewBox="0 0 16.933 16.933" xmlns="http://www.w3.org/2000/svg" xmlns:cc="http://creativecommons.org/ns#" xmlns:dc="http://purl.org/dc/elements/1.1/" xmlns:rdf="http://www.w3.org/1999/02/22-rdf-syntax-ns#" xmlns:xlink="http://www.w3.org/1999/xlink">
 <defs>
  <linearGradient id="linearGradient947">
   <stop stop-color="#eb002e" offset="0"/>
   <stop stop-color="#f55400" offset="1"/>
  </linearGradient>
  <linearGradient id="linearGradient985">
   <stop stop-color="#007deb" offset="0"/>
   <stop stop-color="#009bf5" offset="1"/>
  </linearGradient>
  <linearGradient id="linearGradient987" x1="5.3364" x2="11.74" y1="12.054" y2="5.2378" gradientUnits="userSpaceOnUse" xlink:href="#linearGradient985"/>
  <linearGradient id="linearGradient991" x1="5.3364" x2="11.74" y1="12.054" y2="5.2378" gradientTransform="matrix(.069395 0 0 .069395 7.7355 1.5427)" gradientUnits="userSpaceOnUse" xlink:href="#linearGradient985"/>
  <linearGradient id="linearGradient1001" x1="5.3364" x2="11.74" y1="12.054" y2="5.2378" gradientTransform="matrix(0 .069395 -.069395 0 15.336 7.6817)" gradientUnits="userSpaceOnUse" xlink:href="#linearGradient985"/>
  <linearGradient id="linearGradient1003" x1="5.3364" x2="11.74" y1="12.054" y2="5.2378" gradientTransform="matrix(0 .069395 -.069395 0 2.7716 7.6817)" gradientUnits="userSpaceOnUse" xlink:href="#linearGradient985"/>
  <linearGradient id="linearGradient884" x1="5.3364" x2="11.74" y1="12.054" y2="5.2378" gradientTransform="matrix(.060098 .034698 -.034698 .060098 11.276 2.1766)" gradientUnits="userSpaceOnUse" xlink:href="#linearGradient985"/>
  <linearGradient id="linearGradient892" x1="5.3364" x2="11.74" y1="12.054" y2="5.2378" gradientTransform="matrix(.034698 .060098 -.060098 .034698 14.025 4.4958)" gradientUnits="userSpaceOnUse" xlink:href="#linearGradient985"/>
  <linearGradient id="linearGradient902" x1="5.3364" x2="11.74" y1="12.054" y2="5.2378" gradientTransform="matrix(-.034698 .060098 -.060098 -.034698 3.6378 5.0831)" gradientUnits="userSpaceOnUse" xlink:href="#linearGradient947"/>
  <linearGradient id="linearGradient910" x1="5.3364" x2="11.74" y1="12.054" y2="5.2378" gradientTransform="matrix(-.060098 .034698 -.034698 -.060098 5.9571 3.1938)" gradientUnits="userSpaceOnUse" xlink:href="#linearGradient985"/>
  <linearGradient id="linearGradient918" x1="10.867" x2="6.2629" y1="6.1108" y2="10.715" gradientTransform="matrix(.57486 0 0 .57486 3.5996 3.5994)" gradientUnits="userSpaceOnUse" xlink:href="#linearGradient985"/>
  <linearGradient id="linearGradient941" x1="5.3364" x2="11.74" y1="12.054" y2="5.2378" gradientTransform="matrix(0 .10267 -.10267 0 5.98 5.7009)" gradientUnits="userSpaceOnUse" xlink:href="#linearGradient947"/>
  <linearGradient id="linearGradient982" x1="5.9579" x2="10.987" y1="6.9597" y2="9.8633" gradientUnits="userSpaceOnUse">
   <stop stop-color="#f0f0f0" stop-opacity=".78431" offset="0"/>
   <stop stop-color="#fafafa" stop-opacity="0" offset="1"/>
  </linearGradient>
  <linearGradient id="linearGradient1174">
   <stop stop-color="#dc0000" offset="0"/>
   <stop stop-color="#a00" offset="1"/>
  </linearGradient>
  <linearGradient id="linearGradient1150">
   <stop stop-color="#4c4e4c" offset="0"/>
   <stop stop-color="#202020" offset="1"/>
  </linearGradient>
  <linearGradient id="linearGradient1152" x1="2.8791" x2="6.521" y1="3.103" y2="6.745" gradientUnits="userSpaceOnUse" xlink:href="#linearGradient1150"/>
  <linearGradient id="linearGradient1160" x1="13.833" x2="10.362" y1="13.592" y2="10.122" gradientUnits="userSpaceOnUse" xlink:href="#linearGradient1150"/>
  <linearGradient id="linearGradient1176" x1="6.7098" x2="10.184" y1="10.247" y2="6.7732" gradientUnits="userSpaceOnUse" xlink:href="#linearGradient1174"/>
  <linearGradient id="linearGradient1261" x1="-3.5951" x2="-1.4147" y1="-.08157" y2="-2.7277" gradientTransform="matrix(1.4809,0,0,1.4809,16.417,5.2999)" gradientUnits="userSpaceOnUse" xlink:href="#linearGradient1174"/>
  <linearGradient id="linearGradient853" x1="64.826" x2="69.615" y1="7.9473" y2="9.5329" gradientUnits="userSpaceOnUse">
   <stop stop-color="#007deb" offset="0"/>
   <stop stop-color="#009bf5" offset="1"/>
  </linearGradient>
  <linearGradient id="linearGradient871" x1="65.98" x2="68.769" y1="5.4085" y2="5.4085" gradientUnits="userSpaceOnUse">
   <stop stop-color="#007deb" offset="0"/>
   <stop stop-color="#0069d2" offset="1"/>
  </linearGradient>
  <filter id="filter885" x="-.06" y="-.06" width="1.12" height="1.12" color-interpolation-filters="sRGB">
   <feGaussianBlur stdDeviation="0.14867499"/>
  </filter>
  <linearGradient id="linearGradient1005" x1=".73911" x2="16.388" y1="16.296" y2=".64687" gradientTransform="matrix(.91665 0 0 .91665 .6739 .71189)" gradientUnits="userSpaceOnUse">
   <stop stop-color="#00a0ff" offset="0"/>
   <stop stop-color="#37beff" offset="1"/>
  </linearGradient>
  <linearGradient id="w" x1="123.64" x2="146.53" y1="131.03" y2="174.71" gradientTransform="matrix(4.2812,0,0,3.5908,41,42)" gradientUnits="userSpaceOnUse">
   <stop stop-color="#fafafa" offset="0"/>
   <stop stop-color="#fff" offset="1"/>
  </linearGradient>
  <filter id="filter1152" x="-.055255" y="-.065641" width="1.1105" height="1.1313" color-interpolation-filters="sRGB">
   <feGaussianBlur stdDeviation="2.9934784"/>
  </filter>
  <linearGradient id="SVGID_1_-6" x1="445.27" x2="103.39" y1="491.02" y2="149.14" gradientTransform="matrix(.075503 0 0 -.075503 14.111 53.343)" gradientUnits="userSpaceOnUse">
   <stop stop-color="#5B6A6A" offset="0"/>
   <stop stop-color="#C2CECE" stop-opacity="0" offset=".311"/>
   <stop stop-color="#CAD5D5" stop-opacity=".157" offset=".348"/>
   <stop stop-color="#E0E8E7" stop-opacity=".669" offset=".47"/>
   <stop stop-color="#E8EFEE" offset=".549"/>
   <stop stop-color="#97AAAA" offset=".788"/>
   <stop stop-color="#9CAEAE" stop-opacity=".724" offset=".861"/>
   <stop stop-color="#AAB9B9" stop-opacity=".402" offset=".946"/>
   <stop stop-color="#B7C3C3" stop-opacity=".196" offset="1"/>
  </linearGradient>
  <linearGradient id="h-2" x1="73.823" x2="68.874" y1="17.956" y2="119.07" gradientTransform="matrix(.465 0 0 .465 46.27 -76.042)" gradientUnits="userSpaceOnUse">
   <stop stop-color="#2c2d31" offset="0"/>
   <stop stop-color="#3c3e43" offset="1"/>
  </linearGradient>
  <radialGradient id="a-9" cx="64.985" cy="65.333" r="59.751" gradientTransform="matrix(.465 0 0 .465 46.27 -76.042)" gradientUnits="userSpaceOnUse">
   <stop stop-color="#2c2d31" offset="0"/>
   <stop stop-color="#393b3f" offset=".72577"/>
   <stop stop-color="#232529" offset="1"/>
  </radialGradient>
  <filter id="j-1" x="-.036" y="-.036" width="1.072" height="1.072" color-interpolation-filters="sRGB">
   <feGaussianBlur stdDeviation="1.7925294"/>
  </filter>
  <linearGradient id="SVGID_8_-2" x1="282.4" x2="185.32" y1="237.23" y2="334.31" gradientTransform="matrix(.075503 0 0 -.075503 14.111 53.343)" gradientUnits="userSpaceOnUse" xlink:href="#SVGID_1_-6">
   <stop stop-color="#dee2e4" offset="0"/>
   <stop stop-color="#dee2e4" offset=".293"/>
   <stop stop-color="#a6aeb2" offset=".72"/>
   <stop stop-color="#9aa2a6" offset="1"/>
  </linearGradient>
  <linearGradient id="SVGID_7_-7" x1="236.94" x2="236.94" y1="303.37" y2="208.83" gradientTransform="matrix(.075503 0 0 -.075503 14.111 53.343)" gradientUnits="userSpaceOnUse">
   <stop stop-color="#dee2e4" offset="0"/>
   <stop stop-color="#9ea7aa" offset="1"/>
  </linearGradient>
  <linearGradient id="SVGID_2_-0" x1="236.94" x2="236.94" y1="360.12" y2="54.827" gradientTransform="matrix(.075503 0 0 -.075503 14.111 53.343)" gradientUnits="userSpaceOnUse">
   <stop stop-color="#dee2e4" offset="0"/>
   <stop stop-color="#889296" offset="1"/>
  </linearGradient>
  <linearGradient id="linearGradient894" x1="445.27" x2="103.39" y1="491.02" y2="149.14" gradientTransform="matrix(.075503 0 0 -.075503 14.111 53.343)" gradientUnits="userSpaceOnUse" xlink:href="#SVGID_1_-6"/>
  <linearGradient id="b" x1="399.57" x2="399.57" y1="545.8" y2="517.8" gradientTransform="matrix(2.1429,0,0,2.1429,-826.36,-1107.5)" gradientUnits="userSpaceOnUse">
   <stop stop-color="#3889e9" offset="0"/>
   <stop stop-color="#5ea5fb" offset="1"/>
  </linearGradient>
  <linearGradient id="linearGradient901" x1="520.68" x2="515.31" y1="533.79" y2="41.047" gradientTransform="matrix(.14406 0 0 .14406 -28.073 -3.4131)" gradientUnits="userSpaceOnUse">
   <stop stop-color="#505f64" offset="0"/>
   <stop stop-color="#323232" offset=".31233"/>
   <stop stop-color="#647378" offset="1"/>
  </linearGradient>
  <linearGradient id="linearGradient935" x1="125" x2="125" y1="62" y2="24" gradientTransform="translate(-93 .0021625)" gradientUnits="userSpaceOnUse">
   <stop stop-color="#282828" offset="0"/>
   <stop stop-color="#141414" offset="1"/>
  </linearGradient>
  <linearGradient id="linearGradient963" x1="125" x2="125" y1="2" y2="62" gradientTransform="translate(-93 .0021625)" gradientUnits="userSpaceOnUse">
   <stop stop-color="#f5f5f5" offset="0"/>
   <stop stop-color="#d2d2d2" offset="1"/>
  </linearGradient>
  <linearGradient id="linearGradient982-3" x1="125" x2="125" y1="22" y2="2" gradientUnits="userSpaceOnUse">
   <stop stop-color="#f0faff" offset="0"/>
   <stop stop-color="#d0d0d0" offset="1"/>
  </linearGradient>
  <linearGradient id="linearGradient1034" x1="125" x2="125.5" y1="61.93" y2="14.334" gradientTransform="translate(-93 .0021625)" gradientUnits="userSpaceOnUse">
   <stop stop-color="#0096ff" offset="0"/>
   <stop stop-color="#00dcff" offset="1"/>
  </linearGradient>
  <linearGradient id="linearGradient978" x1="1.9643" x2="14.969" y1="14.924" y2="2.3319" gradientTransform="matrix(3.7796,0,0,3.7796,-9.845e-4,-2.2715e-4)" gradientUnits="userSpaceOnUse">
   <stop stop-color="#007deb" offset="0"/>
   <stop stop-color="#009bf5" offset="1"/>
  </linearGradient>
  <linearGradient id="linearGradient978-6" x1="1.9643" x2="14.969" y1="14.924" y2="2.3319" gradientTransform="matrix(3.7796,0,0,3.7796,-8.82e-4,-2.128e-4)" gradientUnits="userSpaceOnUse">
   <stop stop-color="#ff673c" offset="0"/>
   <stop stop-color="#ff8f14" offset="1"/>
  </linearGradient>
  <linearGradient id="linearGradient4626" x1=".26458" x2="16.668" y1="8.3866" y2="8.3866" gradientUnits="userSpaceOnUse" xlink:href="#linearGradient963"/>
 </defs>
 <metadata>
  <rdf:RDF>
   <cc:Work rdf:about="">
    <dc:format>image/svg+xml</dc:format>
    <dc:type rdf:resource="http://purl.org/dc/dcmitype/StillImage"/>
    <dc:title/>
   </cc:Work>
  </rdf:RDF>
 </metadata>
 <circle cx="-330.35" cy="-328.38" r="0" fill="#5e4aa6" stroke-width=".26458"/>
 <circle cx="-330.37" cy="-327.98" r="0" fill="#5e4aa6" stroke-width=".26458"/>
 <rect x=".52916" y=".44927" width="15.875" height="15.875" ry=".95379" fill="none" stroke="url(#linearGradient4626)" stroke-width=".39687" style="paint-order:stroke fill markers"/>
 <g transform="translate(-.045355 -.22922)">
  <g transform="translate(0 -1.3445)">
   <g transform="matrix(.25 0 0 .25 1.0969 2.8858)">
    <circle cx="-330.35" cy="-328.38" r="0" fill="#5e4aa6" stroke-width=".26458"/>
    <path d="m16.404 8.4665c0 0.95152-0.16748 1.8639-0.47463 2.7093-0.2135 0.58767-0.49438 1.1433-0.83391 1.6572-0.14221 0.21607-0.29514 0.42473-0.45746 0.62527-0.51964 0.64177-1.1372 1.2006-1.8304 1.6543-0.2553 0.16716-0.52064 0.32009-0.79534 0.45711-1.0668 0.53387-2.271 0.83419-3.5456 0.83419-1.2745 0-2.4787-0.30032-3.5456-0.83421-0.27473-0.13706-0.54038-0.28997-0.79568-0.45711-0.70205-0.45972-1.327-1.0274-1.8509-1.6798-0.16262-0.20216-0.31523-0.41274-0.45745-0.63076-0.33045-0.50538-0.6042-1.0507-0.81348-1.627-0.3071-0.84527-0.47429-1.7572-0.47429-2.7085 0-4.3837 3.5536-7.9373 7.9373-7.9373 2.2005 0 4.1916 0.89545 5.6294 2.3416 0.41435 0.41661 0.78273 0.87927 1.0963 1.3795 0.29644 0.47106 0.54426 0.9758 0.73703 1.5067 0.30717 0.84557 0.47466 1.7579 0.47466 2.7093z" fill="#fafafa" stroke-width=".031005"/>
    <g transform="translate(-.080525 .051317)">
     <circle cx="8.547" cy="8.4152" r="6.2828" fill="#3c3c50" style="paint-order:stroke fill markers"/>
     <circle cx="8.547" cy="8.4152" r="6.0893" fill="#41465f" style="paint-order:stroke fill markers"/>
     <circle cx="8.547" cy="8.4152" r="3.3114" fill="#2d2d41" style="paint-order:stroke fill markers"/>
     <circle cx="8.547" cy="8.4152" r="1.1873" fill="#28282d" style="paint-order:stroke fill markers"/>
     <circle cx="5.3095" cy="5.2833" r="1.1873" fill="#a5a5b4" style="paint-order:stroke fill markers"/>
    </g>
    <circle cx="13.655" cy="3.8262" r=".43468" fill="#c81919" stroke-width="1.2683" style="paint-order:stroke fill markers"/>
   </g>
   <g transform="matrix(.24994 0 0 .24994 6.3957 2.8864)">
    <path d="m11.39 8.4665a2.9238 2.9238 0 0 1-2.8079 2.9215 2.9238 2.9238 0 0 1-3.0306-2.6898 2.9238 2.9238 0 0 1 2.5675-3.1348 2.9238 2.9238 0 0 1 3.2342 2.4412" fill="#141414" style="paint-order:stroke fill markers"/>
    <circle cx="-330.35" cy="-328.38" r="0" fill="#5e4aa6" stroke-width=".26458"/>
    <g fill="#5e4aa6" stroke-width=".26458">
     <circle cx="-330.35" cy="-328.38" r="0"/>
     <circle cx="-330.35" cy="-328.38" r="0"/>
     <circle cx="-352.63" cy="-336.84" r="0"/>
    </g>
    <g stroke-width=".031005">
     <path d="m11.133 11.089-4.1271-1.26-1.1028-3.6482-4.6886-0.94334c-0.16607 0.37443-0.30539 0.7662-0.41477 1.1744-1.1345 4.2342 1.3784 8.5867 5.6125 9.7212 2.1171 0.56727 4.2637 0.22285 6.023-0.79292z" fill="#141414"/>
     <path d="m10.521 0.79962c-2.1171-0.56727-4.2637-0.22285-6.023 0.79292l1.3023 4.2513 3.809 1.0845 1.421 3.8236 4.6886 0.94334c0.16606-0.3744 0.30535-0.7662 0.41474-1.1744 1.1345-4.2342-1.3784-8.5867-5.6125-9.7213z" fill="#141414"/>
     <path d="m4.4978 1.5925c-1.4202 0.81991-2.5875 2.0772-3.2834 3.6452l4.4147 1.9656 1.2846-1.4263z" fill="url(#linearGradient1152)"/>
     <path d="m11.304 9.7297-1.2846 1.4263 2.4159 4.1845c1.4202-0.81991 2.5875-2.0772 3.2834-3.6452z" fill="url(#linearGradient1160)"/>
     <path d="m8.4665 5.3611c-1.7151 0-3.1054 1.3903-3.1054 3.1054s1.3903 3.1054 3.1054 3.1054c1.715 0 3.1054-1.3903 3.1054-3.1054s-1.3903-3.1054-3.1054-3.1054zm0 4.1813c-0.59425 0-1.0759-0.4817-1.0759-1.0759 0-0.59425 0.4817-1.0759 1.0759-1.0759 0.59425 0 1.0759 0.4817 1.0759 1.0759 0 0.59425-0.4817 1.0759-1.0759 1.0759z" fill="#050505"/>
    </g>
    <path d="m8.4665 5.7916c-1.4773 0-2.6749 1.1976-2.6749 2.6749s1.1976 2.6749 2.6749 2.6749 2.6749-1.1976 2.6749-2.6749-1.1976-2.6749-2.6749-2.6749zm0 3.6016c-0.51187 0-0.92678-0.41492-0.92678-0.92678 0-0.51187 0.41492-0.92678 0.92678-0.92678 0.51187 0 0.92678 0.41492 0.92678 0.92678 0 0.51187-0.41492 0.92678-0.92678 0.92678z" fill="url(#linearGradient1176)" stroke-width=".026707"/>
    <circle cx="8.4665" cy="8.4665" r="1.032" fill="none" stroke="#050505" stroke-dashoffset="3" stroke-linecap="round" stroke-width=".24953" style="paint-order:stroke fill markers"/>
    <path d="m11.644 6.0082c0.58968 0.014379 1.1096-0.19099 1.3934-0.50811 0.10086-0.11291 0.16613-0.24628 0.17869-0.2727 0.0076-0.015666 0.01377-0.032242 0.01903-0.049334l0.74507-2.4548c0.04403-0.1449 0.16471-0.1739 0.26351-0.059046 0.0764 0.088956 0.15836 0.18983 0.24175 0.30196 0.3434 0.46136 0.37111 1.0683 0.18801 1.5577-0.18335 0.48933-0.52973 0.62749-0.4185 0.78249 0.11136 0.15525 0.54799-0.23062 0.83208-0.68939 0.28396-0.4589 0.31569-1.2265 0.05942-1.8548-0.25626-0.6284-0.62956-1.0324-0.70078-1.3603-0.0044-0.020976-0.0089-0.041565-0.01347-0.061636-0.0076-0.033925-0.0044-0.091936 0.0069-0.12923l0.02059-0.067721c0.0559-0.18387-0.04769-0.3781-0.23182-0.43391-0.18374-0.055809-0.37797 0.04804-0.43378 0.23178l-0.9033 2.9763c-0.04403 0.1449-0.17947 0.18944-0.31569 0.12366-0.25004-0.12081-0.55174-0.19501-0.87805-0.20291-0.88064-0.021624-1.6063 0.44673-1.6209 1.0461-0.01466 0.59914 0.68719 1.1025 1.5678 1.1238z" fill="url(#linearGradient1261)" stroke-width=".12949"/>
   </g>
   <g transform="matrix(.25 0 0 .25 11.694 2.8858)">
    <circle cx="-330.35" cy="-328.38" r="0" fill="#5e4aa6" stroke-width=".26458"/>
    <path d="m16.404 8.4665c0 0.95152-0.16748 1.8639-0.47463 2.7093-0.2135 0.58767-0.49438 1.1433-0.83391 1.6572-0.14221 0.21607-0.29514 0.42473-0.45746 0.62527-0.51964 0.64177-1.1372 1.2006-1.8304 1.6543-0.2553 0.16716-0.52064 0.32009-0.79534 0.45711-1.0668 0.53387-2.271 0.83419-3.5456 0.83419-1.2745 0-2.4787-0.30032-3.5456-0.83421-0.27473-0.13706-0.54038-0.28997-0.79568-0.45711-0.70205-0.45972-1.327-1.0274-1.8509-1.6798-0.16262-0.20216-0.31523-0.41274-0.45745-0.63076-0.33045-0.50538-0.6042-1.0507-0.81348-1.627-0.3071-0.84527-0.47429-1.7572-0.47429-2.7085 0-4.3837 3.5536-7.9373 7.9373-7.9373 2.2005 0 4.1916 0.89545 5.6294 2.3416 0.41435 0.41661 0.78273 0.87927 1.0963 1.3795 0.29644 0.47106 0.54426 0.9758 0.73703 1.5067 0.30717 0.84557 0.47466 1.7579 0.47466 2.7093z" fill="#fafafa" stroke-width=".031005"/>
    <g transform="translate(-58.412,-1.6136)">
     <circle cx="66.879" cy="10.08" r="4.6718" fill="none" stroke="url(#linearGradient853)" stroke-dashoffset=".42096" stroke-linecap="round" stroke-width="3.846" style="paint-order:stroke fill markers"/>
     <circle cx="66.879" cy="5.4085" r="1.9231" fill="url(#linearGradient871)" style="paint-order:stroke fill markers"/>
     <circle transform="matrix(.96489 0 0 .96489 -3.5093 .97079)" cx="72.95" cy="9.562" r="2.9735" filter="url(#filter885)" opacity=".25" style="paint-order:stroke fill markers"/>
     <circle cx="66.879" cy="10.08" r="2.8691" fill="#fff" style="paint-order:stroke fill markers"/>
    </g>
   </g>
  </g>
  <g transform="translate(0 2.4353)">
   <g transform="matrix(.25 0 0 .25 1.0969 9.0218)">
    <circle cx="-330.35" cy="-328.38" r="0" fill="#5e4aa6" stroke-width=".26458"/>
    <circle cx="-330.35" cy="-328.38" r="0" fill="#5e4aa6" stroke-width=".26458"/>
    <path d="m16.404 8.4665c0 0.95152-0.16748 1.8639-0.47463 2.7093-0.2135 0.58767-0.49438 1.1433-0.83391 1.6572-0.14221 0.21607-0.29514 0.42473-0.45746 0.62527-0.51964 0.64177-1.1372 1.2006-1.8304 1.6543-0.2553 0.16716-0.52064 0.32009-0.79534 0.45711-1.0668 0.53387-2.271 0.83419-3.5456 0.83419-1.2745 0-2.4787-0.30032-3.5456-0.83421-0.27473-0.13706-0.54038-0.28997-0.79568-0.45711-0.70205-0.45972-1.327-1.0274-1.8509-1.6798-0.16262-0.20216-0.31523-0.41274-0.45745-0.63076-0.33045-0.50538-0.6042-1.0507-0.81348-1.627-0.3071-0.84527-0.47429-1.7572-0.47429-2.7085 0-4.3837 3.5536-7.9373 7.9373-7.9373 2.2005 0 4.1916 0.89545 5.6294 2.3416 0.41435 0.41661 0.78273 0.87927 1.0963 1.3795 0.29644 0.47106 0.54426 0.9758 0.73703 1.5067 0.30717 0.84557 0.47466 1.7579 0.47466 2.7093z" fill="#fafafa" stroke-width=".031005"/>
    <path d="m13.319 8.4665c0 0.58166-0.10238 1.1394-0.29014 1.6562-0.13051 0.35924-0.30222 0.6989-0.50977 1.013-0.08693 0.13208-0.18042 0.25964-0.27965 0.38223-0.31766 0.39232-0.69517 0.73393-1.1189 1.0113-0.15606 0.10218-0.31827 0.19567-0.48619 0.27943-0.65214 0.32636-1.3883 0.50994-2.1674 0.50994s-1.5152-0.18359-2.1674-0.50995c-0.16794-0.083784-0.33033-0.17726-0.4864-0.27943-0.42916-0.28103-0.8112-0.62805-1.1315-1.0269-0.09941-0.12358-0.1927-0.25231-0.27964-0.38558-0.202-0.30894-0.36935-0.64229-0.49728-0.99459-0.18773-0.51671-0.28993-1.0742-0.28993-1.6557 0-2.6798 2.1723-4.8521 4.8521-4.8521 1.3452 0 2.5623 0.54739 3.4413 1.4314 0.25329 0.25467 0.47848 0.5375 0.67017 0.84329 0.18121 0.28796 0.33271 0.59651 0.45055 0.92105 0.18777 0.5169 0.29016 1.0746 0.29016 1.6562z" fill="url(#linearGradient987)" stroke-width=".018953"/>
    <g stroke-width=".0013153">
     <path d="m8.6597 2.1303c0 0.040365-0.0071 0.079069-0.020134 0.11493-0.00906 0.02493-0.020972 0.0485-0.035375 0.0703-0.00603 0.00917-0.01252 0.018017-0.019406 0.026525-0.022044 0.027225-0.048241 0.050931-0.077648 0.070177-0.01083 0.00709-0.022086 0.013578-0.033739 0.019391-0.045255 0.022647-0.096339 0.035387-0.15041 0.035387-0.054066 0-0.10515-0.01274-0.15041-0.035388-0.011654-0.00581-0.022923-0.012301-0.033754-0.019391-0.029782-0.019502-0.056293-0.043584-0.078517-0.071259-0.0069-0.00858-0.013372-0.017509-0.019406-0.026758-0.014018-0.021439-0.025631-0.044572-0.034509-0.069019-0.013028-0.035857-0.02012-0.074542-0.02012-0.1149 0-0.18596 0.15075-0.33671 0.33671-0.33671 0.093348 0 0.17781 0.037986 0.23881 0.099334 0.017577 0.017673 0.033204 0.0373 0.046506 0.05852 0.012575 0.019983 0.023088 0.041395 0.031266 0.063916 0.013031 0.03587 0.020136 0.074572 0.020136 0.11493z" fill="url(#linearGradient991)"/>
     <path d="m14.748 8.6059c-0.04036 0-0.07907-0.0071-0.11493-0.020134-0.02493-0.00906-0.0485-0.020972-0.0703-0.035375-0.0092-0.00603-0.01802-0.01252-0.02653-0.019406-0.02722-0.022044-0.05093-0.048241-0.07018-0.077648-0.0071-0.01083-0.01358-0.022086-0.01939-0.033739-0.02265-0.045255-0.03539-0.096339-0.03539-0.15041 0-0.054066 0.01274-0.10515 0.03539-0.15041 0.0058-0.011654 0.0123-0.022923 0.01939-0.033754 0.0195-0.029782 0.04358-0.056293 0.07126-0.078517 0.0086-0.0069 0.01751-0.013372 0.02676-0.019406 0.02144-0.014018 0.04457-0.025631 0.06902-0.034509 0.03586-0.013028 0.07454-0.02012 0.1149-0.02012 0.18596 0 0.33671 0.15075 0.33671 0.33671 0 0.093348-0.03799 0.17781-0.09933 0.23881-0.01767 0.017577-0.0373 0.033204-0.05852 0.046506-0.01998 0.012575-0.0414 0.023088-0.06392 0.031266-0.03587 0.013031-0.07457 0.020136-0.11493 0.020136z" fill="url(#linearGradient1001)"/>
     <path d="m2.1841 8.6059c-0.04036 1e-7 -0.07907-0.0071-0.11493-0.020134-0.02493-0.00906-0.0485-0.020972-0.0703-0.035375-0.0092-0.00603-0.01802-0.01252-0.02652-0.019406-0.02722-0.022044-0.05093-0.048241-0.07018-0.077648-0.0071-0.01083-0.01358-0.022086-0.01939-0.033739-0.02265-0.045255-0.03539-0.096339-0.03539-0.15041 0-0.054066 0.01274-0.10515 0.03539-0.15041 0.0058-0.011654 0.0123-0.022923 0.01939-0.033754 0.0195-0.029782 0.04358-0.056293 0.07126-0.078517 0.0086-0.0069 0.01751-0.013372 0.02676-0.019406 0.02144-0.014018 0.04457-0.025631 0.06902-0.034509 0.03586-0.013028 0.07454-0.02012 0.1149-0.02012 0.18596 0 0.33671 0.15075 0.33671 0.33671 0 0.093348-0.03799 0.17781-0.09933 0.23881-0.01767 0.017577-0.0373 0.033204-0.05852 0.046506-0.01998 0.012575-0.04139 0.023088-0.06392 0.031266-0.03587 0.013031-0.07457 0.020136-0.11493 0.020136z" fill="url(#linearGradient1003)"/>
     <path d="m11.783 3.1475c-0.02018 0.034957-0.04568 0.064926-0.0749 0.089465-0.02031 0.01706-0.04241 0.031516-0.06579 0.043194-0.0098 0.00493-0.01985 0.00934-0.03007 0.013268-0.0327 0.012556-0.06724 0.019987-0.10233 0.021951-0.01292 7.251e-4 -0.02592 7.159e-4 -0.03891-7.64e-5 -0.05052-0.00301-0.10113-0.017523-0.14795-0.044559-0.04682-0.027033-0.08469-0.063608-0.11256-0.10585-0.0072-0.010859-0.0137-0.022115-0.01954-0.03367-0.01604-0.03178-0.02696-0.065891-0.03237-0.10097-0.0017-0.01088-0.0028-0.021849-0.0034-0.032876-0.0014-0.025576 8.9e-5 -0.051416 0.0046-0.077027 0.0066-0.037567 0.01985-0.074615 0.04002-0.10957 0.09298-0.16105 0.29891-0.21622 0.45996-0.12324 0.08084 0.046674 0.135 0.1218 0.15715 0.20543 0.0064 0.024094 0.01011 0.048905 0.01102 0.073933 8.98e-4 0.023593-7.03e-4 0.047393-0.0049 0.070986-0.0067 0.03758-0.01985 0.074649-0.04003 0.1096z" fill="url(#linearGradient884)"/>
     <path d="m13.979 5.59c-0.03496 0.020184-0.07202 0.033388-0.1096 0.040029-0.02612 0.00462-0.05249 0.00609-0.07857 0.00451-0.01095-6.305e-4 -0.02186-0.00184-0.03268-0.00354-0.0346-0.00548-0.06822-0.016311-0.0996-0.032157-0.01155-0.00583-0.0228-0.01234-0.03366-0.019521-0.04225-0.027867-0.07882-0.065738-0.10585-0.11257-0.02703-0.046821-0.04154-0.097431-0.04456-0.14795-8.06e-4 -0.013004-8.07e-4 -0.026002-8.8e-5 -0.038929 2e-3 -0.035542 0.0096-0.070543 0.02245-0.10363 4e-3 -0.010272 0.0085-0.020322 0.01349-0.030171 0.01158-0.022849 0.02578-0.044483 0.0425-0.064407 0.0245-0.029234 0.0545-0.054693 0.08944-0.074877 0.16105-0.09298 0.36698-0.037801 0.45996 0.12324 0.04667 0.080841 0.05601 0.17298 0.03338 0.25648-0.0065 0.024066-0.0157 0.047408-0.02742 0.069538-0.01102 0.020881-0.02431 0.040692-0.03974 0.059026-0.02459 0.029195-0.05452 0.054723-0.08947 0.074902z" fill="url(#linearGradient892)"/>
     <path d="m2.6673 5.59c-0.034952-0.020178-0.064931-0.045684-0.089468-0.074903-0.017044-0.020321-0.031528-0.042408-0.043181-0.065791-5e-3 -0.00982-0.00928-0.019867-0.013216-0.030091-0.012534-0.03271-0.01999-0.067243-0.021949-0.10234-7.59e-4 -0.012915-7.147e-4 -0.025918 7.38e-5 -0.038912 3e-3 -0.050519 0.017523-0.10113 0.04456-0.14795 0.02703-0.046823 0.063606-0.084691 0.10585-0.11256 0.010849-0.00719 0.022111-0.013702 0.033672-0.019538 0.031779-0.016038 0.065889-0.026956 0.10097-0.032368 0.010903-0.00168 0.02185-0.00283 0.03288-0.00343 0.025577-0.00142 0.051411 8.7e-5 0.07703 0.00462 0.037569 0.00665 0.074609 0.019846 0.10956 0.040027 0.16105 0.09298 0.21622 0.29891 0.12324 0.45995-0.046671 0.080843-0.12181 0.13499-0.20543 0.15715-0.024092 0.00639-0.04891 0.010106-0.073928 0.011013-0.02359 9.007e-4 -0.047389-7.003e-4 -0.070991-0.00488-0.03758-0.00665-0.074646-0.01985-0.1096-0.040029z" fill="url(#linearGradient902)"/>
     <path d="m4.8633 3.1475c-0.02018-0.034951-0.03339-0.072029-0.04003-0.1096-0.0046-0.02612-0.0061-0.05249-0.0045-0.078567 5.798e-4 -0.011004 0.0019-0.021845 0.0036-0.032668 0.0055-0.034595 0.01631-0.068229 0.03216-0.0996 0.0058-0.011564 0.01234-0.022803 0.01952-0.033662 0.027858-0.042251 0.06574-0.078819 0.11257-0.10585 0.04682-0.027035 0.09743-0.041542 0.14795-0.044557 0.01299-8.022e-4 0.026-8.108e-4 0.03893-8.44e-5 0.03554 2e-3 0.070539 0.0096 0.10363 0.022454 0.010282 4e-3 0.020338 0.00847 0.03019 0.01347 0.02286 0.011559 0.04448 0.025781 0.0644 0.042516 0.029211 0.024544 0.05469 0.054492 0.07487 0.089446 0.09298 0.16105 0.0378 0.36697-0.12324 0.45995-0.08084 0.046677-0.17298 0.056005-0.25648 0.033383-0.024059-0.00651-0.04741-0.015703-0.06953-0.027426-0.02088-0.011015-0.04069-0.024301-0.05904-0.039722-0.02922-0.024549-0.05472-0.054514-0.0749-0.089465z" fill="url(#linearGradient910)"/>
     <path d="m4.8633 3.1475c-0.02018-0.034951-0.03339-0.072029-0.04003-0.1096-0.0046-0.02612-0.0061-0.05249-0.0045-0.078567 5.798e-4 -0.011004 0.0019-0.021845 0.0036-0.032668 0.0055-0.034595 0.01631-0.068229 0.03216-0.0996 0.0058-0.011564 0.01234-0.022803 0.01952-0.033662 0.027858-0.042251 0.06574-0.078819 0.11257-0.10585 0.04682-0.027035 0.09743-0.041542 0.14795-0.044557 0.01299-8.022e-4 0.026-8.108e-4 0.03893-8.44e-5 0.03554 2e-3 0.070539 0.0096 0.10363 0.022454 0.010282 4e-3 0.020338 0.00847 0.03019 0.01347 0.02286 0.011559 0.04448 0.025781 0.0644 0.042516 0.029211 0.024544 0.05469 0.054492 0.07487 0.089446 0.09298 0.16105 0.0378 0.36697-0.12324 0.45995-0.08084 0.046677-0.17298 0.056005-0.25648 0.033383-0.024059-0.00651-0.04741-0.015703-0.06953-0.027426-0.02088-0.011015-0.04069-0.024301-0.05904-0.039722-0.02922-0.024549-0.05472-0.054514-0.0749-0.089465z" fill="url(#linearGradient910)"/>
    </g>
    <path d="m11.256 8.4665c0 0.33438-0.05885 0.655-0.16679 0.95209-0.07503 0.20651-0.17374 0.40177-0.29305 0.58234-0.04997 0.07593-0.10372 0.14926-0.16076 0.21973-0.18261 0.22553-0.39963 0.42191-0.64322 0.58136-0.089713 0.05874-0.18296 0.11248-0.27949 0.16064-0.37489 0.18761-0.79808 0.29315-1.246 0.29315s-0.87104-0.10554-1.246-0.29315c-0.096543-0.04816-0.1899-0.1019-0.27961-0.16063-0.24671-0.16155-0.46633-0.36104-0.65046-0.59033-0.057147-0.071042-0.11078-0.14504-0.16076-0.22166-0.11612-0.1776-0.21233-0.36923-0.28587-0.57176-0.10792-0.29704-0.16667-0.61752-0.16667-0.9518 0-1.5405 1.2488-2.7893 2.7893-2.7893 0.77331 0 1.473 0.31468 1.9783 0.82286 0.14561 0.1464 0.27506 0.30899 0.38526 0.48478 0.10417 0.16554 0.19126 0.34291 0.259 0.52948 0.10794 0.29715 0.1668 0.61775 0.1668 0.95209z" fill="url(#linearGradient918)" stroke="url(#linearGradient982)" stroke-width=".26458"/>
    <path d="m5.1109 7.0682c-0.059711 1e-7 -0.11698-0.010504-0.17003-0.029787-0.036883-0.013404-0.071753-0.031027-0.10401-0.052336-0.013611-0.00892-0.02666-0.018523-0.039235-0.02871-0.040271-0.032613-0.075348-0.07137-0.10383-0.11488-0.010504-0.016023-0.020091-0.032675-0.028687-0.049915-0.03351-0.066952-0.052358-0.14253-0.052358-0.22252 0-0.079988 0.018848-0.15556 0.052358-0.22252 0.00858-0.017241 0.018197-0.033913 0.028687-0.049937 0.028849-0.044061 0.064474-0.083283 0.10543-0.11616 0.012723-0.010208 0.025905-0.019783 0.03959-0.02871 0.031719-0.020739 0.065939-0.03792 0.10211-0.051054 0.053053-0.019274 0.11028-0.029767 0.16999-0.029767 0.27512 0 0.49815 0.22303 0.49815 0.49815 0 0.1381-0.056204 0.26306-0.14695 0.35331-0.026142 0.026004-0.055184 0.049124-0.086577 0.068803-0.029559 0.018604-0.061234 0.034158-0.094566 0.046257-0.053068 0.019279-0.11032 0.02979-0.17003 0.02979z" fill="url(#linearGradient941)" stroke-width=".0019459"/>
   </g>
   <g transform="matrix(.27273 0 0 .27273 6.2026 8.8293)">
    <path d="m15.743 8.4667c0 0.87223-0.15353 1.7085-0.43508 2.4836-0.19571 0.5387-0.45318 1.048-0.76442 1.5191-0.13037 0.19807-0.27054 0.38935-0.41933 0.57317-0.47634 0.5883-1.0424 1.1006-1.6779 1.5164-0.23402 0.15324-0.47725 0.29342-0.72907 0.41902-0.97788 0.48939-2.0818 0.76468-3.2501 0.76468s-2.2722-0.27529-3.2501-0.7647c-0.25184-0.12563-0.49536-0.2658-0.72938-0.41902-0.64355-0.42141-1.2164-0.94176-1.6966-1.5398-0.14907-0.18531-0.28896-0.37835-0.41933-0.5782-0.30292-0.46327-0.55385-0.96312-0.74569-1.4914-0.28151-0.77483-0.43477-1.6108-0.43477-2.4827 0-4.0184 3.2575-7.2759 7.2759-7.2759 2.0171 0 3.8423 0.82084 5.1603 2.1465 0.37982 0.38189 0.7175 0.806 1.0049 1.2645 0.27174 0.43181 0.49891 0.89448 0.67561 1.3812 0.28158 0.77511 0.4351 1.6114 0.4351 2.4836z" fill="url(#linearGradient1005)" stroke-width=".028422"/>
    <g transform="translate(-21.833 .89722)" fill="#5e4aa6" stroke-width=".26458">
     <circle cx="-330.35" cy="-328.38" r="0"/>
     <circle cx="-312.11" cy="-326.25" r="0"/>
     <circle cx="-306.02" cy="-333.07" r="0"/>
     <circle cx="-308.84" cy="-326.01" r="0"/>
    </g>
    <g transform="matrix(.058131 0 0 .058088 1.6143 1.7407)" fill="#000096" filter="url(#filter1152)" image-rendering="optimizeSpeed" opacity=".3" stroke-width="15.683">
     <path d="m98 175c-3.8876 0-3.227-1.4679-4.5678-5.1695l-11.432-37.625 88-52.206"/>
     <path d="m98 175c3 0 4.3255-1.372 6-3l16-15.558-19.958-12.035"/>
     <path d="m100.04 144.41 48.36 35.729c5.5185 3.0449 9.5014 1.4684 10.876-5.1235l19.685-92.763c2.0154-8.0802-3.0801-11.745-8.3594-9.3482l-115.59 44.571c-7.8901 3.1647-6.9241 9.4078-0.51824 11.369l29.663 9.2583 67.753-45.166c3.2419-1.9659 6.2173-0.90899 3.7752 1.2584"/>
    </g>
    <g transform="matrix(.014453 0 0 .014453 1.1972 1.2476)" image-rendering="optimizeSpeed" stroke-width="61.492">
     <path d="m425.24 728.15c-15.243 0-12.653-5.7554-17.91-20.269l-44.824-147.52 345.03-204.69" fill="#cdf2fd"/>
     <path d="m425.24 728.15c11.762 0 16.96-5.3794 23.525-11.762l62.733-61-78.252-47.187" fill="#ace6fb"/>
     <path d="m433.24 608.21 189.61 140.09c21.637 11.939 37.253 5.7574 42.643-20.088l77.182-363.71c7.902-31.681-12.077-46.05-32.776-36.653l-453.21 174.76c-30.936 12.408-30.755 29.667-5.6389 37.358l116.3 36.3 269.26-169.87c12.711-7.708 24.377-3.564 14.802 4.934" fill="url(#w)"/>
    </g>
   </g>
   <g transform="matrix(.066145 0 0 .066145 11.694 9.0218)" image-rendering="optimizeSpeed">
    <circle cx="-788.62" cy="-783.81" r="0" fill="#5e4aa6" stroke-width=".64067"/>
    <g transform="translate(-44.488,77.662)">
     <circle cx="76.488" cy="-45.662" r="27.784" fill="url(#h-2)" stroke-width=".96125"/>
     <circle cx="76.488" cy="-45.662" r="27.784" fill="url(#a-9)" stroke-width=".96125"/>
     <path transform="matrix(.465 0 0 .465 46.27 -76.042)" d="m64.985 5.5818a59.751 59.751 0 0 0-59.752 59.75 59.751 59.751 0 0 0 59.752 59.752 59.751 59.751 0 0 0 59.75-59.752 59.751 59.751 0 0 0-59.75-59.75zm0 5.25a54.501 54.501 0 0 1 54.5 54.5 54.501 54.501 0 0 1-54.5 54.502 54.501 54.501 0 0 1-54.502-54.502 54.501 54.501 0 0 1 54.502-54.5z" fill-opacity=".28736" filter="url(#j-1)" stroke-width="2.0672"/>
     <path d="m76.488-75.662c-16.549 0-30 13.451-30 30s13.451 30 30 30 30-13.451 30-30-13.451-30-30-30zm0 3.255c14.79 0 26.745 11.955 26.745 26.745s-11.955 26.745-26.745 26.745c-14.79 9e-6 -26.745-11.955-26.745-26.745s11.955-26.745 26.745-26.745z" fill="#fafafa" fill-opacity=".98837" stroke-width=".96125"/>
     <path d="m76.488-72.981c-15.082 0-27.319 12.236-27.319 27.319 0 15.082 12.236 27.319 27.319 27.319s27.319-12.236 27.319-27.319c0-15.082-12.236-27.319-27.319-27.319zm0 0.574c14.79 0 26.745 11.955 26.745 26.745s-11.955 26.745-26.745 26.745c-14.79 1e-5 -26.745-11.955-26.745-26.745 0-8.8722 4.3021-16.724 10.937-21.587 4.4258-3.2436 9.8896-5.1578 15.807-5.1578z" fill="#c8c8c8" stroke-width=".96125"/>
     <g transform="translate(44.488,-77.662)" stroke-width=".070782">
      <path d="m30.033 13.879c-1.0547 0-1.912 0.85928-1.9121 1.9141v0.89453c0 0.54749-0.3515 1.0345-0.875 1.2109-0.6313 0.21284-1.2558 0.47092-1.8535 0.76758-0.17916 0.08892-0.37763 0.13672-0.57617 0.13672-0.3408 0-0.66072-0.13347-0.90039-0.37305l-0.63281-0.63281c-0.36128-0.36132-0.84261-0.56055-1.3535-0.56055-0.51105 0-0.99028 0.19919-1.3516 0.56055l-2.7812 2.7812c-0.3614 0.36135-0.56055 0.84059-0.56055 1.3516s0.19919 0.99223 0.56055 1.3535l0.63281 0.63281c0.38732 0.38731 0.48286 0.98212 0.23633 1.4785-0.29665 0.59747-0.55481 1.2201-0.76758 1.8516-0.17645 0.52342-0.66352 0.875-1.2109 0.875h-0.89453c-1.0547 0-1.9121 0.85732-1.9121 1.9121v3.9336c0 1.0548 0.8574 1.912 1.9121 1.9121h0.89453c0.54749 0 1.0345 0.35151 1.2109 0.875 0.21277 0.63137 0.47092 1.256 0.76758 1.8535 0.24652 0.49647 0.15098 1.0892-0.23633 1.4766l-0.63281 0.63281c-0.36141 0.36135-0.56055 0.84261-0.56055 1.3535 0 0.51098 0.19919 0.99028 0.56055 1.3516l2.7812 2.7812c0.36128 0.36126 0.84052 0.56055 1.3516 0.56055 0.51097 0 0.99223-0.19919 1.3535-0.56055l0.63281-0.63281c0.23965-0.23958 0.55957-0.37305 0.90039-0.37305 0.19861 0 0.39897 0.04776 0.57812 0.13672 0.59769 0.29673 1.2203 0.55473 1.8516 0.76758 0.52342 0.17648 0.875 0.66359 0.875 1.2109v0.89453c0 1.0548 0.8574 1.9141 1.9121 1.9141h3.9336c1.0547 0 1.9121-0.85928 1.9121-1.9141v-0.89453c0-0.54749 0.35151-1.0345 0.875-1.2109 0.6313-0.21284 1.2558-0.47093 1.8535-0.76758 0.17914-0.08899 0.37761-0.13672 0.57617-0.13672 0.34082 0 0.66072 0.13342 0.90039 0.37305l0.63281 0.63281c0.36128 0.36126 0.84247 0.56055 1.3535 0.56055 0.51098 0 0.99028-0.19919 1.3516-0.56055l2.7812-2.7812c0.36143-0.36135 0.56055-0.84059 0.56055-1.3516 0-0.51097-0.19919-0.99223-0.56055-1.3535l-0.63281-0.63281c-0.38734-0.38731-0.48286-0.98212-0.23633-1.4785 0.29665-0.59747 0.5548-1.2201 0.76758-1.8516 0.17645-0.52342 0.6635-0.875 1.2109-0.875h0.89453c1.0547 0 1.9121-0.85732 1.9121-1.9121v-3.9336c0-1.0548-0.8574-1.9121-1.9121-1.9121h-0.89453c-0.54749 0-1.0345-0.35151-1.2109-0.875-0.21277-0.63137-0.47093-1.256-0.76758-1.8535-0.24655-0.49647-0.15098-1.0893 0.23633-1.4766l0.63281-0.63281c0.36143-0.36128 0.56055-0.84261 0.56055-1.3535 0-0.51098-0.19922-0.99028-0.56055-1.3516l-2.7812-2.7812c-0.36135-0.36129-0.84066-0.56055-1.3516-0.56055-0.51105 0-0.99223 0.19919-1.3535 0.56055l-0.63281 0.63281c-0.23965 0.23958-0.55957 0.37297-0.90039 0.37305-0.19861 0-0.39701-0.04773-0.57617-0.13672-0.59769-0.29672-1.2222-0.55474-1.8535-0.76758-0.52342-0.17645-0.875-0.66352-0.875-1.2109v-0.89453c0-1.0548-0.8574-1.9141-1.9121-1.9141h-3.9336zm1.9668 7.0703c6.1038 0 11.053 4.9487 11.053 11.053s-4.9487 11.053-11.053 11.053c-6.104-1e-6 -11.053-4.9487-11.053-11.053s4.9487-11.053 11.053-11.053zm0 3.4199c-4.2145 0-7.6309 3.4183-7.6309 7.6328s3.4163 7.6309 7.6309 7.6309c4.2145 0 7.6309-3.4163 7.6309-7.6309 0-4.2145-3.4163-7.6328-7.6309-7.6328zm0 1.7852c2.2084 0 4.204 1.2228 5.209 3.1914 1.0791 2.1137 0.78439 4.5904-0.81055 6.793-0.07257 0.10022-0.15974 0.1873-0.25977 0.25977-1.3073 0.94672-2.739 1.4473-4.1387 1.4473-2.2084 0-4.204-1.2229-5.209-3.1914-1.0791-2.1137-0.78439-4.5904 0.81055-6.793 0.07254-0.10023 0.15975-0.1873 0.25977-0.25977 1.3073-0.94672 2.739-1.4473 4.1387-1.4473z" fill="url(#linearGradient894)"/>
      <path d="m30.035 14.199c-0.88039 0-1.5938 0.71328-1.5938 1.5938v0.89453c0 0.68694-0.44284 1.2943-1.0938 1.5137-0.62408 0.21036-1.2275 0.46064-1.8105 0.75-0.61638 0.306-1.3591 0.19161-1.8457-0.29492l-0.63281-0.63281c-0.6226-0.62261-1.6314-0.62261-2.2539 0l-2.7812 2.7793c-0.6226 0.6226-0.6226 1.6333 0 2.2559l0.63281 0.63281c0.48662 0.48662 0.60278 1.2274 0.29688 1.8438-0.28944 0.58304-0.54165 1.1884-0.75195 1.8125-0.21942 0.65098-0.82485 1.0918-1.5117 1.0918h-0.89648c-0.88039 0-1.5938 0.71526-1.5938 1.5957v3.9316c0 0.88039 0.71328 1.5938 1.5938 1.5938h0.89648c0.68694 0 1.2924 0.44091 1.5117 1.0918 0.21036 0.62408 0.46259 1.2295 0.75195 1.8125 0.306 0.61638 0.18969 1.3591-0.29688 1.8457l-0.63281 0.63281c-0.62261 0.6226-0.62261 1.6314 0 2.2539l2.7812 2.7812c0.6226 0.6226 1.6314 0.6226 2.2539 0l0.63281-0.63281c0.48662-0.48662 1.2293-0.60282 1.8457-0.29688 0.58304 0.28946 1.1865 0.54165 1.8105 0.75195 0.65098 0.21943 1.0938 0.82485 1.0938 1.5117v0.89453c0 0.88039 0.71331 1.5938 1.5938 1.5938h3.9316c0.88039 0 1.5938-0.71331 1.5938-1.5938v-0.89453c0-0.68694 0.44284-1.2925 1.0938-1.5117 0.62408-0.21035 1.2275-0.46259 1.8105-0.75195 0.61636-0.30598 1.3591-0.18967 1.8457 0.29688l0.63281 0.63281c0.6226 0.6226 1.6314 0.6226 2.2539 0l2.7812-2.7812c0.6226-0.6226 0.6226-1.6314 0-2.2539l-0.63281-0.63281c-0.48662-0.48664-0.60283-1.2293-0.29688-1.8457 0.28944-0.58304 0.54167-1.1884 0.75195-1.8125 0.21943-0.65098 0.82485-1.0918 1.5117-1.0918h0.89648c0.88068 0 1.5938-0.71338 1.5938-1.5938v-3.9316c0-0.88039-0.71328-1.5957-1.5938-1.5957h-0.89648c-0.68694 0-1.2924-0.44088-1.5117-1.0918-0.21035-0.62408-0.46259-1.2295-0.75195-1.8125-0.306-0.61638-0.18967-1.3571 0.29688-1.8438l0.63281-0.63281c0.6226-0.6226 0.6226-1.6333 0-2.2559l-2.7793-2.7793c-0.6226-0.6226-1.6334-0.6226-2.2559 0l-0.63281 0.63281c-0.48662 0.48664-1.2293 0.60085-1.8457 0.29492-0.58304-0.28941-1.1865-0.5397-1.8105-0.75-0.65098-0.21944-1.0938-0.8268-1.0938-1.5137v-0.89453c0-0.88039-0.71331-1.5938-1.5938-1.5938h-3.9316zm1.9648 7.2754c5.8132 0 10.525 4.712 10.525 10.525s-4.712 10.527-10.525 10.527c-5.8134 0-10.527-4.7139-10.527-10.527s4.7139-10.525 10.527-10.525z" fill="url(#SVGID_2_-0)"/>
      <path d="m32 25.523c-3.5775 0-6.4779 2.9004-6.4779 6.4779s2.9004 6.4779 6.4779 6.4779 6.4779-2.9004 6.4779-6.4779-2.9004-6.4779-6.4779-6.4779zm0 9.7977c-1.8334 0-3.3198-1.4866-3.3198-3.3198 0-1.8333 1.4866-3.3198 3.3198-3.3198 1.8333 0 3.3198 1.4866 3.3198 3.3198 0 1.8333-1.4866 3.3198-3.3198 3.3198z" fill="url(#SVGID_7_-7)"/>
      <path d="m32 38.802c3.7564 0 6.8016-3.0455 6.8016-6.8016 0-3.7564-3.0455-6.8016-6.8016-6.8016-3.7564 0-6.8016 3.0455-6.8016 6.8016 0 3.7564 3.0455 6.8016 6.8016 6.8016zm0-11.498c2.5936 0 4.6964 2.1029 4.6964 4.6964 0 2.5936-2.1029 4.6964-4.6964 4.6964-2.5936 0-4.6964-2.1029-4.6964-4.6964 0-2.5936 2.1029-4.6964 4.6964-4.6964z" fill="url(#SVGID_8_-2)"/>
     </g>
    </g>
   </g>
  </g>
  <g transform="translate(0 .023148)">
   <g transform="matrix(.066145 0 0 .066145 6.3952 6.476)">
    <circle cx="32.02" cy="32.044" r="0" fill="url(#b)" stroke-width="1.5715"/>
    <path class="shp36" d="m32 62.002c16.568 0 30-13.432 30-30s-13.432-30-30-30-30 13.432-30 30 13.432 30 30 30z" fill="url(#linearGradient901)" stroke-width="2.2593"/>
    <path d="m2.916 24.633c-0.59559 2.3579-0.91602 4.8263-0.91602 7.3691 0 15.91 12.388 28.92 28.043 29.93zm58.168 0-27.127 37.299c15.655-1.0096 28.043-14.02 28.043-29.93 0-2.5429-0.32043-5.0112-0.91602-7.3691z" fill="url(#linearGradient935)" stroke-width="2.2593"/>
    <path d="m32 2.0022c-7.5009 0-14.353 2.7597-19.613 7.3105l17.281 52.59c0.77073 0.05935 1.5461 0.09961 2.332 0.09961s1.5613-0.04026 2.332-0.09961l17.281-52.59c-5.2599-4.5508-12.112-7.3105-19.613-7.3105z" fill="url(#linearGradient963)"/>
    <path d="m32 14.336-8 6.666 5.8457 40.914c0.71264 0.05065 1.4288 0.08594 2.1543 0.08594 0.73482 0 1.4601-0.03594 2.1816-0.08789l6.8184-41.099z" fill="url(#linearGradient1034)"/>
    <g transform="translate(-93 .0021625)">
     <path d="m125 2c-6.0358 0-11.652 1.788-16.357 4.8555l7.0234 15.145 9.334-7.666 10.666 7.666 6.0527-14.912c-4.7774-3.2126-10.529-5.0879-16.719-5.0879z" fill="url(#linearGradient982-3)"/>
     <path d="m108.67 7 7 15 9.334-7.666 10.666 7.666 6.0527-14.912" fill="none" stroke="#9b9b9b" stroke-width=".2"/>
    </g>
    <g transform="matrix(.91835 0 0 1.1933 -82.8 -.38886)">
     <path d="m 125,2 c -3.8319,0 -7.5139,0.16314 -10.883,1.4727 L 125,12 135.895,3.4326 C 132.526,2.123 128.8316,2 125,2 Z" fill="#555f64"/>
     <path d="M 114.12,3.4727 125.003,12 135.898,3.4326" fill="none" stroke="#969696" stroke-width=".1"/>
    </g>
   </g>
   <g transform="matrix(.066144 0 0 .066144 1.097 6.476)">
    <path d="m62 32c0 3.5964-0.63301 7.0448-1.7939 10.24-0.80694 2.2212-1.8686 4.3212-3.1518 6.2636-0.5375 0.81666-1.1155 1.6053-1.729 2.3633-1.964 2.4256-4.2982 4.5378-6.9182 6.2526-0.96494 0.6318-1.9678 1.2098-3.0061 1.7277-4.0321 2.0178-8.5835 3.1529-13.401 3.1529-4.8171 0-9.3685-1.1351-13.401-3.153-1.0384-0.51803-2.0424-1.096-3.0074-1.7277-2.6535-1.7376-5.0155-3.8832-6.9957-6.349-0.61463-0.76408-1.1914-1.56-1.729-2.384-1.249-1.9101-2.2836-3.9712-3.0746-6.1494-1.1607-3.1948-1.7926-6.6415-1.7926-10.237 0-16.569 13.431-30 30-30 8.317 0 15.843 3.3844 21.277 8.8503 1.5661 1.5746 2.9584 3.3233 4.1436 5.214 1.1204 1.7804 2.0571 3.6881 2.7857 5.6947 1.161 3.1959 1.794 6.6442 1.794 10.24z" fill="url(#linearGradient978)" stroke-width=".11719"/>
    <g transform="translate(-.12582 -.098477)" fill="#fafafa" stroke-width="2.4855">
     <path d="m32.126 25.606c3.5803 0 6.493 2.9128 6.493 6.493 0 0.51666 0.41904 0.9357 0.9357 0.9357s0.9357-0.41904 0.9357-0.9357c0-4.6121-3.7523-8.3644-8.3644-8.3644s-8.3645 3.7523-8.3645 8.3644 3.7523 8.3644 8.3644 8.3644c2.9615 0 5.7304-1.5899 7.2261-4.1494 0.26075-0.44617 0.11041-1.0191-0.33576-1.28-0.44602-0.26044-1.0191-0.11026-1.28 0.33576-1.1615 1.9876-3.3113 3.2222-5.6105 3.2222-3.5803 0-6.493-2.9128-6.493-6.493s2.913-6.493 6.4933-6.493z"/>
     <path d="m48.142 30.86c-0.58637-7.8067-6.9126-14.157-14.715-14.773-4.7166-0.37194-9.3303 1.3242-12.659 4.6534-3.3292 3.3292-5.0253 7.9433-4.6534 12.659 0.61304 7.7736 6.9371 14.098 14.711 14.711 0.4284 0.03384 0.85523 0.05037 1.281 0.05037 4.262 0 8.3516-1.6769 11.378-4.7036 0.36539-0.36555 0.36539-0.958 0-1.3232-0.36539-0.36523-0.95784-0.36554-1.3232-1.54e-4 -2.9415 2.9414-7.0196 4.4399-11.189 4.111-6.8654-0.5413-12.451-6.1267-12.992-12.992-0.32874-4.1693 1.1696-8.2477 4.111-11.189 2.9414-2.9414 7.019-4.4404 11.189-4.111 6.8913 0.54317 12.478 6.1524 12.996 13.047 0.07096 0.94459 0.05006 1.8935-0.06191 2.8205-0.11883 0.98311-0.71394 1.841-1.5919 2.2945-0.79457 0.41062-1.6872 0.40906-2.4494-0.0041-0.45428-0.24671-1.0224-0.07782-1.2685 0.37662-0.2464 0.45428-0.07782 1.0223 0.37662 1.2685 1.3154 0.71316 2.8462 0.72096 4.2002 0.02168 1.4291-0.73827 2.3977-2.1337 2.5908-3.7327 0.12663-1.0478 0.15018-2.1194 0.07018-3.1851z"/>
    </g>
    <g fill="#5e4aa6">
     <circle cx="-1156.1" cy="-1246.6" r="0"/>
     <circle cx="-1156.1" cy="-1246.6" r="0"/>
     <circle cx="-1240.3" cy="-1278.5" r="0"/>
    </g>
   </g>
   <g transform="matrix(.066144 0 0 .066144 11.694 6.4761)">
    <path d="m62 32c0 3.5964-0.633 7.0448-1.7939 10.24-0.80694 2.2212-1.8686 4.3212-3.1518 6.2636-0.53749 0.81666-1.1155 1.6053-1.729 2.3633-1.964 2.4256-4.2982 4.5378-6.9182 6.2526-0.96493 0.6318-1.9678 1.2098-3.0061 1.7277-4.0321 2.0178-8.5835 3.1529-13.401 3.1529-4.8171 0-9.3685-1.1351-13.401-3.153-1.0384-0.51803-2.0424-1.096-3.0074-1.7277-2.6535-1.7376-5.0155-3.8832-6.9957-6.349-0.61464-0.76408-1.1914-1.56-1.729-2.384-1.249-1.9101-2.2836-3.9712-3.0746-6.1494-1.1607-3.1948-1.7926-6.6415-1.7926-10.237 0-16.569 13.431-30 30-30 8.317 0 15.843 3.3844 21.277 8.8503 1.5661 1.5746 2.9584 3.3233 4.1436 5.214 1.1204 1.7804 2.0571 3.6881 2.7857 5.6947 1.161 3.1959 1.794 6.6442 1.794 10.24z" fill="url(#linearGradient978-6)" stroke-width=".11719"/>
    <path d="m21.334 16v5.3333c11.783 0 21.333 9.5507 21.333 21.333h5.3333c0-14.733-11.939-26.667-26.667-26.667m0 10.667v5.3333c5.8907 0 10.667 4.776 10.667 10.667h5.3333c0-8.836-7.164-16-16-16m0 10.667c-2.9453 0-5.3333 2.388-5.3333 5.3333s2.388 5.3333 5.3333 5.3333 5.3333-2.388 5.3333-5.3333-2.388-5.3333-5.3333-5.3333" fill="#fff"/>
   </g>
  </g>
 </g>
</svg>
