<?xml version="1.0" encoding="UTF-8"?>
<svg width="64" height="64" version="1.1" viewBox="0 0 16.933 16.933" xmlns="http://www.w3.org/2000/svg" xmlns:cc="http://creativecommons.org/ns#" xmlns:dc="http://purl.org/dc/elements/1.1/" xmlns:rdf="http://www.w3.org/1999/02/22-rdf-syntax-ns#">
 <metadata>
  <rdf:RDF>
   <cc:Work rdf:about="">
    <dc:format>image/svg+xml</dc:format>
    <dc:type rdf:resource="http://purl.org/dc/dcmitype/StillImage"/>
    <dc:title/>
   </cc:Work>
  </rdf:RDF>
 </metadata>
 <defs>
  <linearGradient id="linearGradient978" x1="1.9643" x2="14.969" y1="14.924" y2="2.3319" gradientTransform="translate(-1.3e-4,-3e-5)" gradientUnits="userSpaceOnUse">
   <stop stop-color="#007deb" offset="0"/>
   <stop stop-color="#009bf5" offset="1"/>
  </linearGradient>
 </defs>
 <circle cx="-330.35" cy="-328.38" r="0" fill="#5e4aa6" stroke-width=".26458"/>
 <path d="m16.404 8.4665c0 0.95152-0.16748 1.8639-0.47463 2.7093-0.2135 0.58767-0.49438 1.1433-0.83391 1.6572-0.14221 0.21607-0.29514 0.42473-0.45746 0.62527-0.51964 0.64177-1.1372 1.2006-1.8304 1.6543-0.2553 0.16716-0.52064 0.32009-0.79534 0.45711-1.0668 0.53387-2.271 0.83419-3.5456 0.83419-1.2745 0-2.4787-0.30032-3.5456-0.83421-0.27473-0.13706-0.54038-0.28997-0.79568-0.45711-0.70205-0.45972-1.327-1.0274-1.8509-1.6798-0.16262-0.20216-0.31523-0.41274-0.45745-0.63076-0.33045-0.50538-0.6042-1.0507-0.81348-1.627-0.3071-0.84527-0.47429-1.7572-0.47429-2.7085 0-4.3837 3.5536-7.9373 7.9373-7.9373 2.2005 0 4.1916 0.89545 5.6294 2.3416 0.41435 0.41661 0.78273 0.87927 1.0963 1.3795 0.29644 0.47106 0.54426 0.9758 0.73703 1.5067 0.30717 0.84557 0.47466 1.7579 0.47466 2.7093z" fill="url(#linearGradient978)" stroke-width=".031005"/>
 <circle cx="-330.35" cy="-328.38" r="0" fill="#5e4aa6" stroke-width=".26458"/>
 <circle cx="-352.63" cy="-336.84" r="0" fill="#5e4aa6" stroke-width=".26458"/>
 <path d="m8.4665 2.5136c-3.2845 0-5.953 2.6686-5.953 5.9529 0 3.2843 2.6685 5.9529 5.953 5.9529s5.953-2.6686 5.953-5.9529c0-3.2843-2.6685-5.9529-5.953-5.9529zm0 0.56668c2.9779 0 5.3861 2.4081 5.3861 5.3862 0 2.9781-2.4082 5.3862-5.3861 5.3862s-5.3861-2.4081-5.3861-5.3862c0-2.9781 2.4082-5.3862 5.3861-5.3862zm-1.41e-4 1.4177a1.1339 1.1339 0 0 0-1.1339 1.1339 1.1339 1.1339 0 0 0 1.1339 1.1339 1.1339 1.1339 0 0 0 1.1339-1.1339 1.1339 1.1339 0 0 0-1.1339-1.1339zm-3.4017 2.8348v0.56695l0.70288 0.0011c0.29548-3e-6 0.54656 0.04263 0.75326 0.13316 0.20305 0.08436 0.36958 0.20876 0.49193 0.37151 0.12537 0.15615 0.21243 0.34404 0.26133 0.5592 0.04924 0.21665 0.05635 0.44543 0.07142 0.68738l2.95e-4 0.0033-0.0053 2.78h0.55892v-1.9843c0-0.31312 0.25383-0.56695 0.56695-0.56695s0.56695 0.25383 0.56695 0.56695v1.9843h0.56695l0.0053-2.7766c5.36e-4 -0.25086 0.02387-0.48233 0.07198-0.69402 0.04898-0.21552 0.13618-0.40373 0.26188-0.56003 0.12236-0.16239 0.28884-0.28675 0.49165-0.37096 0.2066-0.09037 0.49911-0.13288 0.75271-0.13288h0.68433v-0.56806z" enable-background="new" fill="#fafafa"/>
</svg>
