<?xml version="1.0" encoding="UTF-8"?>
<svg id="Apps-Visual-Studio-Code" width="64" height="64" enable-background="new 0 0 1024 1024" image-rendering="optimizeSpeed" version="1.1" viewBox="0 0 64 64" xmlns="http://www.w3.org/2000/svg" xmlns:cc="http://creativecommons.org/ns#" xmlns:dc="http://purl.org/dc/elements/1.1/" xmlns:rdf="http://www.w3.org/1999/02/22-rdf-syntax-ns#" xmlns:xlink="http://www.w3.org/1999/xlink">
 <metadata>
  <rdf:RDF>
   <cc:Work rdf:about="">
    <dc:format>image/svg+xml</dc:format>
    <dc:type rdf:resource="http://purl.org/dc/dcmitype/StillImage"/>
    <dc:title/>
   </cc:Work>
  </rdf:RDF>
 </metadata>
 <defs>
  <linearGradient id="h" x1="78.323" x2="55.915" y1="43.123" y2="20.986" gradientTransform="matrix(.9774 0 0 .9774 -33.486 .72316)" gradientUnits="userSpaceOnUse">
   <stop stop-color="#c2cece" offset="0"/>
   <stop stop-color="#bbc8c8" offset=".24405"/>
   <stop stop-color="#a8b8b8" offset=".77036"/>
   <stop stop-color="#97aaaa" offset="1"/>
  </linearGradient>
  <linearGradient id="e" x1="67" x2="67" y1="31.353" y2="44.786" gradientTransform="matrix(.5585 0 0 .55848 -5.4189 14.129)" gradientUnits="userSpaceOnUse">
   <stop stop-color="#c2cece" offset="0"/>
   <stop stop-color="#97aaaa" offset="1"/>
  </linearGradient>
  <filter id="p" x="-.059999" y="-.060001" width="1.12" height="1.12" color-interpolation-filters="sRGB">
   <feGaussianBlur stdDeviation="0.30000536"/>
  </filter>
  <linearGradient id="o" x1="67" x2="67" y1="26" y2="38" gradientTransform="matrix(.9774 0 0 .9774 -33.486 .72316)" gradientUnits="userSpaceOnUse">
   <stop stop-color="#fff" offset="0"/>
   <stop stop-color="#fff" stop-opacity=".15205" offset="1"/>
  </linearGradient>
  <filter id="q" x="-.059999" y="-.060001" width="1.12" height="1.12" color-interpolation-filters="sRGB">
   <feGaussianBlur stdDeviation="0.39997835"/>
  </filter>
  <linearGradient id="n" x1="80.04" x2="53.682" y1="18.925" y2="45.26" gradientTransform="matrix(1.4661,0,0,1.4661,-66.229,-14.915)" gradientUnits="userSpaceOnUse">
   <stop stop-color="#00a6f9" offset="0"/>
   <stop stop-color="#0071e2" offset="1"/>
  </linearGradient>
  <linearGradient id="i" x1="499.95" x2="499.95" y1="496.83" y2="1026" gradientTransform="matrix(.057271 0 0 .057271 2.6774 2.6781)" gradientUnits="userSpaceOnUse">
   <stop stop-color="#c2cece" offset="0"/>
   <stop stop-color="#97aaaa" offset="1"/>
  </linearGradient>
  <filter id="filter1977" x="-.06" y="-.06" width="1.12" height="1.12" color-interpolation-filters="sRGB">
   <feGaussianBlur stdDeviation="1.0262713"/>
  </filter>
  <linearGradient id="SVGID_4_" x1="310.81" x2="153.06" y1="208.82" y2="366.57" gradientTransform="matrix(-.025637 -.095677 -.095677 .025637 65.118 47.422)" gradientUnits="userSpaceOnUse">
   <stop stop-color="#C2CECE" offset="0"/>
   <stop stop-color="#BBC8C8" offset=".293"/>
   <stop stop-color="#A8B8B8" offset=".72"/>
   <stop stop-color="#97AAAA" offset="1"/>
  </linearGradient>
  <linearGradient id="linearGradient1025" x1="32.102" x2="32.102" y1="26.847" y2="37.559" gradientUnits="userSpaceOnUse">
   <stop stop-color="#97aaaa" offset="0"/>
   <stop stop-color="#c2cece" offset="1"/>
  </linearGradient>
  <linearGradient id="linearGradient1038" x1="310.81" x2="153.06" y1="208.82" y2="366.57" gradientTransform="matrix(.16739 0 0 -.16739 -7.6599 79.314)" gradientUnits="userSpaceOnUse">
   <stop stop-color="#C2CECE" offset="0"/>
   <stop stop-color="#BBC8C8" offset=".293"/>
   <stop stop-color="#A8B8B8" offset=".72"/>
   <stop stop-color="#97AAAA" offset="1"/>
  </linearGradient>
  <linearGradient id="linearGradient1043" x1="310.81" x2="153.06" y1="208.82" y2="366.57" gradientTransform="matrix(-.10284 -.10284 -.10284 .10284 85.433 27.297)" gradientUnits="userSpaceOnUse" xlink:href="#SVGID_4_"/>
 </defs>
 <path id="path" d="m32 2.6777c-8.0983 0-15.008 2.865-20.732 8.5898-5.7248 5.725-8.5879 12.635-8.5879 20.732s2.8631 15.012 8.5879 20.736c5.7247 5.7247 12.635 8.5859 20.732 8.5859 8.0977 0 15.014-2.8616 20.738-8.5859 3.1528-3.1559 5.4373-6.6707 6.8535-10.545 1.1524-3.159 1.7305-6.5543 1.7305-10.191 0-2.7894-0.33736-5.4394-1.0176-7.9492-0.07765-0.28267-0.15833-0.56418-0.24219-0.84375-0.25454-0.82569-0.54718-1.637-0.87305-2.4316v-0.001953c-0.35601-0.86296-0.75808-1.7093-1.2051-2.5371-0.2516-0.46904-0.5201-0.93396-0.80273-1.3906-1.2145-1.9693-2.6946-3.8294-4.4434-5.5781-5.7247-5.7247-12.64-8.5898-20.738-8.5898zm0 5.5488a23.966 23.966 0 0 1 23.967 23.965 23.966 23.966 0 0 1-23.967 23.967 23.966 23.966 0 0 1-23.967-23.967 23.966 23.966 0 0 1 23.967-23.965z" fill="url(#i)"/>
 <path d="m32 7.4961c-13.533 0-24.504 10.971-24.504 24.504 0 13.533 10.971 24.504 24.504 24.504 13.533 0 24.504-10.971 24.504-24.504 0-13.533-10.972-24.504-24.504-24.504zm0 0.71875c13.135-1e-7 23.785 10.65 23.785 23.785 0 13.135-10.65 23.785-23.785 23.785-13.135 0-23.785-10.65-23.785-23.785-1e-7 -13.135 10.65-23.785 23.785-23.785z" fill="url(#linearGradient1038)" stroke-width=".15692"/>
 <circle transform="matrix(1.0184 0 0 .98579 -.58992 1.6052)" cx="32" cy="32" r="20.525" fill-rule="evenodd" filter="url(#filter1977)" opacity=".3" stroke-width=".9774" style="paint-order:normal"/>
 <path d="m47.054 16.946c-8.3138-8.3138-21.794-8.3138-30.108 0-8.3138 8.3138-8.3134 21.795 1e-6 30.108 8.3138 8.3138 21.794 8.3138 30.108 0 8.3138-8.3138 8.3138-21.794 0-30.108zm-25.449 25.449c-5.7402-5.7402-5.7404-15.049 1e-6 -20.789 5.7402-5.7402 15.049-5.7404 20.789 1e-6 5.7402 5.7402 5.7404 15.049-1e-6 20.789-5.7402 5.7402-15.049 5.7404-20.789 0z" fill="url(#linearGradient1043)" stroke-width=".13634"/>
 <circle cx="32" cy="32" r="20.525" fill="url(#n)" fill-rule="evenodd" stroke-width=".9774" style="paint-order:normal"/>
 <path d="m46.006 28.247c-2.0726-7.7349-10.024-12.326-17.759-10.253-7.7349 2.0726-12.326 10.024-10.253 17.759 2.0726 7.7349 10.024 12.326 17.759 10.253 7.7349-2.0726 12.326-10.024 10.253-17.759zm-23.677 6.3442c-1.431-5.3406 1.7389-10.831 7.0796-12.262 5.3406-1.431 10.831 1.7389 12.262 7.0796 1.431 5.3406-1.7389 10.831-7.0796 12.262-5.3406 1.431-10.831-1.7389-12.262-7.0796z" fill="url(#SVGID_4_)" stroke-width=".092858"/>
 <g fill-rule="evenodd">
  <circle cx="32" cy="32" r="13.684" fill="url(#h)" stroke-width=".9774" style="paint-order:normal"/>
  <path d="m32 19.294c-0.16244 0-0.29398 0.13154-0.29398 0.29398v2.3442c0 0.16244 0.13154 0.29398 0.29398 0.29398s0.29398-0.13154 0.29398-0.29398v-2.3442c0-0.16244-0.13154-0.29398-0.29398-0.29398zm-3.2892 0.43334c-0.15691 0.04205-0.24821 0.20198-0.20617 0.35889l0.35316 1.3211c0.04205 0.15691 0.20198 0.25013 0.35889 0.20808s0.25013-0.20198 0.20808-0.35889l-0.35507-1.3229c-0.04205-0.15691-0.20198-0.24821-0.35889-0.20617zm6.5784 0c-0.15691-0.04205-0.31684 0.04926-0.35889 0.20617l-0.35507 1.3229c-0.04205 0.15691 0.05117 0.31684 0.20808 0.35889s0.31684-0.05117 0.35889-0.20808l0.35316-1.3211c0.04205-0.15691-0.04926-0.31684-0.20617-0.35889zm-9.4189 1.239c-0.0724-0.0194-0.15301-0.01007-0.22336 0.03054-0.14068 0.08122-0.18813 0.2602-0.10691 0.40089l0.68342 1.1835c0.08122 0.14068 0.2602 0.19004 0.40089 0.10881 0.14069-0.08122 0.18813-0.2602 0.10691-0.40089l-0.68342-1.1855c-0.04061-0.07034-0.10514-0.11805-0.17754-0.13744zm12.26 0c-0.0724 0.0194-0.13692 0.06711-0.17754 0.13744l-0.68342 1.1855c-0.08122 0.14068-0.03378 0.31967 0.10691 0.40089 0.14068 0.08122 0.31967 0.03187 0.40089-0.10881l0.68342-1.1835c0.08122-0.14068 0.03378-0.31967-0.10691-0.40089-0.07034-0.04061-0.15095-0.04995-0.22336-0.03054zm-14.907 1.9624c-0.07496 0-0.15065 0.02847-0.20808 0.0859-0.11486 0.11486-0.11486 0.30129 0 0.41616l0.96785 0.96785c0.11486 0.11486 0.30129 0.11486 0.41616 0 0.11486-0.11486 0.11486-0.30129 0-0.41616l-0.96785-0.96785c-0.05743-0.05743-0.13312-0.0859-0.20808-0.0859zm17.555 0c-0.07496 0-0.15065 0.02847-0.20808 0.0859l-0.96785 0.96785c-0.11486 0.11486-0.11486 0.30129 0 0.41616 0.11486 0.11486 0.30129 0.11486 0.41616 0l0.96595-0.96785c0.11486-0.11486 0.11486-0.30129 0-0.41616-0.05743-0.05743-0.13122-0.0859-0.20617-0.0859zm-19.604 2.5809c-0.0724 0.0194-0.13692 0.06711-0.17754 0.13744-0.08122 0.14068-0.03378 0.31967 0.1069 0.40089l1.1855 0.68342c0.14068 0.08122 0.31967 0.03378 0.40089-0.10691 0.08122-0.14068 0.03187-0.31967-0.10881-0.40089l-1.1835-0.68342c-0.07034-0.04061-0.15095-0.04995-0.22336-0.03054zm21.651 0c-0.0724-0.0194-0.15301-0.01007-0.22336 0.03054l-1.1835 0.68342c-0.14068 0.08122-0.19004 0.2602-0.10881 0.40089 0.08122 0.14069 0.2602 0.18813 0.40089 0.10691l1.1855-0.68342c0.14068-0.08122 0.18813-0.2602 0.1069-0.40089-0.04061-0.07034-0.10514-0.11805-0.17754-0.13744zm-22.74 2.9952c-0.15691-0.04205-0.31684 0.04926-0.35889 0.20617s0.04926 0.31684 0.20617 0.35889l1.3229 0.35507c0.15691 0.04205 0.31684-0.05117 0.35889-0.20808s-0.05117-0.31684-0.20808-0.35889zm23.828 0-1.3211 0.35316c-0.15691 0.04205-0.25013 0.20198-0.20808 0.35889s0.20198 0.25013 0.35889 0.20808l1.3229-0.35507c0.15691-0.04205 0.24821-0.20198 0.20617-0.35889-0.04205-0.15691-0.20198-0.24821-0.35889-0.20617zm-24.327 3.2014c-0.16244 0-0.29398 0.13154-0.29398 0.29398s0.13154 0.29398 0.29398 0.29398h2.3442c0.16244 0 0.29398-0.13154 0.29398-0.29398s-0.13154-0.29398-0.29398-0.29398zm22.48 0c-0.16244 0-0.29398 0.13154-0.29398 0.29398s0.13154 0.29398 0.29398 0.29398h2.3442c0.16244 0 0.29398-0.13154 0.29398-0.29398s-0.13154-0.29398-0.29398-0.29398zm-20.812 2.8692-1.3229 0.35507c-0.15691 0.04205-0.24821 0.20198-0.20617 0.35889 0.04205 0.15691 0.20198 0.24821 0.35889 0.20617l1.3211-0.35316c0.15691-0.04205 0.25013-0.20198 0.20808-0.35889s-0.20198-0.25013-0.35889-0.20808zm21.487 0c-0.15691-0.04205-0.31684 0.05117-0.35889 0.20808s0.05117 0.31684 0.20808 0.35889l1.3211 0.35316c0.15691 0.04205 0.31684-0.04926 0.35889-0.20617s-0.04926-0.31684-0.20617-0.35889zm-20.233 2.663c-0.0724-0.0194-0.15111-0.01007-0.22144 0.03054l-1.1855 0.68342c-0.14068 0.08122-0.18813 0.2602-0.1069 0.40089 0.08122 0.14068 0.2602 0.18813 0.40089 0.10691l1.1835-0.68342c0.14068-0.08122 0.19004-0.2602 0.10881-0.40089-0.04061-0.07034-0.10704-0.11805-0.17944-0.13744zm18.979 0c-0.0724 0.0194-0.13883 0.06711-0.17944 0.13744-0.08122 0.14068-0.03187 0.31967 0.10881 0.40089l1.1835 0.68342c0.14068 0.08122 0.31967 0.03378 0.40089-0.10691 0.08122-0.14068 0.03378-0.31967-0.1069-0.40089l-1.1855-0.68342c-0.07034-0.04061-0.14904-0.04995-0.22144-0.03054zm-17.299 2.2774c-0.07496 0-0.15065 0.02847-0.20808 0.0859l-0.96785 0.96785c-0.11486 0.11486-0.11486 0.30129 0 0.41616 0.11486 0.11486 0.30129 0.11486 0.41616 0l0.96785-0.96785c0.11486-0.11486 0.11486-0.30129 0-0.41616-0.05743-0.05743-0.13312-0.0859-0.20808-0.0859zm15.619 0c-0.07495 0-0.15065 0.02847-0.20808 0.0859-0.11486 0.11486-0.11486 0.30129 0 0.41616l0.96785 0.96785c0.11486 0.11486 0.29939 0.11486 0.41425 0s0.11486-0.30129 0-0.41616l-0.96595-0.96785c-0.05743-0.05743-0.13312-0.0859-0.20808-0.0859zm-13.409 1.7658c-0.0724 0.0194-0.13692 0.06711-0.17754 0.13744l-0.68342 1.1835c-0.08122 0.14068-0.03378 0.31967 0.10691 0.40089 0.14068 0.08122 0.31967 0.03378 0.40089-0.1069l0.68342-1.1855c0.08122-0.14068 0.03378-0.31967-0.10691-0.40089-0.07034-0.04061-0.15095-0.04803-0.22336-0.02864zm11.198 0c-0.0724-0.0194-0.15301-0.01197-0.22336 0.02864-0.14068 0.08122-0.18813 0.2602-0.10691 0.40089l0.68342 1.1855c0.08122 0.14068 0.2602 0.18813 0.40089 0.1069 0.14068-0.08122 0.18813-0.2602 0.10691-0.40089l-0.68342-1.1835c-0.04061-0.07034-0.10514-0.11805-0.17754-0.13744zm-5.599 0.49252c-0.16244 0-0.29398 0.13154-0.29398 0.29398v2.3442c0 0.16244 0.13154 0.29398 0.29398 0.29398s0.29398-0.13154 0.29398-0.29398v-2.3442c0-0.16244-0.13154-0.29398-0.29398-0.29398zm-2.7833 0.61088c-0.15691-0.04205-0.31684 0.05117-0.35889 0.20808l-0.35316 1.3211c-0.04205 0.15691 0.04926 0.31684 0.20617 0.35889s0.31684-0.04926 0.35889-0.20617l0.35507-1.3229c0.04205-0.15691-0.05117-0.31684-0.20808-0.35889zm5.5666 0c-0.15691 0.04205-0.25013 0.20198-0.20808 0.35889l0.35507 1.3229c0.04205 0.15691 0.20198 0.24821 0.35889 0.20617 0.15691-0.04205 0.24821-0.20198 0.20617-0.35889l-0.35316-1.3211c-0.04204-0.15691-0.20198-0.25013-0.35889-0.20808z" fill="#fafafa" style="paint-order:normal"/>
  <ellipse transform="matrix(1.0152 0 0 1.0152 -.20321 -.48753)" cx="31.72" cy="32" rx="7.9997" ry="7.9994" filter="url(#q)" opacity=".25" style="paint-order:normal"/>
  <ellipse cx="32" cy="32" rx="7.8189" ry="7.8186" fill="url(#e)" stroke-width=".9774" style="paint-order:normal"/>
  <ellipse transform="matrix(.9774 0 0 .9774 .99689 .72316)" cx="31.72" cy="32" rx="6.0002" ry="6" filter="url(#p)" opacity=".15" style="paint-order:normal"/>
  <circle cx="32" cy="32" r="5.8645" fill="url(#linearGradient1025)" style="paint-order:stroke fill markers"/>
  <path d="m32 26.136a5.8646 5.8644 0 0 0-5.8644 5.8644 5.8646 5.8644 0 0 0 5.8644 5.8644 5.8646 5.8644 0 0 0 5.8644-5.8644 5.8646 5.8644 0 0 0-5.8644-5.8644zm0 0.33598a5.5287 5.5284 0 0 1 5.5284 5.5284 5.5287 5.5284 0 0 1-5.5284 5.5284 5.5287 5.5284 0 0 1-5.5284-5.5284 5.5287 5.5284 0 0 1 5.5284-5.5284z" fill="url(#o)" opacity=".19" stroke-width=".9774" style="paint-order:normal"/>
  <path d="m29.068 13.429h5.8644l-2.9322 2.9322z" fill="#fff" opacity=".9" style="paint-order:normal"/>
  <rect x="31.681" y="19.258" width=".64289" height="3.0029" ry=".3389" fill="#0078ff" style="paint-order:stroke fill markers"/>
 </g>
 <circle cx="-1175.9" cy="-1256" r="0" fill="#5e4aa6"/>
 <circle cx="-1185.3" cy="-1244.5" r="0" fill="#5e4aa6"/>
</svg>
