<?xml version="1.0" encoding="UTF-8"?>
<!-- Created with Inkscape (http://www.inkscape.org/) -->
<svg width="64" height="64" version="1.1" viewBox="0 0 16.933 16.933" xmlns="http://www.w3.org/2000/svg" xmlns:cc="http://creativecommons.org/ns#" xmlns:dc="http://purl.org/dc/elements/1.1/" xmlns:rdf="http://www.w3.org/1999/02/22-rdf-syntax-ns#" xmlns:xlink="http://www.w3.org/1999/xlink">
 <defs>
  <linearGradient id="linearGradient1519" x1="30.934" x2="30.934" y1="9.9454" y2=".55286" gradientTransform="matrix(1.0299 0 0 1.0299 -.91534 -.22501)" gradientUnits="userSpaceOnUse">
   <stop stop-color="#e6e6e6" offset="0"/>
   <stop stop-color="#fff" offset="1"/>
  </linearGradient>
  <linearGradient id="linearGradient1523" x1="30.934" x2="30.934" y1="14.448" y2="6.3489" gradientTransform="matrix(.63887 0 0 .63887 11.064 2.7197)" gradientUnits="userSpaceOnUse">
   <stop stop-color="#fff" offset="0"/>
   <stop stop-color="#e6e6e6" offset="1"/>
  </linearGradient>
  <linearGradient id="linearGradient1549" x1="46.685" x2="47.337" y1="7.8003" y2="8.4526" gradientTransform="translate(.22117 -.25218)" gradientUnits="userSpaceOnUse">
   <stop stop-color="#d2dcdc" offset="0"/>
   <stop stop-color="#fff" offset="1"/>
  </linearGradient>
 </defs>
 <metadata>
  <rdf:RDF>
   <cc:Work rdf:about="">
    <dc:format>image/svg+xml</dc:format>
    <dc:type rdf:resource="http://purl.org/dc/dcmitype/StillImage"/>
    <dc:title/>
   </cc:Work>
  </rdf:RDF>
 </metadata>
 <circle cx="-330.35" cy="-328.38" r="0" fill="#5e4aa6" stroke-width=".26458"/>
 <g transform="translate(-22.17 .9354)">
  <path d="m38.574 7.5311c0 0.95152-0.16748 1.8639-0.47463 2.7093-0.2135 0.58767-0.49438 1.1433-0.83391 1.6572-0.14221 0.21607-0.29514 0.42473-0.45746 0.62527-0.51964 0.64177-1.1372 1.2006-1.8304 1.6543-0.2553 0.16716-0.52064 0.32009-0.79534 0.45711-1.0668 0.53387-2.271 0.83419-3.5456 0.83419-1.2745 0-2.4787-0.30032-3.5456-0.83421-0.27473-0.13706-0.54038-0.28997-0.79568-0.45711-0.70205-0.45972-1.327-1.0274-1.8509-1.6798-0.16262-0.20216-0.31523-0.41274-0.45745-0.63076-0.33045-0.50538-0.6042-1.0507-0.81348-1.627-0.3071-0.84527-0.47429-1.7572-0.47429-2.7085 0-4.3837 3.5536-7.9373 7.9373-7.9373 2.2005 0 4.1916 0.89545 5.6294 2.3416 0.41435 0.41661 0.78273 0.87927 1.0963 1.3795 0.29644 0.47106 0.54426 0.9758 0.73703 1.5067 0.30717 0.84557 0.47466 1.7579 0.47466 2.7093z" fill="#7d7d7d" stroke-width=".031005"/>
  <path d="m37.891 7.5311c0 0.86971-0.15308 1.7036-0.43382 2.4763-0.19514 0.53714-0.45187 1.045-0.76221 1.5147-0.12998 0.19749-0.26976 0.38821-0.41813 0.57151-0.47496 0.58659-1.0394 1.0974-1.673 1.5121-0.23335 0.15279-0.47587 0.29257-0.72695 0.41781-0.97507 0.48797-2.0757 0.76246-3.2407 0.76246-1.1649 0-2.2656-0.2745-3.2407-0.76248-0.25111-0.12527-0.49392-0.26504-0.72726-0.41781-0.64169-0.42019-1.2129-0.93906-1.6918-1.5354-0.14864-0.18478-0.28813-0.37725-0.41812-0.57653-0.30204-0.46193-0.55225-0.96036-0.74354-1.4871-0.2807-0.77259-0.43351-1.6061-0.43351-2.4756 0-4.0068 3.248-7.2548 7.2548-7.2548 2.0113 0 3.8312 0.81846 5.1454 2.1403 0.37872 0.38079 0.71543 0.80367 1.002 1.2609 0.27095 0.43056 0.49746 0.8919 0.67366 1.3771 0.28076 0.77287 0.43385 1.6068 0.43385 2.4763z" fill="url(#linearGradient1519)" stroke-width=".028339"/>
  <path d="m35.137 7.5311c0 0.53951-0.09496 1.0568-0.26912 1.5362-0.12106 0.33321-0.28031 0.64825-0.47283 0.93963-0.08063 0.12251-0.16734 0.24082-0.25938 0.35453-0.29464 0.36388-0.64479 0.68074-1.0378 0.93799-0.14475 0.09478-0.2952 0.18149-0.45096 0.25918-0.60487 0.3027-1.2877 0.47298-2.0104 0.47298-0.72264 0-1.4054-0.17028-2.0104-0.473-0.15577-0.077712-0.3064-0.16441-0.45115-0.25918-0.39806-0.26066-0.75241-0.58254-1.0495-0.95245-0.092206-0.11462-0.17874-0.23402-0.25938-0.35764-0.18737-0.28655-0.34258-0.59575-0.46124-0.92251-0.17413-0.47927-0.26892-0.99633-0.26892-1.5357 0-2.4856 2.0149-4.5005 4.5004-4.5005 1.2477 0 2.3766 0.50772 3.1919 1.3277 0.23494 0.23622 0.44381 0.49855 0.6216 0.78218 0.16808 0.26709 0.3086 0.55328 0.4179 0.8543 0.17416 0.47944 0.26913 0.99673 0.26913 1.5362z" fill="url(#linearGradient1523)" stroke-width=".01758"/>
  <path d="m27.982 10.728 2.3704-3.1592c0.03323-0.044303 0.20925-0.0264 0.25266 0.00798 0.04343 0.034385 0.10148 0.21614 0.06587 0.25857l-2.5322 3.0169c-0.0356 0.04242-0.09702 0.05069-0.14044 0.01631-0.04343-0.03439-0.04941-0.09604-0.01631-0.14044z" fill="#fd4100" stroke-width=".93333" style="paint-order:stroke fill markers"/>
  <path d="m30.883 7.2231 2.921 0.44056c0.12695 0.019149 0.22071 0.1252 0.20835 0.253-0.01237 0.12779-0.12474 0.21409-0.253 0.20835l-2.921-0.1307c-0.12826-0.00574-0.22071-0.27721-0.20834-0.405s0.12605-0.38535 0.253-0.3662z" fill="#555" style="paint-order:stroke fill markers"/>
  <g transform="translate(-16.783 -.52549)">
   <circle cx="47.42" cy="8.0566" r=".59232" fill="#555" style="paint-order:stroke fill markers"/>
   <circle cx="47.42" cy="8.0566" r=".52618" fill="url(#linearGradient1549)" style="paint-order:stroke fill markers"/>
  </g>
 </g>
</svg>
