<?xml version="1.0" encoding="UTF-8"?>
<svg id="Iterm" width="64" height="64" enable-background="new 0 0 1024 1024" image-rendering="optimizeSpeed" version="1.1" viewBox="0 0 64 64" xmlns="http://www.w3.org/2000/svg" xmlns:cc="http://creativecommons.org/ns#" xmlns:dc="http://purl.org/dc/elements/1.1/" xmlns:rdf="http://www.w3.org/1999/02/22-rdf-syntax-ns#" xmlns:xlink="http://www.w3.org/1999/xlink">
 <metadata>
  <rdf:RDF>
   <cc:Work rdf:about="">
    <dc:format>image/svg+xml</dc:format>
    <dc:type rdf:resource="http://purl.org/dc/dcmitype/StillImage"/>
    <dc:title/>
   </cc:Work>
  </rdf:RDF>
 </metadata>
 <defs>
  <linearGradient id="linearGradient616004" x1="484.21" x2="484.56" y1="410.09" y2="397.31" gradientTransform="matrix(-.33145 0 0 -.33145 191.05 142.43)" gradientUnits="userSpaceOnUse" xlink:href="#linearGradient615986"/>
  <linearGradient id="linearGradient615986">
   <stop stop-color="#717171" offset="0"/>
   <stop stop-color="#ddd" offset=".47489"/>
   <stop stop-color="#f0f0f0" offset=".6268"/>
   <stop stop-color="#7a7a7a" offset="1"/>
  </linearGradient>
  <linearGradient id="linearGradient616016" x1="372.48" x2="398.95" y1="223.5" y2="223.5" gradientTransform="matrix(.33145 0 0 .33145 -96.572 -68.886)" gradientUnits="userSpaceOnUse" xlink:href="#linearGradient615986"/>
  <linearGradient id="linearGradient615988" x1="484.21" x2="484.56" y1="410.09" y2="397.31" gradientTransform="matrix(.33145 0 0 .33145 -128.5 -74.464)" gradientUnits="userSpaceOnUse" xlink:href="#linearGradient615986"/>
  <clipPath id="clipPath239767">
   <path d="m1373.6 472.18h190.8v85.199h-190.8z"/>
  </clipPath>
  <linearGradient id="linearGradient239747" x2="1" gradientTransform="matrix(107.49 0 0 -107.49 1414.5 514.9)" gradientUnits="userSpaceOnUse">
   <stop stop-color="#177500" offset="0"/>
   <stop stop-color="#177500" offset=".041463"/>
   <stop stop-color="#13e900" offset=".52927"/>
   <stop stop-color="#c5ff9b" offset=".84146"/>
   <stop stop-color="#6fed07" offset="1"/>
  </linearGradient>
  <linearGradient id="linearGradient239721" x2="1" gradientTransform="matrix(219.53 0 0 -219.53 1339.5 327.54)" gradientUnits="userSpaceOnUse">
   <stop stop-color="#177500" offset="0"/>
   <stop stop-color="#177500" offset=".041463"/>
   <stop stop-color="#13e900" offset=".52927"/>
   <stop stop-color="#c5ff9b" offset=".84146"/>
   <stop stop-color="#6fed07" offset="1"/>
  </linearGradient>
  <linearGradient id="linearGradient207299" x2="1" gradientTransform="matrix(229.79 0 0 -229.79 1337.3 510.13)" gradientUnits="userSpaceOnUse">
   <stop stop-color="#dbd8d8" offset="0"/>
   <stop stop-color="#dbd8d8" offset=".012195"/>
   <stop stop-color="#fbfbfb" offset=".17805"/>
   <stop stop-color="#d5d2d2" offset=".40732"/>
   <stop stop-color="#fff" offset=".84634"/>
   <stop stop-color="#bebaba" offset="1"/>
  </linearGradient>
 </defs>
 <mask>
  <g id="g">
   <path d="m969.75 392.05c-1.1-4.35-2.35-9-3.65-13.6-1-3.4-2-6.85-3.15-10.5-1.6-5.15-3.4-10.5-5.3-15.85-6.45-18.25-14.15-36.05-23.15-53.65-3.8-7.4-7.95-14.95-12.3-22.4-20.3-34.5-45.8-67.2-76.35-97.75-72.6-72.6-157.15-116.65-253.65-132.05-16.25-2.6-32.8-4.4-50.05-5.35-9.7-0.55-19.85-0.85-30.1-0.85-9.35 0-18.6 0.25-27.9 0.75-118.35 6.1-220.3 51.95-305.85 137.5q-138.25 138.25-138.25 333.75c0 130.35 46.1 241.65 138.25 333.8 56.7 56.65 120.55 95.9 191.1 117.55 36.75 11.25 74.8 17.85 114.75 19.95h0.4c8.5 0.45 16.6 0.7 24.5 0.7h3c10.3 0 20.5-0.3 30.1-0.8 2.5-0.15 4.75-0.3 6.95-0.45 20.2-1.45 39.9-4.05 58.7-7.7 7.95-1.55 15.8-3.3 23.4-5.15 80.8-20.3 152.15-61.6 214.65-124.1 48.6-48.6 84.4-102.5 107.35-161.8 18.45-47.65 28.65-98.8 30.55-153.5 0.2-6.05 0.3-12.25 0.3-18.5v-3c-0.2-40.65-4.95-79.5-14.3-117z" fill="#fff"/>
  </g>
 </mask>
 <g transform="translate(.67797 -.13559)">
  <g transform="matrix(.11693 0 0 -.11693 -138.53 93.593)">
   <path d="m1337.3 713.61v-407.5s37.882-10.094 114.9-10.094c77.017 0 114.9 10.094 114.9 10.094v407.5s-42.997 10.624-114.9 10.624c-71.9 0-114.9-10.624-114.9-10.624" fill="url(#linearGradient207299)"/>
  </g>
  <g transform="matrix(.11693 0 0 -.11693 -138.53 93.593)">
   <path d="m1347 342.54c-4.123 0-7.496-3.374-7.496-7.497v-15.022c0-4.122 3.373-7.497 7.496-7.497h204.54c4.123 0 7.497 3.375 7.497 7.497v15.022c0 4.123-3.374 7.497-7.497 7.497z" fill="url(#linearGradient239721)"/>
  </g>
  <g transform="matrix(.11693 0 0 -.11693 -138.53 93.593)">
   <path d="m1414.5 510.13h53.222l-53.222-126.74 107.49 158.26-69.82-1.531 13.235 106.29z" fill="url(#linearGradient239747)"/>
  </g>
  <g transform="matrix(.11693 0 0 -.11693 -138.53 93.593)"></g>
  <g transform="matrix(.11693 0 0 -.11693 -138.53 93.593)">
   <g clip-path="url(#clipPath239767)"></g>
  </g>
  <g>
   <path d="m17.841 57.8s-0.34084 2.9186 1.798 3.1502c2.1388 0.23162 7.0693 0.66491 11.635 0.66491 4.5661 0 9.4965-0.43329 11.635-0.66491 2.1388-0.23162 1.798-3.1502 1.798-3.1502h-13.433z" fill="url(#linearGradient615988)"/>
   <rect x="26.887" y="2.5271" width="8.7745" height="5.3329" ry="1.5813" fill="url(#linearGradient616016)" fill-rule="evenodd" style="paint-order:stroke fill markers"/>
   <path d="m44.707 10.162s0.34084-2.9186-1.798-3.1502c-2.1388-0.23162-7.0693-0.66491-11.635-0.66491-4.5661 0-9.4965 0.43329-11.635 0.66491-2.1388 0.23162-1.798 3.1502-1.798 3.1502h13.433z" fill="url(#linearGradient616004)"/>
  </g>
 </g>
</svg>
