<?xml version="1.0" encoding="UTF-8"?>
<svg width="64" height="64" version="1.1" viewBox="0 0 16.933 16.933" xmlns="http://www.w3.org/2000/svg" xmlns:cc="http://creativecommons.org/ns#" xmlns:dc="http://purl.org/dc/elements/1.1/" xmlns:rdf="http://www.w3.org/1999/02/22-rdf-syntax-ns#" xmlns:xlink="http://www.w3.org/1999/xlink">
 <defs>
  <linearGradient id="b-3" x1="399.57" x2="399.57" y1="545.8" y2="517.8" gradientTransform="matrix(.56696 0 0 .56696 -241.6 -293.02)" gradientUnits="userSpaceOnUse">
   <stop stop-color="#3889e9" offset="0"/>
   <stop stop-color="#5ea5fb" offset="1"/>
  </linearGradient>
  <filter id="filter1304" x="-.048" y="-.048" width="1.096" height="1.096" color-interpolation-filters="sRGB">
   <feGaussianBlur stdDeviation="0.23812031"/>
  </filter>
 </defs>
 <metadata>
  <rdf:RDF>
   <cc:Work rdf:about="">
    <dc:format>image/svg+xml</dc:format>
    <dc:type rdf:resource="http://purl.org/dc/dcmitype/StillImage"/>
    <dc:title/>
   </cc:Work>
  </rdf:RDF>
 </metadata>
 <circle cx="-330.35" cy="-328.38" r="0" fill="#5e4aa6" stroke-width=".26458"/>
 <circle cx="-330.37" cy="-327.98" r="0" fill="#5e4aa6" stroke-width=".26458"/>
 <circle cx="-14.488" cy="8.4781" r="0" fill="url(#b-3)" stroke-width=".41578"/>
 <g fill="#5e4aa6">
  <g transform="translate(-.00013009 -3.0088e-5)" stroke-width=".26458">
   <circle cx="-297.59" cy="-338.41" r="0"/>
   <g transform="translate(32.762,-10.031)">
    <circle cx="-299.02" cy="-338.77" r="0"/>
    <circle cx="-8.1062" cy="-3.9487" r="0" fill-rule="evenodd"/>
    <circle cx="-278.25" cy="-357.69" r="0"/>
    <circle cx="12.663" cy="-22.859" r="0" fill-rule="evenodd"/>
   </g>
   <circle cx="-330.35" cy="-328.38" r="0"/>
  </g>
  <circle cx="-330.35" cy="-328.37" r="0" stroke-width=".26458"/>
  <circle cx="-352.63" cy="-336.83" r="0" stroke-width=".26458"/>
 </g>
 <g stroke-linecap="round">
  <circle cx="8.4665" cy="8.4665" r="7.9373" fill="#f9ce1d" stroke-width=".14653" style="paint-order:stroke fill markers"/>
  <circle cx="8.4665" cy="8.5851" r="5.953" filter="url(#filter1304)" opacity=".3" stroke-width=".1099" style="paint-order:stroke fill markers"/>
  <circle cx="8.4665" cy="8.4665" r="5.953" fill="#e6e6e6" stroke-width=".1099" style="paint-order:stroke fill markers"/>
 </g>
 <g fill="#323232">
  <rect x="5.6884" y="8.2404" width="5.5561" height="3.2375" ry="0" stroke-linecap="round" stroke-width=".076896" style="paint-order:stroke fill markers"/>
  <path d="m4.7624 8.2404 3.7041-3.8122 3.7041 3.8122z"/>
  <rect x="10.135" y="5.3589" width=".8866" height="1.6424" ry="0" style="paint-order:stroke fill markers"/>
 </g>
</svg>
