<?xml version="1.0" encoding="UTF-8" standalone="no"?>
<svg
   xmlns:dc="http://purl.org/dc/elements/1.1/"
   xmlns:cc="http://creativecommons.org/ns#"
   xmlns:rdf="http://www.w3.org/1999/02/22-rdf-syntax-ns#"
   xmlns:svg="http://www.w3.org/2000/svg"
   xmlns="http://www.w3.org/2000/svg"
   xmlns:xlink="http://www.w3.org/1999/xlink"
   xmlns:sodipodi="http://sodipodi.sourceforge.net/DTD/sodipodi-0.dtd"
   xmlns:inkscape="http://www.inkscape.org/namespaces/inkscape"
   inkscape:version="1.0 (4035a4fb49, 2020-05-01)"
   sodipodi:docname="scanner.svg"
   id="svg83"
   viewBox="0 0 16.933 16.933"
   version="1.1"
   height="64"
   width="64">
  <metadata
     id="metadata87">
    <rdf:RDF>
      <cc:Work
         rdf:about="">
        <dc:format>image/svg+xml</dc:format>
        <dc:type
           rdf:resource="http://purl.org/dc/dcmitype/StillImage" />
        <dc:title></dc:title>
      </cc:Work>
    </rdf:RDF>
  </metadata>
  <sodipodi:namedview
     inkscape:current-layer="svg83"
     inkscape:window-maximized="1"
     inkscape:window-y="36"
     inkscape:window-x="0"
     inkscape:cy="38.333788"
     inkscape:cx="-29.100355"
     inkscape:zoom="2.9804688"
     showgrid="false"
     id="namedview85"
     inkscape:window-height="932"
     inkscape:window-width="1920"
     inkscape:pageshadow="2"
     inkscape:pageopacity="0"
     guidetolerance="10"
     gridtolerance="10"
     objecttolerance="10"
     borderopacity="1"
     bordercolor="#666666"
     pagecolor="#ffffff" />
  <defs
     id="defs51">
    <linearGradient
       id="linearGradient932"
       inkscape:collect="always">
      <stop
         id="stop928"
         offset="0"
         style="stop-color:#9d9d9d;stop-opacity:1" />
      <stop
         id="stop930"
         offset="1"
         style="stop-color:#9d9d9d;stop-opacity:1" />
    </linearGradient>
    <linearGradient
       id="a">
      <stop
         id="stop2"
         offset="0"
         stop-color="#bebebe" />
      <stop
         id="stop4"
         offset="1"
         stop-color="#464646" />
    </linearGradient>
    <radialGradient
       gradientUnits="userSpaceOnUse"
       gradientTransform="matrix(0.3738,1.4135e-7,-4.447e-8,0.1302,24.428395,5.7248)"
       r="9.9092"
       cy="53.196"
       cx="32"
       id="g">
      <stop
         id="stop7"
         offset="0"
         stop-color="#fdfdfd" />
      <stop
         id="stop9"
         offset=".47277"
         stop-color="#f5f5f5" />
      <stop
         id="stop11"
         offset="1"
         stop-color="#cecece" />
    </radialGradient>
    <filter
       color-interpolation-filters="sRGB"
       height="1.1327"
       width="1.1095"
       y="-.06636"
       x="-.054752"
       id="l">
      <feGaussianBlur
         id="feGaussianBlur14"
         stdDeviation="0.30190621" />
    </filter>
    <clipPath
       id="o">
      <path
         id="path17"
         fill="#929292"
         d="m3.8141 1.3806c-0.14028-2.209e-4 -0.26185 0.020571-0.36044 0.064518-0.1604 0.053363-0.22836 0.15334-0.27462 0.31627l-1.6871 9.643c-0.00543 0.05166-0.00166 0.10148 0.00959 0.14934 0.0045 0.01915 0.010275 0.03801 0.017163 0.05639 0.00344 0.0092 0.0071 0.01811 0.011106 0.02707 0.012032 0.02688 0.026643 0.05287 0.043414 0.0776 0.027952 0.04121 0.061865 0.07932 0.10096 0.11325 0.00782 0.0067 0.016025 0.01344 0.024231 0.01985 0.04103 0.03229 0.086637 0.06037 0.13579 0.08347 0.00983 0.0045 0.019689 0.0088 0.029784 0.01308 0.090854 0.03794 0.19221 0.05911 0.29632 0.05911h3.7457a3.4959 5.0429 0 0 1 2.5604-1.6184 3.4959 5.0429 0 0 1 2.5619 1.6184h3.7442c0.24291 0 0.46967-0.11569 0.5871-0.28875 0.01678-0.02472 0.03138-0.05071 0.04341-0.0776 4e-3 -0.0089 0.0081-0.01791 0.01161-0.02707 0.0068-0.01837 0.01217-0.03727 0.01666-0.05639 0.01125-0.04786 0.01502-0.09813 0.0096-0.14979l-1.9456-9.6425c-0.046266-0.16293-0.11422-0.26291-0.27462-0.31627-0.098588-0.043939-0.22016-0.064739-0.36044-0.064518h-4.3939z" />
    </clipPath>
    <filter
       color-interpolation-filters="sRGB"
       height="1.8478"
       width="1.1735"
       y="-.42391"
       x="-.086731"
       id="j">
      <feGaussianBlur
         id="feGaussianBlur20"
         stdDeviation="0.70652346" />
    </filter>
    <radialGradient
       gradientUnits="userSpaceOnUse"
       gradientTransform="matrix(1.1114,4.7498e-8,-5.5414e-8,1.2966,27.040065,-5.2248)"
       r="7.142"
       cy="13.903"
       cx="7.9373"
       id="d">
      <stop
         id="stop23"
         offset="0"
         stop-color="#fff" />
      <stop
         id="stop25"
         offset="1"
         stop-opacity="0"
         stop-color="#fff" />
    </radialGradient>
    <linearGradient
       gradientUnits="userSpaceOnUse"
       gradientTransform="matrix(0.99497,0,0,1,27.966191,0)"
       y2="15.356"
       y1="12.477"
       x2="8.4665"
       x1="8.4665"
       id="h">
      <stop
         id="stop28"
         offset="0"
         stop-color="#f3f3f3" />
      <stop
         id="stop30"
         offset="1"
         stop-color="#e4e4e4" />
    </linearGradient>
    <filter
       color-interpolation-filters="sRGB"
       height="1.4762"
       width="1.0397"
       y="-.23809"
       x="-.019841"
       id="n">
      <feGaussianBlur
         id="feGaussianBlur33"
         stdDeviation="0.1049892" />
    </filter>
    <filter
       color-interpolation-filters="sRGB"
       height="1.3524"
       width="1.0401"
       y="-.17621"
       x="-.020048"
       id="m">
      <feGaussianBlur
         id="feGaussianBlur36"
         stdDeviation="0.43981933" />
    </filter>
    <filter
       color-interpolation-filters="sRGB"
       height="1.2199"
       width="1.0825"
       y="-.10994"
       x="-.041258"
       id="k">
      <feGaussianBlur
         id="feGaussianBlur39"
         stdDeviation="0.34069824" />
    </filter>
    <radialGradient
       xlink:href="#a"
       gradientUnits="userSpaceOnUse"
       r=".39687"
       cy="14.42"
       cx="14.155"
       id="f" />
    <filter
       color-interpolation-filters="sRGB"
       height="1.36"
       width="1.36"
       y="-.18"
       x="-.18"
       id="i">
      <feGaussianBlur
         id="feGaussianBlur43"
         stdDeviation="0.040504485" />
    </filter>
    <radialGradient
       xlink:href="#a"
       gradientUnits="userSpaceOnUse"
       gradientTransform="matrix(0.66667,0,0,0.66667,3.5277,4.8065)"
       r=".39687"
       cy="14.42"
       cx="14.155"
       id="c" />
    <radialGradient
       xlink:href="#a"
       gradientUnits="userSpaceOnUse"
       gradientTransform="matrix(0.66667,0,0,0.66667,2.4694,4.8065)"
       r=".39687"
       cy="14.42"
       cx="14.155"
       id="b" />
    <filter
       color-interpolation-filters="sRGB"
       height="1.1211"
       width="1.1189"
       y="-.060537"
       x="-.059473"
       id="e">
      <feGaussianBlur
         id="feGaussianBlur48"
         stdDeviation="1.3378352" />
    </filter>
    <linearGradient
       gradientTransform="translate(-14.120643)"
       gradientUnits="userSpaceOnUse"
       y2="15.689828"
       x2="22.287172"
       y1="1.1170974"
       x1="22.287172"
       id="linearGradient934"
       xlink:href="#linearGradient932"
       inkscape:collect="always" />
  </defs>
  <rect
     ry="0.57026243"
     y="1.0861231"
     x="2.6457813"
     height="14.551797"
     width="11.641438"
     id="rect926"
     style="opacity:1;fill:url(#linearGradient934);fill-opacity:1;stroke-width:0.528953;stroke-linecap:round" />
  <rect
     style="opacity:1;fill:#ebebeb;fill-opacity:1;stroke-width:0.432779;stroke-linecap:round"
     id="rect936"
     width="9.5248127"
     height="11.906015"
     x="3.7040937"
     y="2.5134923"
     ry="0" />
  <rect
     ry="0.52915627"
     y="7.9373436"
     x="2.248914"
     height="1.0583125"
     width="12.435172"
     id="rect946"
     style="opacity:1;fill:#fffbd8;fill-opacity:1;stroke-width:0.553813;stroke-linecap:round" />
</svg>
