<?xml version="1.0" encoding="UTF-8"?>
<svg width="64" height="64" version="1.1" viewBox="0 0 16.933 16.933" xmlns="http://www.w3.org/2000/svg" xmlns:cc="http://creativecommons.org/ns#" xmlns:dc="http://purl.org/dc/elements/1.1/" xmlns:rdf="http://www.w3.org/1999/02/22-rdf-syntax-ns#" xmlns:xlink="http://www.w3.org/1999/xlink">
 <metadata>
  <rdf:RDF>
   <cc:Work rdf:about="">
    <dc:format>image/svg+xml</dc:format>
    <dc:type rdf:resource="http://purl.org/dc/dcmitype/StillImage"/>
    <dc:title/>
   </cc:Work>
  </rdf:RDF>
 </metadata>
 <g stroke-linecap="round">
  <circle cx="8.4665" cy="8.4665" r="7.9373" fill="#e6e6e6" stroke-width="1.0083"/>
  <circle cx="8.4665" cy="8.4665" r="4.8947" fill="#880e4f" stroke-width=".62177"/>
  <circle cx="8.4665" cy="8.4665" r="3.8364" fill="#e91e63" stroke-width=".48734"/>
  <g stroke-width=".30248">
   <path d="m10.158 10.142a2.3812 2.3812 0 0 0-8e-3 -3.3595l-1.6758 1.6757z" fill="#f278a1"/>
   <path d="m10.158 10.142-1.6838-1.6838-1.6918 1.6918a2.3812 2.3812 0 0 0 3.3675 0 2.3812 2.3812 0 0 0 8e-3 -8e-3z" fill="#f6a5c1"/>
   <path d="m8.4745 8.4585 1.6757-1.6757a2.3812 2.3812 0 0 0-3.3595-0.00804z" fill="#ed4b82"/>
   <path d="m8.4745 8.4585-1.6838-1.6838a2.3812 2.3812 0 0 0-0.00804 0.00804 2.3812 2.3812 0 0 0-0.00183 0.00183 2.3812 2.3812 0 0 0 0.00183 3.3657z" fill="#f278a1"/>
  </g>
 </g>
</svg>
