<?xml version="1.0" encoding="UTF-8" standalone="no"?>
<svg
   xmlns:dc="http://purl.org/dc/elements/1.1/"
   xmlns:cc="http://creativecommons.org/ns#"
   xmlns:rdf="http://www.w3.org/1999/02/22-rdf-syntax-ns#"
   xmlns:svg="http://www.w3.org/2000/svg"
   xmlns="http://www.w3.org/2000/svg"
   xmlns:sodipodi="http://sodipodi.sourceforge.net/DTD/sodipodi-0.dtd"
   xmlns:inkscape="http://www.inkscape.org/namespaces/inkscape"
   inkscape:version="1.0 (4035a4fb49, 2020-05-01)"
   sodipodi:docname="users.svg"
   id="svg25"
   viewBox="0 0 16.933 16.933"
   version="1.1"
   height="64"
   width="64">
  <metadata
     id="metadata29">
    <rdf:RDF>
      <cc:Work
         rdf:about="">
        <dc:format>image/svg+xml</dc:format>
        <dc:type
           rdf:resource="http://purl.org/dc/dcmitype/StillImage" />
        <dc:title></dc:title>
      </cc:Work>
    </rdf:RDF>
  </metadata>
  <sodipodi:namedview
     inkscape:current-layer="svg25"
     inkscape:window-maximized="1"
     inkscape:window-y="36"
     inkscape:window-x="0"
     inkscape:cy="54.49682"
     inkscape:cx="66.587815"
     inkscape:zoom="4.2150193"
     showgrid="false"
     id="namedview27"
     inkscape:window-height="932"
     inkscape:window-width="1920"
     inkscape:pageshadow="2"
     inkscape:pageopacity="0"
     guidetolerance="10"
     gridtolerance="10"
     objecttolerance="10"
     borderopacity="1"
     bordercolor="#666666"
     pagecolor="#ffffff" />
  <defs
     id="defs7">
    <linearGradient
       gradientUnits="userSpaceOnUse"
       gradientTransform="matrix(0.53033,0,0,0.53033,11.5086,71.9965)"
       y2="-100.78"
       y1="-137.82"
       x2="-6.1472"
       x1="-6.1472"
       id="a">
      <stop
         id="stop2"
         offset="0"
         stop-color="#32b4ff" />
      <stop
         id="stop4"
         offset="1"
         stop-color="#3287ff" />
    </linearGradient>
  </defs>
  <circle
     id="circle9"
     stroke-width=".26458"
     fill="#5e4aa6"
     r="0"
     cy="-328.38"
     cx="-330.35" />
  <circle
     id="circle13"
     style="fill:url(#a);paint-order:normal"
     fill="url(#a)"
     r="7.9375"
     cy="8.4665003"
     cx="8.4665003" />
  <g
     transform="translate(0.01743167,0.07031)"
     id="g856">
    <path
       d="M 10.006,6.2734 A 1.0831,0.82507 0 0 0 9.97086,6.27495 v 0.43407 c 0.0059,0.00718 0.02194,0.00618 0.02739,0.013436 0.11073,0.14733 0.15806,0.3158 0.15813,0.4904 -6.5e-5,0.1746 -0.04739,0.34307 -0.15813,0.4904 C 9.94226,7.777752 9.81422,7.793507 9.71869,7.845876 9.684991,7.968996 9.676178,8.085016 9.61172,8.212776 9.599786,8.236561 9.585751,8.259781 9.57038,8.281504 l -0.22427,0.31419 2.2029,1.3771 c 0.02411,0.015064 0.04682,0.031906 0.06821,0.050642 0.45344,0.39945 0.65113,0.91028 0.60564,1.3487 h 0.04909 c 0.31623,0 0.76614,-0.49113 0.17156,-1.0857 l -1.9507,-1.2195 0.38963,-0.54879 c 0.05974,-0.13443 0.08836,-0.26067 0.0987,-0.37516 h 0.10904 v -5.17e-4 a 0.13231,0.17607 0 0 0 0.12299,-0.1757 0.13231,0.17607 0 0 0 -0.12299,-0.1757 v -0.71519 h -0.0021 a 1.0831,0.82507 0 0 0 -1.082,-0.80252 z M 8.8283,9.5196 7.601,10.28646 c -0.66533,0.58612 -0.15062,1.0857 0.17156,1.0857 h 3.2705 c 0.03639,-0.02402 0.11516,-0.0657 0.13281,-0.10645 0.02545,-0.05877 0.07161,-0.1451 -0.25011,-0.43562 z"
       fill="#ffffff"
       style="paint-order:markers fill stroke"
       id="path17" />
    <path
       d="M 7.9373,4.8701 A 1.498,1.1411 0 0 0 6.4413,5.9806 H 6.4382 v 0.98855 a 0.18299,0.24351 0 0 0 -0.00414,0 0.18299,0.24351 0 0 0 -0.18293,0.24339 0.18299,0.24351 0 0 0 0.18293,0.24339 0.18299,0.24351 0 0 0 0.00414,0 H 6.58909 C 6.60443,7.615 6.647774,7.78994 6.74102,7.97474 l 0.54879,0.77204 -2.6783,1.6743 c -0.92021,0.81065 -0.20842,1.5012 0.23719,1.5012 h 6.2229 c 0.43738,0 1.0595,-0.67883 0.23719,-1.5012 L 8.61029,8.73388 9.14979,7.97477 C 9.232424,7.78885 9.27191,7.61431 9.28621,7.45596 h 0.15038 v -5.292e-4 a 0.18299,0.24351 0 0 1 5.291e-4,0 0.18299,0.24351 0 0 0 0.17001,-0.24288 0.18299,0.24351 0 0 0 -0.17053,-0.24288 v -0.98905 h -0.00259 a 1.498,1.1411 0 0 0 -1.4965,-1.1105 z"
       fill="#ffffff"
       style="paint-order:markers fill stroke"
       id="path21" />
  </g>
  <circle
     id="circle23"
     stroke-width=".26458"
     fill-rule="evenodd"
     fill="#5e4aa6"
     r="0"
     cy="6.44"
     cx="-39.434" />
</svg>
