<?xml version="1.0" encoding="UTF-8" standalone="no"?>
<svg
   xmlns:dc="http://purl.org/dc/elements/1.1/"
   xmlns:cc="http://creativecommons.org/ns#"
   xmlns:rdf="http://www.w3.org/1999/02/22-rdf-syntax-ns#"
   xmlns:svg="http://www.w3.org/2000/svg"
   xmlns="http://www.w3.org/2000/svg"
   xmlns:xlink="http://www.w3.org/1999/xlink"
   xmlns:sodipodi="http://sodipodi.sourceforge.net/DTD/sodipodi-0.dtd"
   xmlns:inkscape="http://www.inkscape.org/namespaces/inkscape"
   inkscape:version="1.0 (4035a4fb49, 2020-05-01)"
   sodipodi:docname="wine-winefile.svg"
   id="svg25"
   viewBox="0 0 16.933 16.933"
   version="1.1"
   height="64"
   width="64">
  <metadata
     id="metadata29">
    <rdf:RDF>
      <cc:Work
         rdf:about="">
        <dc:format>image/svg+xml</dc:format>
        <dc:type
           rdf:resource="http://purl.org/dc/dcmitype/StillImage" />
        <dc:title></dc:title>
      </cc:Work>
    </rdf:RDF>
  </metadata>
  <sodipodi:namedview
     inkscape:current-layer="svg25"
     inkscape:window-maximized="1"
     inkscape:window-y="36"
     inkscape:window-x="0"
     inkscape:cy="-6.5892579"
     inkscape:cx="13.817698"
     inkscape:zoom="2.9804688"
     showgrid="false"
     id="namedview27"
     inkscape:window-height="932"
     inkscape:window-width="1920"
     inkscape:pageshadow="2"
     inkscape:pageopacity="0"
     guidetolerance="10"
     gridtolerance="10"
     objecttolerance="10"
     borderopacity="1"
     bordercolor="#666666"
     pagecolor="#ffffff" />
  <defs
     id="defs9">
    <linearGradient
       id="b">
      <stop
         id="stop2"
         offset="0" />
      <stop
         id="stop4"
         offset="1"
         stop-opacity="0" />
    </linearGradient>
    <linearGradient
       xlink:href="#b"
       gradientUnits="userSpaceOnUse"
       gradientTransform="scale(.26458)"
       y2="9"
       y1="13"
       x2="32"
       x1="32"
       id="c" />
    <linearGradient
       xlink:href="#b"
       gradientUnits="userSpaceOnUse"
       y2="44"
       y1="44"
       x2="57"
       x1="30"
       id="a" />
    <linearGradient
       id="linearGradient1371"
       x1="32.523"
       x2="32.523"
       y1="59.752"
       y2="13.321"
       gradientUnits="userSpaceOnUse">
      <stop
         stop-color="#ffbc4c"
         offset="0"
         id="stop854" />
      <stop
         stop-color="#ffd257"
         offset="1"
         id="stop856" />
    </linearGradient>
    <linearGradient
       id="linearGradient1390"
       x1="32.523"
       x2="32.523"
       y1="59.752"
       y2="12.107"
       gradientUnits="userSpaceOnUse">
      <stop
         stop-color="#e1aa50"
         offset="0"
         id="stop859" />
      <stop
         stop-color="#fabe55"
         offset="1"
         id="stop861" />
    </linearGradient>
    <linearGradient
       id="linearGradient1478"
       x1="34.24"
       x2="34.24"
       y1="59.752"
       y2="12.393"
       gradientUnits="userSpaceOnUse">
      <stop
         stop-color="#1964ff"
         offset="0"
         id="stop864" />
      <stop
         stop-color="#198cff"
         offset="1"
         id="stop866" />
    </linearGradient>
    <linearGradient
       id="linearGradient1486"
       x1="53.159"
       x2="27.311"
       y1="22.141"
       y2="-1.5634"
       gradientUnits="userSpaceOnUse">
      <stop
         stop-color="#1964ff"
         offset="0"
         id="stop869" />
      <stop
         stop-color="#198cff"
         offset="1"
         id="stop871" />
    </linearGradient>
    <linearGradient
       y2="-1.5634"
       x2="27.311"
       y1="22.141"
       x1="53.159"
       gradientUnits="userSpaceOnUse"
       id="linearGradient920"
       xlink:href="#linearGradient1486"
       inkscape:collect="always" />
    <linearGradient
       y2="-1.5634"
       x2="27.311"
       y1="22.141"
       x1="53.159"
       gradientUnits="userSpaceOnUse"
       id="linearGradient922"
       xlink:href="#linearGradient1486"
       inkscape:collect="always" />
    <linearGradient
       y2="-1.5634"
       x2="27.311"
       y1="22.141"
       x1="53.159"
       gradientUnits="userSpaceOnUse"
       id="linearGradient924"
       xlink:href="#linearGradient1486"
       inkscape:collect="always" />
  </defs>
  <g
     transform="translate(-0.1277,-0.30761558)"
     id="g918">
    <circle
       cx="-330.35001"
       cy="-328.38"
       r="0"
       fill="#5e4aa6"
       stroke-width="0.26458"
       id="circle878" />
    <g
       style="fill:url(#linearGradient924)"
       id="Folder"
       transform="matrix(0.22392,0,0,0.23115,1.4289,1.8395)"
       fill="url(#linearGradient1486)">
      <g
         style="fill:url(#linearGradient922)"
         fill="url(#linearGradient1486)"
         id="g882">
        <path
           style="fill:url(#linearGradient920)"
           d="M 60,4.001 H 26.79 C 26.79,2.2606 25.5097,0 22.79,0 H 4 C 1.791,0 0,1.792 0,4.001 v 12 c 0,2.209 1.791,4 4,4 h 56 c 2.209,0 4,-1.791 4,-4 V 8 C 64,5.791 62.209,4.001 60,4.001 Z"
           clip-rule="evenodd"
           fill="url(#linearGradient1486)"
           fill-rule="evenodd"
           id="path880" />
      </g>
    </g>
    <g
       id="File_1_"
       transform="matrix(0.23115,0,0,0.23115,1.1974,1.8395)">
      <path
         d="M 55.553,6.4333 7.657,9.5927 C 5.4528,9.7381 3.7836,11.6431 3.929,13.8483 l 0.26329,3.9913 c 0.1454,2.2042 2.0504,3.8734 4.2546,3.728 l 47.896,-3.1594 c 2.2042,-0.1454 3.8734,-2.0504 3.728,-4.2546 L 59.8076,10.1623 C 59.66214,7.9571 57.7571,6.2879 55.5529,6.4333 Z"
         fill="#ffffff"
         id="path885" />
    </g>
    <g
       style="fill:url(#linearGradient1371)"
       id="Folder_1_"
       transform="matrix(0.23115,0,0,0.23115,1.1974,1.8395)"
       fill="url(#linearGradient1371)">
      <g
         style="fill:url(#linearGradient1390)"
         fill="url(#linearGradient1390)"
         id="g890">
        <path
           style="fill:url(#linearGradient1478)"
           d="M 60,12.001 H 4 c -2.209,0 -4,1.791 -4,4 v 40 c 0,2.209 1.791,4 4,4 h 56 c 2.209,0 4,-1.791 4,-4 v -40 c 0,-2.209 -1.791,-4 -4,-4 z"
           fill="url(#linearGradient1478)"
           id="path888" />
      </g>
    </g>
  </g>
  <path
     style="stroke-width:1.26568"
     id="path23"
     fill="#ffffff"
     d="M 5.4554429,9.7029188 5.4529115,7.5525253 7.8640353,7.1930717 V 9.7029188 Z M 8.2652565,7.1297876 11.480088,6.6159208 v 3.086998 H 8.2652565 Z m 3.2148315,3.0135884 v 3.086998 L 8.2652565,12.734227 V 10.143376 Z M 7.8640353,12.677271 5.4554429,12.315286 v -2.17191 h 2.4085924 z" />
</svg>
