<?xml version="1.0" encoding="UTF-8" standalone="no"?>
<svg
   xmlns:dc="http://purl.org/dc/elements/1.1/"
   xmlns:cc="http://creativecommons.org/ns#"
   xmlns:rdf="http://www.w3.org/1999/02/22-rdf-syntax-ns#"
   xmlns:svg="http://www.w3.org/2000/svg"
   xmlns="http://www.w3.org/2000/svg"
   xmlns:sodipodi="http://sodipodi.sourceforge.net/DTD/sodipodi-0.dtd"
   xmlns:inkscape="http://www.inkscape.org/namespaces/inkscape"
   inkscape:version="1.0 (4035a4fb49, 2020-05-01)"
   sodipodi:docname="wps-office2019-pdfmain.svg"
   id="svg29"
   viewBox="0 0 16.933 16.933"
   version="1.1"
   height="64"
   width="64">
  <sodipodi:namedview
     inkscape:current-layer="svg29"
     inkscape:window-maximized="1"
     inkscape:window-y="36"
     inkscape:window-x="0"
     inkscape:cy="28.14444"
     inkscape:cx="-2.8278386"
     inkscape:zoom="4.2150193"
     showgrid="false"
     id="namedview31"
     inkscape:window-height="932"
     inkscape:window-width="1920"
     inkscape:pageshadow="2"
     inkscape:pageopacity="0"
     guidetolerance="10"
     gridtolerance="10"
     objecttolerance="10"
     borderopacity="1"
     bordercolor="#666666"
     pagecolor="#ffffff" />
  <defs
     id="defs9">
    <linearGradient
       gradientUnits="userSpaceOnUse"
       gradientTransform="matrix(0.91665,0,0,0.91665,-18.673592,0.71168)"
       y2=".64687"
       y1="16.296"
       x2="16.388"
       x1=".73911"
       id="linearGradient1005">
      <stop
         id="stop2"
         offset="0"
         stop-color="#ff8228" />
      <stop
         id="stop4"
         offset=".48355"
         stop-color="#ff5a1e" />
      <stop
         id="stop6"
         offset="1"
         stop-color="#ff8c55" />
    </linearGradient>
    <linearGradient
       id="b"
       x1="399.57"
       x2="399.57"
       y1="545.8"
       y2="517.8"
       gradientTransform="matrix(2.1429 0 0 2.1429 -826.36 -1107.5)"
       gradientUnits="userSpaceOnUse">
      <stop
         stop-color="#3889e9"
         offset="0"
         id="stop856" />
      <stop
         stop-color="#5ea5fb"
         offset="1"
         id="stop858" />
    </linearGradient>
    <linearGradient
       id="a"
       x1="399.99"
       x2="399.99"
       y1="545.14"
       y2="518.14"
       gradientTransform="matrix(2.1429 0 0 2.1429 -826.36 -1107.5)"
       gradientUnits="userSpaceOnUse">
      <stop
         stop-color="#ff9243"
         offset="0"
         id="stop861" />
      <stop
         stop-color="#fb3021"
         offset="1"
         id="stop863" />
    </linearGradient>
    <filter
       id="c"
       x="-.036"
       y="-.036"
       width="1.072"
       height="1.072"
       color-interpolation-filters="sRGB">
      <feGaussianBlur
         stdDeviation="0.41999874"
         id="feGaussianBlur866" />
    </filter>
    <linearGradient
       id="d"
       x1="31.121"
       x2="31.525"
       y1="18.007"
       y2="47.409"
       gradientUnits="userSpaceOnUse">
      <stop
         stop-color="#fff"
         offset="0"
         id="stop869" />
      <stop
         stop-color="#fdeae1"
         offset="1"
         id="stop871" />
    </linearGradient>
    <filter
       id="e"
       x="-.060001"
       y="-.059999"
       width="1.12"
       height="1.12"
       color-interpolation-filters="sRGB">
      <feGaussianBlur
         stdDeviation="0.70000967"
         id="feGaussianBlur874" />
    </filter>
    <linearGradient
       id="linearGradient978"
       x1="1.9643"
       x2="14.969"
       y1="14.924"
       y2="2.3319"
       gradientTransform="translate(-1.5329531e-4,-8.2652952e-5)"
       gradientUnits="userSpaceOnUse">
      <stop
         stop-color="#ff673c"
         offset="0"
         id="stop923" />
      <stop
         stop-color="#ff8f14"
         offset="1"
         id="stop925" />
    </linearGradient>
  </defs>
  <metadata
     id="metadata11">
    <rdf:RDF>
      <cc:Work
         rdf:about="">
        <dc:format>image/svg+xml</dc:format>
        <dc:type
           rdf:resource="http://purl.org/dc/dcmitype/StillImage" />
        <dc:title></dc:title>
      </cc:Work>
    </rdf:RDF>
  </metadata>
  <g
     id="g21"
     stroke-width=".26458"
     fill="#5e4aa6">
    <circle
       id="circle13"
       r="0"
       cy="-328.38"
       cx="-330.35" />
    <circle
       id="circle15"
       r="0"
       cy="-326.25"
       cx="-312.11" />
    <circle
       id="circle17"
       r="0"
       cy="-333.07"
       cx="-306.02" />
    <circle
       id="circle19"
       r="0"
       cy="-326.01"
       cx="-308.84" />
  </g>
  <path
     id="path930"
     stroke-width="0.0310059"
     fill="url(#linearGradient978)"
     d="m 16.403883,8.4664868 c 0,0.9515287 -0.167478,1.8639002 -0.474626,2.7092802 -0.213499,0.587681 -0.494391,1.143295 -0.833898,1.657211 -0.142208,0.216071 -0.295137,0.424727 -0.457455,0.625278 -0.519632,0.64176 -1.13721,1.200602 -1.830405,1.654301 -0.255299,0.16716 -0.520636,0.320086 -0.795348,0.457111 -1.066805,0.533866 -2.2710062,0.834189 -3.5456113,0.834189 -1.2744993,0 -2.4787001,-0.300323 -3.5456114,-0.834215 C 4.6461904,15.432583 4.3805539,15.279664 4.1252361,15.11253 3.423178,14.652799 2.7982445,14.085121 2.2743269,13.432724 2.1117066,13.230565 1.9591085,13.019982 1.8168713,12.80197 1.4864133,12.296599 1.2126807,11.751277 1.0033995,11.174973 0.69630363,10.329699 0.52911671,9.4177774 0.52911671,8.4664868 c 0,-4.3837949 3.55354869,-7.93734363 7.93734359,-7.93734363 2.2004967,0 4.1917107,0.89543823 5.6294287,2.34159573 0.414356,0.4166047 0.782728,0.8792725 1.096306,1.3795103 0.296433,0.4710549 0.544264,0.9757906 0.737035,1.506693 0.307175,0.8455653 0.474653,1.75791 0.474653,2.70928 z"
     style="fill:url(#linearGradient978)" />
  <path
     d="m 7.672785,4.498025 c -0.21986,0 -0.39687,0.177 -0.39687,0.39687 v 3.1749 c 0,0.21986 0.177,0.39687 0.39687,0.39687 0.21987,0 0.39687,-0.177 0.39687,-0.39687 v -2.7781 h 1.3229 a 1.852,1.852 0 0 1 1.852,1.852 1.852,1.852 0 0 1 -1.852,1.852 h -2.9104 v 0.0067 a 1.7198,1.7198 0 0 0 -1.5875,1.713 1.7198,1.7198 0 0 0 1.7198,1.7198 h 1.0583 c 0.21986,0 0.39687,-0.177 0.39687,-0.39687 v -1.3229 c 0,-0.21986 -0.177,-0.39687 -0.39687,-0.39687 -0.21987,0 -0.39687,0.177 -0.39687,0.39687 v 0.92602 h -0.66144 a 0.92602,0.92602 0 0 1 -0.92602,-0.92602 0.92602,0.92602 0 0 1 0.92602,-0.92602 h 2.7781 a 2.6458,2.6458 0 0 0 2.6458,-2.6458 2.6458,2.6458 0 0 0 -2.6458,-2.6458 z"
     fill="#ffffff"
     fill-rule="evenodd"
     style="paint-order:stroke fill markers"
     id="path25" />
</svg>
