<?xml version="1.0" encoding="UTF-8"?>
<!-- Created with Inkscape (http://www.inkscape.org/) -->
<svg width="64" height="64" version="1.1" viewBox="0 0 16.933 16.933" xmlns="http://www.w3.org/2000/svg" xmlns:cc="http://creativecommons.org/ns#" xmlns:dc="http://purl.org/dc/elements/1.1/" xmlns:rdf="http://www.w3.org/1999/02/22-rdf-syntax-ns#" xmlns:xlink="http://www.w3.org/1999/xlink">
 <defs>
  <linearGradient id="linearGradient1371" x1="32.523" x2="32.523" y1="59.752" y2="13.321" gradientUnits="userSpaceOnUse">
   <stop stop-color="#ffbc4c" offset="0"/>
   <stop stop-color="#ffd257" offset="1"/>
  </linearGradient>
  <linearGradient id="linearGradient1390" x1="32.523" x2="32.523" y1="59.752" y2="12.107" gradientUnits="userSpaceOnUse">
   <stop stop-color="#e1aa50" offset="0"/>
   <stop stop-color="#fabe55" offset="1"/>
  </linearGradient>
  <linearGradient id="linearGradient1478" x1="34.24" x2="34.24" y1="59.752" y2="12.393" gradientUnits="userSpaceOnUse">
   <stop stop-color="#64463c" offset="0"/>
   <stop stop-color="#785546" offset="1"/>
  </linearGradient>
  <linearGradient id="linearGradient1486" x1="53.159" x2="27.311" y1="22.141" y2="-1.5634" gradientUnits="userSpaceOnUse">
   <stop stop-color="#64463c" offset="0"/>
   <stop stop-color="#785546" offset="1"/>
  </linearGradient>
 </defs>
 <metadata>
  <rdf:RDF>
   <cc:Work rdf:about="">
    <dc:format>image/svg+xml</dc:format>
    <dc:type rdf:resource="http://purl.org/dc/dcmitype/StillImage"/>
    <dc:title/>
   </cc:Work>
  </rdf:RDF>
 </metadata>
 <circle cx="-330.35" cy="-328.38" r="0" fill="#5e4aa6" stroke-width=".26458"/>
 <g id="Folder" transform="matrix(.22392 0 0 .23115 1.4289 1.8395)" fill="url(#linearGradient1486)">
  <g fill="url(#linearGradient1486)">
   <path d="m60 4.001h-33.21c0-1.7404-1.2803-4.001-4-4.001h-18.79c-2.209 0-4 1.792-4 4.001v12c0 2.209 1.791 4 4 4h56c2.209 0 4-1.791 4-4v-8.001c0-2.209-1.791-3.999-4-3.999z" clip-rule="evenodd" fill="url(#linearGradient1486)" fill-rule="evenodd"/>
  </g>
 </g>
 <g id="File_1_" transform="matrix(.23115 0 0 .23115 1.1974 1.8395)">
  <path d="m55.553 6.4333-47.896 3.1594c-2.2042 0.1454-3.8734 2.0504-3.728 4.2556l0.26329 3.9913c0.1454 2.2042 2.0504 3.8734 4.2546 3.728l47.896-3.1594c2.2042-0.1454 3.8734-2.0504 3.728-4.2546l-0.26329-3.9913c-0.14546-2.2052-2.0505-3.8744-4.2547-3.729z" fill="#fff"/>
 </g>
 <g id="Folder_1_" transform="matrix(.23115 0 0 .23115 1.1974 1.8395)" fill="url(#linearGradient1371)">
  <g fill="url(#linearGradient1390)">
   <path d="m60 12.001h-56c-2.209 0-4 1.791-4 4v40c0 2.209 1.791 4 4 4h56c2.209 0 4-1.791 4-4v-40c0-2.209-1.791-4-4-4z" fill="url(#linearGradient1478)"/>
  </g>
 </g>
 <circle cx="-330.17" cy="-334.81" r="0" fill="#5e4aa6" stroke-width=".26458"/>
 <circle cx="-307.74" cy="-329.29" r="0" fill="#5e4aa6" stroke-width=".26458"/>
 <path class="ColorScheme-Text" d="m8.6144 8.0702c-0.03161 0-0.06315 0.01168-0.09233 0.029285l-0.16157 0.09306c-0.10373 0.060036-0.13778 0.19204-0.0779 0.2966l1.4023 2.4485 0.51357-0.34601-1.3821-2.4108c-0.03743-0.06516-0.10105-0.10565-0.17024-0.11049-0.01038-0.0013-0.02119 0-0.03174 0zm-0.49624 0.8346c-0.069186 0.0074-0.13568 0.04247-0.17312 0.10756l-0.14138 0.24426 0.53378 0.31118 0.14138-0.24426c0.05989-0.10457 0.02583-0.23627-0.0779-0.2966l-0.1587-0.09306c-0.0389-0.02269-0.08256-0.03222-0.12406-0.0293zm-0.40394 0.51178-1.2089 2.1142 0.53378 0.30823 1.2089-2.1113zm-1.7658 0.94803v0.62229h0.7156l0.35489-0.62229zm2.0889 0-0.35489 0.62229h1.8783l-0.35778-0.62229zm2.1841 0 0.35778 0.62229h0.66079v-0.62229zm0.06929 0.38673-0.51357 0.34603 0.25678 0.44787 0.51357-0.34603zm0.34911 0.61071-0.51357 0.34603c0.01529 0.61867 0.48411 0.54164 0.6636 0.92766 0.34178-0.36676 0.23842-0.93066-0.15003-1.2738zm-4.2271 0.3286-0.27988 1.0091 0.8136-0.69798z" fill="#fff" stroke-width=".16536"/>
</svg>
