<?xml version="1.0" encoding="UTF-8"?>
<!-- Created with Inkscape (http://www.inkscape.org/) -->
<svg width="64" height="64" version="1.1" viewBox="0 0 16.933 16.933" xmlns="http://www.w3.org/2000/svg" xmlns:cc="http://creativecommons.org/ns#" xmlns:dc="http://purl.org/dc/elements/1.1/" xmlns:rdf="http://www.w3.org/1999/02/22-rdf-syntax-ns#" xmlns:xlink="http://www.w3.org/1999/xlink">
 <defs>
  <linearGradient id="linearGradient1371" x1="32.523" x2="32.523" y1="59.752" y2="13.321" gradientUnits="userSpaceOnUse">
   <stop stop-color="#ffbc4c" offset="0"/>
   <stop stop-color="#ffd257" offset="1"/>
  </linearGradient>
  <linearGradient id="linearGradient1390" x1="32.523" x2="32.523" y1="59.752" y2="12.107" gradientUnits="userSpaceOnUse">
   <stop stop-color="#e1aa50" offset="0"/>
   <stop stop-color="#fabe55" offset="1"/>
  </linearGradient>
  <linearGradient id="linearGradient1478" x1="34.24" x2="34.24" y1="59.752" y2="12.393" gradientUnits="userSpaceOnUse">
   <stop stop-color="#dc5a8c" offset="0"/>
   <stop stop-color="#ff6ea0" offset="1"/>
  </linearGradient>
  <linearGradient id="linearGradient1486" x1="53.159" x2="27.311" y1="22.141" y2="-1.5634" gradientUnits="userSpaceOnUse">
   <stop stop-color="#dc5a8c" offset="0"/>
   <stop stop-color="#ff6ea0" offset="1"/>
  </linearGradient>
 </defs>
 <metadata>
  <rdf:RDF>
   <cc:Work rdf:about="">
    <dc:format>image/svg+xml</dc:format>
    <dc:type rdf:resource="http://purl.org/dc/dcmitype/StillImage"/>
    <dc:title/>
   </cc:Work>
  </rdf:RDF>
 </metadata>
 <circle cx="-330.35" cy="-328.38" r="0" fill="#5e4aa6" stroke-width=".26458"/>
 <g id="Folder" transform="matrix(.22392 0 0 .23115 1.4289 1.8395)" fill="url(#linearGradient1486)">
  <g fill="url(#linearGradient1486)">
   <path d="m60 4.001h-33.21c0-1.7404-1.2803-4.001-4-4.001h-18.79c-2.209 0-4 1.792-4 4.001v12c0 2.209 1.791 4 4 4h56c2.209 0 4-1.791 4-4v-8.001c0-2.209-1.791-3.999-4-3.999z" clip-rule="evenodd" fill="url(#linearGradient1486)" fill-rule="evenodd"/>
  </g>
 </g>
 <g id="File_1_" transform="matrix(.23115 0 0 .23115 1.1974 1.8395)">
  <path d="m55.553 6.4333-47.896 3.1594c-2.2042 0.1454-3.8734 2.0504-3.728 4.2556l0.26329 3.9913c0.1454 2.2042 2.0504 3.8734 4.2546 3.728l47.896-3.1594c2.2042-0.1454 3.8734-2.0504 3.728-4.2546l-0.26329-3.9913c-0.14546-2.2052-2.0505-3.8744-4.2547-3.729z" fill="#fff"/>
 </g>
 <g id="Folder_1_" transform="matrix(.23115 0 0 .23115 1.1974 1.8395)" fill="url(#linearGradient1371)">
  <g fill="url(#linearGradient1390)">
   <path d="m60 12.001h-56c-2.209 0-4 1.791-4 4v40c0 2.209 1.791 4 4 4h56c2.209 0 4-1.791 4-4v-40c0-2.209-1.791-4-4-4z" fill="url(#linearGradient1478)"/>
  </g>
 </g>
 <circle cx="-330.17" cy="-334.81" r="0" fill="#5e4aa6" stroke-width=".26458"/>
 <path d="m10.617 8.6767h-0.77814l-0.21789-0.32684c-0.06225-0.093375-0.15564-0.14006-0.26458-0.14006h-1.5408c-0.10894 0-0.20232 0.046688-0.26458 0.14006l-0.20232 0.32684h-0.77814c-0.34239 0-0.62253 0.28011-0.62253 0.62253v2.6457c0 0.34242 0.28014 0.62254 0.62253 0.62254h4.0465c0.34239 0 0.62253-0.28011 0.62253-0.62254v-2.6457c0-0.34242-0.28014-0.62253-0.62253-0.62253zm-3.8909 1.0894c-0.1712 0-0.31127-0.14009-0.31127-0.31126 0-0.17121 0.14007-0.31128 0.31127-0.31128s0.31127 0.14007 0.31127 0.31128c0 0.17116-0.14007 0.31126-0.31127 0.31126zm1.8676 2.0232c-0.68479 0-1.2451-0.56027-1.2451-1.2451 0-0.68476 0.56028-1.245 1.2451-1.245 0.68479 0 1.2451 0.56027 1.2451 1.245 0 0.6848-0.56029 1.2451-1.2451 1.2451z" fill="#fff" stroke-width=".44467"/>
</svg>
