<?xml version="1.0" encoding="UTF-8"?>
<!-- Created with Inkscape (http://www.inkscape.org/) -->
<svg width="64" height="64" version="1.1" viewBox="0 0 16.933 16.933" xmlns="http://www.w3.org/2000/svg" xmlns:cc="http://creativecommons.org/ns#" xmlns:dc="http://purl.org/dc/elements/1.1/" xmlns:rdf="http://www.w3.org/1999/02/22-rdf-syntax-ns#" xmlns:xlink="http://www.w3.org/1999/xlink">
 <defs>
  <linearGradient id="linearGradient1371" x1="32.523" x2="32.523" y1="59.752" y2="13.321" gradientUnits="userSpaceOnUse">
   <stop stop-color="#ffbc4c" offset="0"/>
   <stop stop-color="#ffd257" offset="1"/>
  </linearGradient>
  <linearGradient id="linearGradient1390" x1="32.523" x2="32.523" y1="59.752" y2="12.107" gradientUnits="userSpaceOnUse">
   <stop stop-color="#e1aa50" offset="0"/>
   <stop stop-color="#fabe55" offset="1"/>
  </linearGradient>
  <linearGradient id="linearGradient1478" x1="34.24" x2="34.24" y1="59.752" y2="12.393" gradientUnits="userSpaceOnUse">
   <stop stop-color="#8255ff" offset="0"/>
   <stop stop-color="#8273ff" offset="1"/>
  </linearGradient>
  <linearGradient id="linearGradient1486" x1="53.159" x2="27.311" y1="22.141" y2="-1.5634" gradientUnits="userSpaceOnUse">
   <stop stop-color="#8255ff" offset="0"/>
   <stop stop-color="#8273ff" offset="1"/>
  </linearGradient>
 </defs>
 <metadata>
  <rdf:RDF>
   <cc:Work rdf:about="">
    <dc:format>image/svg+xml</dc:format>
    <dc:type rdf:resource="http://purl.org/dc/dcmitype/StillImage"/>
    <dc:title/>
   </cc:Work>
  </rdf:RDF>
 </metadata>
 <circle cx="-330.35" cy="-328.38" r="0" fill="#5e4aa6" stroke-width=".26458"/>
 <g id="Folder" transform="matrix(.22392 0 0 .23115 1.4289 1.8395)" fill="url(#linearGradient1486)">
  <g fill="url(#linearGradient1486)">
   <path d="m60 4.001h-33.21c0-1.7404-1.2803-4.001-4-4.001h-18.79c-2.209 0-4 1.792-4 4.001v12c0 2.209 1.791 4 4 4h56c2.209 0 4-1.791 4-4v-8.001c0-2.209-1.791-3.999-4-3.999z" clip-rule="evenodd" fill="url(#linearGradient1486)" fill-rule="evenodd"/>
  </g>
 </g>
 <g id="File_1_" transform="matrix(.23115 0 0 .23115 1.1974 1.8395)">
  <path d="m55.553 6.4333-47.896 3.1594c-2.2042 0.1454-3.8734 2.0504-3.728 4.2556l0.26329 3.9913c0.1454 2.2042 2.0504 3.8734 4.2546 3.728l47.896-3.1594c2.2042-0.1454 3.8734-2.0504 3.728-4.2546l-0.26329-3.9913c-0.14546-2.2052-2.0505-3.8744-4.2547-3.729z" fill="#fff"/>
 </g>
 <g id="Folder_1_" transform="matrix(.23115 0 0 .23115 1.1974 1.8395)" fill="url(#linearGradient1371)">
  <g fill="url(#linearGradient1390)">
   <path d="m60 12.001h-56c-2.209 0-4 1.791-4 4v40c0 2.209 1.791 4 4 4h56c2.209 0 4-1.791 4-4v-40c0-2.209-1.791-4-4-4z" fill="url(#linearGradient1478)"/>
  </g>
 </g>
 <g fill="#5e4aa6" stroke-width=".26458">
  <circle cx="-330.17" cy="-334.81" r="0"/>
  <circle cx="-307.74" cy="-329.29" r="0"/>
  <circle cx="-336.14" cy="-342.84" r="0"/>
 </g>
 <path d="m8.5941 8.2021c-0.082382 0-0.16526 0.00664-0.24551 0.014979a2.3336 2.3336 0 0 0-0.46148 0.089291 2.3919 2.3919 0 0 0-1.5699 1.5699 2.3336 2.3336 0 0 0-0.089293 0.46147 2.3884 2.3884 0 0 0-0.015004 0.2455c0 0.08238 0.00676 0.16526 0.015004 0.2455a2.3336 2.3336 0 0 0 0.089293 0.46147 2.3919 2.3919 0 0 0 1.5699 1.5699 2.3336 2.3336 0 0 0 0.46148 0.08954c0.080246 0.0081 0.16311 0.01476 0.24551 0.01476s0.16525-0.0067 0.24551-0.01498a2.3336 2.3336 0 0 0 0.46147-0.08905 2.4324 2.4324 0 0 0 0.43146-0.18621 2.3768 2.3768 0 0 0 1.1388-1.384 2.3336 2.3336 0 0 0 0.08905-0.46147c0.0084-0.08025 0.015-0.16311 0.015-0.2455 0-0.08214-0.0068-0.16549-0.015-0.2455a2.3336 2.3336 0 0 0-0.08905-0.46149 2.3979 2.3979 0 0 0-0.4391-0.811c-0.048598-0.058809-0.10239-0.10977-0.15644-0.16383-0.21503-0.21502-0.46647-0.39313-0.75146-0.51339a2.4674 2.4674 0 0 0-0.22312-0.081675 2.3336 2.3336 0 0 0-0.46147-0.089291 2.456 2.456 0 0 0-0.24551-0.014979zm0 0.23811c0.36026 0 0.69912 0.088346 0.9972 0.2455 0.00784 0.00442 0.014319 0.010699 0.022123 0.014979 0.00595 0.00789 0.00451 0.016455 0.015004 0.022136 0.00766 0.00442 0.015004 0.011142 0.022123 0.014979 0.012607 0.00752 0.02498 0.017635 0.022348 0.029737-0.00306 0.017857-0.032396 0.016676-0.044543 0.02981 0.00144 0.024941-0.00856 0.020218-0.015004 0.037115 0.00378 0.010921 0.013346 0.00952 0.015004 0.022431-0.00225 0.013798-0.020249 0.015422-0.015004 0.029737 0.023321 0.018078 0.044994 0.00296 0.067125 0 0.048301-0.0059 0.089059 7.379e-4 0.11907-0.022358-0.00306-0.018594 0.014247-0.023759 0.022123-0.037115 0.015977 0.011142 0.029323 0.025752 0.044777 0.037115-0.00907 0.00369-0.029017 0.00974-0.037352 0.014979-0.011922 0.00812-0.015743 0.020734-0.029548 0.029737-0.00998 0.00664-0.03427 0.029737-0.044777 0.029737-0.012607 0-0.035703-0.010478-0.044777-0.00768-0.012823 0.00369-0.00766 0.024719-0.022123 0.029737-0.028575 0.010478-0.079291-0.027818-0.089293 0.014979 0.011922 0.024719 0.052644 0.016455 0.074317 0.029737 0.01358 0.00856 0.033829 0.052463 0.037424 0.066925a0.17454 0.17454 0 0 1 0 0.067147c-0.01358 0.034532-0.049499 0.030475-0.089537 0.029737-0.010723 0-0.019798 7.379e-4 -0.029557 0-0.067125-0.00442-0.13335-0.025752-0.16383 0.022136 0.00225 0.036893 0.00829 0.057111 0 0.089291-0.00595 0.023317-0.030972 0.039329-0.029774 0.059547 4.884e-4 0.010478 0.019798 0.030475 0.022348 0.044789 0.00144 0.0077-0.00378 0.02287 0 0.02974 0.011174 0.02125 0.039524-0.0037 0.059547 0 0.01905 3e-3 0.037127 0.03099 0.037127 0.05187a0.13597 0.13597 0 0 1-0.015004 0.05955c-0.01905 0.02856-0.054519 0.02169-0.081688 0.03734-0.022646 0.01284-0.031197 0.04435-0.044777 0.06693-0.014319 0.02428-0.027827 0.03239-0.022123 0.06692a0.16074 0.16074 0 0 1-0.081913 0.08191 0.23526 0.23526 0 0 0-0.037352 0.02243 0.1886 0.1886 0 0 0-0.029548 0.02974c-0.01522 0.01668-0.036451 0.02405-0.044777 0.03712-0.00595 0.01-7.381e-4 0.03121-0.00748 0.04479-0.00952 0.01808-0.025277 0.03379-0.037352 0.05187-0.00523 0.0087-0.016202 0.01859-0.022123 0.02981-0.013796 0.02523-0.032396 0.04501-0.029774 0.06714 0.00225 0.02125 0.028575 0.02597 0.029774 0.04457 0.00144 0.01048-0.00784 0.01859-0.00766 0.02974 7.029e-4 0.01667 0.00595 0.02428 0.00766 0.03712 0.00306 0.03217-0.016428 0.04501-0.02242 0.06714-0.00306 0.01026 0.00225 0.02147 0 0.02951-0.00523 0.01623-0.029323 0.02575-0.029773 0.04479-4.885e-4 0.01335 0.020924 0.02576 0.022348 0.04479 7.38e-4 0.01291-0.00998 0.02494-0.00766 0.03712 0.00451 0.02331 0.048824 0.05615 0.067126 0.07432 0.024529 0.02472 0.048598 0.04096 0.059547 0.06714 0.00907 0.02192 0.012823 0.05792 0.029774 0.07432 0.012373 0.01196 0.035928 0.01719 0.051896 0.02981 0.01522 0.01195 0.036226 0.01719 0.052428 0.02981 0.026169 0.02066 0.061872 0.06265 0.10405 0.05955 0.021897-0.0014 0.042146-0.01048 0.066891-0.01498 0.025502-0.0044 0.055942-0.01742 0.081913-0.01476 0.019798 0.0023 0.038542 0.01623 0.059547 0.01498 0.021447-0.0014 0.049797-0.01173 0.074317-0.02236 0.042903-0.0186 0.10882-0.05387 0.17121-0.04479 0.047625 0.0076 0.048598 0.06073 0.081913 0.08191 0.0381 3e-3 0.06645-0.0076 0.096665 0 0.02287 0.0059 0.05002 0.04885 0.05212 0.06693 0.0023 0.0186-0.01237 0.03305-0.015 0.04479-6e-3 0.02494-0.0105 0.05837-0.01477 0.07432-0.0038 0.01262-0.0078 0.02472-0.0077 0.03733 0 0.01114 0.01807 0.03712 0.03 0.05187 0.01432 0.0183 0.0348 0.03217 0.0519 0.05209 0.03165 0.03645 0.04499 0.08573 0.06712 0.13406 0.0052 0.01196-0.0052 0.01424 0 0.02959-0.0095 0.07283-0.03428 0.12048-0.0819 0.20097-0.02265 0.0262-0.04523 0.05689-0.04478 0.08929-0.0014 0.07786 0.04072 0.11811 0.03742 0.19359-0.0078 0.1012 2.35e-4 0.11691-0.0077 0.17096 0.03427 0.01741 0.0174 0.06832 0.0077 0.1043-0.01477 0.04279-0.0291 0.05335-0.03742 0.08191a0.095241 0.095241 0 0 0 0.05212 0.0076 2.1414 2.1414 0 0 1-1.5478 0.65483 2.1389 2.1389 0 0 1-0.80362-0.15621c-7.128e-4 -4.69e-4 7.2e-4 -0.0076 0-0.0077 0.022645-0.0095 0.065476 0.01668 0.081922-0.01476 0.00811-0.0152-0.010949-0.04434 0-0.05955 0.00766-0.01048 0.058348-0.01978 0.074317-0.02236 0.023096-0.0037 0.046652 7.38e-4 0.059547-0.0076a0.067864 0.067864 0 0 0 0.029774-0.05955c-0.00144-0.01262-0.012373-0.0186-0.022123-0.02981-0.00829-0.0095-0.00225-0.02125-0.00766-0.02974-0.010201-0.0152-0.025502-0.02266-0.029774-0.04479 0.031197-0.0059 0.0741 0.03505 0.11907 0.02236 0.021447-0.0059 0.05715-0.04686 0.067126-0.06693 0.00306-0.0059-0.00378-0.02981 0-0.03712 0.00378-0.0084 0.013346-0.0107 0.01477-0.01498 0.00306-0.01166-0.00225-0.01498 0-0.02213 0.00784-0.02214 0.031648-0.03623 0.044777-0.05239 0.00975-0.01196 0.020474-0.02449 0.029774-0.03712 0.010201-0.01336 0.01522-0.01786 0.022123-0.02958 0.00676-0.03955-0.024295-0.06973-0.01477-0.10429 0.010201-0.03911 0.066675-0.06427 0.10404-0.08192 0.01313-0.0059 0.026403-0.0183 0.037424-0.02213 0.025953-0.0093 0.057366-0.0059 0.08167-0.01498 0.040722-0.01476 0.054753-0.05955 0.074551-0.09667 0.00953-0.01742 0.020474-0.03217 0.022123-0.04479 0.00225-0.01115-0.00225-0.02405 0-0.03712 0.00225-0.01284 0.00378-0.02287 0.00766-0.03712a0.3786 0.3786 0 0 0 0.00748-0.07454c0-0.01719-0.00748-0.02147-0.00748-0.03712-0.00306-0.05615 0.016428-0.05858 0.037118-0.08929 0.010498-0.0152 0.015004-0.04117 0.02242-0.0521 0.035027-0.05187 0.093583-0.07739 0.089293-0.1562-0.00144-0.0262-0.010724-0.08096-0.029774-0.0893-0.010949-0.0044-0.036226-0.0014-0.052122-0.0076-0.051221-0.01904-0.088104-0.07762-0.14143-0.0819-0.011174-4.69e-4 -0.017176 4.88e-4 -0.029774 0-0.020699-4.69e-4 -0.04357-0.01977-0.066891-0.02236-0.01477-0.0014-0.043354 0.0044-0.052122 0-0.013346-0.0059-0.011399-0.02974-0.022123-0.03712-0.00883-0.0059-0.023772-0.01-0.037352-0.01498a0.1774 0.1774 0 0 0-0.059547-0.01476c-0.00766-4.87e-4 -0.028566 0.0014-0.037118 0-0.013346-0.0023-0.024745-0.01454-0.037127-0.02236-0.015743-0.0095-0.023321-0.01623-0.029774-0.02974 0.014247-0.04663-0.035252-0.05453-0.044777-0.08168-0.00451-0.01262 0.00451-0.03335 0-0.04479-0.00523-0.01601-0.019275-0.02376-0.037127-0.03712-0.030981-0.02428-0.059547-0.04642-0.1043-0.05209-0.019798-0.0023-0.042903 0.0014-0.066675 0a0.11596 0.11596 0 0 1-0.074551-0.03719c-0.018302-0.02147-0.021447-0.04214-0.037352-0.05209-0.015004-0.0095-0.041695-0.0124-0.051896-0.02243-0.00451-0.0044-0.00306-0.0124-0.00766-0.02213-0.00766-0.01572-0.024295-0.01837-0.01477-0.03733-0.017401-0.0086-0.011174 0.01092-0.029774 0.0077-0.016644-0.02376-0.0288-0.03712-0.0669-0.02995-0.017401 0.0037-0.031945 0.02951-0.052122 0.02995-0.016644 4.89e-4 -0.029999-0.02693-0.052122-0.02995-0.016644-0.0023-0.040497 0.01763-0.051896 0.01498-0.018825-3e-3 -0.020474-0.02597-0.037352-0.03712-0.012372-0.0084-0.037649-0.03025-0.044543-0.02974-0.021672 4.89e-4 -0.037127 0.04575-0.067125 0.02974-0.014553-0.0186 0.024979-0.02 0.00766-0.03733-0.013129-0.01284-0.019501 7.03e-4 -0.029774 0.0077-0.012156 0.0081-0.023844 0.01764-0.037424 0.02214-0.029773 0.01136-0.050923 0.01026-0.074317 0.02243-0.021447 0.01136-0.024745 0.02996-0.037127 0.05209-0.00998 0.01808-0.029548 0.04383-0.044777 0.04479-0.018077 0.0014-0.035703-0.02287-0.051896-0.03003-0.050022-0.02147-0.078101 0.01454-0.11906 0.01498-0.0381 4.68e-4 -0.091204-0.06073-0.089303-0.09667 0.00144-0.02213 0.012156-0.05475 0.01477-0.08192 0.00225-0.02147 0.021898-0.03955 0.022348-0.05955 4.803e-4 -0.0262-0.04238-0.04907-0.059547-0.0521-0.040722-0.0076-0.09525 0.01837-0.14144 0-0.00856-0.01476 0.017167-0.02287 0.022348-0.03712 0.00306-0.0084-0.00306-0.01335 0-0.02236 0.00523-0.0138 0.023096-0.02243 0.029774-0.03712 0.00451-0.01115 0.00225-0.03099 0.00748-0.04479 0.00595-0.01542 0.020924-0.02575 0.02242-0.03712 0.00144-0.01476-0.010724-0.03505-0.02242-0.04457a0.23192 0.23192 0 0 0-0.081913 0.01476c-0.046652 0.02147-0.034495 0.08215-0.08167 0.09692-0.016193 0.0051-0.041479 0.01196-0.059547 0.01476a2.1217 2.1217 0 0 1 0.1413-0.44643c0.016644 3e-3 0.030449 0.01358 0.044777 0.01498 0.039749 3e-3 0.041398-0.02738 0.074317-0.04479 0.03382 0.0044 0.05122-3e-3 0.081913 0 0.020699 0.0022 0.050472 0.02856 0.066891 0.02974 0.013796 4.79e-4 0.016644-0.01719 0.029774-0.01498 0.013129 0.0022 0.035027 0.02929 0.037352 0.04479 0.00225 0.01948-0.01313 0.03807-0.00766 0.05955 0.020474 0.02074 0.060223 0.03261 0.089293 0.04479 0.01905-0.01564 0.00306-0.05187 0-0.07455-4.722e-4 -0.01 0.00144-0.02074 0-0.02974-0.00225-0.01542-0.00748-0.03121-0.00748-0.04479 0-0.06191 0.047625-0.08716 0.089302-0.11145 0.017851-0.01048 0.036451-0.02951 0.052122-0.03734 0.021898-0.0107 0.033829-0.01195 0.051896-0.02214 0.033072-0.01859 0.063818-0.0383 0.089294-0.05955 0.011922-0.02811-0.00144-0.06169 0-0.08929 0.011922-0.0075 0.017401 0.0015 0.029774 0 0.020023-0.0044 0.026169-0.03335 0.037352-0.044789 0.00676-0.00664 0.029323-0.00834 0.037127-0.014758 0.020023-0.015643 0.020023-0.037853 0.037118-0.044789 0.00595-0.00222 0.020248-0.00442 0.029773-0.00752 0.01313-0.00369 0.031423-0.014979 0.052122-0.022431 0.013346-0.00442 0.046949-0.00222 0.052122-0.00752 0.00667-0.00664-0.00144-0.034754 0-0.044789 0.010201-0.048848 0.082634-0.050471 0.12644-0.066704 0.030224-0.011954 0.062845-0.036451 0.096674-0.030031-0.00676 0.023317-0.035252 0.016675-0.029774 0.044789 0.00748 0.039329 0.053095-0.00952 0.067125-0.014979 0.026169-0.011142 0.076912-0.017193 0.11144-0.029737 0.030449-0.010699 0.080724-0.03195 0.052122-0.066925-0.023853-0.00148-0.031197 0.021251-0.052122 0.029737-0.014247 0.00222-0.017617-0.00664-0.029774-0.00752-0.011706-4.87e-4 -0.018068 0.00952-0.029774 0.00752-0.011706-0.00222-0.027899-0.023317-0.029773-0.037115-0.00451-0.036451 0.037352-0.047593 0.052122-0.074547-0.00998-0.032836-0.054068-0.00222-0.081922-0.014758 0.00306-0.01948 0.014247-0.040731 0.037352-0.044789a0.14716 0.14716 0 0 1 0.074317 0.014979c0.00667 0.00516-0.00225 0.020513 0.00748 0.02981 0.011399 0.00996 0.029999 0.00222 0.044777 0 0.00523-0.024719-0.034045-0.013798-0.029774-0.02981 0.029323-0.019037 0.083103-0.010257 0.11906-0.014979 0.020699-0.00296 0.040948-0.019775 0.059547-0.029737 0.017176-0.00996 0.03382-0.023833 0.051896-0.00752 0.00523 0.017857-0.012372 0.028114-0.022123 0.037115-0.033378 0.029589-0.063377 0.062646-0.089293 0.096917 0.015977 0.015422 0.039974 0.00442 0.066891 0.00752 0.010498 0.00148 0.026169 0.0059 0.037127 0.00768 0.01313 0.00222 0.026926-0.00222 0.037352 0 0.018077 0.00442 0.01905 0.029737 0.037118 0.029737 0.029323 0 0.031648-0.024719 0.01477-0.044789 0.00523-0.020218 0.015004-0.037631 0.00766-0.051873-0.01358-0.026932-0.064269 0.00442-0.067126-0.029737-0.00144-0.021694 0.022123-0.028334 0.029774-0.044789-0.00306-0.041468 0.034045-0.044051 0.029774-0.081675-0.00225-0.015643-0.01905-0.0152-0.029774-0.029737-0.00523-0.00789-0.00829-0.024276-0.01477-0.029737-0.022646-0.019037-0.064269-0.016012-0.067126-0.052463-0.00144-0.021472 0.00306-0.035934 0-0.059547-0.00306-0.021915-0.025502-0.084767-0.044543-0.089055-0.024295-0.00516-0.0381 0.038517-0.0669 0.051873a0.11739 0.11739 0 0 1-0.059547 0.00768c-0.010498-0.00222-0.028566-0.00996-0.029774-0.02981-0.00144-0.011363 0.00225-0.015422 0.00748-0.022358 0.00144-0.00148-0.00144-0.0059 0-0.00752a2.1597 2.1597 0 0 1 0.5953-0.081919zm-0.8856 0.19359c-0.020924 0.067664-0.082147 0.1062-0.16358 0.10405-0.020023 0.019037-0.011706 0.055488-0.02242 0.081911a0.065721 0.065721 0 0 1-0.059547 0.037115c-0.015977-0.00148-0.044777-0.022136-0.044777-0.037115 0-0.012396 0.011922-0.026416 0.015004-0.037337a2.125 2.125 0 0 1 0.27527-0.14881zm1.8232 0.074319a0.065245 0.065245 0 0 0-0.022348 0.00752c-0.016644 0.00996-0.017401 0.024941-0.029774 0.029737-0.017851 0.00664-0.042146 0.00664-0.044777 0.022431-0.00225 0.013356 0.015455 0.017635 0.015004 0.029737-0.00676 0.016012-0.01905 0.017635-0.022348 0.037115 0.022123 0.035935 0.076912 4.804e-4 0.1043-0.00752 0.011922-0.00369 0.023096 0.00222 0.029548-0.00752 0.00748-0.011954 0.00144-0.035713 0.00766-0.052095 0.00595-0.018078 0.024529-0.013798 0.022123-0.029737-0.00144-0.016012-0.032621-0.032393-0.059547-0.029737zm-2.3591 0.27526c0.015977 0.019037 0.029323 0.04715 0 0.059547-0.00451 0.00222-0.056393 0.00952-0.0669 0.00768-0.00306-4.722e-4 -0.00451-0.00516-0.00748-0.00768 0.022654-0.022136 0.050698-0.038296 0.074317-0.059547zm0.059547 0.074547c0.010498 4.804e-4 0.017617 0.021472 0.029774 0.022136 0.011922 0.00148 0.030224-0.00952 0.037424-0.00752 0.018077 0.00442 0.024745 0.038517 0.00748 0.051873-0.014247 0.00148-0.01905-0.017193-0.029548-0.014979-0.029548 0.00516-0.037649 0.061392-0.059547 0.059547-0.020924-0.00222-0.036226-0.044347-0.015004-0.059547 4.722e-4 -0.012839-0.00829-0.016675-0.00748-0.02981 0.00667-0.00812 0.019726-0.023538 0.037118-0.022136zm-0.096665 0.014758c0.00595 0 0.00523-0.00222 0.00748 0-0.00306 0.023095-0.011922 0.026416-0.029774 0.037337a0.12191 0.12191 0 0 0-0.059547 0.081668c-0.00306 0.011954-0.037352 0.047593-0.051896 0.044789-0.034279-0.00752 0.014247-0.071943 0.022123-0.081911 0.00883-0.010921 0.019798-0.017635 0.029774-0.029737 0.00998-0.011953 0.012895-0.037631 0.02242-0.044789 0.010498-0.00752 0.041398-0.00812 0.059547-0.00752zm2.9319 0.059547c0.03405-0.00222 0.05122 0.038886 0.06668 0.059547 0.01313 0.016897 0.05332 0.04051 0.07455 0.052094 0.01216 0.00664 0.02384 0.016233 0.03742 0.022431 0.01403 0.0059 0.03524 0.014241 0.0519 0.029737 0.01664 0.0152 0.02932 0.038075 0.02977 0.051873 4.88e-4 0.01402-0.0095 0.024275-0.0075 0.037337 0.015 0.0022 0.02287-0.01284 0.02977-0.02981 0.05618 0.08001 0.10383 0.1655 0.14882 0.25288a0.028097 0.028097 0 0 0-0.015 0.02243c-0.0045 0.02428 0.01425 0.05527-0.02212 0.05955-0.0231 3e-3 -0.05025-0.02287-0.08192-0.02974-0.01282-3e-3 -0.03427 3e-3 -0.04478 0-0.02377-0.0083-0.01664-0.03785-0.03713-0.05209a0.16668 0.16668 0 0 0-0.05955-0.02214c-0.01171-0.0015-0.01762 0.0015-0.02977 0-0.01477-0.0022-0.03997 0-0.0519-0.0077-0.01192-0.0075-0.0417-0.01978-0.04478-0.02974-0.0045-0.01601 0.03645-0.03852 0.03713-0.05187 7.39e-4 -0.01048-0.0126-0.01424-0.01477-0.03003-0.0014-0.0095 0.0023-0.02354 0-0.02951-0.0031-0.01136-0.0195-0.02191-0.03735-0.02236-0.01545 0-0.03098 0.0075-0.04454 0.0075-0.01905 4.73e-4 -0.058123-0.0095-0.081913-0.0075-0.014247 0.0015-0.023772 0.0066-0.037127 0.0075-0.037649 3e-3 -0.059772-0.0022-0.089303 0-0.021447 0.0015-0.061872 0.01336-0.081913 0.02236-0.00998 0.0044-0.016644 0.01572-0.029774 0.02214-0.00595 3e-3 -0.014247 0.0037-0.022123 0.0077-0.012156 0.0052-0.033072 0.01904-0.044777 0.02214-0.016644 0.0044-0.036226-0.0015-0.066891 0-0.022123 0.0015-0.059024-3e-3 -0.059547-0.02951-4.686e-4 -0.04051 0.073578-0.02288 0.11145-0.03003 0.014247-3e-3 0.020023-0.01978 0.037352-0.02951 0.00811-0.0044 0.014247-0.0097 0.022123-0.01498 0.01313-0.0091 0.035252-0.02693 0.037352-0.03712 0.00144-0.00952-0.00874-0.022875-0.00766-0.029738 0.00144-0.00908 0.018068-0.018078 0.029999-0.029736 0.018068-0.018373 0.029548-0.04051 0.051896-0.052094 0.01522-0.00834 0.045228-0.010183 0.052122-0.022357 0.00144-0.013798-4.884e-4 -0.017193 0-0.029737 0.00953-0.00856 0.00676-0.013134 0.015004-0.014758 0.023321-0.00516 0.046949 0.00878 0.074317 0.00752 0.011922-4.722e-4 0.024745 7.378e-4 0.037127-0.00752 0.0105-0.00752 0.0195-0.017193 0.02977-0.022357 0.0114-0.0059 0.02332-0.021472 0.03735-0.022431zm-2.7312 0.022431c0.00595-7.379e-4 0.015455 7.165e-4 0.022655 0 0.00975-4.797e-4 0.01905 0 0.029773 0 0.010724 0 0.025268-0.00442 0.029774 0-0.00748 0.028556-0.074317 0.017857-0.096917 0.00752 7.128e-4 -0.00516 0.0093-0.00664 0.015004-0.00752zm-0.08167 0.052094c0.00748 0 0.014553-0.00296 0.02242 0-0.020023 0.016676-0.0474 0.026195-0.081922 0.037115-0.016644 0.00516-0.041696 0.010699-0.044777-0.00752-0.00306-0.022653 0.01522-0.020218 0.029773-0.022358 0.01905-0.00222 0.052428-0.00752 0.074551-0.00752zm2.8203 0c-0.01425 0.00442-0.02145 0.033352 0 0.037115 0.01-0.0059 0.01-0.019037 0.0075-0.037115-6e-3 -0.0059-0.0031-0.00148-0.0075 0zm-0.0077 0.059547c-0.0068 0.00222-0.01477-4.795e-4 -0.02212 0.00752 4.89e-4 0.024276 0.0045 0.038075 0 0.059547 0.0138 0.026932 0.04523 0.010699 0.0519-0.00752 0.0084-0.045231-0.0088-0.065229-0.02955-0.059547zm0.18621 0.11907a0.064054 0.064054 0 0 0-0.04478 0.01476c0.01619 0.02619 0.04598 0.03099 0.08191 0.03734 0.0129-0.0095 0.0088-0.03571 0.015-0.05239-0.01567 0-0.02572 0.0015-0.04478 0h-0.0075zm-3.7801 0.91501c0.01522 0.01948 0.031648 0.04213 0.051896 0.05246 0.010949 0.0051 0.023556 0.0044 0.037352 0.0076 0.011174 0.0023 0.01905 0.01173 0.029773 0.01498 0.022871 0.0079 0.056177 0.0067 0.074317 0.01498 0.027827 0.01196 0.043119 0.06043 0.067125 0.07432 0.00144 0.0138-0.00451 0.02693 0 0.03712 0.011174 0.0152 0.03382 0.0197 0.051896 0.02974 0.022123 0.01217 0.031422 0.04258 0.052122 0.05209 0.00748 3e-3 0.018599-3e-3 0.029774 0 0.028566 0.0086 0.034802 0.05187 0.059547 0.04479 0.015977-0.0044 0.019726-0.0293 0.022348-0.04479 0.010724-0.01196 0.020249-0.02974 0.037118-0.02974 0.026926-4.68e-4 0.034802 0.03335 0.044777 0.05955 0.00523 0.01476 0.018374 0.029 0.022123 0.04479a0.39052 0.39052 0 0 1 0 0.11906c-0.00676 0.01977-0.035703 0.03025-0.051896 0.05187-0.00784 0.01048-0.016428 0.02287-0.022348 0.02974-0.010498 0.01314-0.021898 0.01808-0.029774 0.02974-0.00451 0.0067-0.00378 0.02074-0.00766 0.02974-0.012823 0.02789-0.033072 0.04863-0.022123 0.08191 0.00451 0.01335 0.022123 0.02856 0.022123 0.04479 0 0.01903-0.041398 0.02376-0.044543 0.04457-0.00225 0.0152 0.017617 0.04663 0.02242 0.06693 0.00306 0.0152 0.028124 0.02738 0.037127 0.03741 0.01522 0.01668 0.030972 0.03786 0.044777 0.05955 0.027151 0.04191 0.039974 0.09286 0.066675 0.13383 0.014247 0.02147 0.042903 0.03689 0.052428 0.05955 0.00451 0.01115-0.00451 0.03423 0 0.04479 0.015455 0.03505 0.091195 0.07195 0.12619 0.08906 0.016644 0.0084 0.029773 0.0138 0.044777 0.02236 0.023105 0.01313 0.070271 0.03933 0.081922 0.05955 0.010498 0.0183 0.017176 0.06021 0.022348 0.0893 0.00667 0.03807-0.00144 0.07047 0 0.11168 0.00144 0.02236 0.00748 0.03689 0.00748 0.05955 0 0.0078 4.803e-4 0.02192 0 0.02974-4.722e-4 0.02694 0.00225 0.05475 0 0.08191a0.31004 0.31004 0 0 0 0 0.04457c0.00144 0.01358 0.014031 0.01808 0.015004 0.02974 7.38e-4 0.01262-0.016428 0.02738-0.015004 0.03741 0.00306 0.02715 0.031945 0.04929 0.037118 0.07432 0.00451 0.02 0.00998 0.06545 0.00766 0.08929-0.00225 0.01261-0.00595 0.03099-0.00766 0.04479-0.00144 0.0107 0.00144 0.01978 0 0.02951-0.59315-0.381-0.98954-1.0429-0.98954-1.8007 0-0.09715 0.00975-0.18906 0.022348-0.28288zm0.81838 0.21598c0.020924-0.0095 0.016878 0.02715 0 0.02974-0.015977 0.0023-0.015454-0.02243 0-0.02974z" color="#000000" fill="#fff" stroke-width=".23812"/>
</svg>
